<svg width="31" height="30" viewBox="0 0 31 30" fill="none" xmlns="http://www.w3.org/2000/svg">
<path fill-rule="evenodd" clip-rule="evenodd" d="M13.2569 15.7589L10.6684 15.7029L10.6884 12.5961L13.2845 12.5919C13.3341 11.6137 13.2408 10.5777 13.2979 9.60674C13.3237 9.16903 13.468 8.79871 13.6512 8.45145C13.8651 8.04619 14.0354 7.92593 14.3037 7.63815C14.6958 7.21757 15.5022 6.69882 16.3308 6.66894C17.0889 6.64161 18.5703 6.62418 19.3051 6.70877L19.3072 9.37726C18.1695 9.57541 17.1765 9.07348 16.5699 9.76947C16.1644 10.2347 16.2714 11.9399 16.3333 12.6531L19.3068 12.6537L18.9566 15.6093C18.3927 15.8308 17.0181 15.5805 16.2871 15.6809L16.2666 23.3338H13.2529L13.2569 15.7589L13.2569 15.7589ZM0 14.5334C0 17.7123 0.309365 18.6813 1.39062 21.3427C2.44041 23.9265 5.00468 26.5482 7.42811 27.9719C9.99286 29.4785 12.4351 30 15.4667 30C18.0824 30 20.5801 29.112 22.53 27.9966C24.3675 26.9455 26.0502 25.3867 27.2665 23.6665C28.3153 22.183 29.1069 20.481 29.561 18.6943C30.2864 15.8394 30.1229 12.7391 29.1591 9.9742C28.989 9.48618 28.7816 9.08129 28.6094 8.65728C28.4282 8.21144 28.2213 7.86278 27.9966 7.46998C27.357 6.3518 26.5234 5.29009 25.6167 4.38331C23.0129 1.77954 19.2535 0 15.4667 0C12.388 0 10.0866 0.506557 7.47003 2.00333C7.09797 2.21614 6.74255 2.45054 6.37281 2.70607C5.00289 3.65281 3.68865 4.98259 2.73355 6.33348C1.14471 8.58076 5.03811e-05 11.5807 5.03811e-05 14.5333L0 14.5334Z" fill="white"/>
</svg>
