<?xml version="1.0" encoding="UTF-8"?>
<!DOCTYPE svg PUBLIC "-//W3C//DTD SVG 1.1//EN" "http://www.w3.org/Graphics/SVG/1.1/DTD/svg11.dtd">
<!-- Creator: CorelDRAW -->
<svg xmlns="http://www.w3.org/2000/svg" xml:space="preserve" width="227px" height="89px" version="1.1" style="shape-rendering:geometricPrecision; text-rendering:geometricPrecision; image-rendering:optimizeQuality; fill-rule:evenodd; clip-rule:evenodd"
viewBox="0 0 227 88.93"
 xmlns:xlink="http://www.w3.org/1999/xlink"
 xmlns:xodm="http://www.corel.com/coreldraw/odm/2003">
 <defs>
  <style type="text/css">
   <![CDATA[
    .fil0 {fill:#D94220;fill-rule:nonzero}
   ]]>
  </style>
 </defs>
 <g id="Слой_x0020_1">
  <metadata id="CorelCorpID_0Corel-Layer"/>
  <g id="_1987454257136">
   <path class="fil0" d="M68.39 33.92l-6.66 6.65 6.66 6.71 0 33.24 -8.93 8.93c-16.9,0 -33.81,0 -50.71,0l-8.92 -8.93 0 -13.28 23.03 -4.36 0 15.02 22.64 -1.74 0 -28.29 -23.36 1.62 4.48 -15.57 18.88 0 0 -21.58 -22.64 2.37 0 8.07 -23.03 4.48 0 -26.72c19.88,0 39.75,0 59.63,0l8.93 8.93 0 24.45zm18.05 55.55l-8.93 -8.92 0 -71.06 8.93 -8.92c16.9,0 33.81,0 50.71,0l8.92 8.92 0 13.58 -0.02 0 -8.65 8.6 0 22.34 8.67 8.5 0 0 0 18.04 -8.92 8.92c-16.9,0 -33.81,0 -50.71,0zm13.96 -43.22l21.73 -32.4 -21.73 -1.66 0 34.06zm22.79 29.94l0 -32.42 -22.79 34.03 0 0.11 22.79 -1.72z"/>
   <g>
    <path class="fil0" d="M177.21 33.34l0 18.99 -6.26 6.15 -23.25 0 -6.26 -6.15 0 -18.99 6.26 -6.24 23.25 0 6.26 6.24zm-11.68 3.15l-12.3 -1.6 0 15.84 12.3 -1.54 0 -12.7z"/>
    <path class="fil0" d="M226.83 64.33l0 18.99 -6.26 6.15 -23.24 0 -6.27 -6.15 0 -18.99 6.27 -6.23 23.24 0 6.26 6.23zm-11.68 3.16l-12.3 -1.61 0 15.84 12.3 -1.53 0 -12.7z"/>
    <polygon class="fil0" points="159.31,89.47 195.5,27.1 209.12,27.1 172.93,89.47 "/>
   </g>
   <path class="fil0" d="M177.21 33.34l0 18.99 -6.26 6.15 -23.25 0 -6.26 -6.15 0 -18.99 6.26 -6.24 23.25 0 6.26 6.24zm-11.68 3.15l-12.3 -1.6 0 15.84 12.3 -1.54 0 -12.7z"/>
  </g>
 </g>
</svg>
