<?xml version="1.0" encoding="UTF-8"?>
<!DOCTYPE svg PUBLIC "-//W3C//DTD SVG 1.1//EN" "http://www.w3.org/Graphics/SVG/1.1/DTD/svg11.dtd">
<!-- Creator: CorelDRAW -->
<svg xmlns="http://www.w3.org/2000/svg" xml:space="preserve" width="224px" height="89px" version="1.1" style="shape-rendering:geometricPrecision; text-rendering:geometricPrecision; image-rendering:optimizeQuality; fill-rule:evenodd; clip-rule:evenodd"
viewBox="0 0 224 89.04"
 xmlns:xlink="http://www.w3.org/1999/xlink"
 xmlns:xodm="http://www.corel.com/coreldraw/odm/2003">
 <defs>
  <style type="text/css">
   <![CDATA[
    .fil0 {fill:#D94220;fill-rule:nonzero}
   ]]>
  </style>
 </defs>
 <g id="Слой_x0020_1">
  <metadata id="CorelCorpID_0Corel-Layer"/>
  <g id="_1987452856464">
   <path class="fil0" d="M72.77 0.54l-38.52 89.05c-7.78,0 -15.56,0 -23.34,0l34.14 -77.18 -23.52 1.92 0 7.42c-7.23,0 -14.47,0 -21.7,0l0 -21.21 72.94 0zm16.73 89.05l-6.25 0 -8.94 -8.93 0 -71.16 8.94 -8.93c16.92,0 33.85,0 50.78,0l8.93 8.93 0 13.6 -0.02 0 -8.66 8.62 0 22.36 8.68 8.52 0 0 0 18.06 -8.93 8.93 -44.53 0zm7.73 -43.28l21.76 -32.44 -21.76 -1.67 0 34.11zm22.82 29.98l0 -32.46 -22.82 34.08 0 0.1 22.82 -1.72z"/>
   <g>
    <path class="fil0" d="M174.14 33.38l0 19.02 -6.27 6.15 -23.27 0 -6.28 -6.15 0 -19.02 6.28 -6.24 23.27 0 6.27 6.24zm-11.7 3.16l-12.31 -1.61 0 15.86 12.31 -1.53 0 -12.72z"/>
    <path class="fil0" d="M223.83 64.42l0 19.02 -6.27 6.15 -23.28 0 -6.27 -6.15 0 -19.02 6.27 -6.24 23.28 0 6.27 6.24zm-11.7 3.16l-12.32 -1.61 0 15.86 12.32 -1.53 0 -12.72z"/>
    <polygon class="fil0" points="156.22,89.59 192.46,27.14 206.09,27.14 169.85,89.59 "/>
   </g>
   <path class="fil0" d="M174.14 33.38l0 19.02 -6.27 6.15 -23.27 0 -6.28 -6.15 0 -19.02 6.28 -6.24 23.27 0 6.27 6.24zm-11.7 3.16l-12.31 -1.61 0 15.86 12.31 -1.53 0 -12.72z"/>
  </g>
 </g>
</svg>
