<?xml version="1.0" encoding="UTF-8"?>
<!DOCTYPE svg PUBLIC "-//W3C//DTD SVG 1.1//EN" "http://www.w3.org/Graphics/SVG/1.1/DTD/svg11.dtd">
<!-- Creator: CorelDRAW -->
<svg xmlns="http://www.w3.org/2000/svg" xml:space="preserve" width="262px" height="245px" version="1.1" style="shape-rendering:geometricPrecision; text-rendering:geometricPrecision; image-rendering:optimizeQuality; fill-rule:evenodd; clip-rule:evenodd"
viewBox="0 0 262 245"
 xmlns:xlink="http://www.w3.org/1999/xlink"
 xmlns:xodm="http://www.corel.com/coreldraw/odm/2003">
 <defs>
  <style type="text/css">
   <![CDATA[
    .fil0 {fill:white}
    .fil1 {fill:#37787D;fill-rule:nonzero}
   ]]>
  </style>
 </defs>
 <g id="Слой_x0020_1">
  <metadata id="CorelCorpID_0Corel-Layer"/>
  <g id="_1832080233488">
   <g>
    <polygon class="fil0" points="73.83,221.02 188.17,221.02 194.94,245.5 131.34,245.5 118.81,240.95 107.04,245.5 67.05,245.5 "/>
    <path class="fil0" d="M39.95 31.76l41.47 0 6.3 6.56 8.76 -6.56 117.85 0 5.5 5.38 -5.32 12.93 33.42 0 14.07 24.37 -39.89 57.71 -11.41 6.29 -32.54 0 -10.32 25.09 -19.65 0 0 -7.84 -9.7 7.84 -38.53 0 -8.3 -6.07 -9.3 -22.61 -2.29 3.59 -35.83 0 -44.24 -64 14.07 -24.37 33.42 0 -7.54 -18.31zm164.49 42.79l-18.99 46.18 22.47 0 25.77 -46.18 -29.25 0zm-127.89 46.18l-10.16 -24.71 3.3 -7.76 -6.89 -0.98 -5.24 -12.73 -29.25 0 25.77 46.18 22.47 0z"/>
    <polygon class="fil0" points="35.88,0.5 156.97,0.5 179.69,4.06 197.21,0.5 235.18,0.5 238.79,9.22 232.3,24.98 29.7,24.98 22.03,6.35 "/>
    <polygon class="fil0" points="100.93,214.24 154.07,214.24 160.02,207.45 154.29,170.3 107.71,170.3 "/>
   </g>
   <path class="fil1" d="M148.61 124.44l0 14.45c-11.74,0 -23.48,0 -35.22,0l0 -14.45 7.29 0 0 -53.74 -7.29 0 0 -14.31 27.93 0 0 68.05 7.29 0z"/>
  </g>
 </g>
</svg>
