<?xml version="1.0" encoding="UTF-8"?>
<!DOCTYPE svg PUBLIC "-//W3C//DTD SVG 1.1//EN" "http://www.w3.org/Graphics/SVG/1.1/DTD/svg11.dtd">
<!-- Creator: CorelDRAW -->
<svg xmlns="http://www.w3.org/2000/svg" xml:space="preserve" width="362px" height="768px" version="1.1" style="shape-rendering:geometricPrecision; text-rendering:geometricPrecision; image-rendering:optimizeQuality; fill-rule:evenodd; clip-rule:evenodd"
viewBox="0 0 362 768"
 xmlns:xlink="http://www.w3.org/1999/xlink"
 xmlns:xodm="http://www.corel.com/coreldraw/odm/2003">
 <defs>
  <style type="text/css">
   <![CDATA[
    .fil1 {fill:#942815}
    .fil2 {fill:#D94220}
    .fil0 {fill:white}
   ]]>
  </style>
 </defs>
 <g id="Слой_x0020_1">
  <metadata id="CorelCorpID_0Corel-Layer"/>
  <g id="_2667933091408">
   <polygon class="fil0" points="80.72,741.69 95.38,745.36 177.67,672.5 177.67,76.18 98.97,11.13 80.72,18.64 -0.84,57.96 -0.84,707.43 "/>
   <g>
    <path class="fil1" d="M58.3 1.22l-59.14 13.98 0 85.53c8.22,-1.36 15.82,2.19 21.31,8.9 5.54,6.76 9,16.81 9,28.49 0,11.68 -3.46,22.78 -9,31.1 -5.49,8.27 -13.09,13.86 -21.31,14.82l0 155.67c8.22,-0.2 15.82,4.37 21.31,11.86 5.54,7.55 9,17.98 9,29.66 0,11.67 -3.46,22.34 -9,29.88 -5.49,7.49 -13.09,12 -21.31,11.8l0 155.67c8.22,0.96 15.82,6.62 21.31,14.89 5.54,8.32 9,19.32 9,31.03 0,11.71 -3.46,21.74 -9,28.5 -5.49,6.71 -13.09,10.09 -21.31,8.72l0 91.41 63.17 14.93 18.39 -26.37 0 -491.78 -22.85 8.19 22.85 -38.55 0 -200.91 -22.42 -17.42z"/>
    <polygon class="fil2" points="338.12,66.31 216.08,31.16 195.63,36.15 178.58,20.36 108.11,0.06 95.38,15.47 95.38,217.65 145.11,220.11 95.38,243.79 95.38,383.69 108.92,421.47 95.38,464.43 95.38,745.36 115.73,766.08 234.44,731.88 239.29,710.49 261.6,724.06 317.71,707.9 361.16,649.34 361.16,404.48 296.87,340.15 361.16,275.82 361.16,87.7 "/>
   </g>
  </g>
 </g>
</svg>
