<?xml version="1.0" encoding="UTF-8"?>
<!DOCTYPE svg PUBLIC "-//W3C//DTD SVG 1.1//EN" "http://www.w3.org/Graphics/SVG/1.1/DTD/svg11.dtd">
<!-- Creator: CorelDRAW -->
<svg xmlns="http://www.w3.org/2000/svg" xml:space="preserve" width="2000px" height="414px" version="1.1" style="shape-rendering:geometricPrecision; text-rendering:geometricPrecision; image-rendering:optimizeQuality; fill-rule:evenodd; clip-rule:evenodd"
viewBox="0 0 2000 414.12"
 xmlns:xlink="http://www.w3.org/1999/xlink"
 xmlns:xodm="http://www.corel.com/coreldraw/odm/2003">
 <defs>
  <style type="text/css">
   <![CDATA[
    .fil1 {fill:#942815;fill-rule:nonzero}
    .fil2 {fill:white;fill-rule:nonzero}
    .fil0 {fill:url(#id0)}
   ]]>
  </style>
  <linearGradient id="id0" gradientUnits="userSpaceOnUse" x1="395.1" y1="352.12" x2="2291.84" y2="44.1">
   <stop offset="0" style="stop-opacity:1; stop-color:#D94220"/>
   <stop offset="1" style="stop-opacity:1; stop-color:#942815"/>
  </linearGradient>
 </defs>
 <g id="Слой_x0020_1">
  <metadata id="CorelCorpID_0Corel-Layer"/>
  <g id="_1987681863728">
   <polygon class="fil0" points="0,184.84 2000,414.12 2000,229.28 0,0 "/>
   <path class="fil1" d="M118.12 70.12l7.16 9.01 -1.38 12.04 -15.54 2.36 1.39 -12.18 -25.96 -4.94 -6.92 60.43 26.41 1.01 1.4 -12.06 14.6 5.68 -1.38 12.06 -9.01 7.17 -40.31 -4.62 -7.16 -9.02 7.39 -64.4 9.01 -7.17 40.3 4.63zm85.27 81.13l-1.17 10.15 -21.06 -2.42 -10.24 -37.84 -11.79 -1.35 -4.15 36.19 -15.22 -1.75 8.08 -70.5 -6.99 -0.8 1.16 -10.1 22.21 2.55 -3.48 30.29 19.01 2.18 14.58 -29.02 15.12 1.73 -21.15 42.57 6.86 27.18 8.23 0.94zm79.49 -54.05l-7.39 64.4 -9.01 7.16 -40.3 -4.62 -7.16 -9.01 7.38 -64.41 9.01 -7.16 40.31 4.62 7.16 9.02zm-15.53 2.22l-25.97 -4.94 -6.92 60.43 26.41 1.01 6.48 -56.5zm94.79 6.86l-4.96 43.32 -9.04 7.16 -33.29 -3.82 -1.27 11.04 7.13 0.81 -1.15 10.06 -22.21 -2.55 8.08 -70.48 -6.97 -0.8 1.16 -10.1 55.36 6.35 7.16 9.01zm-15.53 2.23l-26.1 -4.96 -4.5 39.23 26.55 1.07 4.05 -35.34zm94.8 6.86l-7.39 64.41 -9.01 7.16 -40.3 -4.62 -7.16 -9.02 7.38 -64.4 9.01 -7.16 40.3 4.62 7.17 9.01zm-15.54 2.22l-25.96 -4.94 -6.92 60.43 26.41 1.01 6.47 -56.5zm130.2 10.93l-7.38 64.4 -9.02 7.16 -40.3 -4.62 -7.16 -9.01 7.39 -64.41 9.01 -7.16 40.3 4.62 7.16 9.02zm-15.53 2.22l-25.96 -4.94 -6.93 60.43 26.41 1.01 6.48 -56.5zm91.64 -1.72l-1.97 17.14 -10.05 -1.15 0.74 -6.42 -12.09 -2.15 -6.94 60.49 7.13 0.82 -1.16 10.15 -29.2 -3.35 1.16 -10.15 6.99 0.81 6.94 -60.5 -12.13 -0.63 -0.74 6.42 -10.05 -1.15 1.97 -17.14 59.4 6.81zm70.16 79.43l-1.17 10.15 -21.06 -2.42 -10.24 -37.84 -11.79 -1.35 -4.15 36.19 -15.22 -1.74 8.08 -70.51 -6.99 -0.8 1.16 -10.1 22.21 2.55 -3.48 30.29 19.01 2.18 14.58 -29.02 15.12 1.73 -21.15 42.58 6.86 27.17 8.23 0.94zm79.49 -54.05l-4.97 43.31 -9.04 7.16 -33.28 -3.81 -1.27 11.03 7.13 0.82 -1.15 10.05 -22.21 -2.54 8.08 -70.49 -6.97 -0.8 1.16 -10.09 55.36 6.34 7.16 9.02zm-15.53 2.22l-26.1 -4.96 -4.5 39.23 26.54 1.07 4.06 -35.34zm93.17 21.01l-5.78 50.4 -9 7.04 -48.25 -5.53 8.08 -70.48 -7.13 -0.82 1.16 -10.14 22.21 2.54 -1.62 14.17 33.15 3.8 7.18 9.02zm-15.31 0.26l-26.42 -0.93 -5.07 44.23 26.41 1.02 5.08 -44.32zm46.1 52.22l-1.16 10.05 -22.2 -2.54 8.08 -70.48 -6.99 -0.81 1.16 -10.14 22.21 2.55 -8.1 70.57 7 0.8zm76.25 -62.76l-1.97 17.14 -10.05 -1.16 0.74 -6.41 -12.09 -2.15 -6.94 60.49 7.13 0.82 -1.16 10.14 -29.2 -3.34 1.16 -10.15 6.99 0.8 6.94 -60.49 -12.13 -0.63 -0.74 6.42 -10.05 -1.15 1.97 -17.14 59.4 6.81zm71.15 79.64l-1.15 10.05 -22.21 -2.55 6 -52.34 -32.13 49.35 -15.13 -1.74 8.08 -70.5 -6.99 -0.8 1.16 -10.1 22.07 2.53 -6.02 52.48 32.2 -49.48 15.08 1.73 -8.09 70.55 7.13 0.82zm76.39 -62.72l-2.09 18.23 -10.01 -1.15 0.68 -5.89 -27.03 -5.32 -2.31 20.1 24.24 2.78 -5.48 11.66 -20.38 -0.3 -3 26.19 27.54 0.86 0.78 -6.76 10 1.14 -2.18 19.06 -52.37 -6 8.09 -70.51 -6.97 -0.8 1.15 -10.1 59.34 6.81zm21.77 84.15l-15.08 -1.72 1.62 -14.12 15.08 1.73 -1.62 14.11zm9.24 -80.6l-6.69 58.38 -15.08 -1.73 5.55 -48.42 -7.13 -0.81 1.14 -9.96 22.21 2.54z"/>
   <path class="fil1" d="M1303.52 216.8l-7.38 64.4 -9.02 7.16 -40.3 -4.62 -7.16 -9.01 7.39 -64.41 9.01 -7.16 40.3 4.62 7.16 9.02zm-15.53 2.22l-25.96 -4.94 -6.93 60.43 26.41 1.01 6.48 -56.5zm94.8 6.87l-4.97 43.31 -9.04 7.16 -33.29 -3.81 -1.26 11.03 7.13 0.82 -1.16 10.05 -22.2 -2.55 8.08 -70.48 -6.97 -0.8 1.16 -10.1 55.36 6.35 7.16 9.02zm-15.54 2.22l-26.09 -4.96 -4.5 39.23 26.54 1.07 4.05 -35.34zm91.62 -1.72l-2.09 18.23 -10.01 -1.14 0.68 -5.9 -27.03 -5.32 -2.31 20.11 24.25 2.78 -5.49 11.66 -20.38 -0.3 -3 26.18 27.54 0.87 0.77 -6.77 10.01 1.15 -2.18 19.05 -52.37 -6 8.09 -70.5 -6.97 -0.8 1.16 -10.1 59.33 6.8zm74.65 80.04l-1.16 10.05 -22.25 -2.55 -23.37 -56.61 -6.1 53.23 -15.08 -1.73 8.08 -70.5 -7.1 -0.82 1.16 -10.1 22.18 2.55 23.36 56.65 6.11 -53.27 15.08 1.72 -8.09 70.55 7.18 0.83zm97.84 -35.71l1.39 -12.17 -26.1 -4.96 -2.17 18.94 33.49 7.56 6.37 10.64 -3.44 30 -9.01 7.16 -40.31 -4.62 -7.16 -9.02 1.39 -12.06 15.53 -2.22 -1.61 14.05 26.54 1.03 2.35 -20.43 -33.3 -8.56c-2.25,-3.61 -4.42,-7.13 -6.45,-10.58l2.94 -25.63 9.01 -7.16 40.3 4.62 7.16 9.01 -1.38 12.04 -15.54 2.36zm96.19 -5.31l-7.39 64.4 -9.01 7.17 -40.3 -4.62 -7.16 -9.02 7.38 -64.4 9.02 -7.17 40.3 4.63 7.16 9.01zm-15.53 2.22l-25.96 -4.94 -6.93 60.43 26.41 1.01 6.48 -56.5zm94.79 6.87l-7.38 64.4 -9.02 7.16 -40.3 -4.62 -7.16 -9.01 7.38 -64.41 9.02 -7.16 40.3 4.62 7.16 9.02zm-15.53 2.22l-25.96 -4.94 -6.93 60.43 26.41 1.01 6.48 -56.5zm98.1 70.5l-1.15 10.06 -22.25 -2.55 -23.37 -56.62 -6.11 53.24 -15.07 -1.73 8.08 -70.51 -7.11 -0.81 1.16 -10.1 22.19 2.54 23.36 56.66 6.11 -53.28 15.08 1.73 -8.09 70.55 7.17 0.82zm29.79 13.6l-15.07 -1.72 1.61 -14.12 15.08 1.72 -1.62 14.12zm9.24 -80.6l-6.69 58.37 -15.08 -1.73 5.55 -48.41 -7.12 -0.81 1.14 -9.96 22.2 2.54z"/>
   <path class="fil2" d="M119.03 67.06l7.16 9.02 -1.38 12.04 -15.55 2.36 1.4 -12.18 -25.96 -4.94 -6.93 60.43 26.41 1.01 1.41 -12.06 14.6 5.68 -1.38 12.06 -9.02 7.16 -40.3 -4.62 -7.16 -9.01 7.38 -64.41 9.02 -7.16 40.3 4.62zm85.26 81.14l-1.16 10.14 -21.06 -2.41 -10.25 -37.84 -11.79 -1.35 -4.15 36.19 -15.21 -1.75 8.08 -70.5 -6.99 -0.8 1.16 -10.1 22.2 2.54 -3.47 30.3 19.01 2.18 14.58 -29.02 15.12 1.73 -21.15 42.57 6.86 27.18 8.22 0.94zm79.49 -54.05l-7.38 64.4 -9.02 7.16 -40.3 -4.62 -7.16 -9.01 7.39 -64.41 9.01 -7.16 40.3 4.62 7.16 9.02zm-15.53 2.22l-25.96 -4.94 -6.93 60.43 26.41 1.01 6.48 -56.5zm94.8 6.86l-4.97 43.32 -9.04 7.16 -33.28 -3.82 -1.27 11.04 7.13 0.81 -1.15 10.06 -22.21 -2.55 8.08 -70.48 -6.97 -0.8 1.16 -10.1 55.36 6.35 7.16 9.01zm-15.53 2.23l-26.1 -4.96 -4.5 39.22 26.54 1.08 4.06 -35.34zm94.79 6.86l-7.38 64.4 -9.02 7.16 -40.3 -4.62 -7.16 -9.01 7.38 -64.41 9.02 -7.16 40.3 4.62 7.16 9.02zm-15.53 2.22l-25.96 -4.94 -6.93 60.43 26.41 1.01 6.48 -56.5zm130.2 10.93l-7.38 64.4 -9.02 7.16 -40.3 -4.62 -7.16 -9.01 7.38 -64.41 9.02 -7.16 40.3 4.62 7.16 9.02zm-15.53 2.22l-25.96 -4.95 -6.93 60.43 26.41 1.02 6.48 -56.5zm91.63 -1.72l-1.96 17.14 -10.05 -1.15 0.73 -6.42 -12.09 -2.15 -6.93 60.49 7.13 0.82 -1.17 10.14 -29.2 -3.34 1.17 -10.15 6.99 0.8 6.93 -60.49 -12.12 -0.63 -0.74 6.42 -10.05 -1.15 1.96 -17.14 59.4 6.81zm70.16 79.43l-1.16 10.15 -21.07 -2.42 -10.24 -37.84 -11.79 -1.35 -4.15 36.19 -15.21 -1.75 8.08 -70.5 -6.99 -0.8 1.16 -10.1 22.2 2.55 -3.47 30.29 19.01 2.18 14.58 -29.02 15.12 1.73 -21.15 42.57 6.86 27.18 8.22 0.94zm79.49 -54.05l-4.96 43.31 -9.04 7.16 -33.29 -3.82 -1.26 11.04 7.12 0.82 -1.15 10.05 -22.21 -2.55 8.09 -70.48 -6.97 -0.8 1.15 -10.1 55.36 6.35 7.16 9.02zm-15.53 2.22l-26.1 -4.96 -4.49 39.23 26.54 1.07 4.05 -35.34zm93.18 21.01l-5.78 50.39 -9 7.05 -48.26 -5.53 8.08 -70.48 -7.12 -0.82 1.16 -10.14 22.21 2.54 -1.63 14.17 33.15 3.8 7.19 9.02zm-15.31 0.25l-26.42 -0.92 -5.07 44.23 26.41 1.02 5.08 -44.33zm46.09 52.23l-1.15 10.05 -22.21 -2.54 8.08 -70.49 -6.99 -0.8 1.17 -10.14 22.2 2.55 -8.09 70.57 6.99 0.8zm76.25 -62.76l-1.96 17.14 -10.05 -1.16 0.73 -6.42 -12.09 -2.15 -6.93 60.5 7.13 0.82 -1.17 10.14 -29.2 -3.34 1.17 -10.15 6.99 0.8 6.93 -60.49 -12.12 -0.63 -0.74 6.42 -10.05 -1.15 1.96 -17.14 59.4 6.81zm71.16 79.64l-1.16 10.05 -22.2 -2.55 6 -52.34 -32.14 49.35 -15.12 -1.74 8.08 -70.5 -6.99 -0.8 1.16 -10.1 22.07 2.53 -6.02 52.48 32.2 -49.48 15.08 1.73 -8.09 70.55 7.13 0.82zm76.38 -62.72l-2.09 18.23 -10 -1.15 0.67 -5.89 -27.03 -5.33 -2.3 20.11 24.24 2.78 -5.48 11.66 -20.38 -0.3 -3 26.18 27.54 0.87 0.77 -6.76 10.01 1.14 -2.19 19.06 -52.36 -6 8.08 -70.51 -6.97 -0.8 1.16 -10.1 59.33 6.81zm21.78 84.15l-15.08 -1.73 1.62 -14.11 15.07 1.72 -1.61 14.12zm9.24 -80.6l-6.7 58.37 -15.07 -1.72 5.55 -48.42 -7.13 -0.81 1.14 -9.97 22.21 2.55z"/>
   <path class="fil2" d="M1304.43 213.75l-7.39 64.4 -9.01 7.16 -40.3 -4.62 -7.16 -9.01 7.38 -64.41 9.02 -7.16 40.3 4.62 7.16 9.02zm-15.53 2.22l-25.96 -4.94 -6.93 60.43 26.41 1.01 6.48 -56.5zm94.79 6.87l-4.96 43.31 -9.04 7.16 -33.29 -3.82 -1.26 11.04 7.12 0.82 -1.15 10.05 -22.21 -2.55 8.08 -70.48 -6.96 -0.8 1.15 -10.1 55.36 6.35 7.16 9.02zm-15.53 2.22l-26.1 -4.96 -4.49 39.23 26.54 1.07 4.05 -35.34zm91.61 -1.72l-2.09 18.23 -10 -1.15 0.67 -5.89 -27.02 -5.32 -2.31 20.1 24.24 2.78 -5.48 11.67 -20.38 -0.3 -3 26.18 27.54 0.86 0.77 -6.76 10.01 1.15 -2.19 19.05 -52.36 -6 8.08 -70.5 -6.97 -0.8 1.16 -10.1 59.33 6.8zm74.65 80.04l-1.15 10.05 -22.25 -2.55 -23.37 -56.61 -6.1 53.23 -15.08 -1.73 8.08 -70.5 -7.11 -0.82 1.16 -10.1 22.19 2.55 23.36 56.65 6.11 -53.28 15.08 1.73 -8.09 70.55 7.17 0.83zm97.84 -35.71l1.4 -12.17 -26.1 -4.96 -2.17 18.94 33.48 7.56 6.37 10.64 -3.43 30 -9.02 7.16 -40.3 -4.62 -7.16 -9.02 1.38 -12.06 15.53 -2.22 -1.61 14.05 26.55 1.03 2.34 -20.43 -33.3 -8.56c-2.24,-3.62 -4.41,-7.13 -6.45,-10.58l2.94 -25.63 9.02 -7.16 40.3 4.62 7.16 9.01 -1.38 12.04 -15.55 2.36zm96.19 -5.31l-7.38 64.4 -9.01 7.16 -40.31 -4.62 -7.16 -9.01 7.39 -64.41 9.01 -7.16 40.3 4.62 7.16 9.02zm-15.53 2.22l-25.96 -4.94 -6.93 60.43 26.42 1.01 6.47 -56.5zm94.8 6.87l-7.38 64.4 -9.02 7.16 -40.3 -4.62 -7.16 -9.01 7.38 -64.41 9.02 -7.16 40.3 4.62 7.16 9.02zm-15.53 2.22l-25.96 -4.94 -6.93 60.43 26.41 1.01 6.48 -56.5zm98.1 70.5l-1.15 10.05 -22.26 -2.55 -23.37 -56.61 -6.1 53.24 -15.08 -1.73 8.08 -70.51 -7.1 -0.81 1.16 -10.1 22.18 2.54 23.37 56.66 6.1 -53.28 15.08 1.73 -8.09 70.55 7.18 0.82zm29.79 13.6l-15.08 -1.73 1.62 -14.12 15.08 1.73 -1.62 14.12zm9.24 -80.6l-6.69 58.37 -15.08 -1.73 5.55 -48.41 -7.13 -0.81 1.14 -9.97 22.21 2.55z"/>
  </g>
 </g>
</svg>
