<?xml version="1.0" encoding="UTF-8"?>
<!DOCTYPE svg PUBLIC "-//W3C//DTD SVG 1.1//EN" "http://www.w3.org/Graphics/SVG/1.1/DTD/svg11.dtd">
<!-- Creator: CorelDRAW -->
<svg xmlns="http://www.w3.org/2000/svg" xml:space="preserve" width="382px" height="92px" version="1.1" style="shape-rendering:geometricPrecision; text-rendering:geometricPrecision; image-rendering:optimizeQuality; fill-rule:evenodd; clip-rule:evenodd"
viewBox="0 0 382 92.19"
 xmlns:xlink="http://www.w3.org/1999/xlink"
 xmlns:xodm="http://www.corel.com/coreldraw/odm/2003">
 <defs>
  <style type="text/css">
   <![CDATA[
    .fil0 {fill:#D54322}
    .fil1 {fill:#96301E}
    .fil2 {fill:#FEFEFE;fill-rule:nonzero}
   ]]>
  </style>
 </defs>
 <g id="Слой_x0020_1">
  <metadata id="CorelCorpID_0Corel-Layer"/>
  <g id="_1987826867552">
   <polygon class="fil0" points="10.66,73.17 171.94,81.63 170.92,76.88 175.46,81.81 374.8,92.26 377.77,86.24 381.16,21.64 375.07,19.3 258.72,13.2 249.8,14.66 229.41,11.66 37.04,1.58 32.6,3.3 30.21,1.22 8.03,0.06 2.58,4.55 -0.84,69.9 "/>
   <g>
    <polygon class="fil1" points="65.42,5.72 65.94,5.19 "/>
    <path class="fil1" d="M62.79 8.35c1.05,0 2.1,0 3.15,0 0,1.23 0,2.46 0,3.69 -1.05,0 -2.1,0 -3.15,0 0,-1.23 0,-2.46 0,-3.69z"/>
    <polygon class="fil1" points="260.6,15.19 261.12,14.67 "/>
    <polygon class="fil1" points="65.94,19.4 66.47,18.88 "/>
    <path class="fil1" d="M65.94 20.45c0.44,-1.67 0.7,0.94 0.53,1.58 -0.44,1.68 -0.7,-0.93 -0.53,-1.58z"/>
    <path class="fil1" d="M243.76 21.51c1.57,0.75 1.79,-0.43 3.15,0.52 0,0.81 -3.89,1.16 -3.15,-0.52z"/>
    <path class="fil1" d="M255.86 21.51c0.42,0.36 1.44,0.81 1.58,0 2.31,0.75 -2.48,2.16 -1.58,0z"/>
    <path class="fil1" d="M267.96 21.51c-1.73,1.77 -6.21,0.8 -9.47,1.05 1.31,-2.19 6.47,-0.54 9.47,-1.05z"/>
    <path class="fil1" d="M24.38 22.56c0.1,-0.6 0.53,-0.29 0.53,0 -0.1,0.6 -0.53,0.29 -0.53,0z"/>
    <path class="fil1" d="M33.85 22.56c0.02,-0.51 0.65,-0.41 1.05,-0.53 -0.01,0.51 -0.64,0.41 -1.05,0.53z"/>
    <path class="fil1" d="M37.53 22.56c0.02,-0.51 0.65,-0.41 1.06,-0.53 0.52,0 1.05,0 1.58,0 0.08,1.14 -1.87,0.24 -2.64,0.53z"/>
    <polygon class="fil1" points="42.27,22.56 42.8,22.03 "/>
    <polygon class="fil1" points="64.89,22.56 65.42,22.03 "/>
    <polygon class="fil1" points="68.57,22.56 69.1,22.03 "/>
    <path class="fil1" d="M247.44 22.56c0.02,-0.51 0.65,-0.41 1.05,-0.53 -0.01,0.51 -0.64,0.41 -1.05,0.53z"/>
    <polygon class="fil1" points="331.62,22.56 332.14,22.03 "/>
    <polygon class="fil1" points="336.87,22.56 337.41,22.03 "/>
    <polygon class="fil1" points="333.72,23.09 334.25,22.56 "/>
    <path class="fil1" d="M13.86 24.14c2.04,-0.28 2.57,0.94 4.74,0.52 -0.4,0.7 -5.15,1.32 -4.74,-0.52zm-12.27 -0.53l-0.03 0.55c0.66,0 1.26,-0.01 1.78,-0.02 2.26,-0.07 4.54,-0.22 7.36,0 0.53,0.04 2.99,-0.72 2.64,1.05 -4.49,-0.07 -8.25,-0.13 -11.83,-0.15l-0.06 1.14c6.42,0.02 12.73,0.15 18.72,0.59 1.88,-0.45 3.16,1.52 3.69,-0.53 -2.7,-1.86 -5.83,-3.29 -11.05,-2.63l-11.22 0z"/>
    <polygon class="fil1" points="24.38,24.66 24.91,24.14 "/>
    <polygon class="fil1" points="352.13,24.66 352.66,24.14 "/>
    <path class="fil1" d="M285.85 27.29c0.06,-1.16 2.23,-0.22 3.15,-0.52 1.23,0 2.46,0 3.68,0 -1.24,1.21 -4.72,0.19 -6.83,0.52z"/>
    <path class="fil1" d="M293.74 27.29c0.01,-0.51 0.64,-0.41 1.05,-0.52 0.52,0 1.05,0 1.58,0 1.05,0 2.1,0 3.15,0 2.11,0 4.21,0 6.32,0 -2.99,1.22 -8.24,0.18 -12.1,0.52z"/>
    <path class="fil1" d="M306.36 27.29c0.02,-0.51 0.65,-0.41 1.06,-0.52 0.35,0 0.7,0 1.05,0 0.7,0 1.4,0 2.1,0 1.58,0 3.16,0 4.74,0 -1.94,1.22 -6.13,0.18 -8.95,0.52z"/>
    <polygon class="fil1" points="357.4,27.29 357.92,26.77 "/>
    <polygon class="fil1" points="34.9,27.82 35.43,27.29 "/>
    <polygon class="fil1" points="37.53,29.4 38.06,28.88 "/>
    <path class="fil1" d="M238.5 29.4c1.54,1.07 -0.71,2.75 -1.05,3.68 -1.69,-0.07 -2.32,-1.19 -2.11,-3.16 0.93,1.17 2.95,1.54 3.16,-0.52z"/>
    <path class="fil1" d="M38.06 30.45c0.23,-0.76 0.46,0.05 1.05,0 -0.13,0.66 -1.04,0.53 -1.05,0z"/>
    <polygon class="fil1" points="33.33,31.51 33.85,30.98 "/>
    <polygon class="fil1" points="35.96,31.51 36.48,30.98 "/>
    <polygon class="fil1" points="37.01,31.51 37.53,30.98 "/>
    <path class="fil1" d="M308.99 30.98c-0.27,0.42 -0.55,0.85 -0.52,1.57 -0.35,0 -0.7,0 -1.05,0 0.09,-0.44 -0.21,-0.49 -0.53,-0.52 0.35,-0.71 1.12,-0.98 2.1,-1.05z"/>
    <polygon class="fil1" points="309.52,31.51 310.05,30.98 "/>
    <path class="fil1" d="M311.62 30.98c1.57,0.04 1.41,3.14 -0.52,2.63 -1.14,-1.09 0.06,-1.7 0.52,-2.63z"/>
    <polygon class="fil1" points="19.12,32.03 19.65,31.51 "/>
    <polygon class="fil1" points="31.22,32.03 31.75,31.51 "/>
    <polygon class="fil1" points="38.06,32.03 38.59,31.51 "/>
    <polygon class="fil1" points="303.21,32.03 303.73,31.51 "/>
    <polygon class="fil1" points="304.26,32.55 304.78,32.03 "/>
    <polygon class="fil1" points="302.68,33.08 303.21,32.55 "/>
    <polygon class="fil1" points="305.31,33.08 305.84,32.55 "/>
    <path class="fil1" d="M9.65 33.61c0.92,-1.7 2.16,0.45 0.53,0.53 -0.29,0.01 -0.71,-0.19 -0.53,-0.53z"/>
    <polygon class="fil1" points="306.36,33.61 306.89,33.08 "/>
    <polygon class="fil1" points="18.07,35.19 18.6,34.66 "/>
    <polygon class="fil1" points="34.38,35.19 34.9,34.66 "/>
    <polygon class="fil1" points="38.06,35.19 38.59,34.66 "/>
    <polygon class="fil1" points="33.33,35.72 33.85,35.19 "/>
    <polygon class="fil1" points="39.64,35.72 40.17,35.19 "/>
    <polygon class="fil1" points="31.75,36.24 32.27,35.72 "/>
    <polygon class="fil1" points="38.06,36.77 38.59,36.24 "/>
    <path class="fil1" d="M41.22 36.77l0 -0.53c1.87,0.26 -0.94,1.69 -1.58,1.05 -0.38,-0.38 1.32,-0.51 1.58,-0.52z"/>
    <path class="fil1" d="M235.34 37.29c0.13,-0.66 1.05,-0.53 1.05,0 -0.47,0.33 -0.94,0.64 -1.05,0z"/>
    <polygon class="fil1" points="311.62,37.29 312.15,36.77 "/>
    <path class="fil1" d="M33.33 38.34c0.1,-0.59 0.52,-0.29 0.52,0 -0.1,0.6 -0.53,0.3 -0.52,0z"/>
    <path class="fil1" d="M239.02 37.82c0,0.7 0,1.4 0,2.1 -2.17,-0.42 -1.59,1.91 -3.68,1.58 -0.09,-2.55 1.99,-2.92 3.68,-3.68z"/>
    <polygon class="fil1" points="307.94,38.34 308.47,37.82 "/>
    <path class="fil1" d="M311.1 38.87c0.35,0 0.7,0 1.05,0 0,0.35 0,0.7 0,1.05 -0.35,0 -0.7,0 -1.05,0 0,-0.35 0,-0.7 0,-1.05z"/>
    <polygon class="fil1" points="27.54,39.92 28.07,39.4 "/>
    <path class="fil1" d="M24.91 41.5c0.1,-0.59 0.53,-0.29 0.52,0 -0.09,0.6 -0.52,0.29 -0.52,0z"/>
    <polygon class="fil1" points="27.54,42.03 28.07,41.5 "/>
    <path class="fil1" d="M237.97 41.5c0.65,0.23 1.08,0.68 1.05,1.58 -0.64,-0.23 -1.08,-0.67 -1.05,-1.58z"/>
    <polygon class="fil1" points="27.54,43.08 28.07,42.56 "/>
    <polygon class="fil1" points="27.01,45.19 27.54,44.66 "/>
    <path class="fil1" d="M238.5 45.71c0.61,-1.7 0.59,1.41 0.52,2.11 -0.27,0.81 -0.54,0.03 -0.52,-0.53 0,-0.52 0,-1.05 0,-1.58z"/>
    <path class="fil1" d="M235.34 49.4c0.1,-0.6 0.53,-0.3 0.53,0 -0.1,0.59 -0.53,0.29 -0.53,0z"/>
    <path class="fil1" d="M328.46 48.87c0.65,0.23 1.08,0.67 1.05,1.58 -1.12,0.24 -1,-0.76 -1.05,-1.58z"/>
    <polygon class="fil1" points="330.03,49.4 330.56,48.87 "/>
    <polygon class="fil1" points="132.76,50.97 133.28,50.45 "/>
    <polygon class="fil1" points="238.5,50.97 239.02,50.45 "/>
    <polygon class="fil1" points="27.54,51.5 28.07,50.97 "/>
    <polygon class="fil1" points="331.09,54.13 331.62,53.6 "/>
    <polygon class="fil1" points="332.14,54.13 332.67,53.6 "/>
    <polygon class="fil1" points="332.67,55.19 333.19,54.66 "/>
    <polygon class="fil1" points="345.82,56.76 346.34,56.24 "/>
    <path class="fil1" d="M109.08 57.29c-0.17,-0.93 2.95,-0.94 2.11,0.53 -0.95,0.06 -1.11,-0.65 -2.11,-0.53z"/>
    <polygon class="fil1" points="270.07,57.29 270.59,56.76 "/>
    <polygon class="fil1" points="298.47,57.29 299,56.76 "/>
    <polygon class="fil1" points="299.52,57.29 300.05,56.76 "/>
    <polygon class="fil1" points="300.58,57.29 301.1,56.76 "/>
    <path class="fil1" d="M303.21 57.29c0.01,-0.51 0.64,-0.41 1.05,-0.53 -0.02,0.51 -0.65,0.41 -1.05,0.53z"/>
    <path class="fil1" d="M332.14 57.29c1.96,-1.84 2.67,1.43 0,0z"/>
    <polygon class="fil1" points="55.95,57.82 56.47,57.29 "/>
    <polygon class="fil1" points="66.47,57.82 66.99,57.29 "/>
    <polygon class="fil1" points="334.77,58.34 335.3,57.82 "/>
    <polygon class="fil1" points="36.48,58.87 37.01,58.34 "/>
    <polygon class="fil1" points="57,58.87 57.53,58.34 "/>
    <polygon class="fil1" points="200.62,59.39 201.15,58.87 "/>
    <polygon class="fil1" points="199.04,59.92 199.57,59.39 "/>
    <polygon class="fil1" points="247.44,62.55 247.97,62.02 "/>
    <polygon class="fil1" points="170.11,64.13 170.63,63.6 "/>
    <path class="fil1" d="M90.14 64.13c0.47,0.23 0.94,0.46 1.06,1.06 0.89,0.01 1.36,-0.4 1.57,-1.06 1.64,1 -0.82,2.29 -0.52,3.68 -1.26,-0.67 -2.14,-1.71 -2.11,-3.68z"/>
    <path class="fil1" d="M195.36 64.66c0.32,0.3 2.5,1.23 2.63,0 1.44,1.13 -0.1,3.72 -2.11,3.15 0.39,-1.61 -0.9,-1.54 -0.52,-3.15z"/>
    <path class="fil1" d="M311.1 66.24c-0.13,0.92 -0.91,1.19 -2.11,1.05 0.35,-0.71 1.13,-0.99 2.11,-1.05z"/>
    <polygon class="fil1" points="291.63,71.5 292.16,70.97 "/>
    <path class="fil1" d="M197.99 73.6c2,1.87 -1.32,2.86 -2.11,3.68 -1.99,-1.86 1.32,-2.86 2.11,-3.68z"/>
    <polygon class="fil1" points="290.58,74.13 291.11,73.6 "/>
    <polygon class="fil1" points="282.69,75.18 283.21,74.66 "/>
    <polygon class="fil1" points="289,75.18 289.53,74.66 "/>
    <polygon class="fil1" points="196.94,79.39 197.47,78.87 "/>
    <path class="fil1" d="M348.45 25.19l0.53 -0.53 -0.53 0.53zm32.47 1.05l0.08 -1.63c-0.59,0.1 -1.26,0.13 -2.04,0.05 -0.59,-1.43 -0.66,-2.85 -0.37,-4.01l-0.72 -0.28c-0.09,1.15 0.22,2.7 0.04,3.77 -2.46,0.14 0.68,-2.05 -1.58,-2.11 -0.78,0.23 0.21,0.67 0,1.58 -0.67,-0.72 -2.48,-0.72 -3.16,0 0.4,1 1.57,0.37 0.53,1.58 -1.41,0.36 -1.01,-1.09 -1.58,-1.58 -0.78,0.23 0.21,0.67 0,1.58 -4.11,-0.15 -8.26,0.38 -11.57,-0.53 0.07,0.02 -0.23,-0.89 -0.53,-0.52 -0.52,0.65 -0.77,-0.49 -1.58,-0.53 -1.68,-0.46 -1.09,1.37 -2.1,1.58l-5.26 0c0.1,-0.43 0.53,-0.52 0.53,-1.05 -0.91,-0.03 -1.36,0.39 -1.58,1.05 -1,0.08 0.29,-1.28 0.52,-1.05 -1.29,-1.26 -4.19,1.2 -5.26,2.1 0.41,1.97 2.55,0.34 3.69,0l31.94 0z"/>
    <path class="fil1" d="M341.61 58.87c-0.28,0.81 -0.55,0.03 -0.52,-0.53 0.27,-0.81 0.55,-0.03 0.52,0.53zm37.49 2.06l0.06 -1.14c-7.84,0.02 -17.61,0.46 -26.5,0.13 -2.07,-0.07 -2.56,-0.51 -5.26,0 -1.15,-0.52 2.18,-0.92 3.15,-1.05 -2.28,-1.18 -3.35,-0.38 -5.26,-1.58 -0.4,-2.23 -0.91,-4.35 -2.63,-5.26 -2.09,0.01 -2.16,2.05 -2.63,3.68 -1.5,0.78 -2.34,2.22 -4.21,2.63 0.13,0.92 0.91,1.2 2.11,1.05 -4.39,1.92 -7.76,-1.7 -11.05,-2.63 -9.74,-0.02 -13.81,0.32 -22.1,0 1.01,0.93 2.75,1.12 4.21,1.58 -1.6,1.82 -2.74,0.33 -4.21,-0.52l-4.2 0c-1.97,-0.33 -2.56,2.11 -3.69,1.05 -2.68,-0.27 0.83,-1 1.06,-1.58 -5.07,-0.77 -9.76,-0.08 -17.89,-0.53 -0.62,0.09 -0.44,0.96 -0.53,1.58 -0.7,-0.11 -0.98,-2.18 -1.05,0 -1.31,0.09 -1.65,-0.81 -2.1,-1.58 -0.51,0.91 -1.75,1.06 -2.11,2.11 -0.76,-0.23 0.06,-0.47 0,-1.05 -0.3,-1.26 -1.1,1.27 -1.58,1.57 -0.39,-0.37 -2.57,-1.3 -2.1,0.53 -0.87,-0.53 -0.57,-2.23 -1.05,-3.16 -1.21,0.73 -1.24,2.63 -2.63,3.16 -3.12,0.67 -4.12,-0.8 -5.26,-2.1 -1.24,0.16 -0.32,2.49 -2.11,2.1l0 -2.63c-4.01,-0.74 -6.58,0.16 -9.47,-0.53 -0.51,0.02 -0.4,0.65 -0.52,1.06 -0.71,-0.11 -0.98,-2.19 -1.06,0 -1.17,-0.76 -2.53,-1.33 -4.73,-1.06 -0.83,0.19 0.46,0.93 -0.52,1.06 -2.13,0.19 -2.12,-1.75 -3.69,-2.11 -0.32,-1.96 -1.11,-3.44 -2.1,-4.74 -1.16,0.42 -2.1,1.06 -2.11,2.63 -1.2,0.39 -0.15,3.01 -2.1,2.64 -0.22,1.26 0.96,1.14 0.53,2.63 -1.05,-0.6 -3.8,-0.88 -2.64,-2.11 -0.46,0.33 -0.94,0.64 -1.05,0 -1.56,0.2 -2.59,0.91 -3.15,2.11 -0.74,-1.85 -1.95,0.05 -3.16,-1.05 -0.9,-0.2 -0.99,0.41 -1.06,1.05 -1.08,-0.15 -0.49,-1.96 -1.57,-2.11 -2.58,-0.35 -2.47,2.05 -4.74,3.16 -7.12,0.33 -12.73,-1.13 -17.88,1.05 3.06,1.59 8.23,-0.68 13.67,0 6.55,0.83 18.14,0 28.41,0 13.56,0 27.31,0.09 38.41,0 3.03,-0.02 6.07,0.53 8.94,0.53 2.47,0 5.45,-0.04 9.47,0 1.18,1.3 0.98,1.52 3.16,1.05l0 24.21c0.83,-1.81 2.32,-1.81 3.15,0 -0.18,-7.66 -0.02,-15.17 0,-24.21 0.76,-0.59 1.29,-0.57 1.58,0.53 0.54,-0.52 1.07,-1.04 1.58,-1.58 10.48,-0.98 28.53,1.17 41.56,0 4.91,-0.44 12.77,-0.01 18.94,0 3.83,0 7.81,-0.52 11.71,-0.57zm-153.75 -1.54c0.1,-0.59 0.53,-0.29 0.52,0 -0.1,0.6 -0.52,0.3 -0.52,0z"/>
    <path class="fil1" d="M345.29 58.87c2.07,-0.15 -0.09,-2.32 0,0z"/>
    <path class="fil1" d="M324.78 58.34c1.6,1.44 -1.44,-1.6 0,0z"/>
    <path class="fil1" d="M276.39 14.13l-0.88 -0.05c0.19,0.47 0.43,0.89 0.87,1.11l0.01 -1.06zm-2.12 -0.11l-1.01 -0.06 -0.04 0.71c0.96,0.39 1.07,-0.07 1.05,-0.65z"/>
    <path class="fil1" d="M65.42 3.61c0.28,1.1 -2.05,1.12 -0.53,0.53 -0.59,-1.09 -0.57,-1.11 0.53,-0.53z"/>
    <path class="fil1" d="M342.66 45.19l-0.52 0.52 0.52 -0.52zm1.06 0c-0.16,-0.47 -1.06,-2.68 -1.58,-1.05 1.08,-0.46 1.05,2.67 1.58,1.05zm-1.58 -7.37c0,-0.29 -0.43,-0.6 -0.53,0 0,0.29 0.43,0.6 0.53,0zm-60.5 -13.16c-0.41,0.12 -1.04,0.02 -1.05,0.53 0.4,-0.12 1.03,-0.01 1.05,-0.53zm57.34 -0.52l-0.53 0.52 0.53 -0.52zm-3.68 0l-0.53 0.52 0.53 -0.52zm7.89 3.15c2.05,0.38 0.43,-2.25 0,-2.63 -0.31,1.68 0.99,1.63 0,2.63zm-104.69 -2.1c0.1,-0.6 0.53,-0.29 0.52,0 0.93,-0.48 1.17,-1.65 1.06,-3.16 1.07,0.51 2.08,1.08 3.16,1.58 6.27,-0.27 14.45,-0.52 24.72,-0.52 1.56,-0.55 2.01,-2.2 4.21,-2.11 0.53,-1.92 1.3,-3.6 2.1,-5.26 2.2,0.26 2.26,2.65 3.16,4.21 1.39,1.41 2.39,3.22 5.26,3.16 0.81,-0.28 0.03,-0.55 -0.53,-0.53 5.17,-1.54 10.34,0 15.79,0 9.91,0 20.26,-1.09 31.03,-0.53 1.32,-0.09 1.65,0.81 2.11,1.58 1.29,-1.03 3.77,0.12 5.26,0.53 1.07,-0.5 2.08,-1.08 3.16,-1.58 1.12,-0.25 1,0.75 1.05,1.58 0.61,-1.95 2.2,-0.9 3.16,-1.58 1.09,2.28 0.6,5.92 0.52,10.52 0.1,1.15 -0.43,1.68 -1.58,1.58 0.39,0.49 0.96,0.8 1.58,1.06 -0.29,0.46 -1.58,2.3 -0.52,1.05 1.25,0.15 -0.59,1.42 -1.06,1.57 0.93,0.89 -0.46,1.77 0,3.69 0.49,-0.39 0.8,-0.96 1.06,-1.58 1.29,0.81 0,5.35 0,7.37 0,-0.09 1.77,4.04 -0.53,3.68 1.04,-1.21 -0.13,-0.58 -0.53,-1.58 0.63,-0.69 0.2,-0.82 0,-1.58 -0.97,1.3 -1.93,0.06 -1.57,3.16 -2.27,-0.01 -1.46,-3.1 -1.58,-5.26 1.43,-0.38 1.06,1.05 2.1,1.05 -1.21,-6.08 -0.63,-10.61 -1.05,-18.94 -0.53,-1.75 -2.13,0.14 -3.15,-1.58 -19.94,-2.05 -40.49,0.98 -58.93,-0.53 -0.98,-0.08 -2.11,0.63 -2.63,0.53 -8.25,-1.65 -24.22,-0.2 -33.14,0 -1.32,-0.69 -1.65,2.08 -2.11,0.52 -0.23,-0.78 -0.67,0.21 -1.58,0 -0.04,-0.83 0.26,-2 -0.52,-2.1z"/>
    <path class="fil1" d="M26.49 27.29c0.27,0.14 -0.15,1.65 -0.53,1.59 -0.08,-0.02 -0.04,-0.86 -0.53,-0.53 0.18,2.47 2.86,-0.2 1.06,-1.06zm0.52 -0.52c-0.15,-1.04 0.72,-1.05 1.06,-1.58 -1.09,-0.46 -2.37,1.36 -1.06,1.58zm137.31 -2.11c-0.41,0.12 -1.04,0.02 -1.05,0.53 0.41,-0.12 1.04,-0.01 1.05,-0.53zm-2.1 0c-0.62,0.09 -1.5,-0.09 -1.58,0.53 0.62,-0.08 1.49,0.09 1.58,-0.53zm-16.84 0l-0.52 0.53 0.52 -0.53zm-21.04 0l-0.53 0.53 0.53 -0.53zm-53.14 0c-1.43,-0.26 -1.85,0 -1.78,0.25 0.1,0.34 1.12,0.68 1.78,-0.25zm-16.3 0l-0.53 0.53 0.53 -0.53zm-1.06 0l-0.52 0.53 0.52 -0.53zm-24.72 0l-0.53 0.53 0.53 -0.53zm199.91 0c-0.52,0.16 -1.34,-0.03 -2.03,-0.22 -1.01,-0.27 -1.78,-0.54 -1.13,0.22 0.55,0.34 4.51,1.05 3.16,0zm-4.73 -0.52c-0.68,0.12 -1.54,0.06 -2.4,-0.01 -1.42,-0.11 -2.83,-0.21 -3.39,0.53 1.33,0.4 5.33,1.42 5.79,-0.52zm-6.32 0l-0.52 0.52 0.52 -0.52zm-57.87 0.52c-0.62,-0.47 -4.98,-1.48 -4.73,0.53 2.23,0.02 4.16,-0.25 4.73,-0.53zm-6.31 0.53c0.35,0 0.7,0 1.05,0 0,-0.35 0,-0.7 0,-1.05 -0.35,0 -0.7,0 -1.05,0 0,0.35 0,0.7 0,1.05zm-0.53 -0.53c0,-0.29 -0.42,-0.59 -0.52,0 -0.01,0.3 0.42,0.6 0.52,0zm-3.68 0.53c0.64,-0.43 1.09,-0.31 1.47,-0.19 0.42,0.13 0.75,0.25 1.16,-0.34 -0.79,-0.83 -2.15,-0.38 -2.63,0.53zm-26.3 -1.05c-2.12,0.02 -3.85,0.04 -4.21,0.52 0.77,0.71 4.17,1.08 4.21,-0.52zm-5.27 0l-0.52 0.52 0.52 -0.52zm-1.57 0c-0.41,0.11 -1.04,0.01 -1.06,0.52 0.41,-0.11 1.04,-0.01 1.06,-0.52zm-3.69 0.52c1.29,0.5 1.75,0.16 1.71,-0.19 -0.04,-0.4 -0.79,-0.81 -1.71,0.19zm-18.41 0.53c0.84,0 1.73,0 2.61,0 1.09,0.01 2.18,0.01 3.18,0 3.89,-0.03 7.55,-0.24 11.57,0 0.45,-1.22 -0.8,-1.15 -1.59,-1.08 -0.22,0.02 -0.41,0.04 -0.51,0.03 -3.96,-0.41 -8.07,-0.23 -12.09,-0.05 -3.66,0.17 -7.24,0.33 -10.53,0.05 -0.41,0.11 -1.04,0.01 -1.06,0.52 2.16,0.91 5.72,0.54 8.42,0.53zm-12.1 0c-0.01,-1.4 -1.49,-1.26 -2.88,-1.13 -0.47,0.05 -0.94,0.09 -1.33,0.08 -0.93,-0.04 -1.95,-0.02 -2.9,-0.01 -0.88,0.02 -1.71,0.04 -2.36,0.01 -0.41,0.11 -1.04,0.01 -1.05,0.52 2,0.64 3.56,0.48 5.21,0.33 1.54,-0.14 3.17,-0.29 5.31,0.2zm-26.3 -1.05l-0.53 0.52 0.53 -0.52zm-3.68 0.52c-0.01,-0.53 -0.93,-0.66 -1.06,0 0.21,-0.02 0.38,0.07 0.51,0.17 0.25,0.16 0.4,0.33 0.55,-0.17zm-15.79 -0.52l-0.52 0.52 0.52 -0.52zm46.82 -1.05l-0.52 0.52 0.52 -0.52zm-54.18 0l-0.53 0.52 0.53 -0.52zm1.58 3.68l-0.53 0.52 0.53 -0.52zm31.56 -2.63c3.44,1.49 6.51,-0.28 8.42,-1.05 1.78,0.65 4.29,0.59 6.79,0.52 1.28,-0.03 2.55,-0.06 3.73,0 0.71,0.19 0.62,-0.43 0.53,-1.05 -0.1,-0.62 -0.19,-1.24 0.52,-1.05 1.8,-0.23 1.58,1.57 2.63,2.1 6.09,0.03 12.48,0.01 18.72,-0.01 7.13,-0.02 14.08,-0.04 20.21,0.01 1.43,0.15 2.48,0.68 3.16,1.58 0.49,-0.16 0.49,-1.42 0,-1.58 0.44,-0.4 2.07,-0.53 3.16,-1.58 3.24,-0.09 5.87,0.44 7.89,1.58 3.72,-0.26 7.21,-0.17 10.63,-0.07 4.52,0.11 8.92,0.23 13.57,-0.45 1.61,0.31 2.74,1.11 4.21,1.57 0.73,-0.01 1.49,0 2.25,0.01 2.8,0.05 5.6,0.09 7.21,-1.06 6.84,0 13.68,0 20.52,0 1.02,-0.22 1.9,0.36 1.06,0.53 -0.88,0 -1.76,0 -2.64,0 -1.58,0 -3.15,0 -4.73,0 -3.33,0 -6.66,0 -10,0 -1.78,0.14 -3.02,0.83 -5.26,0.52 12.8,0.88 29.29,0.88 42.09,0 -0.88,-0.75 -2.63,-0.64 -4.37,-0.53 -1.06,0.07 -2.13,0.14 -3,0.01 -0.93,0.15 -1.07,-0.5 -0.52,-0.53 0.52,0 1.05,0 1.58,0 1.22,0 2.45,0 3.68,0 4.91,0 9.82,0 14.73,0 2.37,0.26 2.97,2.29 5.26,2.63 -0.52,1.47 -2.1,0.98 -3.64,0.49 -0.77,-0.24 -1.53,-0.49 -2.15,-0.49 -25.02,0.17 -50.46,0.45 -75.23,0.53 -1.77,0.01 -3.54,-0.17 -5.32,-0.34 -2.62,-0.26 -5.24,-0.51 -7.83,-0.19 -2.57,0 -4.94,2.39 -6.31,0.53 -1.09,5.75 -0.28,13.4 -0.53,20 -4.32,0.46 -2.97,-4.75 -3.15,-8.43 -0.2,-3.66 0.48,-8.2 -0.53,-11.05 -0.08,-0.92 -0.43,-0.46 -0.79,0 -0.35,0.47 -0.71,0.93 -0.79,0 -0.69,-0.53 -1.94,-0.51 -2.63,-1.05 -19.24,0.02 -37.39,0.02 -55.95,0.01 -10.59,0 -21.31,-0.01 -32.43,-0.01 -1.78,0.15 -3.02,0.84 -5.26,0.53 -1.43,1.48 -1.31,0.41 -3.16,0 -0.15,1.78 -0.84,3.02 -0.52,5.26 0.02,1.35 -0.4,0.64 -1.06,0.52 0.23,1.01 1.51,0.96 1.06,2.64 -1.78,0.21 1.4,2.04 -1.06,1.58 -0.22,-1.1 0.36,-1.39 0.53,-2.11 -3.6,0.28 -2.12,-5.12 -3.16,-9.47 0.72,-0.19 0.62,0.43 0.53,1.05 -0.09,0.62 -0.19,1.24 0.52,1.05 0.4,-0.65 0.48,-2.15 0,-3.68 0.17,1.05 3.34,2.05 2.64,-0.52 0.16,-0.91 -0.6,-0.45 -0.92,0.01 -0.21,0.31 -0.23,0.62 0.39,0.51 -0.77,0.54 -0.72,0.1 -0.73,-0.36 0,-0.49 -0.08,-0.98 -1.38,-0.16 -0.42,-1.97 3.25,-0.98 3.69,-0.53 2.19,-0.44 2.48,1.02 4.21,1.05 5.47,-0.64 10.73,-0.01 15.78,0 0.27,0 0.47,0 0.67,-0.01 0.36,-0.02 0.71,-0.03 1.43,0.01 2.6,0.16 5.01,0.26 7.37,-1.05 0.99,0.06 0.36,1.74 1.58,1.58 -0.59,-0.76 -0.57,-1.29 0.52,-1.58 0,-0.67 -0.3,-0.47 -0.59,-0.27 -0.34,0.23 -0.67,0.47 -0.46,-0.78 0.5,0.08 1,-0.18 1.43,-0.44 0.83,-0.49 1.41,-0.99 1.2,0.96 1.4,-0.6 -0.73,-4.14 1.05,-2.63 0.48,2.4 -0.87,2.98 -1.05,4.74z"/>
    <path class="fil1" d="M255.33 22.56c-2.4,-0.08 -2.06,-0.44 -4.21,0 -1.22,-0.21 4.12,-2.08 4.21,0z"/>
    <path class="fil1" d="M21.23 32.55c1.6,-1.43 -1.44,1.61 0,0z"/>
    <path class="fil1" d="M309.52 33.61c0.36,-1.79 1.75,2.32 2.1,0.53 1.83,1.02 -0.64,2.1 -0.52,3.15 -1.97,0.21 -0.22,-3.28 -1.58,-3.68z"/>
    <path class="fil1" d="M41.22 34.66c1.6,-1.44 -1.44,1.6 0,0z"/>
    <path class="fil1" d="M35.96 37.29c-1.44,-1.6 1.6,1.44 0,0z"/>
    <path class="fil1" d="M26.49 44.14c-1.27,1.26 1.27,1.39 0.52,3.68 -1.12,0.25 -1,-0.76 -1.05,-1.58 -0.45,-0.1 -0.5,0.21 -0.53,0.53 -0.73,-0.19 -0.04,-0.93 0.53,-1.06 -0.32,-0.49 -1.22,-1.94 0.53,-1.57z"/>
    <path class="fil1" d="M331.09 51.5c-1.44,-1.6 1.6,1.44 0,0z"/>
    <path class="fil1" d="M44.9 59.39l-0.53 0.53 0.53 -0.53zm-45.24 1.05l-0.06 1.1c29.61,0.2 60.31,-0.67 88.96,0.48 -0.47,-2.16 -4.12,-3.91 -6.31,-2.63 1.31,-0.07 2.19,0.28 2.63,1.06 -5.26,-0.35 -11.92,0.69 -16.31,-0.53 0.3,0 0.6,-0.43 0,-0.53 -0.44,0.79 -1.69,0.77 -2.63,1.06 -2.84,0.36 -3.03,-1.08 -4.21,-0.53 0.45,-0.21 0.5,0.85 -0.52,0.53 -2.46,-0.46 -3.03,0.46 -4.21,-1.06 0.09,2.08 -0.81,-0.16 -1.58,1.06 0.37,-1.75 -1.09,-0.85 -1.58,-0.53 0.25,-1.65 -1.32,-1.48 -2.1,-2.1 -0.92,0.83 -1.09,2.41 -2.63,2.63 -0.07,-2.19 -0.35,-0.11 -1.05,0 -0.88,-1.17 -1.43,-1.32 -1.58,-2.11 -1,0.73 -4.12,-0.85 -5.26,1.58 0.09,-2.22 -1.18,-0.36 -1.58,0 0.26,-2.46 -2.62,0.68 -1.05,-1.58 -0.95,-0.06 -1.23,0.52 -1.06,1.58 -1.19,-1.19 -3.26,1.65 -4.2,-0.53 0.76,-0.29 2.71,0.62 2.63,-0.52 -2.09,-0.19 -4,-0.57 -4.74,-2.11 -0.29,0.94 -0.27,2.19 -1.05,2.63 0,-0.87 0,-1.75 0,-2.63 -0.67,-0.91 -1.78,-1.37 -1.58,-3.16 -2.09,0.29 0.57,-1.86 -2.1,-1.57 -2.21,-0.1 -1.71,2.5 -2.63,3.68 -1.47,0.64 -2.9,1.31 -3.69,2.63 -1.19,-0.15 -1.97,0.13 -2.1,1.05 1.84,0.27 3.97,0.24 5.26,1.06 -7.62,-0.28 -16.08,0.3 -23.67,-0.01zm43.66 -1.57l-0.52 0.52 0.52 -0.52zm-13.68 0l-0.52 0.52 0.52 -0.52zm-7.89 -1.05l-0.52 0.52 0.52 -0.52zm1.58 -1.06l-0.52 0.53 0.52 -0.53zm4.74 -2.1c0,-0.29 -0.43,-0.6 -0.53,0 0,0.29 0.43,0.59 0.53,0z"/>
    <path class="fil1" d="M300.89 88.38l2.91 0.16c-0.46,-0.69 -1.22,-1.06 -2.17,-1.26 -0.27,0.35 -0.51,0.72 -0.74,1.1z"/>
   </g>
   <path class="fil2" d="M23.47 34.75l4.72 0.24 0.25 -4.78c0.04,-0.73 0.44,-1.06 1.21,-1.02l2.84 0.14c0.73,0.04 1.08,0.42 1.04,1.15l-0.25 4.78 4.79 0.25c0.74,0.04 1.08,0.44 1.04,1.22l-0.15 2.78c-0.04,0.76 -0.42,1.13 -1.15,1.09l-4.8 -0.25 -0.25 4.79c-0.04,0.73 -0.42,1.08 -1.15,1.04l-2.85 -0.15c-0.76,-0.04 -1.13,-0.42 -1.09,-1.15l0.25 -4.8 -4.72 -0.25c-0.75,-0.04 -1.12,-0.44 -1.11,-1.21l0.15 -2.77c0.07,-0.78 0.48,-1.14 1.23,-1.1z"/>
   <path id="_1" class="fil2" d="M45.15 21.23l15.51 0.81c0.77,0.04 1.13,0.43 1.09,1.16l-0.13 2.46c-0.04,0.77 -0.21,1.48 -0.53,2.11l-7.08 14.99c-0.29,0.61 -0.46,1.31 -0.5,2.13l-0.56 10.61c-0.04,0.77 -0.44,1.13 -1.2,1.09l-3.41 -0.18c-0.77,-0.04 -1.13,-0.44 -1.09,-1.2l0.64 -12.08c0.03,-0.72 0.23,-1.42 0.57,-2.12l6.73 -13.89 -10.32 -0.54c-0.77,-0.04 -1.13,-0.43 -1.11,-1.17l0.17 -3.15c0.07,-0.73 0.47,-1.07 1.22,-1.03z"/>
   <path id="_2" class="fil2" d="M188.99 45.18l-0.35 6.64 2.36 0.12c0.76,0.04 1.13,0.43 1.09,1.16l-0.18 3.39c-0.04,0.76 -0.44,1.12 -1.21,1.08l-2.36 -0.12 -0.27 5.13c-0.04,0.77 -0.42,1.13 -1.15,1.09l-3.44 -0.17c-0.73,-0.04 -1.07,-0.44 -1.03,-1.21l0.27 -5.14 -11.67 -0.61c-0.76,-0.04 -1.12,-0.44 -1.08,-1.2l0.08 -1.66c0.04,-0.7 0.23,-1.4 0.56,-2.12l10.56 -22.15c0.29,-0.69 0.84,-1.01 1.61,-0.97l3.82 0.2c0.73,0.04 0.95,0.4 0.66,1.09l-10.19 21.48 5.94 0.32 0.35 -6.65c0.04,-0.76 0.42,-1.12 1.16,-1.09l3.43 0.18c0.73,0.04 1.08,0.45 1.04,1.21z"/>
   <path id="_3" class="fil2" d="M213.05 46.44l-0.35 6.64 2.36 0.13c0.77,0.04 1.13,0.42 1.09,1.15l-0.17 3.39c-0.04,0.76 -0.45,1.12 -1.21,1.08l-2.36 -0.12 -0.27 5.14c-0.04,0.76 -0.43,1.13 -1.16,1.09l-3.43 -0.18c-0.73,-0.04 -1.08,-0.44 -1.04,-1.21l0.27 -5.14 -11.66 -0.61c-0.77,-0.04 -1.13,-0.44 -1.09,-1.2l0.09 -1.66c0.03,-0.7 0.22,-1.4 0.55,-2.12l10.57 -22.15c0.29,-0.69 0.83,-1.01 1.6,-0.97l3.83 0.2c0.73,0.04 0.94,0.4 0.65,1.09l-10.19 21.49 5.95 0.31 0.34 -6.64c0.04,-0.77 0.43,-1.13 1.16,-1.09l3.43 0.18c0.74,0.03 1.08,0.44 1.04,1.2z"/>
   <path id="_4" class="fil2" d="M218.91 64.2l0.38 -7.13c0.05,-1.02 0.35,-2.03 0.9,-3.02 0.55,-0.99 1.25,-1.78 2.11,-2.37l8.5 -5.66c0.5,-0.34 0.76,-0.82 0.79,-1.42l0.3 -5.82c0.04,-0.7 -0.15,-1.27 -0.55,-1.73 -0.41,-0.45 -0.96,-0.7 -1.66,-0.73l-1.47 -0.08c-0.69,-0.04 -1.27,0.15 -1.72,0.56 -0.45,0.41 -0.7,0.96 -0.73,1.65l-0.14 2.59c-0.04,0.76 -0.44,1.13 -1.21,1.09l-3.38 -0.18c-0.73,-0.04 -1.08,-0.44 -1.04,-1.21l0.11 -1.99c0.13,-2.57 1.03,-4.6 2.69,-6.09 1.66,-1.49 3.77,-2.17 6.33,-2.03l0.25 0.01c2.59,0.14 4.64,1.03 6.13,2.69 1.49,1.65 2.17,3.76 2.04,6.33l-0.29 5.46c-0.05,1.02 -0.35,2.03 -0.9,3.02 -0.55,0.98 -1.26,1.77 -2.11,2.36l-8.51 5.66c-0.48,0.27 -0.75,0.73 -0.78,1.4l-0.13 2.46 10.57 0.55c0.77,0.04 1.13,0.43 1.09,1.16l-0.18 3.38c-0.04,0.77 -0.44,1.13 -1.2,1.09l-15.11 -0.79c-0.68,-0.04 -1.03,-0.44 -1.08,-1.21z"/>
   <path id="_5" class="fil2" d="M241.33 52.68l0.15 -2.8c0.03,-0.57 0.33,-0.84 0.89,-0.81l8.48 0.44c0.57,0.03 0.83,0.34 0.8,0.9l-0.14 2.81c-0.03,0.56 -0.33,0.83 -0.9,0.8l-8.48 -0.45c-0.56,-0.03 -0.83,-0.32 -0.8,-0.89z"/>
   <path id="_6" class="fil2" d="M260.68 66.39l1.43 -27.27 -5.08 1.56c-0.12,0.05 -0.28,0.08 -0.47,0.1 -0.41,-0.02 -0.59,-0.3 -0.54,-0.83l0.18 -3.51c0.04,-0.76 0.42,-1.25 1.13,-1.48l6.2 -1.87c0.59,-0.22 1.32,-0.31 2.17,-0.3l1.28 0.06c0.74,0.04 1.08,0.43 1.04,1.16l-1.71 32.68c-0.04,0.76 -0.42,1.12 -1.16,1.09l-3.38 -0.18c-0.76,-0.04 -1.13,-0.44 -1.09,-1.21z"/>
   <path id="_7" class="fil2" d="M291.08 34.97l-0.21 4c-0.03,0.53 -0.31,0.78 -0.82,0.75l-8.55 -0.44 -0.32 6.04 2.37 0.12c2.64,0.14 4.72,1.04 6.22,2.7 1.53,1.66 2.22,3.77 2.09,6.33l-0.33 6.34c-0.14,2.57 -1.03,4.59 -2.69,6.08 -1.66,1.5 -3.78,2.17 -6.38,2.03l-1.14 -0.06c-2.57,-0.13 -4.6,-1.02 -6.09,-2.68 -1.5,-1.66 -2.18,-3.77 -2.04,-6.34l0.09 -1.75c0.03,-0.56 0.31,-0.83 0.83,-0.81l3.99 0.21c0.57,0.03 0.84,0.33 0.81,0.9l-0.12 2.31c-0.04,0.73 0.14,1.32 0.55,1.78 0.41,0.45 0.98,0.7 1.71,0.73l2.29 0.13c0.73,0.03 1.32,-0.15 1.79,-0.56 0.45,-0.41 0.71,-0.98 0.75,-1.71l0.39 -7.5c0.04,-0.7 -0.17,-1.28 -0.59,-1.73 -0.44,-0.45 -1.02,-0.7 -1.75,-0.74l-7.57 -0.39c-0.73,-0.04 -1.08,-0.44 -1.04,-1.21l0.79 -15.07c0.04,-0.73 0.43,-1.07 1.16,-1.04l13.07 0.69c0.52,0.03 0.77,0.32 0.74,0.89z"/>
   <path id="_8" class="fil2" d="M296.62 55.58l0.14 -2.8c0.03,-0.57 0.33,-0.84 0.9,-0.81l8.47 0.44c0.57,0.03 0.84,0.34 0.81,0.9l-0.15 2.8c-0.03,0.57 -0.33,0.84 -0.89,0.81l-8.48 -0.45c-0.56,-0.03 -0.83,-0.32 -0.8,-0.89z"/>
   <path id="_9" class="fil2" d="M324.68 49.89l0.32 -6.23c0.04,-0.7 -0.14,-1.27 -0.55,-1.73 -0.41,-0.45 -0.98,-0.7 -1.71,-0.73l-2.56 -0.14c-0.7,-0.04 -1.27,0.15 -1.72,0.56 -0.45,0.41 -0.7,0.96 -0.74,1.65l-0.31 6c-0.04,0.73 0.15,1.32 0.56,1.78 0.4,0.44 0.95,0.69 1.65,0.72l2.56 0.14c0.67,0.03 1.23,-0.14 1.7,-0.5 0.46,-0.38 0.73,-0.88 0.8,-1.52zm-12.4 10.61l3.38 0.18c0.77,0.04 1.13,0.43 1.09,1.16l-0.04 0.84c-0.04,0.74 0.14,1.33 0.55,1.78 0.41,0.46 0.96,0.7 1.66,0.74l2.56 0.13c0.73,0.04 1.32,-0.14 1.77,-0.55 0.45,-0.41 0.7,-0.98 0.74,-1.72l0.3 -5.79c-0.93,0.21 -1.93,0.29 -2.97,0.24l-1.39 -0.07c-2.56,-0.14 -4.59,-1.04 -6.08,-2.69 -1.49,-1.66 -2.17,-3.79 -2.04,-6.39l0.26 -4.79c0.13,-2.57 1.03,-4.6 2.68,-6.09 1.66,-1.49 3.77,-2.17 6.33,-2.03l1.39 0.07c2.57,0.14 4.6,1.02 6.1,2.69 1.49,1.65 2.17,3.76 2.03,6.33l-0.95 18.26c-0.14,2.57 -1.04,4.6 -2.69,6.09 -1.66,1.5 -3.77,2.17 -6.34,2.03l-1.39 -0.07c-2.59,-0.13 -4.64,-1.03 -6.13,-2.69 -1.49,-1.65 -2.18,-3.76 -2.04,-6.33l0.01 -0.29c0.04,-0.73 0.44,-1.08 1.21,-1.04z"/>
   <path id="_10" class="fil2" d="M339.35 58.3l-0.31 5.85c-0.03,0.73 0.15,1.32 0.56,1.78 0.41,0.45 0.97,0.7 1.7,0.74l2.96 0.15c0.73,0.04 1.31,-0.15 1.77,-0.56 0.45,-0.41 0.7,-0.98 0.74,-1.7l0.3 -5.85c0.04,-0.7 -0.15,-1.27 -0.56,-1.72 -0.41,-0.46 -0.95,-0.71 -1.65,-0.74l-3 -0.16c-0.73,-0.04 -1.32,0.15 -1.77,0.56 -0.46,0.41 -0.7,0.95 -0.74,1.65zm1.32 -14.11l-0.19 3.77c-0.04,0.7 0.15,1.27 0.55,1.73 0.42,0.45 0.97,0.7 1.67,0.74l1.94 0.1c0.7,0.03 1.28,-0.15 1.74,-0.56 0.46,-0.41 0.71,-0.96 0.75,-1.66l0.19 -3.78c0.04,-0.69 -0.15,-1.27 -0.56,-1.73 -0.42,-0.46 -0.99,-0.71 -1.72,-0.75l-1.9 -0.1c-0.7,-0.04 -1.27,0.16 -1.73,0.56 -0.45,0.42 -0.7,0.98 -0.74,1.68zm-5.82 2.57l0.11 -1.99c0.13,-2.6 1.03,-4.65 2.69,-6.14 1.65,-1.49 3.78,-2.17 6.38,-2.03l0.76 0.04c2.56,0.13 4.59,1.02 6.08,2.69 1.49,1.65 2.17,3.78 2.04,6.38l-0.11 2c-0.14,2.59 -1.25,4.52 -3.35,5.78 2.28,1.4 3.35,3.54 3.2,6.42l-0.21 4.09c-0.14,2.57 -1.03,4.59 -2.7,6.08 -1.65,1.5 -3.76,2.17 -6.33,2.04l-1.77 -0.09c-2.6,-0.14 -4.65,-1.03 -6.14,-2.69 -1.51,-1.68 -2.2,-3.79 -2.06,-6.34l0.21 -4.09c0.15,-2.82 1.46,-4.84 3.93,-6.04 -1.95,-1.56 -2.86,-3.59 -2.73,-6.11z"/>
   <path id="_11" class="fil2" d="M82.05 18.91l2.64 2.44c0.38,0.31 0.39,0.7 0.03,1.17l-2.17 2.24c-0.98,1.05 -1.51,2.28 -1.59,3.7l-1.32 25.25c-0.08,1.43 0.32,2.71 1.19,3.85l1.92 2.46c0.3,0.5 0.25,0.88 -0.15,1.15l-2.87 2.14c-0.23,0.15 -0.41,0.22 -0.56,0.21 -0.25,-0.01 -0.46,-0.13 -0.63,-0.37l-2.6 -3.19c-1.43,-1.85 -2.08,-3.93 -1.96,-6.25l1.35 -25.84c0.13,-2.33 0.99,-4.33 2.61,-6.02l2.91 -2.9c0.2,-0.22 0.42,-0.32 0.68,-0.31 0.15,0.01 0.32,0.1 0.52,0.27z"/>
   <path id="_12" class="fil2" d="M99.88 38.11l0.32 -6.23c0.04,-0.7 -0.15,-1.27 -0.56,-1.73 -0.4,-0.45 -0.97,-0.7 -1.7,-0.74l-2.56 -0.13c-0.7,-0.04 -1.27,0.15 -1.72,0.56 -0.46,0.41 -0.7,0.95 -0.74,1.65l-0.31 6c-0.04,0.73 0.15,1.32 0.55,1.78 0.41,0.44 0.96,0.69 1.66,0.72l2.56 0.14c0.66,0.03 1.23,-0.14 1.7,-0.5 0.46,-0.38 0.73,-0.88 0.8,-1.52zm-12.4 10.61l3.38 0.18c0.77,0.04 1.13,0.42 1.09,1.15l-0.04 0.85c-0.04,0.73 0.14,1.33 0.55,1.78 0.4,0.46 0.96,0.7 1.66,0.74l2.56 0.13c0.73,0.04 1.32,-0.14 1.77,-0.55 0.45,-0.41 0.7,-0.98 0.74,-1.72l0.3 -5.79c-0.94,0.21 -1.93,0.29 -2.97,0.24l-1.39 -0.08c-2.56,-0.13 -4.59,-1.03 -6.09,-2.68 -1.48,-1.66 -2.16,-3.79 -2.03,-6.39l0.25 -4.79c0.14,-2.57 1.04,-4.6 2.69,-6.09 1.66,-1.49 3.77,-2.17 6.33,-2.03l1.39 0.07c2.57,0.13 4.6,1.02 6.09,2.69 1.49,1.65 2.18,3.76 2.04,6.33l-0.96 18.26c-0.13,2.57 -1.03,4.6 -2.68,6.09 -1.66,1.49 -3.77,2.17 -6.34,2.03l-1.39 -0.07c-2.6,-0.14 -4.64,-1.03 -6.13,-2.69 -1.5,-1.65 -2.18,-3.76 -2.04,-6.33l0.01 -0.29c0.04,-0.73 0.44,-1.08 1.21,-1.04z"/>
   <path id="_13" class="fil2" d="M113.91 58.7l1.43 -27.27 -5.08 1.56c-0.12,0.05 -0.28,0.08 -0.47,0.09 -0.41,-0.02 -0.59,-0.29 -0.55,-0.82l0.19 -3.51c0.04,-0.77 0.41,-1.26 1.13,-1.48l6.2 -1.87c0.59,-0.22 1.31,-0.32 2.16,-0.3l1.29 0.06c0.73,0.04 1.08,0.43 1.04,1.16l-1.71 32.67c-0.04,0.77 -0.43,1.13 -1.16,1.09l-3.38 -0.17c-0.77,-0.04 -1.13,-0.45 -1.09,-1.21z"/>
   <path id="_14" class="fil2" d="M127.86 25.56l15.51 0.82c0.76,0.04 1.13,0.42 1.09,1.15l-0.13 2.46c-0.04,0.78 -0.21,1.49 -0.53,2.12l-7.09 14.99c-0.29,0.6 -0.45,1.31 -0.49,2.12l-0.56 10.62c-0.04,0.76 -0.44,1.13 -1.2,1.09l-3.41 -0.18c-0.77,-0.04 -1.13,-0.45 -1.09,-1.21l0.63 -12.08c0.04,-0.71 0.24,-1.42 0.58,-2.12l6.73 -13.88 -10.32 -0.54c-0.77,-0.04 -1.13,-0.44 -1.11,-1.18l0.17 -3.14c0.07,-0.73 0.47,-1.08 1.22,-1.04z"/>
   <path id="_15" class="fil2" d="M148.91 24.72l2.87 -2.15c0.22,-0.15 0.41,-0.22 0.57,-0.22 0.2,0.02 0.4,0.14 0.62,0.38l2.59 3.19c1.43,1.9 2.09,3.98 1.97,6.26l-1.36 25.83c-0.12,2.27 -0.99,4.28 -2.6,6.02l-2.91 2.9c-0.25,0.22 -0.46,0.31 -0.66,0.3 -0.14,0 -0.33,-0.09 -0.55,-0.27l-2.63 -2.43c-0.39,-0.31 -0.4,-0.69 -0.04,-1.15l2.17 -2.25c0.97,-1.04 1.5,-2.27 1.61,-3.7l1.32 -25.26c0.08,-1.43 -0.32,-2.71 -1.21,-3.84l-1.92 -2.46c-0.32,-0.49 -0.26,-0.88 0.16,-1.15z"/>
  </g>
 </g>
</svg>
