<?xml version="1.0" encoding="UTF-8"?>
<!DOCTYPE svg PUBLIC "-//W3C//DTD SVG 1.1//EN" "http://www.w3.org/Graphics/SVG/1.1/DTD/svg11.dtd">
<!-- Creator: CorelDRAW -->
<svg xmlns="http://www.w3.org/2000/svg" xml:space="preserve" width="336px" height="336px" version="1.1" style="shape-rendering:geometricPrecision; text-rendering:geometricPrecision; image-rendering:optimizeQuality; fill-rule:evenodd; clip-rule:evenodd"
viewBox="0 0 336 336"
 xmlns:xlink="http://www.w3.org/1999/xlink"
 xmlns:xodm="http://www.corel.com/coreldraw/odm/2003">
 <defs>
  <style type="text/css">
   <![CDATA[
    .fil2 {fill:#21363B}
    .fil1 {fill:#21363B;fill-rule:nonzero}
    .fil0 {fill:white;fill-rule:nonzero}
   ]]>
  </style>
 </defs>
 <g id="Слой_x0020_1">
  <metadata id="CorelCorpID_0Corel-Layer"/>
  <g id="_1986964407536">
   <path class="fil0" d="M137.99 333.48c-45.68,-8.05 -83.77,-33.86 -108.43,-69.07 -24.65,-35.22 -35.88,-79.84 -27.82,-125.51 8.05,-45.68 33.86,-83.78 69.07,-108.43 35.22,-24.66 79.84,-35.88 125.52,-27.83 45.67,8.06 83.77,33.86 108.42,69.08 24.66,35.21 35.88,79.83 27.83,125.51 -8.06,45.68 -33.86,83.77 -69.08,108.43 -35.21,24.65 -79.83,35.88 -125.51,27.82z"/>
   <g id="BRIXTON_stamp_38mm.cdr">
    <g>
     <path class="fil1" d="M88.52 226.04c-0.47,-0.64 -0.94,-1.29 -1.39,-1.94 -14.34,-20.48 -20.87,-46.43 -16.19,-73 4.69,-26.57 19.7,-48.73 40.18,-63.07 0.65,-0.45 1.31,-0.9 1.97,-1.34l-2.43 13.79c-15.39,12.85 -26.5,31 -30.25,52.29 -4.04,22.92 1.18,45.34 12.97,63.42l0.01 0.03 -3.98 4.78 -0.89 5.04z"/>
     <path class="fil1" d="M245.8 110.09c0.47,0.64 0.93,1.28 1.39,1.93 14.34,20.49 20.87,46.44 16.18,73.01 -4.68,26.57 -19.69,48.72 -40.17,63.06 -0.66,0.46 -1.31,0.91 -1.97,1.35l2.43 -13.8c15.38,-12.85 26.49,-30.99 30.24,-52.28 3.76,-21.29 -0.47,-42.14 -10.53,-59.48l2.43 -13.79z"/>
     <g>
      <path class="fil2" d="M162.46 58.74l-34.91 2.01 -4.44 6.03 -25.13 142.49 2.52 8.41 -5.08 6.1 -3.5 19.86 3.99 12.93 30.5 13.13 6.33 -6.36 23.83 -135.16 -6.68 1.14 8.16 -9.48 9.73 -55.22 -5.32 -5.88zm-32.67 90.17c2.27,0.34 4.14,1.97 5.29,4.29 1.16,2.34 1.6,5.38 1.04,8.58 -0.57,3.22 -2.04,5.98 -3.93,7.78 -1.87,1.79 -4.18,2.67 -6.43,2.21 -2.25,-0.45 -4.03,-2.12 -5.11,-4.45 -1.08,-2.32 -1.46,-5.32 -0.92,-8.42 0.55,-3.1 1.93,-5.74 3.73,-7.54 1.81,-1.82 4.06,-2.8 6.33,-2.45zm-11.57 65.65c2.21,0.66 4.02,2.58 5.14,5.12 1.12,2.56 1.54,5.75 0.97,8.97 -0.57,3.22 -2.01,5.81 -3.86,7.39 -1.84,1.58 -4.09,2.14 -6.28,1.37 -2.2,-0.77 -3.93,-2.72 -4.98,-5.25 -1.04,-2.51 -1.41,-5.61 -0.86,-8.72 0.55,-3.1 1.91,-5.64 3.68,-7.24 1.77,-1.61 3.97,-2.3 6.19,-1.64zm23.15 -131.34c2.33,0.03 4.25,1.37 5.43,3.48 1.2,2.13 1.66,5.06 1.1,8.27 -0.57,3.21 -2.06,6.09 -3.98,8.11 -1.92,2.01 -4.27,3.18 -6.58,3.04 -2.31,-0.14 -4.14,-1.52 -5.26,-3.65 -1.11,-2.11 -1.52,-4.98 -0.97,-8.07 0.54,-3.1 1.95,-5.89 3.79,-7.9 1.85,-2.02 4.15,-3.3 6.47,-3.28z"/>
      <polygon class="fil2" points="236.26,90.2 204.4,74.62 198.54,75 194.61,69.83 176.22,60.84 171.97,64.45 162.17,120.02 175.73,123.11 160.9,127.21 154.12,165.66 156.02,176.7 150.21,187.85 136.6,265.06 141.19,271.74 175.49,268.1 177.86,262.46 183.34,267.27 199.56,265.55 214.34,251.56 226.21,184.26 211.65,163.46 232.45,148.9 241.56,97.2 "/>
     </g>
    </g>
    <path class="fil1" d="M75.26 89.94l0.02 -2.32 -2.36 -0.06 -5.77 -5.85 0.02 -3.13 9.4 -9.27 12.74 12.93 1.35 -1.34 2.71 2.75 -10.76 10.6 -3.13 -0.03 -4.22 -4.28zm1.57 -6.24l2.79 -3.46 -4.26 -4.32 -2.75 3.5 4.22 4.28zm5.06 5.13l3.5 -2.74 -2.71 -2.74 -3.14 3.1 2.35 2.38zm-30.29 18.83l-3.29 -2.02 3.88 -6.32 9.62 3.3 1.15 -1.88 -8.46 -5.18 2.87 -4.69 15.47 9.48 1 -1.62 3.28 2.02 -7.9 12.88 -3.04 0.72 -6.52 -4 -0.73 -3.04 -6.23 -1.45 -1.1 1.8zm15.62 0.87l2.74 -3.49 -3.28 -2.02 -2.31 3.77 2.85 1.74zm-8.54 19.06l-13.42 -4.91 -0.67 1.82 -3.62 -1.32 3.22 -8.78 3.62 1.32 -0.66 1.79 13.42 4.92 0.65 -1.79 3.62 1.33 -3.22 8.78 -3.61 -1.33 0.67 -1.83zm-20.24 20.86l-0.38 1.88 -3.78 -0.77 1.31 -6.46 5.66 -1.52 -4.57 -3.87 1.09 -5.39 9.12 7.72 8.33 -2.24 0.37 -1.87 3.74 0.76 -1.3 6.45 -5.65 1.54 4.55 3.86 -1.09 5.39 -9.11 -7.73 -8.29 2.25zm16.81 28.27l-5.76 0.02 -0.01 -3.86 1.71 0 0.18 -2.21 -14.28 0.03 0 1.95 -3.85 0 -0.02 -9.35 3.85 -0.01 0.01 1.91 14.28 -0.03 -0.19 -2.22 -1.71 0.01 -0.01 -3.82 5.76 -0.01 0.04 17.59zm1.83 22.7l-17.25 3.52 -2.61 -1.72 -2.2 -10.78 1.73 -2.61 17.26 -3.51 2.57 1.73 2.19 10.77 -1.69 2.6zm-3.25 -4.95l-0.34 -4.43 -14.03 2.86 1.43 4.21 12.94 -2.64zm-0.72 36.63l-3.48 1.66 -3.22 -6.77 7.51 -9.99 -10 4.75 -2.12 -4.46 16.43 -7.81 -0.84 -1.75 3.45 -1.63 3.08 6.48 -7.83 10.47 10.45 -4.96 2.12 4.46 -16.39 7.78 0.84 1.77z"/>
    <path class="fil1" d="M259.05 246.18l-0.02 2.33 2.37 0.05 5.77 5.86 -0.02 3.12 -9.41 9.27 -12.73 -12.92 -1.36 1.34 -2.7 -2.75 10.76 -10.61 3.12 0.03 4.22 4.28zm-1.57 6.24l-2.78 3.47 4.25 4.32 2.75 -3.51 -4.22 -4.28zm-5.05 -5.12l-3.5 2.73 2.7 2.75 3.15 -3.1 -2.35 -2.38zm30.29 -18.83l3.28 2.01 -3.88 6.33 -9.61 -3.3 -1.15 1.87 8.46 5.19 -2.88 4.69 -15.47 -9.49 -0.99 1.62 -3.29 -2.01 7.9 -12.88 3.04 -0.73 6.53 4 0.73 3.05 6.23 1.44 1.1 -1.79zm-15.62 -0.88l-2.75 3.5 3.29 2.01 2.31 -3.76 -2.85 -1.75zm8.54 -19.06l13.42 4.92 0.67 -1.83 3.62 1.33 -3.22 8.78 -3.62 -1.33 0.66 -1.79 -13.42 -4.92 -0.66 1.8 -3.62 -1.33 3.22 -8.78 3.62 1.32 -0.67 1.83zm20.24 -20.86l0.38 -1.87 3.77 0.76 -1.3 6.46 -5.66 1.52 4.57 3.87 -1.1 5.39 -9.12 -7.72 -8.32 2.25 -0.38 1.86 -3.74 -0.75 1.31 -6.45 5.64 -1.54 -4.55 -3.87 1.09 -5.38 9.12 7.73 8.29 -2.26zm-16.81 -28.27l5.76 -0.01 0.01 3.86 -1.72 0 -0.18 2.21 14.29 -0.03 -0.01 -1.95 3.86 -0.01 0.02 9.35 -3.86 0.01 0 -1.9 -14.29 0.03 0.2 2.21 1.71 0 0.01 3.81 -5.76 0.02 -0.04 -17.6zm-1.84 -22.7l17.26 -3.51 2.61 1.72 2.19 10.78 -1.73 2.6 -17.25 3.52 -2.57 -1.73 -2.2 -10.78 1.69 -2.6zm3.25 4.96l0.35 4.43 14.03 -2.86 -1.44 -4.21 -12.94 2.64zm0.73 -36.64l3.48 -1.65 3.21 6.77 -7.51 9.99 10 -4.75 2.12 4.46 -16.42 7.8 0.83 1.75 -3.45 1.64 -3.08 -6.48 7.83 -10.47 -10.44 4.96 -2.12 -4.46 16.39 -7.79 -0.84 -1.77z"/>
    <path class="fil1" d="M139.7 323.81c-43.01,-7.58 -78.88,-31.88 -102.09,-65.04 -23.22,-33.15 -33.78,-75.16 -26.2,-118.17 7.58,-43.01 31.88,-78.87 65.04,-102.09 33.15,-23.21 75.16,-33.78 118.17,-26.19 43.01,7.58 78.87,31.88 102.09,65.03 23.21,33.16 33.78,75.17 26.19,118.17 -7.58,43.01 -31.88,78.88 -65.03,102.09 -33.16,23.22 -75.17,33.78 -118.17,26.2zm-93.86 -70.8c21.74,31.05 55.32,53.8 95.6,60.9 40.28,7.1 79.62,-2.79 110.66,-24.53 31.05,-21.74 53.81,-55.33 60.91,-95.6 7.1,-40.28 -2.8,-79.62 -24.54,-110.66 -21.74,-31.05 -55.32,-53.8 -95.59,-60.91 -40.28,-7.1 -79.62,2.8 -110.67,24.54 -31.05,21.74 -53.8,55.32 -60.9,95.6 -7.1,40.27 2.79,79.61 24.53,110.66z"/>
    <path class="fil1" d="M75.9 262.26l-1.84 -1.87 -3.15 3.11 1.84 1.87c0.17,0.17 0.37,0.26 0.58,0.25 0.21,0 0.4,-0.09 0.57,-0.26l2 -1.97c0.18,-0.17 0.27,-0.36 0.26,-0.56 0,-0.21 -0.09,-0.39 -0.26,-0.57zm4.69 -5.26l-1.52 -1.55 -3.05 3 1.53 1.55c0.17,0.17 0.35,0.26 0.56,0.26 0.21,0 0.4,-0.08 0.56,-0.25l1.9 -1.87c0.18,-0.17 0.27,-0.36 0.27,-0.57 0,-0.21 -0.08,-0.4 -0.25,-0.57zm-13.15 6.07l11.27 -11.11c0.26,-0.25 0.52,-0.24 0.78,0.03l2.95 2.99c0.78,0.79 1.16,1.66 1.15,2.62 -0.01,0.95 -0.4,1.82 -1.2,2.61l-1.19 1.17c-0.87,0.86 -1.83,1.24 -2.87,1.14 0.3,1.26 -0.06,2.4 -1.1,3.42l-1.3 1.28c-0.78,0.78 -1.66,1.16 -2.61,1.16 -0.96,-0.01 -1.83,-0.41 -2.61,-1.2l-3.27 -3.32c-0.26,-0.27 -0.26,-0.53 0,-0.79zm22.89 7.51l-3.83 3.18 2.1 1.59 2.02 -4.55c0.19,-0.44 0.48,-0.91 0.86,-1.41l-0.03 -0.03c-0.39,0.51 -0.76,0.91 -1.12,1.22zm-3.74 9.28l0.85 -1.92 -3.12 -2.37 -1.61 1.36c-0.27,0.24 -0.56,0.24 -0.85,0.02l-1.4 -1.05c-0.28,-0.22 -0.28,-0.44 0,-0.68l12.78 -10.2c0.27,-0.24 0.56,-0.24 0.86,-0.01l0.87 0.65c0.29,0.22 0.36,0.5 0.21,0.83l-6.36 15.06c-0.06,0.16 -0.15,0.26 -0.27,0.29 -0.11,0.03 -0.24,0 -0.38,-0.11l-1.37 -1.04c-0.29,-0.22 -0.36,-0.49 -0.21,-0.83zm21.33 -2.69l-2.01 -1.1 -2.43 4.45 2 1.1c0.22,0.11 0.43,0.14 0.63,0.08 0.2,-0.07 0.36,-0.21 0.47,-0.42l1.65 -3.01c0.12,-0.22 0.15,-0.42 0.09,-0.62 -0.05,-0.2 -0.19,-0.37 -0.4,-0.48zm-5.73 12.42l1.46 -5.87 -1.48 -0.81 -2.8 5.11c-0.18,0.33 -0.42,0.4 -0.73,0.23l-1.44 -0.78c-0.32,-0.18 -0.39,-0.43 -0.23,-0.76l7.6 -13.89c0.17,-0.31 0.42,-0.37 0.75,-0.19l3.79 2.07c0.96,0.53 1.57,1.25 1.84,2.17 0.27,0.91 0.14,1.85 -0.39,2.82l-1.53 2.8c-0.66,1.21 -1.59,1.87 -2.79,1.97l-1.58 6.48c-0.04,0.16 -0.11,0.27 -0.22,0.32 -0.11,0.05 -0.23,0.04 -0.38,-0.04l-1.52 -0.83c-0.33,-0.18 -0.45,-0.45 -0.35,-0.8zm18.92 1.32l-2.47 -0.91 -1.52 4.15 2.47 0.91c0.22,0.08 0.44,0.08 0.62,-0.02 0.19,-0.09 0.33,-0.25 0.41,-0.48l0.97 -2.64c0.08,-0.23 0.08,-0.43 -0.01,-0.61 -0.08,-0.19 -0.25,-0.32 -0.47,-0.4zm1.99 -6.77l-2.04 -0.74 -1.47 4.01 2.04 0.75c0.22,0.08 0.43,0.08 0.62,-0.01 0.19,-0.08 0.32,-0.24 0.4,-0.46l0.92 -2.5c0.08,-0.23 0.08,-0.44 0,-0.63 -0.09,-0.19 -0.25,-0.33 -0.47,-0.42zm-9.3 11.11l5.45 -14.86c0.12,-0.33 0.36,-0.43 0.71,-0.3l3.94 1.44c1.04,0.38 1.77,1.01 2.17,1.87 0.4,0.87 0.41,1.83 0.02,2.88l-0.57 1.56c-0.42,1.16 -1.13,1.91 -2.11,2.27 0.81,1 0.97,2.19 0.47,3.56l-0.63 1.7c-0.38,1.04 -1,1.77 -1.87,2.17 -0.87,0.4 -1.82,0.41 -2.86,0.03l-4.38 -1.6c-0.35,-0.13 -0.47,-0.37 -0.34,-0.72zm27.79 -5.58l-3.77 -0.96 -1.27 4.96 2.68 0.69c0.36,0.09 0.5,0.3 0.41,0.65l-0.41 1.59c-0.09,0.35 -0.31,0.49 -0.67,0.4l-2.69 -0.69 -0.89 3.5 3.77 0.96c0.36,0.09 0.49,0.31 0.41,0.65l-0.41 1.59c-0.09,0.36 -0.32,0.49 -0.68,0.4l-5.87 -1.5c-0.35,-0.09 -0.48,-0.32 -0.41,-0.68l3.92 -15.33c0.09,-0.35 0.32,-0.47 0.68,-0.38l5.87 1.5c0.36,0.1 0.5,0.31 0.41,0.66l-0.41 1.62c-0.09,0.34 -0.31,0.46 -0.67,0.37zm13.31 1.96l-2.28 -0.23 -0.5 5.05 2.28 0.23c0.24,0.02 0.44,-0.03 0.6,-0.17 0.16,-0.14 0.25,-0.33 0.28,-0.57l0.33 -3.42c0.03,-0.24 -0.02,-0.45 -0.15,-0.61 -0.13,-0.16 -0.32,-0.26 -0.56,-0.28zm-0.41 13.68l-0.96 -5.98 -1.68 -0.16 -0.57 5.79c-0.04,0.37 -0.23,0.54 -0.58,0.5l-1.63 -0.16c-0.36,-0.03 -0.53,-0.24 -0.51,-0.61l1.55 -15.75c0.04,-0.35 0.25,-0.51 0.62,-0.47l4.3 0.43c1.08,0.1 1.93,0.53 2.54,1.27 0.6,0.74 0.85,1.65 0.74,2.75l-0.31 3.17c-0.14,1.38 -0.73,2.35 -1.79,2.9l1.08 6.59c0.03,0.16 0,0.29 -0.07,0.38 -0.09,0.09 -0.21,0.13 -0.37,0.11l-1.73 -0.17c-0.38,-0.03 -0.58,-0.23 -0.63,-0.59zm11.91 -10.8l-0.06 -1.19c-0.06,-1.1 0.23,-2 0.87,-2.71 0.64,-0.71 1.52,-1.09 2.62,-1.15l1.23 -0.06c1.1,-0.06 2.01,0.23 2.74,0.87 0.71,0.64 1.09,1.5 1.15,2.6l0.07 1.37c0.02,0.37 -0.15,0.57 -0.53,0.59l-1.64 0.08c-0.36,0.02 -0.54,-0.16 -0.56,-0.53l-0.08 -1.51c-0.01,-0.24 -0.1,-0.42 -0.26,-0.56 -0.16,-0.14 -0.36,-0.2 -0.6,-0.19l-1.52 0.08c-0.24,0.01 -0.43,0.09 -0.58,0.25 -0.14,0.15 -0.21,0.35 -0.2,0.58l0.07 1.33c0.02,0.27 0.12,0.47 0.33,0.61l4.58 3.66c0.38,0.29 0.69,0.68 0.94,1.15 0.25,0.51 0.39,0.99 0.42,1.46l0.07 1.45c0.06,1.08 -0.23,1.99 -0.87,2.71 -0.63,0.72 -1.5,1.11 -2.61,1.17l-1.52 0.08c-1.12,0.06 -2.02,-0.24 -2.73,-0.89 -0.71,-0.65 -1.09,-1.52 -1.15,-2.61l-0.07 -1.4c-0.02,-0.35 0.16,-0.54 0.52,-0.56l1.64 -0.08c0.37,-0.02 0.57,0.14 0.59,0.5l0.08 1.52c0.01,0.24 0.1,0.43 0.25,0.57 0.14,0.13 0.34,0.2 0.59,0.19l1.81 -0.1c0.24,-0.01 0.43,-0.1 0.56,-0.25 0.14,-0.15 0.2,-0.35 0.19,-0.59l-0.09 -1.57c-0.01,-0.27 -0.11,-0.47 -0.31,-0.61l-4.6 -3.65c-0.37,-0.29 -0.67,-0.68 -0.92,-1.17 -0.26,-0.49 -0.4,-0.97 -0.42,-1.44zm19.27 10.2l-2.39 -15.65c-0.06,-0.35 0.11,-0.55 0.48,-0.61l1.62 -0.25c0.35,-0.05 0.55,0.1 0.6,0.45l1.11 7.24 3.22 -0.5 -1.11 -7.24c-0.05,-0.35 0.1,-0.55 0.45,-0.6l1.63 -0.25c0.36,-0.06 0.57,0.09 0.63,0.44l2.39 15.65c0.05,0.36 -0.1,0.57 -0.47,0.63l-1.63 0.25c-0.35,0.05 -0.55,-0.1 -0.61,-0.47l-0.87 -5.71 -3.22 0.49 0.88 5.71c0.05,0.37 -0.09,0.58 -0.45,0.63l-1.61 0.25c-0.38,0.05 -0.59,-0.1 -0.65,-0.46zm17.51 -17.02l2.97 9.65c0.08,0.23 0.21,0.4 0.39,0.49 0.19,0.09 0.41,0.11 0.64,0.04l2.05 -0.64c0.24,-0.07 0.4,-0.2 0.49,-0.38 0.1,-0.18 0.11,-0.39 0.04,-0.62l-2.97 -9.65c-0.07,-0.23 -0.2,-0.39 -0.38,-0.49 -0.18,-0.09 -0.39,-0.1 -0.62,-0.03l-2.05 0.63c-0.23,0.07 -0.4,0.2 -0.51,0.38 -0.1,0.19 -0.12,0.4 -0.05,0.62zm0.33 10.32l-2.89 -9.38c-0.32,-1.05 -0.26,-1.99 0.19,-2.84 0.45,-0.84 1.2,-1.43 2.26,-1.75l1.78 -0.55c1.06,-0.33 2.01,-0.27 2.86,0.18 0.84,0.44 1.43,1.19 1.75,2.24l2.89 9.37c0.32,1.05 0.25,1.99 -0.19,2.84 -0.45,0.85 -1.2,1.43 -2.26,1.76l-1.78 0.55c-1.06,0.32 -2.02,0.26 -2.86,-0.19 -0.85,-0.44 -1.43,-1.19 -1.75,-2.23zm18.05 -18.22l-2.07 0.98 2.14 4.5 2.07 -0.98c0.21,-0.11 0.36,-0.26 0.43,-0.45 0.07,-0.19 0.05,-0.4 -0.05,-0.62l-1.45 -3.04c-0.1,-0.22 -0.25,-0.37 -0.45,-0.44 -0.19,-0.07 -0.4,-0.06 -0.62,0.05zm3.19 7.04l-1.94 0.92 2.53 5.33c0.16,0.33 0.08,0.57 -0.24,0.73l-1.48 0.7c-0.33,0.15 -0.58,0.07 -0.75,-0.26l-6.8 -14.29c-0.15,-0.32 -0.05,-0.57 0.29,-0.73l3.9 -1.85c0.98,-0.47 1.93,-0.54 2.83,-0.22 0.9,0.32 1.59,0.97 2.06,1.97l1.33 2.79c0.47,1 0.55,1.95 0.23,2.85 -0.32,0.9 -0.98,1.59 -1.96,2.06z"/>
    <path class="fil1" d="M139.18 36.66l-3.29 0.84 1.11 4.34 2.34 -0.6c0.32,-0.08 0.51,0.03 0.59,0.33l0.35 1.38c0.08,0.32 -0.03,0.51 -0.35,0.6l-2.34 0.59 0.78 3.06 3.29 -0.84c0.32,-0.08 0.51,0.03 0.59,0.33l0.35 1.39c0.08,0.31 -0.04,0.51 -0.35,0.59l-5.13 1.31c-0.31,0.08 -0.51,-0.04 -0.6,-0.35l-3.42 -13.4c-0.08,-0.3 0.04,-0.5 0.36,-0.58l5.13 -1.31c0.32,-0.08 0.51,0.03 0.59,0.33l0.36 1.42c0.08,0.3 -0.04,0.49 -0.36,0.57zm7.57 0.44l-0.15 -1.03c-0.15,-0.94 0.03,-1.75 0.52,-2.42 0.5,-0.67 1.23,-1.09 2.18,-1.23l1.06 -0.16c0.95,-0.15 1.77,0.02 2.46,0.51 0.67,0.5 1.08,1.22 1.23,2.16l0.18 1.2c0.05,0.32 -0.09,0.5 -0.41,0.55l-1.42 0.22c-0.31,0.04 -0.49,-0.09 -0.54,-0.41l-0.2 -1.31c-0.03,-0.21 -0.12,-0.36 -0.27,-0.47 -0.15,-0.11 -0.33,-0.14 -0.53,-0.11l-1.32 0.2c-0.21,0.03 -0.37,0.12 -0.49,0.26 -0.11,0.15 -0.15,0.33 -0.12,0.53l0.18 1.15c0.03,0.23 0.14,0.4 0.33,0.51l4.31 2.78c0.36,0.22 0.66,0.53 0.91,0.92 0.27,0.42 0.43,0.83 0.49,1.23l0.2 1.25c0.14,0.94 -0.04,1.75 -0.53,2.44 -0.48,0.68 -1.21,1.09 -2.16,1.24l-1.32 0.2c-0.97,0.15 -1.78,-0.03 -2.45,-0.53 -0.67,-0.51 -1.08,-1.23 -1.23,-2.17l-0.18 -1.22c-0.05,-0.3 0.09,-0.48 0.4,-0.52l1.42 -0.22c0.32,-0.05 0.51,0.08 0.56,0.38l0.2 1.31c0.03,0.22 0.12,0.37 0.26,0.48 0.14,0.11 0.32,0.15 0.53,0.12l1.57 -0.24c0.21,-0.04 0.37,-0.13 0.47,-0.27 0.1,-0.15 0.14,-0.32 0.11,-0.53l-0.21 -1.36c-0.04,-0.23 -0.14,-0.4 -0.33,-0.5l-4.31 -2.78c-0.35,-0.22 -0.65,-0.53 -0.91,-0.94 -0.26,-0.4 -0.42,-0.81 -0.49,-1.22zm21.81 -5.31l0 1.47c0,0.31 -0.15,0.46 -0.46,0.46l-2.18 0 0.03 11.91c0,0.33 -0.16,0.49 -0.47,0.49l-1.43 0c-0.32,0 -0.48,-0.16 -0.49,-0.48l-0.03 -11.91 -2.14 0c-0.32,0 -0.48,-0.15 -0.5,-0.46l0 -1.46c0,-0.31 0.16,-0.47 0.49,-0.47l6.71 -0.01c0.31,0 0.47,0.15 0.47,0.46zm11.55 2.54l-2.12 -0.21 -0.99 9.97 2.12 0.21c0.22,0.02 0.39,-0.03 0.53,-0.15 0.15,-0.12 0.23,-0.29 0.25,-0.5l0.84 -8.54c0.03,-0.21 -0.02,-0.39 -0.14,-0.53 -0.12,-0.14 -0.28,-0.23 -0.49,-0.25zm-5.68 11.41l1.36 -13.77c0.03,-0.31 0.21,-0.44 0.54,-0.41l3.88 0.38c0.96,0.1 1.71,0.47 2.25,1.12 0.53,0.64 0.75,1.44 0.65,2.4l-0.82 8.3c-0.09,0.97 -0.46,1.71 -1.11,2.24 -0.64,0.53 -1.46,0.75 -2.43,0.65l-3.87 -0.38c-0.33,-0.03 -0.48,-0.21 -0.45,-0.53zm18.21 2.43l0.75 -2.93c0.1,-0.42 0.31,-0.81 0.62,-1.18 0.31,-0.36 0.67,-0.63 1.07,-0.8l4 -1.64c0.23,-0.1 0.38,-0.28 0.44,-0.52l0.61 -2.39c0.08,-0.29 0.04,-0.54 -0.08,-0.76 -0.14,-0.22 -0.34,-0.37 -0.63,-0.45l-0.6 -0.15c-0.29,-0.07 -0.54,-0.04 -0.76,0.09 -0.22,0.13 -0.37,0.34 -0.44,0.62l-0.28 1.06c-0.08,0.32 -0.27,0.43 -0.59,0.35l-1.38 -0.35c-0.3,-0.08 -0.41,-0.27 -0.33,-0.59l0.21 -0.81c0.27,-1.06 0.81,-1.82 1.62,-2.3 0.81,-0.49 1.74,-0.59 2.79,-0.32l0.1 0.03c1.07,0.27 1.84,0.81 2.32,1.62 0.48,0.81 0.59,1.74 0.32,2.8l-0.57 2.23c-0.11,0.42 -0.32,0.81 -0.63,1.18 -0.31,0.36 -0.67,0.63 -1.07,0.8l-4 1.64c-0.22,0.07 -0.37,0.24 -0.44,0.51l-0.26 1.01 4.34 1.11c0.31,0.08 0.43,0.27 0.35,0.57l-0.35 1.39c-0.08,0.32 -0.28,0.43 -0.59,0.35l-6.2 -1.58c-0.27,-0.07 -0.39,-0.27 -0.34,-0.59zm18.72 -6.1l-2.82 7.72c-0.11,0.29 -0.11,0.55 0,0.78 0.11,0.24 0.3,0.41 0.58,0.51l1.11 0.41c0.29,0.1 0.55,0.1 0.78,-0.01 0.24,-0.11 0.41,-0.31 0.52,-0.6l2.82 -7.71c0.11,-0.28 0.1,-0.53 -0.01,-0.77 -0.11,-0.23 -0.3,-0.4 -0.59,-0.51l-1.12 -0.41c-0.28,-0.1 -0.53,-0.1 -0.77,0.01 -0.23,0.11 -0.4,0.3 -0.5,0.58zm-5.01 6.66l2.66 -7.25c0.37,-1.02 0.99,-1.72 1.85,-2.13 0.86,-0.39 1.8,-0.4 2.83,-0.02l0.63 0.23c1.04,0.38 1.75,0.99 2.15,1.85 0.4,0.85 0.41,1.79 0.03,2.81l-2.66 7.26c-0.37,1.02 -0.98,1.73 -1.84,2.12 -0.86,0.4 -1.8,0.41 -2.83,0.03l-0.63 -0.23c-1.03,-0.38 -1.75,-0.99 -2.15,-1.85 -0.39,-0.86 -0.41,-1.8 -0.04,-2.82zm11.89 7.97l1.32 -2.71c0.19,-0.39 0.47,-0.74 0.85,-1.03 0.37,-0.3 0.78,-0.49 1.21,-0.58l4.24 -0.81c0.25,-0.05 0.43,-0.19 0.54,-0.42l1.07 -2.22c0.13,-0.27 0.15,-0.52 0.07,-0.76 -0.09,-0.25 -0.26,-0.43 -0.53,-0.56l-0.55 -0.27c-0.27,-0.13 -0.53,-0.15 -0.77,-0.07 -0.24,0.09 -0.43,0.26 -0.55,0.53l-0.48 0.98c-0.14,0.29 -0.36,0.37 -0.65,0.23l-1.29 -0.63c-0.28,-0.13 -0.35,-0.35 -0.21,-0.64l0.37 -0.76c0.48,-0.97 1.16,-1.62 2.05,-1.93 0.89,-0.31 1.82,-0.22 2.8,0.25l0.09 0.05c0.99,0.48 1.64,1.16 1.95,2.05 0.31,0.89 0.23,1.82 -0.24,2.8l-1.01 2.08c-0.19,0.39 -0.47,0.73 -0.85,1.03 -0.37,0.29 -0.78,0.48 -1.21,0.57l-4.24 0.81c-0.23,0.03 -0.41,0.16 -0.54,0.42l-0.45 0.93 4.03 1.96c0.29,0.14 0.37,0.35 0.23,0.63l-0.62 1.28c-0.14,0.3 -0.36,0.37 -0.65,0.23l-5.76 -2.79c-0.26,-0.12 -0.33,-0.34 -0.22,-0.65zm11.75 6.22l1.57 -2.57c0.23,-0.37 0.55,-0.68 0.95,-0.94 0.4,-0.26 0.82,-0.41 1.26,-0.45l4.3 -0.39c0.25,-0.03 0.45,-0.15 0.58,-0.37l1.29 -2.1c0.15,-0.25 0.2,-0.5 0.14,-0.75 -0.06,-0.25 -0.22,-0.46 -0.47,-0.61l-0.53 -0.32c-0.25,-0.16 -0.5,-0.21 -0.75,-0.14 -0.25,0.06 -0.45,0.21 -0.61,0.46l-0.57 0.93c-0.17,0.28 -0.39,0.33 -0.67,0.16l-1.22 -0.74c-0.26,-0.17 -0.31,-0.38 -0.14,-0.66l0.44 -0.72c0.57,-0.93 1.31,-1.5 2.23,-1.72 0.92,-0.22 1.84,-0.04 2.76,0.52l0.09 0.06c0.94,0.57 1.52,1.32 1.74,2.23 0.22,0.92 0.04,1.84 -0.52,2.77l-1.21 1.97c-0.23,0.37 -0.54,0.68 -0.94,0.94 -0.41,0.25 -0.83,0.4 -1.27,0.45l-4.3 0.38c-0.23,0.01 -0.43,0.13 -0.57,0.37l-0.55 0.88 3.82 2.34c0.28,0.17 0.33,0.39 0.17,0.65l-0.75 1.22c-0.17,0.28 -0.39,0.33 -0.67,0.16l-5.45 -3.34c-0.24,-0.15 -0.29,-0.37 -0.15,-0.67z"/>
   </g>
  </g>
 </g>
</svg>
