<?xml version="1.0" encoding="UTF-8"?>
<!DOCTYPE svg PUBLIC "-//W3C//DTD SVG 1.1//EN" "http://www.w3.org/Graphics/SVG/1.1/DTD/svg11.dtd">
<!-- Creator: CorelDRAW -->
<svg xmlns="http://www.w3.org/2000/svg" xml:space="preserve" width="212px" height="240px" version="1.1" style="shape-rendering:geometricPrecision; text-rendering:geometricPrecision; image-rendering:optimizeQuality; fill-rule:evenodd; clip-rule:evenodd"
viewBox="0 0 212 240"
 xmlns:xlink="http://www.w3.org/1999/xlink"
 xmlns:xodm="http://www.corel.com/coreldraw/odm/2003">
 <defs>
  <style type="text/css">
   <![CDATA[
    .fil0 {fill:#D94220}
    .fil2 {fill:#4D1709;fill-rule:nonzero}
    .fil1 {fill:white;fill-rule:nonzero}
   ]]>
  </style>
 </defs>
 <g id="Слой_x0020_1">
  <metadata id="CorelCorpID_0Corel-Layer"/>
  <g id="_1603824891328">
   <polygon class="fil0" points="0,240 212,240 212,178.977 199.053,168.572 212,169.923 212,14.332 195.749,0 0,0 0,57.586 5.183,76.628 0,105.647 "/>
   <path class="fil1" d="M48.788 147.782l0 4.579 -8.534 0 -3.925 -11.789 -1.333 0 0 11.789 -6.568 0 0 -21.607 -2.323 0 0 -4.535 8.891 0 0 9.115 3.97 0 2.599 -9.115 6.568 0 -5.235 14.353 3.202 7.21 2.688 0zm20.9 -21.563l2.636 2.631 0 20.881 -2.636 2.63 -13.137 0 -2.636 -2.63 0 -3.905 6.568 -1.327 0 3.283 5.273 -0.674 0 -7.188 -5.273 0.652 1.333 -5.187 3.94 0 0 -3.979 -5.273 -0.607 0 1.956 -6.568 1.282 0 -5.187 2.636 -2.631 13.137 0zm42.585 21.563l0 4.579 -29.885 0 -2.592 -2.63 0 -18.932 -2.323 0 0 -4.58 8.891 0 0 21.556 5.228 -0.675 0 -20.881 6.568 0 0 21.556 5.273 -0.675 0 -20.881 6.568 0 0 21.563 2.272 0zm23.572 -9.833l0 11.789 -2.599 2.623 -15.765 0 0 -21.562 -2.316 0 0 -4.58 19.377 0 0 6.847 -4.602 0 0 -1.867 -5.891 -0.393 0 4.579 9.197 0 2.599 2.564zm-6.568 1.971l-5.228 0.652 0 7.21 5.228 -0.674 0 -7.188zm31.065 -13.701l0 7.514 -4.603 0 0 -2.238 -5.898 -0.733 0 4.579 6.248 0 -1.332 4.579 -4.916 0.652 0 7.21 5.898 -0.763 0 -2.172 4.603 0 0 7.514 -17.069 0 0 -21.607 -2.271 0 0 -4.535 19.34 0zm25.553 21.563l0 4.579 -8.534 0 -3.924 -11.789 -1.334 0 0 11.789 -6.568 0 0 -21.607 -2.323 0 0 -4.535 8.891 0 0 9.115 3.97 0 2.599 -9.115 6.568 0 -5.235 14.353 3.202 7.21 2.688 0z"/>
   <path class="fil2" d="M61.225 171.65l0 -11.062c0,-0.248 0.133,-0.372 0.399,-0.372l1.151 0c0.249,0 0.373,0.124 0.373,0.372l0 5.118 2.285 0 0 -5.118c0,-0.248 0.125,-0.372 0.374,-0.372l1.159 0c0.261,0 0.391,0.124 0.391,0.372l0 11.062c0,0.259 -0.13,0.389 -0.391,0.389l-1.159 0c-0.249,0 -0.374,-0.13 -0.374,-0.389l0 -4.038 -2.285 0 0 4.038c0,0.259 -0.124,0.389 -0.373,0.389l-1.151 0c-0.266,0 -0.399,-0.13 -0.399,-0.389zm11.038 -6.734l-0.797 3.388 1.85 0 -0.798 -3.388c-0.076,-0.327 -0.116,-0.71 -0.116,-1.154l-0.031 0c0,0.444 -0.037,0.827 -0.108,1.154zm1.839 6.751l-0.339 -1.435 -2.752 0 -0.323 1.435c-0.053,0.248 -0.212,0.372 -0.472,0.372l-1.228 0c-0.246,0 -0.345,-0.124 -0.288,-0.372l2.834 -11.079c0.054,-0.248 0.215,-0.372 0.481,-0.372l0.761 0c0.254,0 0.412,0.124 0.472,0.372l2.817 11.079c0.034,0.115 0.025,0.205 -0.023,0.273 -0.051,0.065 -0.138,0.099 -0.266,0.099l-1.202 0c-0.26,0 -0.415,-0.124 -0.472,-0.372zm10.374 -4.624l-1.847 0 0 3.09 1.847 0c0.17,0 0.308,-0.053 0.41,-0.16 0.102,-0.107 0.153,-0.245 0.153,-0.417l0 -1.961c0,-0.172 -0.051,-0.307 -0.153,-0.405 -0.102,-0.099 -0.24,-0.147 -0.41,-0.147zm-0.322 -4.916l-1.525 0 0 2.986 1.525 0c0.169,0 0.305,-0.051 0.41,-0.152 0.102,-0.101 0.153,-0.236 0.153,-0.4l0 -1.863c0,-0.171 -0.051,-0.309 -0.153,-0.413 -0.105,-0.105 -0.241,-0.158 -0.41,-0.158zm-3.448 9.523l0 -11.062c0,-0.248 0.133,-0.372 0.399,-0.372l2.947 0c0.781,0 1.408,0.236 1.881,0.709 0.475,0.473 0.712,1.098 0.712,1.88l0 1.162c0,0.862 -0.279,1.529 -0.842,1.996 0.777,0.467 1.168,1.207 1.168,2.226l0 1.269c0,0.774 -0.238,1.398 -0.713,1.871 -0.475,0.473 -1.103,0.71 -1.881,0.71l-3.272 0c-0.266,0 -0.399,-0.13 -0.399,-0.389zm12.427 -3.444l1.154 0c0.252,0 0.385,0.129 0.396,0.385l0 0.965c0,0.766 -0.238,1.382 -0.713,1.855 -0.475,0.473 -1.103,0.709 -1.889,0.709l-1.052 0c-0.778,0 -1.406,-0.236 -1.881,-0.709 -0.475,-0.473 -0.713,-1.089 -0.713,-1.855l0 -6.858c0,-0.765 0.238,-1.384 0.713,-1.857 0.475,-0.47 1.103,-0.707 1.881,-0.707l1.052 0c0.775,0 1.403,0.234 1.889,0.707 0.475,0.473 0.713,1.092 0.713,1.857l0 0.963c0,0.259 -0.133,0.388 -0.396,0.388l-1.154 0c-0.257,0 -0.387,-0.129 -0.387,-0.388l0 -1.061c0,-0.172 -0.051,-0.307 -0.156,-0.405 -0.102,-0.099 -0.235,-0.15 -0.402,-0.15l-1.258 0c-0.17,0 -0.311,0.051 -0.419,0.152 -0.107,0.104 -0.161,0.237 -0.161,0.403l0 7.055c0,0.172 0.054,0.307 0.161,0.408 0.108,0.101 0.249,0.155 0.419,0.155l1.258 0c0.173,0 0.309,-0.054 0.408,-0.155 0.099,-0.101 0.15,-0.236 0.15,-0.408l0 -1.064c0,-0.256 0.13,-0.385 0.387,-0.385zm8.038 -6.079l-2.732 0 0 3.579 1.946 0c0.26,0 0.39,0.124 0.39,0.372l0 1.145c0,0.259 -0.13,0.389 -0.39,0.389l-1.946 0 0 2.521 2.732 0c0.26,0 0.39,0.124 0.39,0.372l0 1.145c0,0.259 -0.13,0.389 -0.39,0.389l-4.257 0c-0.254,0 -0.387,-0.13 -0.398,-0.389l0 -11.062c0,-0.248 0.132,-0.372 0.398,-0.372l4.257 0c0.26,0 0.39,0.124 0.39,0.372l0 1.17c0,0.248 -0.13,0.369 -0.39,0.369zm8.137 3.695l1.318 -5.212c0.023,-0.25 0.147,-0.383 0.373,-0.394l1.228 0c0.237,0 0.356,0.132 0.356,0.394l-2.463 9.236c-0.21,0.774 -0.453,1.346 -0.727,1.714 -0.283,0.374 -0.724,0.56 -1.327,0.56l-0.953 0c-0.271,0 -0.407,-0.124 -0.407,-0.371l0 -1.061c0,-0.248 0.136,-0.372 0.407,-0.372l0.515 0c0.252,0 0.415,-0.157 0.486,-0.47l0.051 -0.208 -2.427 -9.05c-0.056,-0.248 0.04,-0.372 0.289,-0.372l1.244 0c0.258,0 0.416,0.124 0.473,0.372l1.275 5.234c0.077,0.324 0.116,0.703 0.116,1.137l0.065 0c0.012,-0.498 0.049,-0.878 0.108,-1.137zm9.081 2.384l1.154 0c0.252,0 0.385,0.129 0.396,0.385l0 0.965c0,0.766 -0.237,1.382 -0.713,1.855 -0.475,0.473 -1.102,0.709 -1.889,0.709l-1.052 0c-0.778,0 -1.406,-0.236 -1.881,-0.709 -0.475,-0.473 -0.713,-1.089 -0.713,-1.855l0 -6.858c0,-0.765 0.238,-1.384 0.713,-1.857 0.475,-0.47 1.103,-0.707 1.881,-0.707l1.052 0c0.775,0 1.403,0.234 1.889,0.707 0.476,0.473 0.713,1.092 0.713,1.857l0 0.963c0,0.259 -0.133,0.388 -0.396,0.388l-1.154 0c-0.257,0 -0.387,-0.129 -0.387,-0.388l0 -1.061c0,-0.172 -0.051,-0.307 -0.156,-0.405 -0.101,-0.099 -0.234,-0.15 -0.401,-0.15l-1.259 0c-0.17,0 -0.311,0.051 -0.419,0.152 -0.107,0.104 -0.161,0.237 -0.161,0.403l0 7.055c0,0.172 0.054,0.307 0.161,0.408 0.108,0.101 0.249,0.155 0.419,0.155l1.259 0c0.172,0 0.308,-0.054 0.407,-0.155 0.099,-0.101 0.15,-0.236 0.15,-0.408l0 -1.064c0,-0.256 0.13,-0.385 0.387,-0.385zm9.347 3.833l-1.176 0c-0.238,0 -0.357,-0.13 -0.357,-0.389l0 -9.523 -1.708 0 -0.512 7.719c-0.045,0.721 -0.243,1.278 -0.594,1.677 -0.35,0.397 -0.837,0.597 -1.462,0.597l-0.605 0c-0.266,0 -0.402,-0.124 -0.413,-0.371l0 -1.061c0,-0.248 0.138,-0.372 0.413,-0.372l0.184 0c0.331,0 0.517,-0.253 0.562,-0.76l0.589 -8.968c0.028,-0.248 0.158,-0.372 0.39,-0.372l4.689 0c0.111,0 0.204,0.034 0.278,0.102 0.073,0.07 0.11,0.16 0.11,0.27l0 11.062c0,0.11 -0.037,0.203 -0.11,0.276 -0.074,0.076 -0.167,0.113 -0.278,0.113zm5.334 -6.217l1.318 -5.212c0.023,-0.25 0.148,-0.383 0.374,-0.394l1.227 0c0.238,0 0.356,0.132 0.356,0.394l-2.463 9.236c-0.209,0.774 -0.453,1.346 -0.727,1.714 -0.283,0.374 -0.724,0.56 -1.326,0.56l-0.953 0c-0.272,0 -0.408,-0.124 -0.408,-0.371l0 -1.061c0,-0.248 0.136,-0.372 0.408,-0.372l0.514 0c0.252,0 0.416,-0.157 0.487,-0.47l0.051 -0.208 -2.427 -9.05c-0.057,-0.248 0.04,-0.372 0.289,-0.372l1.244 0c0.257,0 0.416,0.124 0.472,0.372l1.276 5.234c0.076,0.324 0.116,0.703 0.116,1.137l0.065 0c0.011,-0.498 0.048,-0.878 0.107,-1.137zm6.183 6.217l-1.151 0c-0.255,0 -0.388,-0.13 -0.399,-0.389l0 -11.062c0,-0.248 0.133,-0.372 0.399,-0.372l4.149 0c0.26,0 0.39,0.124 0.39,0.372l0 1.17c0,0.248 -0.13,0.369 -0.39,0.369l-2.625 0 0 9.523c0,0.259 -0.124,0.389 -0.373,0.389zm9.024 -0.389l0 -5.474c0,-0.295 0.046,-0.678 0.139,-1.145l-0.031 0c-0.088,0.422 -0.198,0.788 -0.322,1.095l-2.362 5.558c-0.107,0.236 -0.28,0.355 -0.523,0.355l-0.761 0c-0.255,0 -0.388,-0.13 -0.399,-0.389l0 -11.062c0,-0.248 0.133,-0.372 0.399,-0.372l1.151 0c0.249,0 0.373,0.124 0.373,0.372l0 5.571c0,0.364 -0.042,0.743 -0.124,1.137l0.039 0.017c0.088,-0.422 0.19,-0.796 0.3,-1.12l2.379 -5.622c0.088,-0.236 0.263,-0.355 0.529,-0.355l0.763 0c0.258,0 0.388,0.124 0.388,0.372l0 11.062c0,0.259 -0.13,0.389 -0.388,0.389l-1.154 0c-0.263,0 -0.396,-0.13 -0.396,-0.389zm-104.348 6.507l1.378 0c0.243,0 0.317,0.112 0.223,0.337l-2.477 5.285 2.783 5.862c0.11,0.225 0.036,0.338 -0.224,0.338l-1.357 0c-0.261,0 -0.447,-0.113 -0.557,-0.338l-2.376 -4.998 0 4.947c0,0.259 -0.125,0.389 -0.374,0.389l-1.151 0c-0.254,0 -0.387,-0.13 -0.398,-0.389l0 -11.062c0,-0.248 0.132,-0.371 0.398,-0.371l1.151 0c0.249,0 0.374,0.123 0.374,0.371l0 4.376 2.07 -4.41c0.111,-0.225 0.289,-0.337 0.537,-0.337zm6.83 1.91l-1.606 0 0 3.481 1.606 0c0.17,0 0.309,-0.05 0.41,-0.151 0.102,-0.102 0.153,-0.24 0.153,-0.408l0 -2.35c0,-0.172 -0.051,-0.31 -0.153,-0.414 -0.101,-0.104 -0.24,-0.158 -0.41,-0.158zm-0.098 5.401l-1.508 0 0 4.122c0,0.259 -0.125,0.389 -0.374,0.389l-1.151 0c-0.254,0 -0.387,-0.13 -0.398,-0.389l0 -11.062c0,-0.248 0.133,-0.371 0.398,-0.371l3.033 0c0.766,0 1.388,0.236 1.863,0.709 0.475,0.472 0.713,1.092 0.713,1.863l0 2.158c0,0.777 -0.238,1.401 -0.713,1.871 -0.475,0.473 -1.097,0.71 -1.863,0.71zm5.792 -4.928l0 7.055c0,0.172 0.053,0.307 0.161,0.408 0.107,0.101 0.248,0.155 0.418,0.155l1.508 0c0.172,0 0.308,-0.054 0.41,-0.155 0.102,-0.101 0.153,-0.236 0.153,-0.408l0 -7.055c0,-0.172 -0.051,-0.306 -0.153,-0.405 -0.102,-0.099 -0.238,-0.149 -0.41,-0.149l-1.508 0c-0.17,0 -0.311,0.05 -0.418,0.152 -0.108,0.104 -0.161,0.236 -0.161,0.402zm-1.915 6.957l0 -6.858c0,-0.766 0.237,-1.385 0.712,-1.858 0.476,-0.47 1.103,-0.706 1.881,-0.706l1.31 0c0.78,0 1.406,0.236 1.881,0.706 0.475,0.473 0.712,1.092 0.712,1.858l0 6.858c0,0.765 -0.237,1.381 -0.712,1.854 -0.475,0.473 -1.101,0.709 -1.881,0.709l-1.31 0c-0.778,0 -1.405,-0.236 -1.881,-0.709 -0.475,-0.473 -0.712,-1.089 -0.712,-1.854zm10.224 -4.371l0 6.464c0,0.259 -0.133,0.389 -0.396,0.389l-1.044 0c-0.254,0 -0.387,-0.13 -0.399,-0.389l0 -11.062c0,-0.248 0.133,-0.371 0.399,-0.371l1.349 0c0.249,0 0.416,0.118 0.498,0.354l1.508 4.748c0.11,0.374 0.166,0.745 0.166,1.114l0.04 0c0,-0.431 0.051,-0.799 0.15,-1.114l1.507 -4.748c0.074,-0.236 0.243,-0.354 0.515,-0.354l1.358 0c0.249,0 0.373,0.123 0.373,0.371l0 11.062c0,0.259 -0.124,0.389 -0.373,0.389l-1.07 0c-0.243,0 -0.37,-0.13 -0.379,-0.389l0 -6.464c0,-0.335 0.034,-0.712 0.108,-1.137l-0.034 -0.017c-0.062,0.403 -0.147,0.774 -0.258,1.115l-1.241 4.089c-0.074,0.248 -0.24,0.371 -0.506,0.371l-0.356 0c-0.261,0 -0.428,-0.123 -0.507,-0.371l-1.242 -4.089c-0.121,-0.402 -0.206,-0.774 -0.257,-1.115l-0.034 0.017c0.085,0.501 0.125,0.881 0.125,1.137zm12.735 -3.059l-2.732 0 0 3.58 1.946 0c0.26,0 0.39,0.124 0.39,0.371l0 1.146c0,0.259 -0.13,0.388 -0.39,0.388l-1.946 0 0 2.522 2.732 0c0.26,0 0.39,0.123 0.39,0.371l0 1.145c0,0.259 -0.13,0.389 -0.39,0.389l-4.256 0c-0.255,0 -0.388,-0.13 -0.399,-0.389l0 -11.062c0,-0.248 0.133,-0.371 0.399,-0.371l4.256 0c0.26,0 0.39,0.123 0.39,0.371l0 1.171c0,0.247 -0.13,0.368 -0.39,0.368zm9.778 -1.91l1.377 0c0.243,0 0.317,0.112 0.223,0.337l-2.477 5.285 2.783 5.862c0.11,0.225 0.036,0.338 -0.224,0.338l-1.357 0c-0.26,0 -0.447,-0.113 -0.557,-0.338l-2.376 -4.998 0 4.947c0,0.259 -0.125,0.389 -0.374,0.389l-1.151 0c-0.254,0 -0.387,-0.13 -0.398,-0.389l0 -11.062c0,-0.248 0.133,-0.371 0.398,-0.371l1.151 0c0.249,0 0.374,0.123 0.374,0.371l0 4.376 2.07 -4.41c0.111,-0.225 0.289,-0.337 0.538,-0.337zm4.881 2.383l0 7.055c0,0.172 0.054,0.307 0.161,0.408 0.108,0.101 0.249,0.155 0.419,0.155l1.507 0c0.173,0 0.309,-0.054 0.41,-0.155 0.102,-0.101 0.153,-0.236 0.153,-0.408l0 -7.055c0,-0.172 -0.051,-0.306 -0.153,-0.405 -0.101,-0.099 -0.237,-0.149 -0.41,-0.149l-1.507 0c-0.17,0 -0.311,0.05 -0.419,0.152 -0.107,0.104 -0.161,0.236 -0.161,0.402zm-1.915 6.957l0 -6.858c0,-0.766 0.238,-1.385 0.713,-1.858 0.475,-0.47 1.103,-0.706 1.881,-0.706l1.309 0c0.781,0 1.406,0.236 1.881,0.706 0.475,0.473 0.713,1.092 0.713,1.858l0 6.858c0,0.765 -0.238,1.381 -0.713,1.854 -0.475,0.473 -1.1,0.709 -1.881,0.709l-1.309 0c-0.778,0 -1.406,-0.236 -1.881,-0.709 -0.475,-0.473 -0.713,-1.089 -0.713,-1.854zm10.224 -4.371l0 6.464c0,0.259 -0.133,0.389 -0.396,0.389l-1.044 0c-0.254,0 -0.387,-0.13 -0.398,-0.389l0 -11.062c0,-0.248 0.133,-0.371 0.398,-0.371l1.35 0c0.249,0 0.415,0.118 0.497,0.354l1.508 4.748c0.11,0.374 0.167,0.745 0.167,1.114l0.04 0c0,-0.431 0.05,-0.799 0.149,-1.114l1.508 -4.748c0.073,-0.236 0.243,-0.354 0.514,-0.354l1.358 0c0.249,0 0.373,0.123 0.373,0.371l0 11.062c0,0.259 -0.124,0.389 -0.373,0.389l-1.069 0c-0.243,0 -0.37,-0.13 -0.379,-0.389l0 -6.464c0,-0.335 0.034,-0.712 0.107,-1.137l-0.034 -0.017c-0.062,0.403 -0.146,0.774 -0.257,1.115l-1.242 4.089c-0.073,0.248 -0.24,0.371 -0.506,0.371l-0.356 0c-0.26,0 -0.427,-0.123 -0.506,-0.371l-1.242 -4.089c-0.122,-0.402 -0.207,-0.774 -0.257,-1.115l-0.034 0.017c0.084,0.501 0.124,0.881 0.124,1.137zm14.195 -4.598l0 11.062c0,0.259 -0.125,0.389 -0.373,0.389l-1.177 0c-0.249,0 -0.373,-0.13 -0.373,-0.389l0 -9.523 -2.268 0 0 9.523c0,0.259 -0.125,0.389 -0.374,0.389l-1.151 0c-0.254,0 -0.387,-0.13 -0.399,-0.389l0 -11.062c0,-0.248 0.133,-0.371 0.399,-0.371l5.343 0c0.248,0 0.373,0.123 0.373,0.371zm8.187 11.451l-1.176 0c-0.238,0 -0.356,-0.13 -0.356,-0.389l0 -9.523 -1.709 0 -0.512 7.72c-0.045,0.72 -0.243,1.277 -0.593,1.677 -0.351,0.397 -0.838,0.596 -1.463,0.596l-0.605 0c-0.266,0 -0.402,-0.123 -0.413,-0.371l0 -1.061c0,-0.248 0.139,-0.371 0.413,-0.371l0.184 0c0.331,0 0.518,-0.254 0.563,-0.76l0.588 -8.969c0.028,-0.248 0.159,-0.371 0.39,-0.371l4.689 0c0.111,0 0.204,0.033 0.278,0.101 0.073,0.07 0.11,0.16 0.11,0.27l0 11.062c0,0.11 -0.037,0.203 -0.11,0.276 -0.074,0.076 -0.167,0.113 -0.278,0.113zm7.099 -9.912l-2.732 0 0 3.58 1.946 0c0.26,0 0.39,0.124 0.39,0.371l0 1.146c0,0.259 -0.13,0.388 -0.39,0.388l-1.946 0 0 2.522 2.732 0c0.26,0 0.391,0.123 0.391,0.371l0 1.145c0,0.259 -0.131,0.389 -0.391,0.389l-4.256 0c-0.255,0 -0.388,-0.13 -0.399,-0.389l0 -11.062c0,-0.248 0.133,-0.371 0.399,-0.371l4.256 0c0.26,0 0.391,0.123 0.391,0.371l0 1.171c0,0.247 -0.131,0.368 -0.391,0.368zm6.497 -1.91l1.377 0c0.243,0 0.317,0.112 0.223,0.337l-2.477 5.285 2.783 5.862c0.11,0.225 0.037,0.338 -0.224,0.338l-1.357 0c-0.26,0 -0.447,-0.113 -0.557,-0.338l-2.376 -4.998 0 4.947c0,0.259 -0.125,0.389 -0.373,0.389l-1.152 0c-0.254,0 -0.387,-0.13 -0.398,-0.389l0 -11.062c0,-0.248 0.133,-0.371 0.398,-0.371l1.152 0c0.248,0 0.373,0.123 0.373,0.371l0 4.376 2.07 -4.41c0.111,-0.225 0.289,-0.337 0.538,-0.337zm7.664 7.989l1.154 0c0.252,0 0.385,0.129 0.396,0.385l0 0.966c0,0.765 -0.238,1.381 -0.713,1.854 -0.475,0.473 -1.103,0.709 -1.889,0.709l-1.052 0c-0.778,0 -1.406,-0.236 -1.881,-0.709 -0.475,-0.473 -0.713,-1.089 -0.713,-1.854l0 -6.858c0,-0.766 0.238,-1.385 0.713,-1.858 0.475,-0.47 1.103,-0.706 1.881,-0.706l1.052 0c0.775,0 1.403,0.233 1.889,0.706 0.475,0.473 0.713,1.092 0.713,1.858l0 0.962c0,0.259 -0.133,0.388 -0.396,0.388l-1.154 0c-0.257,0 -0.387,-0.129 -0.387,-0.388l0 -1.061c0,-0.172 -0.051,-0.306 -0.156,-0.405 -0.102,-0.099 -0.235,-0.149 -0.402,-0.149l-1.258 0c-0.17,0 -0.311,0.05 -0.419,0.152 -0.107,0.104 -0.161,0.236 -0.161,0.402l0 7.055c0,0.172 0.054,0.307 0.161,0.408 0.108,0.101 0.249,0.155 0.419,0.155l1.258 0c0.173,0 0.309,-0.054 0.408,-0.155 0.099,-0.101 0.15,-0.236 0.15,-0.408l0 -1.064c0,-0.256 0.13,-0.385 0.387,-0.385zm3.383 3.444l0 -11.062c0,-0.248 0.132,-0.371 0.398,-0.371l1.151 0c0.249,0 0.374,0.123 0.374,0.371l0 5.119 2.285 0 0 -5.119c0,-0.248 0.124,-0.371 0.373,-0.371l1.16 0c0.26,0 0.39,0.123 0.39,0.371l0 11.062c0,0.259 -0.13,0.389 -0.39,0.389l-1.16 0c-0.249,0 -0.373,-0.13 -0.373,-0.389l0 -4.038 -2.285 0 0 4.038c0,0.259 -0.125,0.389 -0.374,0.389l-1.151 0c-0.266,0 -0.398,-0.13 -0.398,-0.389zm11.683 -5.102l-1.572 0 0 3.586 1.572 0c0.173,0 0.308,-0.054 0.41,-0.161 0.102,-0.107 0.153,-0.245 0.153,-0.416l0 -2.432c0,-0.171 -0.051,-0.309 -0.153,-0.416 -0.102,-0.107 -0.237,-0.161 -0.41,-0.161zm-1.572 -5.96l0 4.055 1.473 0c0.778,0 1.406,0.237 1.881,0.709 0.475,0.473 0.712,1.098 0.712,1.872l0 2.234c0,0.774 -0.237,1.399 -0.712,1.872 -0.475,0.472 -1.103,0.709 -1.881,0.709l-2.998 0c-0.255,0 -0.388,-0.13 -0.399,-0.389l0 -11.062c0,-0.248 0.133,-0.371 0.399,-0.371l1.151 0c0.249,0 0.374,0.123 0.374,0.371zm6.96 0l0 11.062c0,0.259 -0.133,0.389 -0.399,0.389l-1.151 0c-0.26,0 -0.391,-0.13 -0.391,-0.389l0 -11.062c0,-0.248 0.131,-0.371 0.391,-0.371l1.151 0c0.266,0 0.399,0.123 0.399,0.371zm6.36 -0.371l1.318 0c0.249,0 0.328,0.118 0.241,0.354l-2.105 5.302 2.328 5.811c0.088,0.237 0.009,0.355 -0.24,0.355l-1.327 0c-0.249,0 -0.416,-0.118 -0.503,-0.355l-1.103 -2.836c-0.128,-0.347 -0.19,-0.718 -0.19,-1.112l-0.033 0c0,0.428 -0.069,0.799 -0.207,1.112l-1.086 2.836c-0.088,0.237 -0.263,0.355 -0.524,0.355l-1.309 0c-0.24,0 -0.319,-0.118 -0.232,-0.355l2.322 -5.811 -2.104 -5.302c-0.091,-0.236 -0.009,-0.354 0.24,-0.354l1.307 0c0.26,0 0.435,0.118 0.523,0.354l0.888 2.333c0.125,0.352 0.187,0.723 0.182,1.112l0.033 0c0,-0.394 0.062,-0.766 0.19,-1.112l0.879 -2.333c0.088,-0.236 0.258,-0.354 0.512,-0.354z"/>
   <path class="fil1" d="M78.548 74.906l0 27.463 -22.611 1.718 0 -14.468 -21.447 4.185 0 12.75 8.608 8.564c16.097,0 32.193,0 48.29,0l8.607 -8.564 0 -17.349 -8.306 -8.147 0 -18.913 -0.325 -0.324 -35.427 0 0 -20.778 22.611 2.343 0 6.678c7.149,0 14.298,0 21.447,0l0 -20.323c-21.835,0 -43.67,0 -65.505,0 0,12.637 0,25.274 0,37.911l9.045 8.564 35.013 -1.31z"/>
   <g>
    <path class="fil1" d="M129.883 61.239l0 18.228 -6.015 5.901 -22.307 0 -6.015 -5.901 0 -18.228 6.015 -5.984 22.307 0 6.015 5.984zm-11.214 3.026l-11.807 -1.538 0 15.202 11.807 -1.471 0 -12.193z"/>
    <path class="fil1" d="M177.51 90.99l0 18.228 -6.015 5.9 -22.307 0 -6.015 -5.9 0 -18.228 6.015 -5.985 22.307 0 6.015 5.985zm-11.214 3.026l-11.807 -1.538 0 15.202 11.807 -1.471 0 -12.193z"/>
    <polygon class="fil1" points="112.705,115.118 147.441,55.255 160.507,55.255 125.771,115.118 "/>
   </g>
  </g>
 </g>
</svg>
