<?xml version="1.0" encoding="UTF-8"?>
<!DOCTYPE svg PUBLIC "-//W3C//DTD SVG 1.1//EN" "http://www.w3.org/Graphics/SVG/1.1/DTD/svg11.dtd">
<!-- Creator: CorelDRAW -->
<svg xmlns="http://www.w3.org/2000/svg" xml:space="preserve"  version="1.1" style="shape-rendering:geometricPrecision; text-rendering:geometricPrecision; image-rendering:optimizeQuality; fill-rule:evenodd; clip-rule:evenodd"
viewBox="0 0 148 240"  
 xmlns:xlink="http://www.w3.org/1999/xlink"
 xmlns:xodm="http://www.corel.com/coreldraw/odm/2003">
 <defs>
  <style type="text/css">
   <![CDATA[
    .fil2 {fill:#21363B}
    .fil1 {fill:#D94220}
    .fil0 {fill:white}
   ]]>
  </style>
 </defs>
 <g id="Слой_x0020_1">
  <metadata id="CorelCorpID_0Corel-Layer"/>
  <g id="_1603765262384">
   <path class="fil0" d="M105.83 0l11.531 11.584 0 74.384 6.751 0.49 1.897 20.433 21.991 41.601 -11.315 91.509 -108.159 0 -27.133 -67.949c0.138,-4.115 0.277,-8.23 0.416,-12.345l5.061 -5.456 -5.417 -11.338 7.774 -10.904 -3.428 -21.297 5.919 -8.273 1.404 -0.647 -12.224 -12.19 -0.898 -10.67 6.585 -7.98 10.18 -0.825 6.182 4.867 0 -63.41 11.531 -11.584 71.352 0z"/>
   <polygon class="fil1" points="27.661,151.349 27.661,151.34 38.571,155.447 48.534,154.284 53.393,146.659 43.176,140.543 31.99,132.608 14.367,133.737 7.452,143.436 12.062,153.085 25.535,153.334 25.534,150.55 "/>
   <polygon class="fil1" points="14.344,131.131 11.265,112.002 15.121,106.614 28.136,100.612 35.361,105.114 33.855,111.617 25.537,119.549 25.538,130.414 "/>
   <polygon class="fil1" points="20.122,101.436 5.908,87.264 5.348,80.605 9.175,75.966 15.172,75.481 25.536,83.638 25.536,98.94 "/>
   <polygon class="fil1" points="131.768,234.392 142.592,149.396 120.952,108.459 119.363,91.345 110.496,90.701 105.881,96.552 102.107,116.513 112.185,144.573 114.766,157.333 114.767,165.973 104.753,176.033 45.208,176.033 45.119,176.633 38.432,180.125 32.115,180.093 19.887,173.163 28.068,174.897 32.786,177.489 37.786,177.515 42.74,174.927 43.33,170.939 25.54,156.353 25.54,156.352 25.057,155.956 12.615,155.705 6.921,161.843 6.622,170.706 32.448,234.392 "/>
   <path class="fil2" d="M36.633 5.213l36.174 0 1.05 1.183 1.369 -1.183 28.449 0 8.497 8.536 0 32.962 -1.54 1.838 1.54 0.958 0 38.7 -2.853 -0.207 -2.866 3.632c0,-24.976 0,-49.952 0,-74.929l-72.598 0 0 64.611 -1.22 1.193 1.22 0.296 0 18.307 -5.54 -3.453 -0.179 0.083 0 -62.535 1.155 -5.654 -1.155 -4.35 0 -11.452 8.497 -8.536zm-2.778 109.994l0 15.526 -1.114 -0.791 -4.605 0.295 0 -9.576 5.719 -5.454zm20.212 35.239l36.106 0 5.113 0.739 2.779 -0.739 8.388 0 0 -14.161 3.231 8.995 2.488 12.296 0 7.314 -8.497 8.536 -44.35 0 -2.659 -2.357 -0.469 2.357 -10.604 0 0.528 -3.567c-5.998,-4.917 -11.993,-9.835 -17.991,-14.751l0 -0.799 2.194 0.824 -0.001 -0.006 7.343 2.764 0.595 0.224 11.797 -1.377 4.009 -6.292zm16.087 5.017c3.633,0 6.578,2.958 6.578,6.608 0,3.65 -2.945,6.609 -6.578,6.609 -3.633,0 -6.578,-2.959 -6.578,-6.609 0,-3.65 2.945,-6.608 6.578,-6.608z"/>
   <g>
    <path class="fil1" d="M61.692 44.633l-12.194 2.893 -1.192 2.416 0 52.085 1.412 2.821 -1.412 2.481 0 7.259 2.211 4.335 11.578 2.748 1.84 -2.65 0 -49.405 -2.286 0.824 2.286 -3.873 0 -20.184 -2.243 -1.75zm-5.918 34.005c0.823,-0.02 1.583,0.439 2.133,1.192 0.554,0.757 0.9,1.805 0.9,2.979 0,1.173 -0.346,2.244 -0.9,3.002 -0.55,0.752 -1.31,1.205 -2.133,1.185 -0.823,-0.02 -1.555,-0.502 -2.082,-1.259 -0.524,-0.753 -0.846,-1.796 -0.846,-2.928 0,-1.133 0.322,-2.154 0.846,-2.906 0.527,-0.758 1.259,-1.245 2.082,-1.265zm0 23.997c0.823,0.097 1.583,0.665 2.133,1.495 0.554,0.836 0.9,1.942 0.9,3.118 0,1.176 -0.346,2.184 -0.9,2.863 -0.55,0.674 -1.31,1.014 -2.133,0.877 -0.823,-0.138 -1.555,-0.717 -2.082,-1.549 -0.524,-0.827 -0.846,-1.903 -0.846,-3.038 0,-1.135 0.322,-2.118 0.846,-2.796 0.527,-0.683 1.259,-1.066 2.082,-0.97zm0 -48.005c0.823,-0.137 1.583,0.22 2.133,0.894 0.554,0.679 0.9,1.689 0.9,2.862 0,1.174 -0.346,2.288 -0.9,3.125 -0.55,0.83 -1.31,1.392 -2.133,1.488 -0.823,0.096 -1.555,-0.281 -2.082,-0.964 -0.524,-0.678 -0.846,-1.67 -0.846,-2.802 0,-1.133 0.322,-2.211 0.846,-3.037 0.527,-0.833 1.259,-1.43 2.082,-1.566z"/>
    <polygon class="fil1" points="89.691,51.172 77.48,47.641 75.433,48.142 73.727,46.555 66.676,44.517 65.402,46.064 65.402,66.376 70.378,66.623 65.402,69.002 65.402,83.056 66.757,86.851 65.402,91.167 65.402,119.39 67.438,121.471 79.317,118.036 79.802,115.887 82.034,117.25 87.649,115.626 91.996,109.743 91.996,85.145 85.563,78.682 91.996,72.219 91.996,53.321 "/>
   </g>
  </g>
 </g>
</svg>
