<?xml version="1.0" standalone="no"?>
<!DOCTYPE svg PUBLIC "-//W3C//DTD SVG 20010904//EN"
 "http://www.w3.org/TR/2001/REC-SVG-20010904/DTD/svg10.dtd">
<svg version="1.0" xmlns="http://www.w3.org/2000/svg"
 width="65px" height="65px" viewBox="0 0 96.000000 96.000000"
 preserveAspectRatio="xMidYMid meet">

<g transform="translate(0.000000,96.000000) scale(0.100000,-0.100000)"
fill="#2e5d66" stroke="none">
<path d="M322 838 c-5 -7 -20 -58 -33 -113 -18 -81 -23 -131 -23 -260 l-1
-160 -32 -3 c-47 -5 -73 -42 -73 -104 0 -39 5 -54 25 -73 32 -33 84 -33 122
-1 26 22 27 29 31 125 6 134 25 132 32 -3 5 -92 7 -99 33 -122 38 -32 90 -32
122 1 20 19 25 34 25 73 0 61 -32 102 -80 102 l-30 0 0 160 c0 163 -25 344
-51 376 -14 17 -53 18 -67 2z m71 -93 c13 -56 20 -138 24 -277 l5 -197 28 6
c37 7 80 -33 80 -75 0 -39 -35 -82 -66 -82 -48 0 -64 31 -64 125 0 78 -2 88
-25 110 -13 14 -32 25 -43 25 -35 0 -42 21 -42 121 0 91 14 192 40 288 8 31
16 41 28 39 12 -2 22 -25 35 -83z m-83 -486 c0 -86 -3 -102 -20 -119 -45 -45
-110 -10 -110 60 0 51 27 80 75 80 35 0 35 0 35 46 0 27 4 43 10 39 6 -3 10
-50 10 -106z"/>
<path d="M332 477 c-9 -10 -8 -18 2 -32 18 -25 48 -13 44 17 -4 27 -30 35 -46
15z"/>
<path d="M434 226 c-9 -38 4 -68 29 -64 18 2 22 10 22 43 0 34 -4 40 -22 43
-17 3 -24 -3 -29 -22z"/>
<path d="M224 237 c-12 -32 0 -72 23 -75 43 -6 42 78 -1 86 -9 2 -19 -3 -22
-11z"/>
<path d="M495 830 c-4 -6 32 -10 100 -10 59 0 115 -5 126 -10 18 -10 19 -25
19 -336 l0 -324 -25 -12 c-21 -9 -28 -8 -46 8 -19 17 -20 25 -13 104 4 47 7
96 7 110 -2 39 -37 60 -104 60 -80 0 -83 -17 -3 -22 42 -3 69 -9 75 -19 5 -8
6 -59 3 -120 -6 -100 -5 -108 15 -128 30 -30 74 -28 100 5 20 26 21 38 21 339
0 391 11 365 -155 365 -65 0 -116 -4 -120 -10z"/>
<path d="M495 770 c-3 -5 1 -10 10 -10 9 0 13 5 10 10 -3 6 -8 10 -10 10 -2 0
-7 -4 -10 -10z"/>
<path d="M540 770 c0 -5 5 -10 10 -10 6 0 10 5 10 10 0 6 -4 10 -10 10 -5 0
-10 -4 -10 -10z"/>
<path d="M590 770 c0 -5 5 -10 10 -10 6 0 10 5 10 10 0 6 -4 10 -10 10 -5 0
-10 -4 -10 -10z"/>
<path d="M640 770 c0 -5 5 -10 10 -10 6 0 10 5 10 10 0 6 -4 10 -10 10 -5 0
-10 -4 -10 -10z"/>
<path d="M495 710 c-3 -5 1 -10 10 -10 9 0 13 5 10 10 -3 6 -8 10 -10 10 -2 0
-7 -4 -10 -10z"/>
<path d="M540 710 c0 -5 5 -10 10 -10 6 0 10 5 10 10 0 6 -4 10 -10 10 -5 0
-10 -4 -10 -10z"/>
<path d="M590 710 c0 -5 5 -10 10 -10 6 0 10 5 10 10 0 6 -4 10 -10 10 -5 0
-10 -4 -10 -10z"/>
<path d="M640 710 c0 -5 5 -10 10 -10 6 0 10 5 10 10 0 6 -4 10 -10 10 -5 0
-10 -4 -10 -10z"/>
<path d="M495 650 c-3 -5 1 -10 10 -10 9 0 13 5 10 10 -3 6 -8 10 -10 10 -2 0
-7 -4 -10 -10z"/>
<path d="M540 650 c0 -5 5 -10 10 -10 6 0 10 5 10 10 0 6 -4 10 -10 10 -5 0
-10 -4 -10 -10z"/>
<path d="M590 650 c0 -5 5 -10 10 -10 6 0 10 5 10 10 0 6 -4 10 -10 10 -5 0
-10 -4 -10 -10z"/>
<path d="M640 650 c0 -5 5 -10 10 -10 6 0 10 5 10 10 0 6 -4 10 -10 10 -5 0
-10 -4 -10 -10z"/>
<path d="M495 590 c-3 -5 1 -10 10 -10 9 0 13 5 10 10 -3 6 -8 10 -10 10 -2 0
-7 -4 -10 -10z"/>
<path d="M540 590 c0 -5 5 -10 10 -10 6 0 10 5 10 10 0 6 -4 10 -10 10 -5 0
-10 -4 -10 -10z"/>
<path d="M590 590 c0 -5 5 -10 10 -10 6 0 10 5 10 10 0 6 -4 10 -10 10 -5 0
-10 -4 -10 -10z"/>
<path d="M640 590 c0 -5 5 -10 10 -10 6 0 10 5 10 10 0 6 -4 10 -10 10 -5 0
-10 -4 -10 -10z"/>
<path d="M495 530 c-3 -5 1 -10 10 -10 9 0 13 5 10 10 -3 6 -8 10 -10 10 -2 0
-7 -4 -10 -10z"/>
<path d="M540 530 c0 -5 5 -10 10 -10 6 0 10 5 10 10 0 6 -4 10 -10 10 -5 0
-10 -4 -10 -10z"/>
<path d="M590 530 c0 -5 5 -10 10 -10 6 0 10 5 10 10 0 6 -4 10 -10 10 -5 0
-10 -4 -10 -10z"/>
<path d="M640 530 c0 -5 5 -10 10 -10 6 0 10 5 10 10 0 6 -4 10 -10 10 -5 0
-10 -4 -10 -10z"/>
<path d="M495 470 c-3 -5 1 -10 10 -10 9 0 13 5 10 10 -3 6 -8 10 -10 10 -2 0
-7 -4 -10 -10z"/>
<path d="M540 470 c0 -5 5 -10 10 -10 6 0 10 5 10 10 0 6 -4 10 -10 10 -5 0
-10 -4 -10 -10z"/>
<path d="M590 470 c0 -5 5 -10 10 -10 6 0 10 5 10 10 0 6 -4 10 -10 10 -5 0
-10 -4 -10 -10z"/>
<path d="M640 470 c0 -5 5 -10 10 -10 6 0 10 5 10 10 0 6 -4 10 -10 10 -5 0
-10 -4 -10 -10z"/>
</g>
</svg>
