<svg width="330" height="134" viewBox="0 0 330 134" fill="none" xmlns="http://www.w3.org/2000/svg">
<path fill-rule="evenodd" clip-rule="evenodd" d="M23.3433 0.200439L2.07817 5.21103L0 9.39278V99.5805L2.46291 104.466L0 108.762V121.331L3.85545 128.837L24.0462 133.595L27.2545 129.007V43.4612L23.2683 44.8863L27.2545 38.18V3.2304L23.3433 0.200439ZM13.0235 59.0824C14.4589 59.0476 15.7837 59.8432 16.7429 61.1455C17.709 62.4574 18.3132 64.2719 18.3132 66.3038C18.3132 68.3352 17.709 70.1902 16.7429 71.502C15.7837 72.8047 14.4589 73.5899 13.0235 73.5547C11.588 73.5191 10.3126 72.6855 9.39309 71.3736C8.47998 70.0709 7.91791 68.2644 7.91791 66.3038C7.91791 64.3423 8.47998 62.5754 9.39309 61.2724C10.3126 59.9613 11.5884 59.1172 13.0235 59.0824ZM13.0235 100.634C14.4589 100.801 15.7837 101.784 16.7429 103.223C17.709 104.67 18.3132 106.585 18.3132 108.622C18.3132 110.658 17.709 112.404 16.7429 113.579C15.7837 114.746 14.4589 115.334 13.0235 115.097C11.588 114.859 10.3126 113.855 9.39309 112.415C8.47998 110.983 7.91791 109.121 7.91791 107.156C7.91791 105.19 8.47998 103.488 9.39309 102.313C10.3126 101.131 11.5884 100.468 13.0235 100.635V100.634ZM13.0235 17.5102C14.4589 17.2733 15.7837 17.8912 16.7429 19.0586C17.709 20.2336 18.3132 21.9833 18.3132 24.0151C18.3132 26.0466 17.709 27.9768 16.7429 29.4247C15.7837 30.8631 14.4589 31.836 13.0235 32.0021C11.588 32.1685 10.3126 31.5146 9.39309 30.3324C8.47998 29.159 7.91791 27.4417 7.91791 25.4807C7.91791 23.5193 8.47998 21.6535 9.39309 20.222C10.3126 18.7808 11.5884 17.7475 13.0235 17.5106V17.5102Z" fill="white"/>
<path fill-rule="evenodd" clip-rule="evenodd" d="M72.1708 11.5239L50.8756 5.40959L47.3062 6.27684L44.331 3.53022L32.0361 0L29.8135 2.67978V37.8499L38.492 38.277L29.8135 42.3971V66.7332L32.1765 73.3042L29.8135 80.7777V129.646L33.3644 133.25L54.0791 127.302L54.9248 123.58L58.8176 125.94L68.6087 123.13L76.1896 112.943V70.3499L64.9715 59.1589L76.1896 47.9684V15.2451L72.1708 11.5239Z" fill="white"/>
<path d="M121.543 61.9934L118.683 64.8353L121.543 67.7844V82.0245L117.709 85.8597H94.7692V54.4195H91.4658V47.7424H117.709L121.543 51.5776V61.993V61.9934ZM111.99 67.7844L104.322 68.6704V79.1831L111.99 78.2002V67.7844ZM111.99 55.3167L104.322 54.4307V61.1073H111.99V55.3167ZM255.514 47.7428V57.726H248.81V54.7549L244.976 54.4307V79.1831H248.355V85.8601H232.109V79.1831H235.423V54.4307L231.579 54.7549V57.726H224.95V47.7428H255.514H255.514ZM288.614 51.5136V82.0249L284.781 85.8601H265.675L261.841 82.0249V51.5136L265.675 47.7428H284.781L288.614 51.5136ZM279.062 55.3171L271.393 54.3659V79.1835L279.062 78.2006V55.3171ZM330 79.1835V85.8605H316.981L306.909 66.6722V85.8605H298.331V54.3554H294.962V47.7432H307.429L318.021 67.7848V47.7432H326.599V79.1835H330H330ZM161.293 79.1835V85.8605H148.416L144.571 68.6708H140.747V85.8605H131.195V54.4203H127.891V47.7432H154.134L157.968 51.5784V64.8357L154.123 68.6708L157.643 79.1835H161.293ZM148.416 55.3171L140.747 54.4311V61.1077H148.416V55.3171ZM180.422 54.4203V79.1835H183.801V85.8605H167.555V79.1835H170.869V54.4203H167.555V47.7432H183.801V54.4203H180.422ZM217.324 79.1835H220.649V85.8605H209.201L204.663 76.7742L199.648 85.8605H190.095L200.092 67.7199L193.399 54.3554H190.095V47.7432H201.522L206.092 56.7975L211.107 47.7432H220.649L210.63 65.8838L217.324 79.1835Z" fill="white"/>
<path d="M135.878 103.308L134.925 104.258L135.878 105.217V109.988L134.6 111.262H126.955V100.131H125.854V98.5615H134.6L135.878 99.8149V103.308ZM133.496 105.386H129.359V109.657L133.496 109.343V105.386ZM133.496 100.463L129.359 100.135V103.312H133.496V100.462V100.463ZM153.52 109.66V111.262H150.506L149.755 108.087H146.506L145.723 111.262H143.968L146.802 100.131H146.051V98.5579H149.86L152.65 109.66H153.52ZM149.361 106.185L148.145 101.363L146.889 106.185H149.361H149.361ZM171.653 109.642V111.262H168.137L166.877 105.386H163.999V111.262H161.616V100.135H160.516V98.5655H169.262L170.54 99.8221V104.262L169.259 105.537L170.222 109.642H171.652H171.653ZM168.137 100.463L164 100.135V103.312H168.137V100.462V100.463ZM188.659 103.308L187.706 104.258L188.659 105.217V109.988L187.381 111.262H179.735V100.131H178.634V98.5615H187.381L188.659 99.8149V103.308ZM186.277 105.386H182.139V109.657L186.277 109.343V105.386ZM186.277 100.463L182.139 100.135V103.312H186.277V100.462V100.463ZM206.127 98.5579V101.432H204.546V100.502L200.236 100.157V103.326H204.066L203.42 105.238L200.236 105.555V109.682L204.546 109.326V108.26H206.127V111.263H197.853V100.15H196.752V98.5583H206.127L206.127 98.5579ZM224.253 109.642V111.262H220.737L219.477 105.386H216.599V111.262H214.217V100.135H213.115V98.5655H221.862L223.14 99.8221V104.262L221.859 105.537L222.823 109.642H224.252H224.253ZM220.737 100.463L216.599 100.135V103.312H220.737V100.462V100.463ZM238.877 102.379V100.46L234.718 100.153V103.138L240.075 103.718L241.259 105.259V109.987L239.981 111.262H233.613L232.336 109.987V108.086L234.718 107.464V109.678L238.877 109.364V106.145L233.531 105.407C233.116 104.885 232.715 104.376 232.336 103.877V99.8357L233.613 98.5611H239.981L241.259 99.8357V101.734L238.877 102.378V102.379ZM260.482 109.678V111.262H256.995V105.238L252.858 105.555V111.262H250.454V100.149H249.349V98.5579H252.858V103.009H256.995V98.5579H259.378V109.678H260.482ZM277.496 99.8365V109.988L276.218 111.262H269.85L268.572 109.988V99.8365L269.85 98.5619H276.218L277.496 99.8365ZM275.113 100.46L270.976 100.153V109.678L275.113 109.365V100.46ZM295.614 99.8365V106.664L294.333 107.939H289.073V109.678H290.2V111.262H286.691V100.153H285.59V98.5611H294.337L295.614 99.8357V99.8365ZM293.232 100.46L289.073 100.153V106.336L293.232 106.03V100.459V100.46Z" fill="white"/>
<path d="M165.519 22.3323V25.2066H163.938V24.2769L159.628 23.9311V27.0999H163.458L162.812 29.0125L159.628 29.3295V33.456L163.938 33.0998V32.0337H165.519V35.0372H157.245V23.9243H156.145V22.3327H165.52L165.519 22.3323ZM175.955 26.153V24.2333L171.796 23.9271V26.9122L177.153 27.4917L178.337 29.0329V33.7614L177.059 35.036H170.691L169.414 33.7614V31.86L171.796 31.2373V33.4516L175.955 33.1383V29.919L170.608 29.1806C170.193 28.6583 169.793 28.1505 169.414 27.6502V23.6097L170.691 22.3351H177.059L178.337 23.6097V25.5075L175.955 26.1522V26.153ZM191.613 22.3323V25.0329H190.025V24.0211L188.101 23.9023V33.438H189.228V35.0368H184.614V33.438H185.718V23.9023L183.816 24.0211V25.0329H182.227V22.3323H191.613ZM204.428 23.6105V33.7618L203.15 35.0364H195.504V23.9271H194.404V22.3355H203.15L204.428 23.6101V23.6105ZM202.046 24.2333L197.909 23.9271V33.452L202.046 33.1387V24.2333Z" fill="white"/>
<path d="M223.541 23.6126V27.7408L222.259 29.0154L216.998 29.3328V33.4569L221.158 33.0359V32.0342H223.541V35.0381H215.893L214.615 33.7631V28.3815L215.893 27.1068H221.158V24.2358L216.998 23.9296V25.5108L214.614 26.1552V23.6122L215.892 22.3372H222.262L223.541 23.6122V23.6126ZM237.468 23.609V33.7631L236.19 35.0381H229.819L228.541 33.7631V23.609L229.819 22.334H236.19L237.468 23.609ZM230.925 30.194L234.933 24.2322L230.925 23.926V30.194ZM235.084 33.1404V27.1753L230.925 33.3709V33.4541L235.084 33.1404ZM251.395 23.6126V27.7408L250.113 29.0154L244.852 29.3328V33.4569L249.012 33.0359V32.0342H251.395V35.0381H243.747L242.469 33.7631V28.3815L243.747 27.1068H249.012V24.2358L244.852 23.9296V25.5108L242.468 26.1552V23.6122L243.746 22.3372H250.116L251.395 23.6122V23.6126ZM265.322 23.6126V27.7408L264.04 29.0154L258.779 29.3328V33.4569L262.939 33.0359V32.0342H265.322V35.0381H257.674L256.396 33.7631V28.3815L257.674 27.1068H262.939V24.2358L258.779 23.9296V25.5108L256.396 26.1552V23.6122L257.674 22.3372H264.043L265.322 23.6122V23.6126Z" fill="white"/>
</svg>
