<svg width="66" height="60" viewBox="0 0 66 60" fill="none" xmlns="http://www.w3.org/2000/svg">
<path fill-rule="evenodd" clip-rule="evenodd" d="M28.1996 0.0555305L22.3527 1.43898L21.7812 2.59355V27.4943L22.4584 28.8433L21.7812 30.0294V33.4995L22.8414 35.572L28.3929 36.8857L29.275 35.619V11.9997L28.179 12.3931L29.275 10.5415V0.891992L28.1996 0.0554199V0.0555305ZM25.3621 16.3128C25.7567 16.3032 26.1211 16.5228 26.3848 16.8825C26.6504 17.2447 26.8166 17.7457 26.8166 18.3066C26.8166 18.8676 26.6505 19.3797 26.3848 19.7418C26.1211 20.1015 25.7568 20.3183 25.3621 20.3086C24.9675 20.2988 24.6167 20.0686 24.3639 19.7065C24.1128 19.3468 23.9584 18.8481 23.9584 18.3066C23.9584 17.7652 24.1129 17.2772 24.3639 16.9174C24.6168 16.5554 24.9675 16.3225 25.3621 16.3128ZM25.3621 27.7853C25.7567 27.8315 26.1211 28.1029 26.3848 28.5001C26.6504 28.8997 26.8166 29.4284 26.8166 29.9908C26.8166 30.553 26.6505 31.0349 26.3848 31.3594C26.1211 31.6816 25.7568 31.844 25.3621 31.7785C24.9675 31.7128 24.6167 31.4356 24.3639 31.0379C24.1128 30.6426 23.9584 30.1285 23.9584 29.5858C23.9584 29.0431 24.1129 28.573 24.3639 28.2487C24.6168 27.9225 24.9675 27.7392 25.3621 27.7853ZM25.3621 4.83491C25.7567 4.76946 26.1211 4.94018 26.3848 5.26249C26.6504 5.5869 26.8166 6.07009 26.8166 6.6309C26.8166 7.19182 26.6505 7.72466 26.3848 8.12448C26.1211 8.52153 25.7568 8.79022 25.3621 8.83611C24.9675 8.8821 24.6167 8.70154 24.3639 8.37514C24.1128 8.05117 23.9584 7.57705 23.9584 7.03559C23.9584 6.49412 24.1129 5.97887 24.3639 5.58358C24.6168 5.18575 24.9675 4.90037 25.3621 4.83491Z" fill="white"/>
<path fill-rule="evenodd" clip-rule="evenodd" d="M41.6246 3.18176L35.7694 1.49358L34.788 1.73307L33.97 0.974674L30.5895 0L29.9785 0.739934V10.4504L32.3646 10.5683L29.9785 11.7058V18.425L30.6282 20.2393L29.9785 22.3026V35.7952L30.9548 36.7901L36.6503 35.1478L36.8829 34.1203L37.9532 34.7721L40.6452 33.9959L42.7296 31.1835V19.4236L39.6451 16.3338L42.7296 13.244V4.20917L41.6246 3.18176Z" fill="white"/>
<path d="M8.47678 46.0823L7.69054 46.8669L8.47678 47.6811V51.6129L7.42253 52.6718H1.11525V43.9912H0.207031V42.1477H7.42264L8.47689 43.2066V46.0823H8.47678ZM5.85015 47.6811L3.74188 47.9258V50.8283L5.85015 50.557V47.6811ZM5.85015 44.2388L3.74188 43.9941V45.8375H5.85015V44.2388ZM45.3124 42.1476V44.9039H43.4691V44.0835L42.4149 43.9941V50.8282H43.3441V52.6717H38.8772V50.8282H39.7884V43.9941L38.7313 44.0835V44.9039H36.9087V42.1476H45.3125H45.3124ZM54.4134 43.1886V51.6128L53.3593 52.6717H48.1063L47.052 51.6128V43.1886L48.1063 42.1476H53.3593L54.4134 43.1886ZM51.7869 44.2387L49.6785 43.9761V50.8282L51.7869 50.5569V44.2388V44.2387ZM65.7925 50.8281V52.6716H62.2131L59.4436 47.3738V52.6716H57.0851V43.9731H56.1589V42.1475H59.5865L62.499 47.6809V42.1475H64.8576V50.8281H65.7926H65.7925ZM19.4062 50.8281V52.6716H15.8655L14.8082 47.9256H13.7571V52.6716H11.1306V43.991H10.2222V42.1475H17.4379L18.4921 43.2064V46.8667L17.435 47.9256L18.4027 50.8281H19.4063H19.4062ZM15.8655 44.2387L13.7571 43.994V45.8374H15.8655V44.2387ZM24.6656 43.991V50.8281H25.5947V52.6716H21.1278V50.8281H22.0391V43.991H21.1278V42.1475H25.5947V43.991H24.6656ZM34.8118 50.8281H35.726V52.6716H32.5783L31.3305 50.1629L29.9518 52.6716H27.3251L30.0738 47.663L28.2335 43.9731H27.3251V42.1475H30.4669L31.7236 44.6473L33.1024 42.1475H35.726L32.9715 47.1561L34.8118 50.8282V50.8281Z" fill="white"/>
<path d="M12.4179 57.4893L12.1559 57.7517L12.4179 58.0162V59.3335L12.0665 59.6855H9.9644V56.6123H9.66162V56.1787H12.0666L12.4181 56.5248V57.4892L12.4179 57.4893ZM11.7628 58.0632H10.6254V59.2422L11.7628 59.1557V58.0632ZM11.7628 56.7038L10.6254 56.6134V57.4904H11.7628V56.7038ZM17.2685 59.2432V59.6856H16.4398L16.2333 58.8088H15.34L15.1246 59.6856H14.6421L15.4213 56.6124H15.2148V56.1779H16.2619L17.0291 59.2432H17.2683H17.2685ZM16.1251 58.2839L15.7906 56.9525L15.4453 58.2839H16.125H16.1251ZM22.2541 59.2382V59.6856H21.2874L20.9411 58.0631H20.1499V59.6856H19.4948V56.6133H19.1921V56.1798H21.5971L21.9485 56.5267V57.7526L21.5961 58.1044L21.8611 59.2379H22.2541V59.2382ZM21.2874 56.7038L20.1499 56.6134V57.4904H21.2874V56.7038ZM26.9301 57.4893L26.6681 57.7517L26.9301 58.0162V59.3335L26.5787 59.6855H24.4766V56.6123H24.1739V56.1787H26.5788L26.9302 56.5248V57.4892L26.9301 57.4893ZM26.2751 58.0632H25.1376V59.2422L26.2751 59.1557V58.0632ZM26.2751 56.7038L25.1376 56.6134V57.4904H26.2751V56.7038ZM31.7331 56.1779V56.9714H31.2983V56.7148L30.1133 56.6194V57.4944H31.1664L30.9887 58.0224L30.1133 58.1098V59.2492L31.2983 59.1509V58.8564H31.7331V59.6856H29.4581V56.6173H29.1554V56.1779H31.7331ZM36.7168 59.2382V59.6856H35.7501L35.4037 58.0631H34.6125V59.6856H33.9575V56.6133H33.6547V56.1798H36.0597L36.411 56.5267V57.7526L36.0588 58.1044L36.3237 59.2379H36.7168V59.2382ZM35.7501 56.7038L34.6125 56.6134V57.4904H35.7501V56.7038ZM40.7377 57.2329V56.703L39.5942 56.6185V57.4426L41.0671 57.6028L41.3928 58.0284V59.3337L41.0413 59.6857H39.2904L38.9392 59.3337V58.8089L39.5943 58.6369V59.2484L40.7378 59.1618V58.273L39.2678 58.069C39.1536 57.925 39.0434 57.7847 38.9392 57.6466V56.5309L39.2904 56.179H41.0413L41.3928 56.5309V57.055L40.7377 57.2329ZM46.678 59.2483V59.6857H45.7194V58.0224L44.5819 58.1098V59.6857H43.9208V56.6174H43.6171V56.178H44.5819V57.4068H45.7194V56.178H46.3744V59.2484H46.678V59.2483ZM51.3561 56.5309V59.3336L51.0046 59.6856H49.2538L48.9025 59.3336V56.5309L49.2538 56.179H51.0046L51.3561 56.5309ZM50.701 56.703L49.5635 56.6185V59.2483L50.701 59.1617V56.703ZM56.3377 56.5309V58.4159L55.9854 58.768H54.5392V59.2483H54.8489V59.6857H53.884V56.6185H53.5814V56.179H55.9864L56.3377 56.5309ZM55.6826 56.703L54.5392 56.6185V58.3255L55.6826 58.241V56.703Z" fill="white"/>
<path d="M8.28319 23.5496V24.3431H7.84828V24.0865L6.66334 23.9911V24.866H7.71638L7.53878 25.3941L6.66334 25.4815V26.6209L7.84828 26.5225V26.228H8.28319V27.0573H6.00812V23.989H5.70557V23.5496H8.28319ZM11.1524 24.6045V24.0744L10.009 23.99V24.8141L11.4819 24.9743L11.8075 25.3998V26.7053L11.4562 27.0573H9.70534L9.35399 26.7053V26.1803L10.0091 26.0084V26.6199L11.1525 26.5334V25.6445L9.68249 25.4406C9.56835 25.2965 9.45819 25.1562 9.35399 25.018V23.9025L9.70534 23.5506H11.4562L11.8075 23.9025V24.4265L11.1524 24.6045ZM15.458 23.5496V24.2952H15.0212V24.0159L14.4921 23.9831V26.6159H14.8019V27.0573H13.5332V26.6159H13.8369V23.9831L13.3138 24.0159V24.2952H12.8769V23.5496H15.4576H15.458ZM18.9814 23.9025V26.7052L18.63 27.0572H16.5278V23.9898H16.2252V23.5504H18.6301L18.9815 23.9024L18.9814 23.9025ZM18.3263 24.0744L17.1888 23.99V26.6198L18.3263 26.5333V24.0744Z" fill="white"/>
<path d="M47.9846 23.9033V25.0431L47.632 25.395L46.1855 25.4826V26.6213L47.3293 26.5051V26.2285H47.9846V27.0579H45.8817L45.5303 26.7058V25.22L45.8817 24.8681H47.3294V24.0754L46.1856 23.9909V24.4276L45.5303 24.6055V23.9033L45.8817 23.5513H47.633L47.9846 23.9033ZM51.8138 23.9023V26.7058L51.4624 27.0579H49.711L49.3595 26.7058V23.9023L49.711 23.5503H51.4624L51.8138 23.9023ZM50.0148 25.7204L51.1168 24.0744L50.0148 23.9899V25.7206V25.7204ZM51.1585 26.5339V24.887L50.0148 26.5976V26.6206L51.1585 26.534V26.5339ZM55.6431 23.9033V25.0431L55.2906 25.395L53.8441 25.4826V26.6213L54.9878 26.5051V26.2285H55.6431V27.0579H53.5402L53.1887 26.7058V25.22L53.5402 24.8681H54.9879V24.0754L53.8442 23.9909V24.4276L53.1887 24.6055V23.9033L53.5402 23.5513H55.2916L55.6431 23.9033ZM59.4724 23.9033V25.0431L59.1198 25.395L57.6733 25.4826V26.6213L58.8171 26.5051V26.2285H59.4724V27.0579H57.3695L57.0181 26.7058V25.22L57.3695 24.8681H58.8172V24.0754L57.6734 23.9909V24.4276L57.0181 24.6055V23.9033L57.3695 23.5513H59.1208L59.4724 23.9033Z" fill="white"/>
</svg>
