<?xml version="1.0" encoding="UTF-8"?>
<!DOCTYPE svg PUBLIC "-//W3C//DTD SVG 1.1//EN" "http://www.w3.org/Graphics/SVG/1.1/DTD/svg11.dtd">
<!-- Creator: CorelDRAW -->
<svg xmlns="http://www.w3.org/2000/svg" xml:space="preserve" width="690px" height="123px" version="1.1" style="shape-rendering:geometricPrecision; text-rendering:geometricPrecision; image-rendering:optimizeQuality; fill-rule:evenodd; clip-rule:evenodd"
viewBox="0 0 690 123"
 xmlns:xlink="http://www.w3.org/1999/xlink"
 xmlns:xodm="http://www.corel.com/coreldraw/odm/2003">
 <defs>
  <style type="text/css">
   <![CDATA[
    .fil0 {fill:white;fill-rule:nonzero}
   ]]>
  </style>
 </defs>
 <g id="Слой_x0020_1">
  <metadata id="CorelCorpID_0Corel-Layer"/>
  <path class="fil0" d="M44.52 108.18l0 15.32 -33.86 0 0 -107.41 -10.66 0 0 -15.38 33.86 0 0 107.47 10.66 0zm96.75 -49.17l0 51.99 -12.33 12.32 -61.46 0 -12.33 -12.32 0 -18.34 22.99 -6.02 0 21.41 40.14 -3.07 0 -39.85 -50.17 2.23 -12.96 -12.32 0 -42.19 12.33 -12.35 73.79 0 0 29.23 -22.99 0 0 -9.6 -40.14 -4.18 0 30.7 50.76 0 12.37 12.36zm107.37 -45.95l0 98.12 -12.33 12.32 -61.45 0 -12.34 -12.32 0 -98.12 12.34 -12.32 61.45 0 12.33 12.32zm-63.12 63.63l38.67 -57.61 -38.67 -2.95 0 60.56zm40.13 28.47l0 -57.64 -40.13 59.86 0 0.8 40.13 -3.02zm151.27 -92.1l0 98.12 -12.33 12.32 -61.46 0 -12.33 -12.32 0 -98.12 12.33 -12.32 61.46 0 12.33 12.32zm-63.13 63.63l38.67 -57.61 -38.67 -2.95 0 60.56zm40.14 28.47l0 -57.64 -40.14 59.86 0 0.8 40.14 -3.02zm130.36 -92.1l0 98.12 -12.33 12.32 -61.45 0 -12.34 -12.32 0 -98.12 12.34 -12.32 61.45 0 12.33 12.32zm-63.12 63.63l38.67 -57.61 -38.67 -2.95 0 60.56zm40.13 28.47l0 -57.64 -40.13 59.86 0 0.8 40.13 -3.02zm130.37 -92.1l0 98.12 -12.33 12.32 -61.46 0 -12.33 -12.32 0 -98.12 12.33 -12.32 61.46 0 12.33 12.32zm-63.13 63.63l38.67 -57.61 -38.67 -2.95 0 60.56zm40.13 28.47l0 -57.64 -40.13 59.86 0 0.8 40.13 -3.02zm52.11 -28.65l26.58 0 0 -26.47 16.15 0 0 26.47 26.49 0 0 16.13 -26.49 0 0 26.47 -16.15 0 0 -26.47 -26.58 0 0 -16.13z"/>
 </g>
</svg>
