<?xml version="1.0" encoding="UTF-8"?>
<!DOCTYPE svg PUBLIC "-//W3C//DTD SVG 1.1//EN" "http://www.w3.org/Graphics/SVG/1.1/DTD/svg11.dtd">
<!-- Creator: CorelDRAW -->
<svg xmlns="http://www.w3.org/2000/svg" xml:space="preserve" width="227px" height="89px" version="1.1" style="shape-rendering:geometricPrecision; text-rendering:geometricPrecision; image-rendering:optimizeQuality; fill-rule:evenodd; clip-rule:evenodd"
viewBox="0 0 227 89.08"
 xmlns:xlink="http://www.w3.org/1999/xlink"
 xmlns:xodm="http://www.corel.com/coreldraw/odm/2003">
 <defs>
  <style type="text/css">
   <![CDATA[
    .fil0 {fill:#D94220;fill-rule:nonzero}
   ]]>
  </style>
 </defs>
 <g id="Слой_x0020_1">
  <metadata id="CorelCorpID_0Corel-Layer"/>
  <g id="_1987674607392">
   <path class="fil0" d="M68.04 42.84l0 37.66 -8.93 8.92c-16.9,0 -33.8,0 -50.71,0l-8.92 -8.92 0 -13.29c9.93,-2.6 15.67,-2.47 22.88,-4.36l0 15.03 22.79 -1.74 0 -28.59c-12.16,0.55 -24.28,0.81 -36.29,1.34l-9.38 -8.92 0 -30.55 8.92 -8.95c19.88,0 39.76,0 59.64,0l0 21.17c-7.63,0 -15.26,0 -22.89,0l0 -6.96 -22.79 -2.37 0 21.58 36.73 0 8.95 8.95zm18.05 46.71l-8.93 -8.92 0 -33.25 6.73 -6.51 -6.73 -6.85 0 -24.45 8.93 -8.92c16.9,0 33.81,0 50.71,0l8.92 8.92 0 13.57 -0.01 0 -8.66 8.61 0 22.33 8.67 8.51 0 0 0 18.04 -8.92 8.92c-16.9,0 -33.81,0 -50.71,0zm13.96 -11.56l22.79 -1.73 0 -28.4 -22.79 1.74 0 28.39zm22.79 -64.06l-22.79 -1.68 0 21.77 22.79 0 0 -20.09z"/>
   <g>
    <path class="fil0" d="M176.86 33.41l0 19 -6.26 6.14 -23.25 0 -6.26 -6.14 0 -19 6.26 -6.23 23.25 0 6.26 6.23zm-11.68 3.16l-12.3 -1.61 0 15.84 12.3 -1.53 0 -12.7z"/>
    <path class="fil0" d="M226.48 64.41l0 18.99 -6.26 6.15 -23.24 0 -6.27 -6.15 0 -18.99 6.27 -6.23 23.24 0 6.26 6.23zm-11.68 3.15l-12.3 -1.6 0 15.84 12.3 -1.53 0 -12.71z"/>
    <polygon class="fil0" points="158.96,89.55 195.16,27.18 208.77,27.18 172.58,89.55 "/>
   </g>
   <path class="fil0" d="M176.86 33.41l0 18.99 -6.26 6.15 -23.25 0 -6.26 -6.15 0 -18.99 6.26 -6.23 23.25 0 6.26 6.23zm-11.68 3.16l-12.3 -1.61 0 15.84 12.3 -1.53 0 -12.7z"/>
  </g>
 </g>
</svg>
