<?xml version="1.0" encoding="UTF-8"?>
<!DOCTYPE svg PUBLIC "-//W3C//DTD SVG 1.1//EN" "http://www.w3.org/Graphics/SVG/1.1/DTD/svg11.dtd">
<!-- Creator: CorelDRAW -->
<svg xmlns="http://www.w3.org/2000/svg" xml:space="preserve" width="397px" height="123px" version="1.1" style="shape-rendering:geometricPrecision; text-rendering:geometricPrecision; image-rendering:optimizeQuality; fill-rule:evenodd; clip-rule:evenodd"
viewBox="0 0 397 123"
 xmlns:xlink="http://www.w3.org/1999/xlink"
 xmlns:xodm="http://www.corel.com/coreldraw/odm/2003">
 <defs>
  <style type="text/css">
   <![CDATA[
    .fil0 {fill:white;fill-rule:nonzero}
   ]]>
  </style>
 </defs>
 <g id="Слой_x0020_1">
  <metadata id="CorelCorpID_0Corel-Layer"/>
  <path class="fil0" d="M63.19 37.46l0 -18.58 -39.96 -2.97 0 30.76 50.6 0 12.38 12.35 0 52.13 -12.34 12.35 -61.52 0 -12.35 -12.35 0 -98.31 12.35 -12.34 61.52 0 12.34 12.34 0 18.38 -23.02 6.24zm-39.96 30.76l0 39.93 39.96 -3.03 0 -39.97 -39.96 3.07zm170.47 -55.38l0 98.31 -12.35 12.35 -61.52 0 -12.34 -12.35 0 -98.31 12.34 -12.34 61.52 0 12.35 12.34zm-63.2 63.75l38.71 -57.71 -38.71 -2.97 0 60.68zm40.18 28.53l0 -57.75 -40.18 59.98 0 0.8 40.18 -3.03zm130.5 -92.28l0 98.31 -12.34 12.35 -61.52 0 -12.35 -12.35 0 -98.31 12.35 -12.34 61.52 0 12.34 12.34zm-63.19 63.75l38.71 -57.71 -38.71 -2.97 0 60.68zm40.17 28.53l0 -57.75 -40.17 59.98 0 0.8 40.17 -3.03zm49.55 -28.7l26.6 0 0 -26.52 16.17 0 0 26.52 26.52 0 0 16.16 -26.52 0 0 26.52 -16.17 0 0 -26.52 -26.6 0 0 -16.16z"/>
 </g>
</svg>
