<?xml version="1.0" encoding="UTF-8"?>
<!DOCTYPE svg PUBLIC "-//W3C//DTD SVG 1.1//EN" "http://www.w3.org/Graphics/SVG/1.1/DTD/svg11.dtd">
<!-- Creator: CorelDRAW -->
<svg xmlns="http://www.w3.org/2000/svg" xml:space="preserve" width="227px" height="89px" version="1.1" style="shape-rendering:geometricPrecision; text-rendering:geometricPrecision; image-rendering:optimizeQuality; fill-rule:evenodd; clip-rule:evenodd"
viewBox="0 0 227 88.91"
 xmlns:xlink="http://www.w3.org/1999/xlink"
 xmlns:xodm="http://www.corel.com/coreldraw/odm/2003">
 <defs>
  <style type="text/css">
   <![CDATA[
    .fil0 {fill:#D94220;fill-rule:nonzero}
   ]]>
  </style>
 </defs>
 <g id="Слой_x0020_1">
  <metadata id="CorelCorpID_0Corel-Layer"/>
  <g id="_1986911105152">
   <path class="fil0" d="M67.64 9.68l0 71.05 -8.92 8.93c-16.9,0 -33.81,0 -50.71,0l-8.93 -8.93 0 -13.31 22.89 -4.36 0 15.03 22.64 -1.72 0 -19.72 -36.6 1.4 -8.93 -8.93 0 -39.44 8.93 -8.93c16.9,0 33.81,0 50.71,0l8.92 8.93zm-23.03 33.37l0 -29.01 -22.64 -1.68 0 30.69 22.64 0zm41.08 46.61l-8.92 -8.93 0 -33.25 6.73 -6.5 -6.73 -6.86 0 -24.44 8.92 -8.93c16.91,0 33.81,0 50.72,0l8.92 8.93 0 13.57 -0.02 0 -8.65 8.61 0 22.33 8.67 8.51 0 0 0 18.03 -8.92 8.93c-16.91,0 -33.81,0 -50.72,0zm13.96 -11.57l22.79 -1.72 0 -28.41 -22.79 1.74 0 28.39zm22.79 -64.05l-22.79 -1.69 0 21.77 22.79 0 0 -20.08z"/>
   <g>
    <path class="fil0" d="M176.47 33.52l0 18.99 -6.27 6.15 -23.24 0 -6.27 -6.15 0 -18.99 6.27 -6.23 23.24 0 6.27 6.23zm-11.69 3.15l-12.3 -1.6 0 15.84 12.3 -1.53 0 -12.71z"/>
    <path class="fil0" d="M226.09 64.52l0 18.99 -6.27 6.15 -23.24 0 -6.27 -6.15 0 -18.99 6.27 -6.24 23.24 0 6.27 6.24zm-11.69 3.15l-12.3 -1.6 0 15.84 12.3 -1.54 0 -12.7z"/>
    <polygon class="fil0" points="158.57,89.66 194.76,27.29 208.37,27.29 172.18,89.66 "/>
   </g>
   <path class="fil0" d="M176.47 33.52l0 18.99 -6.27 6.15 -23.24 0 -6.27 -6.15 0 -18.99 6.27 -6.24 23.24 0 6.27 6.24zm-11.69 3.15l-12.3 -1.6 0 15.84 12.3 -1.53 0 -12.71z"/>
  </g>
 </g>
</svg>
