<svg width="65" height="65" viewBox="0 0 56 51" fill="none" xmlns="http://www.w3.org/2000/svg">
<path d="M44.6446 11.3119L44.4464 10.5724L47.2303 9.82646L45.3888 2.95399L43.0517 3.58022L40.9139 1.16934L3.91797 11.0824L3.27202 14.2392L0.934892 14.8654L2.77639 21.7379L5.56023 20.992L12.2968 46.1333L10.5912 46.5903L9.80187 47.9574L10.6085 50.9679L24.4841 47.25L24.1344 45.9451L11.5638 49.3134L11.2516 48.1482L11.4812 47.7505L52.6978 36.7065L53.0956 36.9362L53.4078 38.1014L25.5263 45.5722L25.8759 46.8771L55.0625 39.0566L54.2558 36.046L52.8887 35.2567L51.1831 35.7137L45.0176 12.7038L43.7128 13.0535L44.0974 14.4888L40.9998 15.3188L40.2106 16.6859L44.4579 32.5373L45.825 33.3265L48.9225 32.4966L49.8782 36.0633L24.7369 42.7999L18.956 21.2254L9.29968 23.8128L15.0805 45.3873L13.6017 45.7836L6.86511 20.6424L43.1416 10.9221L43.3397 11.6616L44.6446 11.312L44.6446 11.3119ZM41.6602 16.8767L41.8898 16.479L44.4469 15.7938L44.6567 16.5768L41.7859 17.346L41.6602 16.8767ZM42.1355 18.6508L45.0064 17.8816L45.4268 19.4507L44.3061 21.0097L43.1854 22.5686L42.1356 18.6508L42.1355 18.6508ZM43.6371 24.2547L44.7578 22.6957L45.8785 21.1367L46.5456 23.6264L45.4249 25.1854L44.3042 26.7444L43.6371 24.2547ZM44.756 28.4304L45.8767 26.8714L46.9974 25.3124L48.0133 29.1039L45.1424 29.8731L44.7559 28.4304L44.756 28.4304ZM46.0157 31.8769L45.6179 31.6473L45.4922 31.178L48.363 30.4087L48.5728 31.1917L46.0157 31.8769ZM10.9543 24.7681L18.0008 22.8799L20.2619 31.3184L13.2154 33.2065L10.9543 24.7681ZM13.565 34.5114L20.6116 32.6233L21.0078 34.1022L13.9613 35.9903L13.565 34.5114ZM14.3109 37.2952L21.3575 35.4071L23.4321 43.1495L16.3855 45.0376L14.3109 37.2952ZM5.07414 12.1712L40.4571 2.69038L41.5929 3.97111L4.73093 13.8482L5.07414 12.1712ZM3.7316 20.0833L2.58944 15.8207L2.9692 15.7189L44.0538 4.71036L44.4336 4.6086L45.5758 8.87131L3.73163 20.0834L3.7316 20.0833Z" fill="#2e5d66"/>
<path d="M14.9601 20.0583L12.1763 20.8042L12.5259 22.1091L15.3098 21.3631L14.9601 20.0583Z" fill="#2e5d66"/>
<path d="M20.4351 20.8286L24.3511 35.4436L24.7008 36.7485L25.2602 38.8363L43.268 34.0112L42.7085 31.9233L42.3589 30.6185L38.4428 16.0035L20.4351 20.8286ZM41.6133 33.056L26.2155 37.1818L26.0057 36.3988L41.4036 32.273L41.6133 33.056ZM41.0539 30.9681L25.656 35.094L22.0896 21.7839L37.4875 17.658L41.0539 30.9681Z" fill="#2e5d66"/>
<path d="M34.6466 26.7181C34.3206 26.8055 34.033 26.9653 33.7957 27.175L32.3985 26.3683L33.1158 21.3898L31.7787 21.1972L31.2208 25.0683L28.8024 21.9947L27.7407 22.8301L30.8511 26.7829L30.0444 28.1801C29.7341 28.1172 29.4051 28.1226 29.0791 28.21C27.9519 28.512 27.2805 29.6749 27.5825 30.8021C27.8846 31.9293 29.0474 32.6007 30.1747 32.2987C31.3019 31.9966 31.9733 30.8338 31.6713 29.7065C31.5839 29.3805 31.4241 29.0929 31.2144 28.8556L31.912 27.6473L33.1202 28.345C33.0573 28.6553 33.0627 28.9843 33.15 29.3103C33.4521 30.4375 34.6149 31.1089 35.7422 30.8069C36.8694 30.5048 37.5408 29.342 37.2388 28.2147C36.9367 27.0875 35.7739 26.4161 34.6466 26.7181ZM29.8249 30.9937C29.4172 31.103 28.9966 30.8602 28.8873 30.4524C28.7781 30.0447 29.0208 29.624 29.4286 29.5148C29.8364 29.4055 30.257 29.6483 30.3663 30.0561C30.4755 30.4639 30.2327 30.8845 29.8249 30.9937ZM35.3925 29.5019C34.9848 29.6111 34.5642 29.3684 34.4549 28.9606C34.3456 28.5528 34.5884 28.1322 34.9962 28.0229C35.404 27.9137 35.8246 28.1565 35.9339 28.5643C36.0431 28.9721 35.8002 29.3926 35.3925 29.5019Z" fill="#2e5d66"/>
<path d="M26.0589 25.2892L24.667 25.6621L25.0166 26.967L26.4085 26.594L26.0589 25.2892Z" fill="#2e5d66"/>
<path d="M37.1936 22.3053L35.8018 22.6782L36.1514 23.9831L37.5433 23.6101L37.1936 22.3053Z" fill="#2e5d66"/>
<path d="M13.2949 24.98L13.6446 26.2849L16.4718 25.5273L16.8564 26.9628L18.1613 26.6131L17.4271 23.8728L13.2949 24.98Z" fill="#2e5d66"/>
<path d="M7.20486 16.169L5.81299 16.542L6.16263 17.8469L7.55451 17.4739L7.20486 16.169Z" fill="#2e5d66"/>
<path d="M21.8197 12.2528L8.59668 15.7959L8.94632 17.1008L22.1694 13.5577L21.8197 12.2528Z" fill="#2e5d66"/>
<path d="M42.0022 6.84482L40.6104 7.21777L40.96 8.52265L42.3519 8.1497L42.0022 6.84482Z" fill="#2e5d66"/>
<path d="M39.2191 7.59117L25.9961 11.1343L26.3457 12.4392L39.5688 8.89605L39.2191 7.59117Z" fill="#2e5d66"/>
<path d="M24.6043 11.5069L23.2124 11.8799L23.562 13.1848L24.9539 12.8118L24.6043 11.5069Z" fill="#2e5d66"/>
<path d="M18.5349 28.0049L17.23 28.3545L17.6029 29.7464L18.9078 29.3967L18.5349 28.0049Z" fill="#2e5d66"/>
</svg>
