<?xml version="1.0" encoding="UTF-8"?>
<!DOCTYPE svg PUBLIC "-//W3C//DTD SVG 1.1//EN" "http://www.w3.org/Graphics/SVG/1.1/DTD/svg11.dtd">
<!-- Creator: CorelDRAW -->
<svg xmlns="http://www.w3.org/2000/svg" xml:space="preserve" width="304px" height="304px" version="1.1" style="shape-rendering:geometricPrecision; text-rendering:geometricPrecision; image-rendering:optimizeQuality; fill-rule:evenodd; clip-rule:evenodd"
viewBox="0 0 304 304"
 xmlns:xlink="http://www.w3.org/1999/xlink"
 xmlns:xodm="http://www.corel.com/coreldraw/odm/2003">
 <defs>
  <style type="text/css">
   <![CDATA[
    .fil0 {fill:white}
    .fil1 {fill:white;fill-rule:nonzero}
   ]]>
  </style>
 </defs>
 <g id="Слой_x0020_1">
  <metadata id="CorelCorpID_0Corel-Layer"/>
  <path class="fil0" d="M123 138l14.5 14.5 14.5 -14.5c5.971,5.971 8.878,8.878 14.5,14.5l14.5 -14.5c0,10.23 0,19.231 0,29 -22.441,0 -37.222,0 -58,0 0,-9.737 0,-19.049 0,-29zm29 10.009l6.255 6.255 -6.255 6.256 -6.255 -6.256 6.255 -6.255z"/>
  <g id="BRIXTON_stamp_38mm.cdr">
   <g>
    <path class="fil1" d="M76.431 207.711c-0.454,-0.615 -0.899,-1.234 -1.337,-1.86 -13.781,-19.683 -20.055,-44.623 -15.553,-70.154 4.502,-25.531 18.927,-46.822 38.609,-60.603 0.626,-0.438 1.256,-0.869 1.892,-1.291l-2.337 13.257c-14.785,12.349 -25.458,29.785 -29.065,50.242 -3.885,22.033 1.132,43.577 12.464,60.944l0.008 0.026 -3.828 4.601 -0.853 4.838z"/>
    <path class="fil1" d="M227.569 96.29c0.453,0.615 0.899,1.234 1.338,1.86 13.78,19.681 20.054,44.622 15.552,70.153 -4.502,25.531 -18.927,46.821 -38.608,60.604 -0.626,0.438 -1.257,0.867 -1.893,1.29l2.337 -13.256c14.785,-12.35 25.458,-29.786 29.065,-50.242 3.607,-20.457 -0.458,-40.492 -10.128,-57.153l2.337 -13.256z"/>
    <g>
     <path class="fil0" d="M147.487 46.946l-33.549 1.928 -4.267 5.795 -24.146 136.933 2.423 8.076 -4.881 5.865 -3.365 19.083 3.83 12.427 29.308 12.616 6.087 -6.109 22.903 -129.886 -6.419 1.099 7.832 -9.117 9.357 -53.065 -5.113 -5.645zm-31.394 86.645c2.183,0.331 3.977,1.892 5.081,4.126 1.112,2.25 1.542,5.166 0.998,8.251 -0.544,3.085 -1.956,5.739 -3.771,7.473 -1.801,1.722 -4.018,2.56 -6.182,2.123 -2.165,-0.437 -3.874,-2.044 -4.915,-4.28 -1.035,-2.223 -1.402,-5.115 -0.877,-8.092 0.525,-2.978 1.849,-5.511 3.581,-7.245 1.744,-1.746 3.902,-2.686 6.085,-2.356zm-11.124 63.09c2.129,0.636 3.872,2.483 4.94,4.923 1.076,2.456 1.478,5.524 0.933,8.617 -0.545,3.092 -1.927,5.58 -3.705,7.107 -1.766,1.516 -3.93,2.054 -6.04,1.311 -2.111,-0.744 -3.774,-2.609 -4.781,-5.042 -1,-2.418 -1.352,-5.395 -0.826,-8.379 0.526,-2.985 1.833,-5.419 3.53,-6.959 1.71,-1.548 3.819,-2.215 5.949,-1.578zm22.254 -126.209c2.237,0.023 4.078,1.316 5.219,3.344 1.148,2.043 1.595,4.86 1.051,7.945 -0.544,3.085 -1.976,5.853 -3.827,7.794 -1.838,1.927 -4.105,3.051 -6.323,2.92 -2.219,-0.131 -3.976,-1.464 -5.052,-3.505 -1.069,-2.025 -1.46,-4.783 -0.935,-7.76 0.525,-2.978 1.875,-5.661 3.642,-7.591 1.778,-1.942 3.987,-3.171 6.225,-3.147z"/>
     <polygon class="fil0" points="218.408,77.178 187.792,62.207 182.154,62.57 178.383,57.605 160.706,48.962 156.623,52.437 147.207,105.836 160.237,108.803 145.99,112.74 139.474,149.691 141.294,160.299 135.714,171.015 122.631,245.213 127.044,251.632 160.011,248.133 162.289,242.708 167.553,247.332 183.134,245.679 197.344,232.237 208.747,167.567 194.752,147.58 214.739,133.585 223.5,83.901 "/>
    </g>
   </g>
   <path class="fil1" d="M63.693 76.931l0.02 -2.234 -2.275 -0.054 -5.543 -5.624 0.017 -3.005 9.039 -8.908 12.239 12.418 1.302 -1.282 2.6 2.637 -10.341 10.191 -3.004 -0.026 -4.054 -4.113zm1.509 -5.998l2.677 -3.328 -4.092 -4.152 -2.639 3.366 4.054 4.114zm4.855 4.925l3.366 -2.628 -2.6 -2.637 -3.021 2.977 2.255 2.288zm-29.103 18.094l-3.157 -1.937 3.725 -6.073 9.239 3.17 1.105 -1.803 -8.127 -4.984 2.763 -4.505 14.864 9.115 0.956 -1.558 3.157 1.936 -7.59 12.377 -2.922 0.696 -6.268 -3.843 -0.701 -2.926 -5.988 -1.387 -1.056 1.722zm15.009 0.845l2.636 -3.36 -3.157 -1.935 -2.218 3.616 2.739 1.679zm-8.21 18.315l-12.894 -4.726 -0.644 1.756 -3.477 -1.275 3.093 -8.439 3.477 1.275 -0.631 1.721 12.894 4.727 0.631 -1.722 3.478 1.274 -3.093 8.439 -3.477 -1.274 0.643 -1.756zm-19.447 20.042l-0.365 1.803 -3.63 -0.735 1.257 -6.207 5.438 -1.461 -4.389 -3.72 1.049 -5.179 8.763 7.418 8 -2.159 0.362 -1.791 3.594 0.728 -1.255 6.196 -5.422 1.481 4.37 3.716 -1.048 5.174 -8.76 -7.43 -7.964 2.166zm16.153 27.171l-5.536 0.012 -0.009 -3.709 1.648 -0.003 0.175 -2.122 -13.727 0.031 0.004 1.87 -3.703 0.008 -0.02 -8.988 3.702 -0.008 0.005 1.833 13.728 -0.031 -0.185 -2.126 -1.648 0.003 -0.008 -3.666 5.536 -0.013 0.038 16.909zm1.763 21.81l-16.58 3.378 -2.508 -1.654 -2.111 -10.357 1.662 -2.503 16.58 -3.378 2.472 1.661 2.111 10.356 -1.626 2.497zm-3.121 -4.758l-0.331 -4.261 -13.486 2.747 1.381 4.048 12.436 -2.534zm-0.696 35.201l-3.345 1.589 -3.091 -6.505 7.219 -9.6 -9.611 4.567 -2.037 -4.286 15.782 -7.5 -0.8 -1.683 3.312 -1.574 2.96 6.229 -7.524 10.065 10.039 -4.771 2.037 4.286 -15.749 7.483 0.808 1.7z"/>
   <path class="fil1" d="M240.307 227.07l-0.02 2.233 2.275 0.054 5.544 5.625 -0.018 3.004 -9.039 8.909 -12.239 -12.419 -1.302 1.283 -2.6 -2.638 10.341 -10.191 3.004 0.026 4.054 4.114zm-1.509 5.998l-2.677 3.327 4.092 4.153 2.639 -3.367 -4.054 -4.113zm-4.854 -4.926l-3.366 2.628 2.599 2.638 3.021 -2.978 -2.254 -2.288zm29.102 -18.093l3.157 1.936 -3.724 6.074 -9.239 -3.171 -1.106 1.803 8.127 4.984 -2.763 4.505 -14.864 -9.115 -0.956 1.559 -3.157 -1.936 7.59 -12.377 2.923 -0.697 6.267 3.843 0.701 2.926 5.989 1.388 1.055 -1.722zm-15.008 -0.845l-2.637 3.359 3.158 1.936 2.217 -3.617 -2.738 -1.678zm8.209 -18.315l12.894 4.725 0.644 -1.755 3.477 1.275 -3.093 8.438 -3.477 -1.274 0.631 -1.722 -12.894 -4.726 -0.631 1.722 -3.478 -1.274 3.094 -8.439 3.476 1.274 -0.643 1.756zm19.447 -20.042l0.365 -1.804 3.63 0.735 -1.257 6.208 -5.438 1.46 4.389 3.72 -1.049 5.179 -8.763 -7.417 -8 2.158 -0.362 1.791 -3.594 -0.727 1.255 -6.196 5.422 -1.482 -4.37 -3.715 1.048 -5.175 8.76 7.43 7.964 -2.165zm-16.153 -27.171l5.536 -0.013 0.009 3.709 -1.648 0.004 -0.175 2.121 13.727 -0.031 -0.004 -1.869 3.703 -0.009 0.021 8.989 -3.703 0.007 -0.005 -1.833 -13.727 0.032 0.184 2.126 1.648 -0.004 0.008 3.667 -5.536 0.013 -0.038 -16.909zm-1.763 -21.811l16.58 -3.378 2.509 1.654 2.11 10.357 -1.662 2.503 -16.58 3.378 -2.472 -1.661 -2.111 -10.356 1.626 -2.497zm3.122 4.758l0.33 4.262 13.486 -2.748 -1.381 -4.048 -12.435 2.534zm0.695 -35.201l3.345 -1.589 3.091 6.505 -7.219 9.601 9.611 -4.567 2.037 4.286 -15.782 7.499 0.8 1.683 -3.312 1.574 -2.96 -6.229 7.524 -10.064 -10.039 4.77 -2.036 -4.285 15.748 -7.484 -0.808 -1.7z"/>
   <path class="fil1" d="M125.61 301.666c-41.329,-7.287 -75.792,-30.638 -98.1,-62.497 -22.309,-31.86 -32.463,-72.232 -25.176,-113.559 7.288,-41.329 30.637,-75.791 62.497,-98.1 31.86,-22.309 72.23,-32.463 113.559,-25.176 41.328,7.288 75.792,30.637 98.1,62.497 22.308,31.859 32.463,72.23 25.176,113.559 -7.287,41.328 -30.638,75.792 -62.497,98.1 -31.859,22.308 -72.232,32.463 -113.559,25.176zm-90.189 -68.036c20.89,29.834 53.163,51.701 91.866,58.525 38.703,6.824 76.508,-2.685 106.343,-23.576 29.834,-20.89 51.701,-53.163 58.525,-91.866 6.824,-38.703 -2.685,-76.508 -23.576,-106.342 -20.89,-29.836 -53.163,-51.701 -91.866,-58.526 -38.703,-6.824 -76.508,2.685 -106.343,23.576 -29.835,20.89 -51.7,53.163 -58.525,91.866 -6.824,38.703 2.685,76.508 23.576,106.343z"/>
   <path class="fil1" d="M64.308 242.523l-1.773 -1.799 -3.026 2.983 1.773 1.799c0.163,0.165 0.348,0.248 0.552,0.244 0.202,-0.003 0.386,-0.087 0.554,-0.253l1.92 -1.892c0.168,-0.167 0.252,-0.346 0.251,-0.54 -0.002,-0.195 -0.088,-0.376 -0.251,-0.542zm4.505 -5.058l-1.465 -1.485 -2.923 2.881 1.464 1.485c0.162,0.165 0.343,0.249 0.543,0.254 0.196,0.001 0.378,-0.08 0.538,-0.238l1.823 -1.798c0.169,-0.165 0.255,-0.348 0.259,-0.547 0.001,-0.202 -0.077,-0.387 -0.239,-0.552zm-12.636 5.831l10.832 -10.676c0.242,-0.239 0.492,-0.228 0.747,0.03l2.83 2.871c0.749,0.762 1.121,1.601 1.112,2.517 -0.008,0.919 -0.391,1.753 -1.157,2.509l-1.138 1.122c-0.844,0.831 -1.765,1.202 -2.764,1.104 0.29,1.209 -0.06,2.303 -1.057,3.287l-1.243 1.224c-0.757,0.747 -1.597,1.119 -2.517,1.112 -0.919,-0.006 -1.753,-0.39 -2.5,-1.148l-3.143 -3.188c-0.255,-0.259 -0.256,-0.513 -0.002,-0.764zm21.995 7.222l-3.68 3.056 2.017 1.527 1.942 -4.373c0.187,-0.421 0.461,-0.873 0.831,-1.361l-0.035 -0.026c-0.369,0.488 -0.726,0.877 -1.075,1.177zm-3.595 8.918l0.821 -1.853 -3.002 -2.272 -1.543 1.308c-0.264,0.227 -0.54,0.232 -0.823,0.017l-1.339 -1.013c-0.268,-0.203 -0.274,-0.421 -0.007,-0.646l12.283 -9.807c0.265,-0.227 0.543,-0.229 0.833,-0.01l0.83 0.628c0.278,0.21 0.348,0.477 0.207,0.797l-6.119 14.472c-0.058,0.154 -0.143,0.246 -0.251,0.28 -0.109,0.029 -0.233,-0.006 -0.372,-0.111l-1.311 -0.992c-0.284,-0.215 -0.351,-0.479 -0.207,-0.798zm20.498 -2.591l-1.927 -1.054 -2.341 4.276 1.928 1.056c0.203,0.11 0.405,0.137 0.597,0.075 0.193,-0.062 0.346,-0.195 0.459,-0.402l1.583 -2.892c0.113,-0.207 0.143,-0.406 0.09,-0.599 -0.054,-0.192 -0.185,-0.348 -0.389,-0.46zm-5.503 11.94l1.396 -5.644 -1.419 -0.776 -2.687 4.911c-0.171,0.312 -0.406,0.386 -0.705,0.223l-1.381 -0.756c-0.306,-0.168 -0.38,-0.41 -0.222,-0.731l7.302 -13.341c0.163,-0.299 0.405,-0.36 0.724,-0.186l3.637 1.991c0.921,0.504 1.511,1.198 1.769,2.079 0.258,0.883 0.134,1.785 -0.374,2.715l-1.47 2.685c-0.639,1.168 -1.531,1.8 -2.677,1.895l-1.524 6.232c-0.035,0.153 -0.104,0.256 -0.206,0.306 -0.108,0.051 -0.229,0.038 -0.368,-0.038l-1.463 -0.801c-0.319,-0.174 -0.428,-0.427 -0.332,-0.764zm18.176 1.264l-2.372 -0.87 -1.462 3.989 2.373 0.869c0.217,0.08 0.421,0.076 0.602,-0.014 0.182,-0.09 0.312,-0.244 0.393,-0.466l0.928 -2.531c0.081,-0.223 0.08,-0.42 -0.004,-0.595 -0.084,-0.176 -0.24,-0.302 -0.458,-0.382zm1.911 -6.499l-1.958 -0.717 -1.412 3.854 1.958 0.718c0.218,0.079 0.416,0.078 0.599,-0.003 0.178,-0.083 0.308,-0.234 0.385,-0.445l0.882 -2.404c0.081,-0.222 0.08,-0.424 -0.001,-0.606 -0.085,-0.184 -0.234,-0.317 -0.453,-0.397zm-8.933 10.671l5.233 -14.28c0.117,-0.32 0.347,-0.417 0.688,-0.292l3.786 1.387c1.003,0.367 1.697,0.968 2.08,1.8 0.387,0.834 0.397,1.752 0.026,2.762l-0.549 1.501c-0.408,1.112 -1.083,1.84 -2.027,2.179 0.778,0.969 0.93,2.108 0.448,3.423l-0.601 1.638c-0.366,0.999 -0.966,1.695 -1.801,2.08 -0.833,0.388 -1.752,0.397 -2.751,0.031l-4.203 -1.54c-0.342,-0.125 -0.451,-0.355 -0.329,-0.689zm26.702 -5.36l-3.621 -0.926 -1.219 4.768 2.578 0.66c0.345,0.087 0.475,0.297 0.391,0.627l-0.39 1.525c-0.088,0.345 -0.304,0.473 -0.65,0.385l-2.578 -0.66 -0.859 3.359 3.621 0.926c0.344,0.089 0.474,0.297 0.391,0.627l-0.391 1.526c-0.088,0.345 -0.305,0.473 -0.649,0.385l-5.642 -1.443c-0.337,-0.087 -0.469,-0.304 -0.397,-0.653l3.769 -14.734c0.085,-0.331 0.303,-0.45 0.656,-0.36l5.641 1.443c0.345,0.088 0.475,0.297 0.391,0.627l-0.399 1.559c-0.084,0.33 -0.298,0.446 -0.643,0.359zm12.791 1.882l-2.186 -0.216 -0.481 4.851 2.187 0.217c0.231,0.023 0.427,-0.032 0.581,-0.165 0.153,-0.132 0.241,-0.314 0.264,-0.549l0.325 -3.28c0.023,-0.235 -0.028,-0.431 -0.152,-0.588 -0.125,-0.155 -0.307,-0.247 -0.538,-0.27zm-0.39 13.141l-0.925 -5.741 -1.609 -0.158 -0.552 5.571c-0.035,0.355 -0.221,0.514 -0.561,0.481l-1.567 -0.155c-0.346,-0.034 -0.509,-0.229 -0.49,-0.585l1.498 -15.135c0.034,-0.339 0.232,-0.491 0.593,-0.455l4.127 0.409c1.044,0.103 1.859,0.51 2.442,1.221 0.583,0.711 0.822,1.59 0.718,2.645l-0.302 3.045c-0.13,1.325 -0.705,2.256 -1.722,2.792l1.037 6.332c0.028,0.154 0.004,0.276 -0.07,0.362 -0.079,0.089 -0.195,0.124 -0.354,0.109l-1.659 -0.164c-0.362,-0.036 -0.561,-0.227 -0.604,-0.574zm11.442 -10.377l-0.06 -1.144c-0.055,-1.05 0.225,-1.917 0.841,-2.6 0.614,-0.679 1.455,-1.049 2.518,-1.104l1.179 -0.062c1.054,-0.055 1.933,0.22 2.632,0.834 0.682,0.616 1.051,1.449 1.106,2.499l0.069 1.322c0.019,0.356 -0.149,0.543 -0.505,0.561l-1.584 0.083c-0.34,0.018 -0.519,-0.15 -0.538,-0.506l-0.076 -1.457c-0.012,-0.228 -0.095,-0.406 -0.249,-0.541 -0.154,-0.132 -0.347,-0.191 -0.571,-0.18l-1.461 0.077c-0.235,0.012 -0.421,0.092 -0.561,0.238 -0.139,0.152 -0.202,0.337 -0.191,0.565l0.067 1.278c0.013,0.255 0.117,0.451 0.314,0.585l4.406 3.516c0.364,0.282 0.662,0.651 0.899,1.108 0.243,0.486 0.379,0.952 0.402,1.4l0.073 1.391c0.055,1.043 -0.225,1.91 -0.839,2.608 -0.608,0.691 -1.444,1.064 -2.506,1.12l-1.461 0.077c-1.074,0.055 -1.946,-0.228 -2.621,-0.851 -0.684,-0.631 -1.053,-1.464 -1.108,-2.507l-0.07 -1.349c-0.018,-0.34 0.151,-0.515 0.502,-0.534l1.577 -0.082c0.352,-0.018 0.542,0.138 0.568,0.478l0.076 1.46c0.012,0.236 0.092,0.418 0.234,0.55 0.142,0.131 0.332,0.196 0.568,0.183l1.742 -0.091c0.232,-0.012 0.413,-0.096 0.542,-0.242 0.127,-0.146 0.187,-0.335 0.175,-0.57l-0.079 -1.504c-0.013,-0.258 -0.113,-0.455 -0.302,-0.588l-4.418 -3.511c-0.356,-0.28 -0.65,-0.652 -0.888,-1.124 -0.246,-0.472 -0.378,-0.933 -0.402,-1.386zm18.519 9.801l-2.299 -15.034c-0.052,-0.338 0.103,-0.533 0.462,-0.588l1.557 -0.238c0.337,-0.052 0.53,0.091 0.582,0.428l1.063 6.956 3.091 -0.472 -1.064 -6.957c-0.052,-0.337 0.091,-0.53 0.428,-0.582l1.567 -0.24c0.353,-0.053 0.554,0.088 0.605,0.425l2.299 15.033c0.054,0.353 -0.095,0.555 -0.447,0.609l-1.568 0.24c-0.337,0.051 -0.531,-0.098 -0.585,-0.451l-0.84 -5.488 -3.09 0.473 0.84 5.488c0.053,0.352 -0.088,0.554 -0.425,0.605l-1.556 0.238c-0.36,0.054 -0.566,-0.093 -0.62,-0.445zm16.828 -16.348l2.855 9.27c0.07,0.226 0.195,0.381 0.376,0.471 0.181,0.09 0.388,0.104 0.61,0.035l1.971 -0.607c0.226,-0.069 0.381,-0.195 0.473,-0.368 0.092,-0.174 0.105,-0.373 0.035,-0.598l-2.855 -9.27c-0.069,-0.226 -0.191,-0.382 -0.363,-0.471 -0.174,-0.089 -0.372,-0.1 -0.597,-0.031l-1.971 0.607c-0.222,0.068 -0.386,0.191 -0.486,0.368 -0.098,0.181 -0.115,0.375 -0.048,0.594zm0.312 9.911l-2.775 -9.011c-0.31,-1.006 -0.25,-1.914 0.18,-2.728 0.431,-0.808 1.157,-1.372 2.173,-1.684l1.712 -0.528c1.021,-0.314 1.933,-0.255 2.745,0.171 0.812,0.43 1.374,1.147 1.684,2.153l2.775 9.011c0.309,1.007 0.248,1.912 -0.181,2.724 -0.431,0.813 -1.152,1.375 -2.173,1.689l-1.711 0.527c-1.018,0.313 -1.934,0.256 -2.746,-0.174 -0.813,-0.43 -1.373,-1.143 -1.683,-2.15zm17.347 -17.508l-1.985 0.943 2.054 4.323 1.985 -0.942c0.209,-0.1 0.351,-0.245 0.417,-0.43 0.066,-0.186 0.047,-0.387 -0.052,-0.597l-1.387 -2.918c-0.101,-0.213 -0.245,-0.354 -0.432,-0.424 -0.188,-0.069 -0.391,-0.054 -0.6,0.045zm3.064 6.764l-1.863 0.885 2.433 5.121c0.153,0.321 0.076,0.554 -0.232,0.701l-1.423 0.675c-0.314,0.15 -0.554,0.068 -0.722,-0.247l-6.527 -13.737c-0.146,-0.308 -0.054,-0.54 0.274,-0.697l3.746 -1.779c0.947,-0.45 1.856,-0.522 2.721,-0.214 0.867,0.308 1.525,0.937 1.981,1.895l1.273 2.681c0.458,0.964 0.533,1.879 0.223,2.742 -0.307,0.866 -0.937,1.525 -1.884,1.974z"/>
   <path class="fil1" d="M125.119 25.726l-3.165 0.808 1.065 4.167 2.254 -0.575c0.301,-0.077 0.489,0.028 0.563,0.318l0.34 1.332c0.077,0.302 -0.035,0.491 -0.337,0.568l-2.253 0.576 0.749 2.935 3.165 -0.807c0.301,-0.077 0.489,0.028 0.562,0.316l0.341 1.334c0.077,0.301 -0.036,0.49 -0.337,0.567l-4.931 1.26c-0.295,0.075 -0.487,-0.036 -0.578,-0.335l-3.288 -12.879c-0.074,-0.288 0.043,-0.472 0.351,-0.55l4.931 -1.26c0.301,-0.076 0.489,0.029 0.563,0.317l0.348 1.363c0.074,0.288 -0.041,0.468 -0.343,0.545zm7.274 0.429l-0.152 -0.99c-0.139,-0.909 0.03,-1.687 0.505,-2.335 0.477,-0.643 1.176,-1.038 2.095,-1.179l1.02 -0.155c0.912,-0.14 1.7,0.024 2.36,0.497 0.648,0.476 1.042,1.168 1.18,2.077l0.175 1.144c0.048,0.307 -0.083,0.485 -0.39,0.532l-1.371 0.209c-0.294,0.046 -0.465,-0.086 -0.512,-0.394l-0.192 -1.259c-0.031,-0.198 -0.118,-0.345 -0.264,-0.45 -0.145,-0.1 -0.318,-0.135 -0.512,-0.106l-1.264 0.193c-0.204,0.032 -0.359,0.116 -0.467,0.256 -0.108,0.144 -0.147,0.31 -0.117,0.508l0.169 1.106c0.034,0.22 0.141,0.382 0.323,0.481l4.138 2.676c0.341,0.214 0.632,0.507 0.878,0.885 0.253,0.402 0.412,0.795 0.471,1.183l0.184 1.203c0.138,0.903 -0.03,1.681 -0.504,2.341 -0.468,0.654 -1.163,1.051 -2.082,1.192l-1.264 0.193c-0.929,0.142 -1.711,-0.03 -2.352,-0.513 -0.65,-0.489 -1.044,-1.181 -1.181,-2.085l-0.179 -1.166c-0.045,-0.294 0.087,-0.461 0.391,-0.507l1.363 -0.209c0.305,-0.046 0.484,0.073 0.536,0.366l0.193 1.264c0.031,0.204 0.116,0.355 0.251,0.457 0.136,0.103 0.305,0.141 0.509,0.111l1.509 -0.231c0.2,-0.031 0.35,-0.119 0.449,-0.257 0.099,-0.138 0.134,-0.307 0.103,-0.512l-0.199 -1.3c-0.034,-0.224 -0.137,-0.386 -0.314,-0.485l-4.147 -2.671c-0.333,-0.212 -0.622,-0.51 -0.87,-0.9 -0.254,-0.389 -0.409,-0.779 -0.469,-1.17zm20.952 -5.104l0.003 1.406c0,0.298 -0.148,0.444 -0.446,0.444l-2.09 0.005 0.024 11.443c0.001,0.311 -0.147,0.467 -0.445,0.468l-1.376 0.003c-0.305,0 -0.461,-0.155 -0.475,-0.466l-0.023 -11.443 -2.064 0.004c-0.304,0.001 -0.46,-0.145 -0.474,-0.442l-0.003 -1.407c0,-0.298 0.154,-0.446 0.472,-0.447l6.449 -0.014c0.298,0 0.447,0.147 0.448,0.446zm11.099 2.442l-2.038 -0.202 -0.948 9.574 2.039 0.201c0.206,0.021 0.373,-0.028 0.511,-0.143 0.14,-0.116 0.217,-0.274 0.237,-0.48l0.811 -8.201c0.021,-0.204 -0.023,-0.375 -0.139,-0.512 -0.113,-0.137 -0.267,-0.217 -0.473,-0.237zm-5.454 10.959l1.309 -13.228c0.029,-0.297 0.202,-0.429 0.518,-0.398l3.725 0.369c0.919,0.091 1.642,0.448 2.164,1.07 0.51,0.622 0.719,1.39 0.628,2.312l-0.789 7.976c-0.091,0.925 -0.448,1.644 -1.069,2.153 -0.621,0.51 -1.4,0.718 -2.332,0.626l-3.725 -0.369c-0.316,-0.031 -0.459,-0.201 -0.429,-0.511zm17.495 2.333l0.72 -2.81c0.102,-0.403 0.304,-0.782 0.6,-1.131 0.298,-0.35 0.641,-0.608 1.031,-0.773l3.839 -1.577c0.223,-0.096 0.365,-0.266 0.425,-0.502l0.587 -2.296c0.071,-0.276 0.041,-0.517 -0.082,-0.73 -0.127,-0.214 -0.328,-0.356 -0.602,-0.426l-0.577 -0.148c-0.275,-0.071 -0.52,-0.042 -0.731,0.085 -0.214,0.128 -0.355,0.325 -0.426,0.6l-0.26 1.019c-0.077,0.301 -0.267,0.413 -0.568,0.336l-1.333 -0.341c-0.289,-0.074 -0.394,-0.261 -0.317,-0.563l0.201 -0.786c0.259,-1.012 0.779,-1.748 1.557,-2.209 0.781,-0.463 1.676,-0.562 2.685,-0.304l0.098 0.025c1.022,0.261 1.766,0.779 2.229,1.561 0.46,0.778 0.564,1.673 0.304,2.686l-0.549 2.149c-0.104,0.402 -0.305,0.78 -0.601,1.13 -0.298,0.35 -0.644,0.607 -1.032,0.774l-3.84 1.572c-0.213,0.071 -0.356,0.233 -0.423,0.495l-0.248 0.97 4.166 1.066c0.302,0.077 0.416,0.26 0.342,0.548l-0.341 1.333c-0.078,0.302 -0.267,0.414 -0.567,0.337l-5.953 -1.523c-0.269,-0.068 -0.378,-0.257 -0.334,-0.567zm17.995 -5.856l-2.716 7.413c-0.102,0.28 -0.105,0.531 0,0.756 0.104,0.226 0.29,0.388 0.556,0.485l1.071 0.393c0.279,0.102 0.528,0.099 0.754,-0.005 0.226,-0.105 0.389,-0.297 0.492,-0.576l2.716 -7.414c0.098,-0.267 0.093,-0.51 -0.012,-0.735 -0.104,-0.226 -0.293,-0.388 -0.572,-0.491l-1.071 -0.392c-0.266,-0.098 -0.513,-0.095 -0.738,0.01 -0.226,0.105 -0.383,0.289 -0.48,0.556zm-4.817 6.403l2.556 -6.976c0.357,-0.975 0.951,-1.654 1.78,-2.038 0.824,-0.383 1.731,-0.389 2.721,-0.027l0.604 0.222c0.993,0.364 1.682,0.954 2.06,1.778 0.384,0.82 0.396,1.722 0.036,2.703l-2.555 6.975c-0.36,0.982 -0.951,1.662 -1.775,2.041 -0.82,0.384 -1.727,0.39 -2.72,0.026l-0.604 -0.221c-0.99,-0.363 -1.679,-0.954 -2.061,-1.778 -0.384,-0.829 -0.398,-1.731 -0.042,-2.705zm11.427 7.658l1.266 -2.611c0.181,-0.375 0.453,-0.705 0.813,-0.989 0.362,-0.283 0.749,-0.467 1.165,-0.551l4.075 -0.78c0.239,-0.05 0.412,-0.188 0.518,-0.407l1.033 -2.133c0.124,-0.256 0.144,-0.498 0.066,-0.732 -0.083,-0.234 -0.251,-0.414 -0.506,-0.538l-0.536 -0.259c-0.256,-0.124 -0.501,-0.145 -0.733,-0.062 -0.235,0.081 -0.413,0.247 -0.537,0.503l-0.459 0.946c-0.135,0.28 -0.343,0.351 -0.623,0.216l-1.238 -0.6c-0.268,-0.13 -0.334,-0.335 -0.199,-0.615l0.354 -0.73c0.456,-0.94 1.112,-1.558 1.966,-1.854 0.859,-0.298 1.755,-0.217 2.692,0.237l0.091 0.045c0.95,0.459 1.575,1.115 1.873,1.974 0.296,0.853 0.219,1.752 -0.237,2.692l-0.968 1.996c-0.181,0.374 -0.453,0.705 -0.813,0.989 -0.362,0.283 -0.752,0.466 -1.166,0.551l-4.077 0.775c-0.223,0.027 -0.395,0.158 -0.512,0.401l-0.438 0.901 3.871 1.876c0.28,0.136 0.355,0.337 0.225,0.605l-0.6 1.238c-0.136,0.281 -0.343,0.353 -0.623,0.217l-5.529 -2.68c-0.25,-0.121 -0.319,-0.327 -0.214,-0.621zm11.285 5.978l1.516 -2.474c0.218,-0.354 0.522,-0.656 0.907,-0.903 0.389,-0.246 0.792,-0.392 1.214,-0.434l4.133 -0.374c0.242,-0.026 0.427,-0.147 0.554,-0.354l1.24 -2.021c0.148,-0.242 0.192,-0.481 0.136,-0.721 -0.058,-0.242 -0.208,-0.437 -0.45,-0.586l-0.507 -0.31c-0.242,-0.149 -0.484,-0.194 -0.723,-0.135 -0.242,0.058 -0.436,0.206 -0.584,0.448l-0.55 0.896c-0.162,0.265 -0.376,0.316 -0.641,0.154l-1.174 -0.72c-0.254,-0.155 -0.299,-0.366 -0.137,-0.631l0.424 -0.691c0.547,-0.892 1.261,-1.441 2.14,-1.652 0.883,-0.212 1.767,-0.043 2.655,0.502l0.086 0.053c0.9,0.551 1.457,1.266 1.67,2.15 0.21,0.878 0.044,1.764 -0.502,2.655l-1.159 1.891c-0.218,0.355 -0.522,0.656 -0.908,0.904 -0.388,0.246 -0.794,0.39 -1.214,0.433l-4.134 0.369c-0.224,0.005 -0.408,0.118 -0.55,0.349l-0.523 0.853 3.667 2.249c0.265,0.162 0.319,0.37 0.164,0.624l-0.719 1.173c-0.163,0.266 -0.377,0.317 -0.642,0.154l-5.238 -3.212c-0.237,-0.144 -0.285,-0.357 -0.151,-0.639z"/>
  </g>
 </g>
</svg>
