<?xml version="1.0" encoding="UTF-8"?>
<!DOCTYPE svg PUBLIC "-//W3C//DTD SVG 1.1//EN" "http://www.w3.org/Graphics/SVG/1.1/DTD/svg11.dtd">
<!-- Creator: CorelDRAW -->
<svg xmlns="http://www.w3.org/2000/svg" xml:space="preserve" width="464px" height="566px" version="1.1" style="shape-rendering:geometricPrecision; text-rendering:geometricPrecision; image-rendering:optimizeQuality; fill-rule:evenodd; clip-rule:evenodd"
viewBox="0 0 464 566"
 xmlns:xlink="http://www.w3.org/1999/xlink"
 xmlns:xodm="http://www.corel.com/coreldraw/odm/2003">
 <defs>
  <style type="text/css">
   <![CDATA[
    .fil0 {fill:#21363B;fill-rule:nonzero}
    .fil1 {fill:url(#id0);fill-rule:nonzero}
    .fil2 {fill:url(#id1);fill-rule:nonzero}
   ]]>
  </style>
  <linearGradient id="id0" gradientUnits="userSpaceOnUse" x1="240.264" y1="70.913" x2="201.574" y2="-22.881">
   <stop offset="0" style="stop-opacity:1; stop-color:#37787D"/>
   <stop offset="1" style="stop-opacity:1; stop-color:#2E5D66"/>
  </linearGradient>
  <linearGradient id="id1" gradientUnits="userSpaceOnUse" xlink:href="#id0" x1="207.088" y1="288.002" x2="324.845" y2="524.494">
  </linearGradient>
 </defs>
 <g id="Слой_x0020_1">
  <metadata id="CorelCorpID_0Corel-Layer"/>
  <g id="_1604422148144">
   <g>
    <path class="fil0" d="M105.083 221.65l-4.053 4.572 4.053 3.657 0 20.233 -5.435 6.165 -32.514 4.28 0 -44.672 -4.682 0.616 0 -9.487 37.196 -4.897 5.435 4.734 0 14.799zm-13.54 10.011l-10.869 2.69 0 14.937 10.869 -2.828 0 -14.799zm0 -17.715l-10.869 0.171 0 9.488 10.869 -1.431 0 -8.228zm203.429 -37.542l0 14.185 -9.502 1.251 0 -4.222 -5.435 0.255 0 35.17 4.79 -0.63 0 9.487 -23.027 3.031 0 -9.487 4.697 -0.618 0 -35.171 -5.45 1.178 0 4.222 -9.394 1.237 0 -14.185 43.321 -5.703zm46.916 -0.819l0 43.353 -5.434 6.165 -27.08 3.565 -5.435 -4.734 0 -43.353 5.435 -6.073 27.08 -3.565 5.434 4.642zm-13.54 7.187l-10.869 0.079 0 35.263 10.869 -2.828 0 -32.514zm72.2 24.406l0 9.488 -18.453 2.429 -14.276 -25.385 0 27.264 -12.159 1.601 0 -44.765 -4.774 0.628 0 -9.395 17.669 -2.326 15.014 26.5 0 -28.476 12.159 -1.601 0 44.673 4.82 -0.635zm-239.124 31.479l0 9.488 -18.252 2.403 -5.45 -23.707 -5.419 0.713 0 24.424 -13.54 1.783 0 -44.673 -4.683 0.616 0 -9.487 37.197 -4.896 5.435 4.734 0 18.836 -5.45 6.168 4.989 14.28 5.173 -0.682zm-18.252 -31.508l-10.869 0.172 0 9.487 10.869 -1.431 0 -8.228zm45.365 -7.246l0 35.185 4.79 -0.63 0 9.487 -23.027 3.031 0 -9.487 4.697 -0.618 0 -35.186 -4.697 0.619 0 -9.488 23.027 -3.031 0 9.487 -4.79 0.631zm52.304 28.3l4.713 -0.621 0 9.487 -16.227 2.137 -6.432 -12.064 -7.107 13.846 -13.54 1.783 14.169 -27.641 -9.487 -17.741 -4.682 0.617 0 -9.395 16.195 -2.133 6.479 12.013 7.107 -13.801 13.525 -1.78 -14.2 27.644 9.487 17.649z"/>
    <path class="fil0" d="M61.765 139.841l0 29.091 -5.434 6.073 -18.975 2.498 0 4.774 4.79 -0.63 0 9.487 -18.33 2.413 0 -14.262 -18.974 2.498c-0.798,-0.77 -1.689,-1.543 -2.64,-2.354l-1.213 -1.007c-0.553,-0.465 -1.044,-0.891 -1.489,-1.293l0 -29.091 5.342 -6.153 51.489 -6.778 5.434 4.734zm-37.949 10.307l-10.776 0.161 0 20.908 10.776 -2.724 0 -18.345zm24.409 -3.213l-10.869 0.172 0 20.909 10.869 -2.736 0 -18.345zm66.816 -14.199l0 29.106 -5.45 6.152 -18.959 2.496 0 4.774 4.79 -0.63 0 9.487 -18.33 2.412 0 -44.764 -4.682 0.616 0 -9.395 37.196 -4.897 5.435 4.643zm-13.54 7.186l-10.869 0.08 0 21 10.869 -2.735 0 -18.345zm68.522 24.891l0 9.487 -18.299 2.409 -2.395 -11.736 -11.637 2.514 -2.21 11.36 -12.143 1.598 11.16 -46.141 -2.394 0.315 0 -9.487 22.351 -2.943 11.161 43.204 4.406 -0.58zm-22.536 -9.1l-3.869 -18.557 -3.776 19.471 7.645 -0.914zm77.077 1.92l0 9.487 -18.33 2.413 0 -25.775 -10.777 2.769 0 24.424 -13.54 1.783 0 -44.765 -4.789 0.631 0 -9.395 18.329 -2.414 0 18.883 10.777 -1.419 0 -18.882 13.54 -1.782 0 44.672 4.79 -0.63zm78.719 -10.363l0 9.487 -61.605 8.11 -5.342 -4.747 0 -39.223 -4.79 0.631 0 -9.487 18.33 -2.413 0 44.657 10.776 -2.816 0 -43.26 13.54 -1.782 0 44.657 10.869 -2.828 0 -43.26 13.54 -1.783 0 44.673 4.682 -0.616zm54.541 -7.18l0 9.487 -18.329 2.413 0 -27.08 -10.747 28.495 -13.57 1.786 0 -44.673 -4.79 0.631 0 -9.487 18.33 -2.413 0 27.08 10.761 -28.497 13.555 -1.785 0 44.673 4.79 -0.63zm43.113 -50.348l5.358 4.744 0 14.799 -4.053 4.571 4.053 3.565 0 20.325 -5.358 6.155 -27.065 3.563 -5.434 -4.734 0 -8.09 13.54 -4.531 0 6.801 10.777 -2.816 0 -14.89 -10.777 2.769 2.656 -11.095 8.121 -1.069 0 -8.244 -10.777 0.16 0 4.052 -13.54 4.439 0 -10.746 5.434 -6.166 27.065 -3.562zm62.563 36.436l0 9.487 -18.299 2.409 -2.395 -11.735 -11.636 2.514 -2.21 11.359 -12.144 1.599 11.161 -46.142 -2.395 0.316 0 -9.488 22.352 -2.942 11.16 43.203 4.406 -0.58zm-22.536 -9.099l-3.868 -18.557 -3.777 19.471 7.645 -0.914z"/>
   </g>
   <g>
    <path class="fil1" d="M387.466 71.707l0 -30.201 -38.961 0c0,0.024 0,0.066 0,0.109 0,9.04 -5.296,16.38 -11.827,16.38 -6.532,0 -11.834,-7.34 -11.834,-16.38 0,-0.043 0,-0.085 0,-0.109l0 -21.145c0,-11.236 -9.124,-20.361 -20.361,-20.361 -56.167,0 -91.703,0 -138.402,0 -11.236,0 -20.361,9.125 -20.361,20.361l0 21.145c0,0.024 0,0.066 0,0.109 0,9.04 -5.296,16.38 -11.833,16.38 -6.532,0 -11.827,-7.34 -11.827,-16.38 0,-0.043 0,-0.085 0,-0.109l-38.956 0 0 70.274 304.362 -40.073z"/>
    <path class="fil2" d="M324.844 545.639l0 -21.145c0,-0.024 0,-0.066 0,-0.084 0,-9.065 5.302,-16.405 11.834,-16.405 6.531,0 11.827,7.34 11.827,16.405 0,0.018 0,0.06 0,0.084l38.961 0 0 -184.479c0.37,-0.351 0.735,-0.706 1.096,-1.068 9.468,-9.467 14.862,-21.401 16.071,-33.37 1.03,-10.196 -0.992,-20.42 -6.128,-29.195l4.889 -2.609c5.466,-2.916 10.937,-5.835 16.412,-8.77 1.56,-0.695 2.742,-2.149 3.007,-3.964 0.002,-0.011 0.636,-4.014 -0.761,-8.5 -1.016,-3.265 -3.757,-9.218 -8.139,-9.08 -0.056,0.002 -10.961,0.355 -26.447,2.502l0 -7.065 -167.709 22.081 16.228 60.567c0.476,1.775 1.189,3.436 2.106,4.953 -0.269,0.061 -0.537,0.127 -0.805,0.197 -4.561,1.187 -8.891,3.58 -12.488,7.178l-4.274 4.274 -13.436 -50.144c-5.376,6.722 -12.669,11.759 -21.347,14.084 -11.785,3.158 -23.83,0.703 -33.774,-5.817 -8.297,-5.439 -15.105,-13.716 -18.966,-23.869l-49.897 6.57 0 56.725c-2.39,-1.591 -4.278,-2.303 -4.287,-2.305 -1.317,-0.49 -2.828,-0.441 -4.171,0.26 -4.213,2.203 -8.507,3.648 -14.258,9.011 -7.333,6.838 -11.505,13.571 -12.31,14.925 -1.245,1.933 -1.077,4.533 0.561,6.293l34.465 36.96 0 123.655 38.956 0c0,-0.024 0,-0.066 0,-0.084 0,-9.065 5.295,-16.405 11.827,-16.405 6.537,0 11.833,7.34 11.833,16.405 0,0.018 0,0.06 0,0.084l0 21.145c0,11.26 9.125,20.361 20.361,20.361l138.402 0c11.237,0 20.361,-9.101 20.361,-20.361zm-97.832 -24.899c5.468,7.456 11.868,15.913 15.996,21.934 0,0 0.557,0.939 -3.644,4.857 -3.393,3.163 -5.68,3.837 -5.68,3.837 0,0 -8.877,-9.02 -21.508,-21.962 3.919,-1.34 9.223,-4.634 14.836,-8.666zm25.025 -30.947c-0.395,-0.423 -35.566,31.612 -43.165,31.832 0,0 -8.307,-5.045 -13.821,-10.958 -5.514,-5.914 -9.967,-14.552 -9.967,-14.552 0.75,-7.565 35.159,-40.416 34.765,-40.839l21.428 -19.982c4.666,17.529 9.323,35.012 13.793,51.671l-3.033 2.828zm25.258 -88.086l15.763 -14.699c50.26,-46.868 59.569,-47.129 59.569,-47.129 0,0 8.245,5.06 13.79,10.987 5.526,5.945 9.998,14.523 9.998,14.523 0,0 -0.909,9.268 -51.169,56.136l-42.167 39.321 -2.698 -27.608 -3.086 -31.531zm-59.155 87.429c-2.5,-2.681 -6.7,-2.827 -9.38,-0.327 -2.681,2.499 -2.828,6.699 -0.328,9.38 2.5,2.68 6.7,2.827 9.381,0.327 2.68,-2.499 2.827,-6.7 0.327,-9.38zm-40.969 4.135c-16.555,-17.244 -36.415,-38.156 -58.634,-61.983 -12.984,-13.923 -53.147,-56.993 -66.13,-70.915 0,0 3.868,-6.839 11.488,-13.944 3.786,-3.531 3.316,-3.092 13.129,-8.224 0,0 3.613,1.363 6.779,4.758l82.912 88.912c3.148,3.376 4.256,7.076 4.256,7.076 -3.728,5.115 -3.344,6.38 -7.074,11.476 5.632,6.044 16.293,17.485 24.483,26.283 -5.326,6.293 -9.762,12.349 -11.209,16.561zm20.265 -229.355l-44.455 5.853c2.406,4.365 5.704,7.923 9.504,10.414 5.455,3.575 11.973,4.946 18.261,3.261 8.794,-2.356 14.936,-10.077 16.69,-19.528zm136.679 60.623c4.604,4.603 10.934,6.676 17.446,6.306 6.887,-0.391 14.002,-3.486 19.707,-9.192 11.056,-11.055 12.349,-27.69 2.886,-37.152 -4.603,-4.603 -10.933,-6.676 -17.446,-6.306 -6.887,0.391 -14.001,3.487 -19.706,9.192 -11.057,11.056 -12.349,27.69 -2.887,37.152zm-88.155 35.206c3.573,-0.958 5.695,-4.631 4.737,-8.205 -0.957,-3.573 -4.631,-5.695 -8.205,-4.737 -3.574,0.958 -5.694,4.631 -4.737,8.205 0.958,3.574 4.631,5.694 8.205,4.737zm-111.509 129.989c0,0 -2.726,-0.989 -5.514,-3.594 -3.026,-2.828 -3.932,-5.851 -3.932,-5.851 1.07,-1.502 6.446,-9.021 14.039,-19.638 1.796,1.903 3.575,3.786 5.338,5.649 2.35,2.485 4.557,4.816 6.63,7.002 -5.516,5.483 -11.036,10.961 -16.561,16.432zm31.31 -66.429c21.554,-30.125 44.023,-61.52 46.361,-64.767l18.683 -18.684c5.036,-5.036 12.198,-6.648 18.596,-4.841 6.47,1.461 13.122,-0.393 17.827,-5.098l54.87 -54.871c0.411,-0.44 0.828,-0.875 1.256,-1.304 5.826,-5.826 12.693,-9.955 19.892,-12.348 0.896,-0.428 2.133,-0.909 3.836,-1.438 32.959,-10.257 66.992,-11.357 66.992,-11.357 0,0 2.017,2.117 3.061,5.474 1.039,3.335 0.58,6.223 0.58,6.223 -8.898,4.771 -17.781,9.495 -26.658,14.24l-0.004 0c13.483,17.251 11.173,43.456 -6.138,60.766 -4.747,4.748 -10.187,8.368 -15.933,10.841 -5.949,-5.913 -13.651,-10.641 -13.675,-10.655 -0.955,-0.583 -2.025,-0.817 -3.063,-0.739l0 -0.007c-0.002,0.001 -0.067,0.003 -0.204,0.026 -0.601,0.07 -1.186,0.244 -1.728,0.517 -2.55,0.964 -7.937,3.649 -17.96,11.111 -4.338,-1.955 -8.363,-4.687 -11.883,-8.208 -6.353,-6.352 -10.15,-14.361 -11.445,-22.869l-37.958 37.957 -12.86 12.86c-28.604,28.605 -57.165,57.286 -85.807,85.867l-1.959 -2.103c1.66,-2.771 2.691,-5.194 4.682,-7.925 0.747,-1.025 1.058,-2.235 0.969,-3.408 -0.055,-0.722 -0.225,-1.242 -0.478,-1.907 -0.599,-1.577 -2.162,-5.106 -5.13,-8.289l-4.722 -5.064zm105.302 103.035c-11.561,-42.308 -22.761,-84.758 -34.077,-127.146l30.942 -30.792 1.469 5.483c0.767,7.62 13.843,141.395 14.568,148.997 0,0 -2.296,2.166 -6.331,3.102 -3.717,0.862 -6.571,0.356 -6.571,0.356z"/>
   </g>
  </g>
 </g>
</svg>
