<svg width="31" height="30" viewBox="0 0 31 30" fill="none" xmlns="http://www.w3.org/2000/svg">
<path fill-rule="evenodd" clip-rule="evenodd" d="M15.0112 0C23.2955 0 30.0112 6.71572 30.0112 15C30.0112 23.2843 23.2955 30 15.0112 30C6.72696 30 0.0112305 23.2843 0.0112305 15C0.0112305 6.71572 6.72696 0 15.0112 0ZM18.7629 10.6151C18.8537 11.4676 20.278 11.3819 20.1785 10.4321C20.0826 9.51761 18.6574 9.62418 18.7629 10.6151ZM13.1466 16.8038C12.9371 16.5785 12.7107 16.236 12.5702 15.8474C12.0854 14.5071 12.829 13.0525 14.17 12.5687C15.217 12.1909 16.3634 12.6588 16.8743 13.2086C17.4097 13.7847 17.8232 14.9236 17.4102 15.9434C16.7229 17.6407 14.4353 18.1896 13.1466 16.8038ZM12.3155 11.716C12.1587 11.8455 11.7807 12.2283 11.6599 12.3895C11.2204 12.9762 11.0837 13.359 10.828 14.1799C10.7823 14.5899 10.7392 14.9077 10.7698 15.3354C11.1702 20.918 20.4249 20.2528 19.1098 13.866C18.5817 12.2868 17.7068 11.4557 16.1525 10.9067C14.8019 10.604 13.4014 10.8188 12.3155 11.716ZM8.54096 17.2504L8.54028 14.0892L8.54154 11.9905C8.56466 11.1258 8.7807 10.409 9.20057 9.86425C9.37848 9.63341 9.66982 9.34612 9.90644 9.17233C10.2282 8.93606 10.4317 8.88348 10.8013 8.7059C11.7863 8.4574 12.902 8.54206 13.9498 8.54352C15.1251 8.54613 18.3416 8.40027 19.3346 8.75219C20.1512 9.04157 20.9359 9.81695 21.246 10.6333C21.6264 11.6347 21.4686 14.8765 21.4711 16.0669C21.4724 17.0523 21.5881 18.3581 21.2974 19.2164C21.04 20.0736 19.9885 21.2823 19.0186 21.3287C18.5087 21.6295 16.6598 21.4676 15.9378 21.4761L12.7662 21.4757C11.1761 21.4822 10.4062 21.3936 9.51322 20.5035C8.62579 19.6189 8.53447 18.8314 8.54096 17.2504ZM9.36472 7.30301C8.85861 7.73634 8.40049 7.78763 7.65071 8.84751C7.25256 9.41039 7.11809 9.78382 6.87523 10.4158C6.69108 11.436 6.68721 12.1216 6.69594 13.1916L6.69629 15.2011L6.69657 17.1394C6.6973 18.031 6.66751 18.7118 6.87732 19.5508C7.47982 21.5766 9.00025 22.9547 11.3312 23.2969C13.8775 23.3238 16.396 23.3167 18.9424 23.2647C19.5787 23.175 19.8688 22.993 20.4009 22.8326C21.1699 22.3167 21.5266 22.1767 22.1632 21.4289C22.8145 20.6638 22.8568 20.2432 23.2357 19.234C23.3221 18.0031 23.3258 16.9187 23.3286 15.6725L23.3288 12.5897C23.3409 10.534 22.8922 9.25291 21.8298 8.18689C20.7606 7.11406 19.4714 6.67608 17.4064 6.68795L12.0299 6.688C11.5062 6.69047 11.0103 6.73278 10.5218 6.86126C10.0444 6.98684 9.76798 7.16661 9.36472 7.30301Z" fill="white"/>
</svg>
