<?xml version="1.0" encoding="UTF-8"?>
<!DOCTYPE svg PUBLIC "-//W3C//DTD SVG 1.1//EN" "http://www.w3.org/Graphics/SVG/1.1/DTD/svg11.dtd">
<!-- Creator: CorelDRAW -->
<svg xmlns="http://www.w3.org/2000/svg" xml:space="preserve" width="510px" height="670px" version="1.1" style="shape-rendering:geometricPrecision; text-rendering:geometricPrecision; image-rendering:optimizeQuality; fill-rule:evenodd; clip-rule:evenodd"
viewBox="0 0 510 670"
 xmlns:xlink="http://www.w3.org/1999/xlink"
 xmlns:xodm="http://www.corel.com/coreldraw/odm/2003">
 <defs>
  <style type="text/css">
   <![CDATA[
    .fil1 {fill:#37787D;fill-rule:nonzero}
    .fil2 {fill:white;fill-rule:nonzero}
    .fil0 {fill:white;fill-rule:nonzero}
   ]]>
  </style>
 </defs>
 <g id="Слой_x0020_1">
  <metadata id="CorelCorpID_0Corel-Layer"/>
  <g id="_1986964406528">
   <path class="fil0" d="M118.66 310.05l-4.24 4.78 4.24 3.82 0 21.15 -5.69 6.44 -33.98 4.48 0 -46.7 -4.9 0.65 0 -9.92 38.88 -5.12 5.68 4.95 0.01 15.47zm-14.16 10.46l-11.36 2.81 0 15.62 11.36 -2.96 0 -15.47zm0 -18.51l-11.36 0.17 0 9.92 11.36 -1.49 0 -8.6zm212.64 -39.25l0 14.83 -9.93 1.31 0 -4.42 -5.68 0.27 0 36.76 5 -0.66 0 9.92 -24.07 3.17 0 -9.92 4.91 -0.64 0 -36.77 -5.69 1.23 0 4.42 -9.82 1.29 0 -14.83 45.28 -5.96zm49.04 -0.86l0 45.32 -5.68 6.45 -28.31 3.72 -5.68 -4.95 0 -45.31 5.68 -6.35 28.31 -3.73 5.68 4.85zm-14.15 7.52l-11.36 0.08 0 36.86 11.36 -2.96 0 -33.98zm75.46 25.51l0 9.92 -19.28 2.54 -14.93 -26.54 0 28.5 -12.7 1.67 -0.01 -46.79 -4.99 0.66 0 -9.82 18.47 -2.44 15.7 27.71 0 -29.77 12.71 -1.68 0 46.7 5.03 -0.66zm-249.94 32.91l0 9.91 -19.08 2.51 -5.7 -24.78 -5.66 0.75 0 25.53 -14.16 1.86 0 -46.69 -4.89 0.64 0 -9.92 38.88 -5.12 5.68 4.95 0 19.69 -5.7 6.45 5.22 14.93 5.41 -0.71zm-19.08 -32.94l-11.36 0.18 0 9.92 11.36 -1.5 0 -8.6zm47.42 -7.57l0 36.77 5 -0.65 0 9.91 -24.07 3.17 0 -9.92 4.91 -0.64 0 -36.78 -4.91 0.64 0 -9.91 24.07 -3.17 0 9.92 -5 0.66zm54.67 29.58l4.92 -0.65 0 9.92 -16.96 2.23 -6.72 -12.61 -7.43 14.47 -14.15 1.87 14.81 -28.9 -9.92 -18.54 -4.89 0.64 0 -9.82 16.93 -2.23 6.77 12.56 7.43 -14.43 14.13 -1.86 -14.84 28.9 9.92 18.45z"/>
   <path class="fil1" d="M413.82 153.31l0 -80.7 -40.73 0c0,0.02 0,0.07 0,0.11 0,9.45 -5.53,17.12 -12.36,17.12 -6.83,0 -12.37,-7.67 -12.37,-17.12 0,-0.04 0,-0.09 0,-0.11l0 -22.11c0,-11.74 -9.54,-21.28 -21.28,-21.28l-47.86 0 7.85 -19.18c0.25,-0.5 0.44,-1.04 0.57,-1.61 0.13,-0.58 0.19,-1.14 0.19,-1.64 0,-0.73 -0.12,-1.46 -0.36,-2.19 -0.66,-1.94 -2.3,-3.53 -4.22,-4.2 -1.05,-0.38 -2.18,-0.49 -3.36,-0.33l-51.13 6.73c-1.98,0.26 -3.57,1.06 -4.75,2.4 -1.23,1.38 -1.84,3.07 -1.84,5.06l0 14.96 -39.76 0c-11.74,0 -21.28,9.54 -21.28,21.29l0 22.1c0,0.02 0,0.07 0,0.11 0,9.45 -5.54,17.13 -12.37,17.13 -6.83,0 -12.36,-7.68 -12.36,-17.13 0,-0.04 0,-0.09 0,-0.11l-40.72 0 0 122.59 318.14 -41.89z"/>
   <path class="fil1" d="M348.37 648.72l0 -22.11c0,-0.02 0,-0.07 0,-0.08 0,-9.48 5.54,-17.15 12.37,-17.15 6.82,0 12.36,7.67 12.36,17.15 0,0.01 0,0.06 0,0.08l40.72 0 0 -192.84c0.39,-0.36 0.77,-0.73 1.15,-1.11 9.89,-9.9 15.53,-22.37 16.79,-34.88 1.08,-10.66 -1.03,-21.35 -6.4,-30.52l5.11 -2.73c5.71,-3.05 11.43,-6.1 17.16,-9.17 1.63,-0.72 2.86,-2.24 3.14,-4.14 0,-0.01 0.66,-4.2 -0.8,-8.89 -1.06,-3.41 -3.92,-9.63 -8.5,-9.49 -0.06,0 -11.46,0.37 -27.65,2.62l0 -7.39 -175.3 23.09 16.96 63.31c0.5,1.85 1.25,3.59 2.2,5.18 -0.28,0.06 -0.56,0.13 -0.84,0.2 -4.76,1.24 -9.29,3.74 -13.05,7.5l-4.47 4.47 -14.04 -52.41c-5.62,7.02 -13.24,12.29 -22.31,14.72 -12.32,3.3 -24.91,0.73 -35.31,-6.08 -8.67,-5.69 -15.79,-14.34 -19.82,-24.95l-52.16 6.87 0 59.29c-2.5,-1.66 -4.47,-2.41 -4.48,-2.41 -1.38,-0.51 -2.95,-0.46 -4.36,0.27 -4.4,2.31 -8.89,3.82 -14.9,9.42 -7.67,7.15 -12.03,14.19 -12.87,15.61 -1.3,2.02 -1.12,4.73 0.59,6.57l36.02 38.64 0 129.26 40.72 0c0,-0.03 0,-0.07 0,-0.09 0,-9.48 5.54,-17.15 12.37,-17.15 6.83,0 12.36,7.67 12.36,17.15 0,0.02 0,0.06 0,0.09l0 22.1c0,11.77 9.54,21.28 21.29,21.28l144.67 0c11.74,0 21.28,-9.51 21.28,-21.28zm-102.26 -26.03c5.71,7.79 12.4,16.64 16.72,22.93 0,0 0.58,0.98 -3.81,5.08 -3.55,3.3 -5.94,4.01 -5.94,4.01 0,0 -9.28,-9.43 -22.48,-22.96 4.09,-1.4 9.64,-4.84 15.51,-9.06zm26.15 -32.35c-0.41,-0.44 -37.17,33.05 -45.12,33.28 0,0 -8.68,-5.28 -14.44,-11.46 -5.77,-6.18 -10.42,-15.21 -10.42,-15.21 0.78,-7.91 36.75,-42.25 36.34,-42.69l22.4 -20.89c4.87,18.33 9.74,36.6 14.41,54.02l-3.17 2.95zm26.4 -92.08l16.48 -15.36c52.54,-49 62.27,-49.27 62.27,-49.27 0,0 8.61,5.29 14.41,11.49 5.78,6.21 10.45,15.18 10.45,15.18 0,0 -0.95,9.69 -53.48,58.68l-44.08 41.1 -2.82 -28.86 -3.23 -32.96zm-61.83 91.4c-2.61,-2.81 -7,-2.96 -9.8,-0.35 -2.8,2.62 -2.96,7.01 -0.34,9.81 2.61,2.8 7,2.95 9.8,0.34 2.8,-2.61 2.95,-7 0.34,-9.8zm-42.82 4.32c-17.31,-18.03 -38.06,-39.89 -61.29,-64.79 -13.57,-14.56 -55.55,-59.58 -69.12,-74.13 0,0 4.04,-7.15 12,-14.58 3.96,-3.69 3.47,-3.23 13.73,-8.59 0,0 3.77,1.42 7.08,4.97l86.67 92.94c3.29,3.53 4.45,7.4 4.45,7.4 -3.9,5.34 -3.5,6.67 -7.4,11.99 5.89,6.32 17.03,18.28 25.6,27.48 -5.57,6.57 -10.21,12.9 -11.72,17.31zm21.18 -239.75l-46.47 6.12c2.52,4.56 5.96,8.28 9.94,10.88 5.7,3.74 12.51,5.17 19.08,3.41 9.2,-2.46 15.62,-10.53 17.45,-20.41zm142.87 63.37c4.81,4.81 11.42,6.98 18.23,6.59 7.2,-0.41 14.64,-3.64 20.6,-9.61 11.56,-11.56 12.91,-28.94 3.02,-38.84 -4.81,-4.81 -11.43,-6.97 -18.24,-6.59 -7.2,0.41 -14.63,3.65 -20.6,9.61 -11.55,11.56 -12.9,28.95 -3.01,38.84zm-92.15 36.8c3.74,-1 5.95,-4.84 4.95,-8.58 -1,-3.73 -4.84,-5.95 -8.57,-4.95 -3.74,1 -5.96,4.84 -4.96,8.58 1.01,3.73 4.84,5.95 8.58,4.95zm-116.56 135.88c0,0 -2.84,-1.03 -5.76,-3.76 -3.16,-2.95 -4.11,-6.11 -4.11,-6.11 1.12,-1.57 6.74,-9.43 14.68,-20.53 1.87,1.99 3.73,3.96 5.57,5.9 2.46,2.6 4.77,5.04 6.94,7.32 -5.77,5.74 -11.54,11.46 -17.32,17.18zm32.73 -69.44c22.53,-31.49 46.02,-64.31 48.46,-67.7l19.53 -19.53c5.26,-5.27 12.75,-6.95 19.44,-5.06 6.76,1.52 13.71,-0.41 18.63,-5.33l57.35 -57.36c0.43,-0.46 0.87,-0.91 1.32,-1.36 6.09,-6.09 13.26,-10.41 20.79,-12.91 0.94,-0.45 2.23,-0.95 4.01,-1.5 34.45,-10.73 70.02,-11.88 70.02,-11.88 0,0 2.11,2.22 3.2,5.73 1.09,3.48 0.61,6.5 0.61,6.5 -9.3,4.99 -18.59,9.93 -27.87,14.89l0 0c14.09,18.03 11.68,45.42 -6.41,63.52 -4.97,4.96 -10.65,8.74 -16.66,11.33 -6.22,-6.18 -14.27,-11.12 -14.29,-11.14 -1,-0.61 -2.12,-0.85 -3.2,-0.77l-0.01 -0.01c0,0 -0.06,0 -0.21,0.03 -0.63,0.07 -1.24,0.25 -1.8,0.54 -2.67,1.01 -8.3,3.81 -18.78,11.61 -4.53,-2.04 -8.74,-4.9 -12.42,-8.58 -6.64,-6.64 -10.61,-15.01 -11.96,-23.9l-39.68 39.68 -13.44 13.44c-29.9,29.9 -59.75,59.88 -89.69,89.76l-2.05 -2.2c1.74,-2.9 2.82,-5.43 4.9,-8.28 0.78,-1.08 1.1,-2.34 1.01,-3.57 -0.06,-0.75 -0.24,-1.3 -0.5,-1.99 -0.63,-1.65 -2.26,-5.34 -5.36,-8.67l-4.94 -5.29zm110.07 107.7c-12.08,-44.22 -23.79,-88.59 -35.62,-132.9l32.34 -32.19 1.54 5.73c0.8,7.97 14.47,147.8 15.23,155.75 0,0 -2.4,2.26 -6.62,3.24 -3.88,0.9 -6.87,0.37 -6.87,0.37z"/>
   <path class="fil2" d="M480.82 180.69l0 35.41 -5.68 6.45 -33.91 4.46 0 -46.71 -5 0.66 0 -9.92 19.16 -2.52 0 9.92 19.73 -2.6 5.7 4.85zm-415.74 44.93l0 30.41 -5.68 6.35 -19.83 2.61 0 4.99 5.01 -0.66 0 9.92 -19.16 2.52 0 -14.9 -19.84 2.61c-0.83,-0.81 -1.76,-1.62 -2.75,-2.46l-1.27 -1.06c-0.58,-0.48 -1.09,-0.93 -1.56,-1.35l0 -30.41 5.58 -6.43 53.82 -7.09 5.68 4.95zm-39.66 10.78l-11.27 0.17 0 21.85 11.27 -2.84 0 -19.18zm25.51 -3.36l-11.36 0.18 0 21.86 11.36 -2.86 0 -19.18zm69.84 -14.84l0 30.42 -5.69 6.43 -19.82 2.61 0 4.99 5 -0.66 0 9.92 -19.15 2.52 -0.01 -46.79 -4.89 0.64 0 -9.82 38.88 -5.12 5.68 4.86zm-14.15 7.51l-11.36 0.08 0 21.95 11.36 -2.86 0 -19.17zm71.62 26.02l0 9.91 -19.12 2.52 -2.51 -12.27 -12.16 2.63 -2.31 11.88 -12.69 1.67 11.66 -48.24 -2.5 0.33 0 -9.91 23.36 -3.08 11.67 45.16 4.6 -0.6zm-23.55 -9.52l-4.05 -19.39 -3.94 20.35 7.99 -0.96zm80.56 2.01l0 9.92 -19.16 2.52 0 -26.94 -11.26 2.89 0 25.53 -14.15 1.87 0 -46.8 -5.01 0.66 0 -9.82 19.16 -2.52 0 19.74 11.26 -1.49 0 -19.73 14.16 -1.87 0 46.7 5 -0.66zm82.28 -10.83l0 9.91 -64.39 8.48 -5.58 -4.96 0 -41 -5.01 0.66 0 -9.92 19.16 -2.52 0 46.68 11.27 -2.94 -0.01 -45.22 14.16 -1.87 0 46.68 11.36 -2.95 0 -45.22 14.15 -1.87 0 46.7 4.89 -0.64zm57.01 -7.51l0 9.92 -19.15 2.52 0 -28.31 -11.24 29.79 -14.18 1.87 0 -46.7 -5.01 0.66 0 -9.92 19.16 -2.52 0 28.31 11.25 -29.79 14.17 -1.87 0 46.7 5 -0.66zm45.07 -52.63l5.6 4.96 0 15.47 -4.24 4.78 4.24 3.72 0 21.25 -5.6 6.43 -28.29 3.73 -5.68 -4.95 0 -8.46 14.15 -4.73 0 7.11 11.27 -2.95 0 -15.56 -11.27 2.89 2.78 -11.6 8.49 -1.11 0 -8.62 -11.27 0.17 0 4.23 -14.15 4.64 0 -11.23 5.68 -6.44 28.29 -3.73zm47.05 13.64l-11.27 2.8 0 25.54 11.27 -2.95 0 -25.39zm43.34 21.15l0 9.92 -19.16 2.52 0 -46.71 -5.01 0.66 0 -9.92 19.16 -2.53 0 46.72 5.01 -0.66z"/>
   <g>
    <path class="fil0" d="M139.66 163.75l0 2.76 -6.06 0.79 0 -18.78 -7.18 0.37 0 19.35 -4.18 0.55 0 -19.35 -1.91 0.25 0 -2.77 17.41 -2.28 0 19.36 1.92 -0.25zm69.2 -71.98l2.96 2.57 0 4.41 -5.52 2.22 0 -4.46 -9.59 0.55 0 22.11 9.59 -1.98 0 -4.41 5.52 0.72 0 4.42 -2.96 3.35 -14.76 1.92 -2.96 -2.57 0 -23.57 2.96 -3.35 14.76 -1.93zm33.7 -4.42l0 6.68 -3.66 0.48 0 -2.16 -9.99 0.5 0 7.36 8.88 -1.16 -1.5 4.64 -7.38 1.7 0 9.58 9.99 -2.13 0 -2.48 3.66 -0.48 0 6.98 -19.17 2.5 0 -25.8 -2.55 0.33 0 -3.69 21.72 -2.85zm41.13 20.45l0 3.68 -8.08 1.06 0 -19.53 -7.91 20.56 -4.07 0.53 -7.93 -17.88 0 18.92 -4.07 0.53 0 -25.81 -2.6 0.34 0 -3.69 8.14 -1.07 9.38 21.1 9.06 -23.51 5.52 -0.72 0 25.82 2.56 -0.33zm29.71 -21.57l0 18.45 -2.96 3.29 -17.66 2.31 0 -25.8 -2.61 0.34 0 -3.69 8.13 -1.06 0 5.16 12.13 -1.58 2.97 2.58zm-5.52 1.46l-9.58 2.01 0 16.19 9.58 -1.98 0 -16.22zm-145.95 56l0 11.9 -2.23 2.51 -9.13 1.19 0 3.03 1.95 -0.25 0 2.76 -6.09 0.79 0 -19.35 -1.92 0.25 0 -2.77 15.2 -1.99 2.22 1.93zm-4.14 1.63l-7.22 0.41 0 10.77 7.22 -1.48 0 -9.7zm27.2 -6.87l0 5.01 -2.75 0.36 0 -1.62 -7.49 0.38 0 5.52 6.66 -0.87 -1.12 3.47 -5.54 1.28 0 7.19 7.49 -1.6 0 -1.86 2.75 -0.36 0 5.23 -14.37 1.88 0 -19.35 -1.92 0.25 0 -2.78 16.29 -2.13zm24.19 16.21l0 2.76 -6.1 0.8 0 -14.37 -7.17 15.3 -4.15 0.55 0 -19.36 -1.92 0.25 0 -2.77 6.06 -0.79 0 14.4 7.18 -15.34 4.14 -0.54 0 19.36 1.96 -0.25zm30.88 -4.04l0 2.76 -6.05 0.79 0 -14.64 -5.94 15.42 -3.05 0.4 -5.95 -13.41 0 14.18 -3.05 0.4 0 -19.35 -1.95 0.25 0 -2.77 6.1 -0.8 7.04 15.82 6.79 -17.63 4.15 -0.54 0 19.37 1.91 -0.25zm22.29 -22.28l0 19.9 -2.22 2.51 -11.07 1.45 -2.22 -1.93 0 -3.35 4.18 -1.63 0 3.86 7.19 -1.49 0 -4.41 -9.15 1.19 -2.22 -1.93 0 -9.41 -1.92 0.25 0 -2.73 6.1 -0.8 0 11.06 7.19 -1.51 0 -10.49 4.14 -0.54zm36.08 14.6l0 5.55 -4.14 0.55 0 -2.75 -21.03 2.75 -2.19 -1.94 0 -17.16 -1.96 0.25 0 -2.74 6.1 -0.79 0 19.33 6.51 -1.41 0 -18.78 4.14 -0.54 0 19.33 6.51 -1.4 0 -18.78 4.14 -0.54 0 19.32 1.92 -0.25zm21.14 -22.09l0 5.01 -2.74 0.36 0 -1.62 -7.49 0.38 0 5.52 6.65 -0.87 -1.12 3.47 -5.53 1.28 0 7.19 7.49 -1.6 0 -1.86 2.74 -0.36 0 5.23 -14.37 1.88 0 -19.35 -1.92 0.25 0 -2.78 16.29 -2.13zm20.05 -2.61l2.22 1.93 0 3.3 -4.14 1.67 0 -3.35 -7.18 0.41 0 16.59 7.18 -1.49 0.01 -3.31 4.13 0.55 0 3.31 -2.22 2.51 -11.06 1.45 -2.22 -1.93 0 -17.68 2.22 -2.51 11.06 -1.45zm25.29 -3.31l0 4.7 -2.76 0.36 0 -1.76 -3.34 0.23 0 16.61 1.95 -0.26 0 2.79 -8.01 1.04 0 -2.78 1.92 -0.25 0 -16.61 -3.31 0.64 0 1.76 -2.76 0.36 0 -4.7 16.31 -2.13zm22.26 5.36l-1.66 1.87 1.66 1.45 0 8.31 -2.22 2.51 -13.28 1.74 0 -19.39 -1.92 0.25 0 -2.73 15.2 -1.99 2.22 1.89 0 6.09zm-4.14 4.16l-7.19 0.94 0 7.44 7.19 -1.49 0 -6.89zm0 -8.58l-7.19 0.37 0 5.53 7.19 -0.94 0 -4.96z"/>
    <path class="fil0" d="M280.57 5.23c0.69,-0.09 1.27,0.12 1.72,0.61 0.21,0.24 0.31,0.56 0.31,0.95 0,0.34 -0.07,0.66 -0.21,0.95l-25.34 61.92c-0.2,0.3 -0.44,0.59 -0.73,0.87 -0.33,0.33 -0.71,0.52 -1.08,0.57l-20.82 2.74c-0.7,0.09 -1.26,-0.12 -1.72,-0.6 -0.2,-0.26 -0.31,-0.57 -0.31,-0.96 0,-0.26 0.08,-0.56 0.2,-0.84l17.65 -47.45 -8.61 2.23 0 3.07c0,1.35 -0.67,2.11 -2.02,2.29l-10.17 1.34c-1.37,0.18 -2.04,-0.41 -2.04,-1.76l0 -16.9c0,-1.35 0.67,-2.11 2.04,-2.29l51.13 -6.74z"/>
   </g>
  </g>
 </g>
</svg>
