<svg width="266" height="243" viewBox="0 0 266 243" fill="none" xmlns="http://www.w3.org/2000/svg">
<path fill-rule="evenodd" clip-rule="evenodd" d="M113.533 0.225119L89.8191 5.83607L87.5015 10.5187V111.511L90.248 116.982L87.5015 121.792V135.866L91.801 144.272L114.317 149.6L117.894 144.462V48.668L113.449 50.2636L117.894 42.7539V3.61761L113.533 0.22467V0.225119ZM102.025 66.161C103.625 66.122 105.103 67.0126 106.172 68.4714C107.25 69.9405 107.924 71.9724 107.924 74.2474C107.924 76.5224 107.25 78.5996 106.172 80.0682C105.103 81.527 103.626 82.4064 102.025 82.367C100.424 82.327 99.0015 81.3934 97.9763 79.9247C96.9578 78.4659 96.3315 76.4434 96.3315 74.2474C96.3315 72.0514 96.9583 70.0724 97.9763 68.6131C99.0019 67.1449 100.424 66.2 102.025 66.161ZM102.025 112.691C103.625 112.878 105.103 113.979 106.172 115.59C107.25 117.21 107.924 119.355 107.924 121.636C107.924 123.916 107.25 125.87 106.172 127.186C105.103 128.493 103.626 129.152 102.025 128.886C100.424 128.62 99.0015 127.495 97.9763 125.882C96.9578 124.279 96.3315 122.194 96.3315 119.993C96.3315 117.792 96.9583 115.886 97.9763 114.57C99.0019 113.247 100.424 112.504 102.025 112.691ZM102.025 19.6092C103.625 19.3437 105.103 20.0361 106.172 21.3433C107.25 22.6591 107.924 24.6188 107.924 26.8933C107.924 29.1683 107.25 31.3293 106.172 32.9509C105.103 34.5613 103.626 35.651 102.025 35.8371C100.424 36.0237 99.0015 35.2913 97.9763 33.9675C96.9578 32.6536 96.3315 30.7307 96.3315 28.5346C96.3315 26.3386 96.9583 24.2488 97.9763 22.6456C99.0019 21.0321 100.424 19.8747 102.025 19.6092Z" fill="#942815"/>
<path fill-rule="evenodd" clip-rule="evenodd" d="M167.981 12.9045L144.234 6.05761L140.254 7.02894L136.936 3.95305L123.225 0L120.748 3.001V42.3844L130.425 42.8625L120.748 47.4761V74.7277L123.383 82.0858L120.748 90.4542V145.177L124.707 149.212L147.807 142.552L148.75 138.384L153.091 141.028L164.009 137.88L172.463 126.473V78.7776L159.953 66.2462L172.463 53.7144V17.0714L167.981 12.9045Z" fill="#D94220"/>
<path d="M33.5402 186.899L30.3514 190.081L33.5402 193.384V209.33L29.2644 213.625H3.68351V178.418H0V170.941H29.2649L33.5407 175.236V186.899H33.5402ZM22.8872 193.384L14.3365 194.376V206.148L22.8872 205.047V193.384ZM22.8872 179.422L14.3365 178.43V185.906H22.8872V179.422ZM182.937 170.941V182.12H175.461V178.793L171.185 178.43V206.147H174.954V213.624H156.837V206.147H160.533V178.43L156.245 178.793V182.12H148.854V170.941H182.937H182.937ZM219.849 175.163V209.33L215.573 213.624H194.268L189.992 209.33V175.163L194.268 170.941H215.573L219.849 175.163ZM209.196 179.422L200.645 178.357V206.147L209.196 205.047V179.422V179.422ZM266 206.147V213.624H251.482L240.25 192.137V213.624H230.684V178.345H226.928V170.94H240.83L252.642 193.383V170.94H262.208V206.147H266H266ZM77.8673 206.147V213.624H63.507L59.2192 194.375H54.9559V213.624H44.3033V178.417H40.6194V170.94H69.8842L74.16 175.235V190.081L69.8726 194.375L73.7974 206.147H77.8677H77.8673ZM63.507 179.422L54.9559 178.429V185.906H63.507V179.422ZM99.1983 178.417V206.147H102.966V213.624H84.8497V206.147H88.5458V178.417H84.8497V170.94H102.966V178.417H99.1983ZM140.349 206.147H144.057V213.624H131.29L126.23 203.449L120.638 213.624H109.985L121.133 193.31L113.669 178.345H109.985V170.94H122.727L127.824 181.079L133.416 170.94H144.057L132.885 191.254L140.349 206.147V206.147Z" fill="#FFF"/>
<path d="M49.525 233.163L48.4622 234.227L49.525 235.3V240.643L48.0996 242.07H39.5739V229.606H38.3459V227.848H48.1L49.5254 229.251V233.163L49.525 233.163ZM46.868 235.491H42.2546V240.272L46.868 239.922V235.491ZM46.868 229.977L42.2546 229.611V233.168H46.868V229.977ZM69.1978 240.276V242.071H65.8367L64.999 238.515H61.376L60.5025 242.071H58.5457L61.7059 229.607H60.8683V227.844H65.115L68.2268 240.276H69.1969H69.1978ZM64.5603 236.386L63.2038 230.986L61.8031 236.386H64.5599H64.5603ZM89.4182 240.256V242.071H85.4974L84.0931 235.49H80.8841V242.071H78.2271V229.61H76.9996V227.852H86.7536L88.1786 229.259V234.231L86.7496 235.658L87.824 240.255H89.4182V240.256ZM85.4974 229.977L80.8841 229.611V233.168H85.4974V229.977ZM108.383 233.163L107.32 234.227L108.383 235.3V240.643L106.958 242.07H98.4322V229.606H97.2043V227.848H106.958L108.383 229.251V233.163L108.383 233.163ZM105.726 235.491H101.113V240.272L105.726 239.922V235.491ZM105.726 229.977L101.113 229.611V233.168H105.726V229.977ZM127.863 227.844V231.063H126.099V230.022L121.293 229.635V233.184H125.564L124.844 235.325L121.293 235.68V240.301L126.099 239.902V238.708H127.863V242.071H118.636V229.626H117.408V227.844H127.863ZM148.076 240.256V242.071H144.155L142.75 235.49H139.541V242.071H136.884V229.61H135.656V227.852H145.41L146.835 229.259V234.231L145.407 235.658L146.481 240.255H148.076V240.256ZM144.155 229.977L139.541 229.611V233.168H144.155V229.977ZM164.383 232.123V229.974L159.746 229.631V232.973L165.719 233.623L167.04 235.349V240.644L165.615 242.071H158.514L157.089 240.644V238.515L159.746 237.818V240.298L164.384 239.946V236.342L158.422 235.514C157.959 234.93 157.512 234.361 157.089 233.801V229.276L158.514 227.849H165.615L167.04 229.276V231.402L164.383 232.123ZM188.476 240.297V242.071H184.588V235.325L179.975 235.68V242.071H177.293V229.627H176.061V227.845H179.975V232.829H184.588V227.845H187.244V240.298H188.476V240.297ZM207.449 229.276V240.643L206.024 242.071H198.923L197.498 240.643V229.276L198.923 227.849H206.024L207.449 229.276ZM204.792 229.974L200.179 229.631V240.297L204.792 239.946V229.974ZM227.653 229.276V236.921L226.224 238.349H220.359V240.297H221.615V242.071H217.702V229.631H216.474V227.849H226.228L227.653 229.276ZM224.996 229.974L220.359 229.631V236.554L224.996 236.212V229.974Z" fill="#D94220"/>
<path d="M32.755 95.5118V98.7303H30.9912V97.6894L26.1853 97.3024V100.851H30.4562L29.7359 102.993L26.1853 103.347V107.968L30.9912 107.569V106.375H32.755V109.738H23.5279V97.2939H22.3008V95.5118H32.755ZM44.392 99.7904V97.6406L39.7545 97.2979V100.641L45.7283 101.29L47.049 103.016V108.311L45.624 109.738H38.5229L37.098 108.311V106.182L39.7549 105.484V107.964L44.3925 107.614V104.008L38.4303 103.182C37.9674 102.597 37.5206 102.028 37.098 101.468V96.9432L38.5229 95.5158H45.624L47.049 96.9432V99.0684L44.392 99.7904ZM61.8542 95.5118V98.5361H60.0828V97.4033L57.937 97.2701V107.948H59.1932V109.738H54.048V107.948H55.2796V97.2701L53.158 97.4033V98.5361H51.3861V95.5118H61.8529H61.8542ZM76.1446 96.9432V108.31L74.7192 109.738H66.1931V97.2975H64.9661V95.5154H74.7197L76.1451 96.9428L76.1446 96.9432ZM73.4876 97.6406L68.8743 97.2979V107.964L73.4876 107.613V97.6406Z" fill="#D94220"/>
<path d="M193.775 96.9459V101.569L192.345 102.996L186.478 103.351V107.969L191.117 107.498V106.376H193.775V109.74H185.246L183.821 108.312V102.286L185.246 100.859H191.118V97.6437L186.479 97.3011V99.072L183.821 99.7936V96.9459L185.246 95.5181H192.349L193.775 96.9459ZM209.305 96.9419V108.312L207.88 109.74H200.777L199.351 108.312V96.9419L200.777 95.514H207.88L209.305 96.9419ZM202.009 104.316L206.478 97.6397L202.009 97.2971V104.316V104.316ZM206.648 107.615V100.935L202.009 107.873V107.966L206.648 107.615V107.615ZM224.836 96.9459V101.569L223.406 102.996L217.54 103.351V107.969L222.179 107.498V106.376H224.836V109.74H216.307L214.882 108.312V102.286L216.307 100.859H222.179V97.6437L217.54 97.3011V99.072L214.882 99.7936V96.9459L216.307 95.5181H223.411L224.836 96.9459ZM240.367 96.9459V101.569L238.937 102.996L233.07 103.351V107.969L237.709 107.498V106.376H240.367V109.74H231.838L230.413 108.312V102.286L231.838 100.859H237.709V97.6437L233.071 97.3011V99.072L230.413 99.7936V96.9459L231.838 95.5181H238.941L240.367 96.9459Z" fill="#942815"/>
</svg>
