<?xml version="1.0" encoding="UTF-8"?>
<!DOCTYPE svg PUBLIC "-//W3C//DTD SVG 1.1//EN" "http://www.w3.org/Graphics/SVG/1.1/DTD/svg11.dtd">
<!-- Creator: CorelDRAW -->
<svg xmlns="http://www.w3.org/2000/svg" xml:space="preserve" width="407px" height="230px" version="1.1" style="shape-rendering:geometricPrecision; text-rendering:geometricPrecision; image-rendering:optimizeQuality; fill-rule:evenodd; clip-rule:evenodd"
viewBox="0 0 407 230"
 xmlns:xlink="http://www.w3.org/1999/xlink"
 xmlns:xodm="http://www.corel.com/coreldraw/odm/2003">
 <defs>
  <style type="text/css">
   <![CDATA[
    .fil0 {fill:#D94220}
    .fil1 {fill:white;fill-rule:nonzero}
   ]]>
  </style>
 </defs>
 <g id="Слой_x0020_1">
  <metadata id="CorelCorpID_0Corel-Layer"/>
  <g id="_2138529729632">
   <path class="fil0" d="M8.05 181.97l77.21 10.17 20.36 -3.45 24.29 9.32 4.01 0.53c-0.36,-0.6 -0.11,-1.4 0.37,-2.04l0.96 0c0.23,0.57 0.42,1.7 0.05,2.22l46.35 6.11c0.07,-0.03 0.14,-0.05 0.23,-0.07l0.07 0.1 6.87 0.91c0.68,-0.23 1.28,-0.09 1.75,-0.35 0.39,-0.22 0.38,-0.91 1.5,-0.58 0.03,0.08 0.07,0.15 0.08,0.22 0.02,0.07 0.06,0.14 0.08,0.23l0.05 0.93 80.54 10.61 0 -0.06c0.59,-0.12 0.24,-0.09 0.79,-0.09 0.06,0 0.18,0.14 0.23,0.06 0.05,-0.07 0.14,0.06 0.22,0.09 0.02,0.08 0.06,0.08 0.08,0.17l4.55 0.6c0.03,-0.09 0.07,-0.18 0.13,-0.26 0.31,-0.49 0.21,-0.25 0.75,-0.48 0.58,0.48 0.15,-0.45 0.63,0.67 0.03,0.07 0.05,0.17 0.07,0.28l5.54 0.73 8.66 -6.32 1.6 7.67 4.74 0.62 -0.01 -0.23c-0.53,-0.16 -0.64,-0.06 -0.88,-0.44 -0.39,-0.61 -0.06,-0.24 -0.05,-0.85 0,-0.14 0.05,-0.16 0.08,-0.24 0.24,-0.07 -0.47,-0.39 0.71,-0.08 0.6,0.15 0.42,0.09 0.73,1.07 1.04,0.03 0.97,-0.16 1.68,0.44 -0.05,0.19 -0.14,0.39 -0.26,0.59l70.08 9.23 12.91 -5.21 0.05 -0.34c-0.32,-0.65 -0.26,-0.72 -0.09,-1.65 0.12,-0.03 0.22,-0.06 0.32,-0.08l9.25 -70.25 -1.78 -25.68c-0.18,-0.27 -0.18,-0.65 -0.08,-1.06l-0.29 -4.17 9.16 -22.32 4.16 -31.63 -11.54 -20.89 -56.97 -7.49c0.09,0.24 0.14,0.57 0.1,0.99l-1.27 -0.01c-0.07,-0.5 0,-0.87 0.13,-1.12l-1.15 -0.15 0.11 0.03c0,0.01 0.34,0.23 0,1.2l-1.2 0 0 -1.2c0.12,-0.07 0.23,-0.11 0.33,-0.13l-70.47 -9.28 -3.3 3.68c0.59,1.99 -0.42,1.99 -1.32,2.07 -0.05,-0.11 -0.1,-0.26 -0.16,-0.42l-1.99 2.21 0.79 -8.33 -96.47 -12.69 0.01 0.13c-0.75,0.06 -1.1,-0.08 -1.24,-0.3l-74.66 -9.82c-0.05,0.27 -0.13,0.43 -1.09,0.35 -1.6,-0.14 -0.71,0.05 -0.88,-0.61l-44.27 -5.83 -19.54 10.25 -7.06 53.66 4.62 7.73 -6.04 3.07 -4.73 35.93 0 0c0.34,0.94 0.34,0.74 0,1.68 -0.08,-0.01 -0.15,-0.02 -0.22,-0.02l-7.52 57.09 8.55 12.58zm111.86 -157.88c1.84,1.22 3.23,0.05 2.4,-2.13 -0.99,-0.4 -1.34,-0.35 -2.37,0 -0.3,1.1 -0.35,1.16 -0.03,2.13zm-26.15 -5.96c0.05,0.98 0.5,1.35 1.46,1.29 1.51,-0.09 1.12,-0.66 1.02,-1.07 -0.12,-0.52 -0.09,-0.13 -0.41,-0.56 -0.03,-0.04 -0.08,-0.09 -0.11,-0.13 -0.03,-0.04 -0.06,-0.1 -0.08,-0.14 -0.56,-0.81 0.27,-0.43 -0.66,-0.74 -0.83,-0.27 -0.95,0.13 -0.96,0.14 -0.04,0.1 -0.13,0.02 -0.23,0.7 -0.01,0.1 -0.03,0.41 -0.03,0.51zm7.12 -9.24l-0.06 1.7c2.2,0.23 2.88,-0.03 2.62,-1.68 -1.23,-0.41 -1.36,-0.31 -2.56,-0.02zm-12.98 9.46l-0.01 0.89c3.77,1.27 3.25,-2.71 0.19,-1.32 -0.03,0.07 -0.09,0.14 -0.1,0.2 -0.02,0.07 -0.07,0.16 -0.08,0.23zm-34.87 2.06c0.88,-1.03 0.41,-1.44 0.33,-2.31 -0.01,-0.13 -0.06,-0.15 -0.09,-0.22 -0.2,-0.06 -0.31,-0.31 -1.2,0 -0.03,0.08 -0.13,0.11 -0.23,0.69 -0.13,0.82 0.03,1.36 0.24,1.89l0.95 -0.05zm58.67 -1.98c0.45,0.46 -0.12,0.37 0.57,0.69 1,0.47 0.9,-0.08 0.9,-0.08 0.11,-0.37 0.37,0.58 0.08,-0.67 -0.11,-0.46 -0.48,-0.59 -0.69,-0.8 -0.31,-0.32 -0.67,-1.24 -1.4,-0.53 -0.87,0.85 0.39,1.24 0.54,1.39zm-67.7 -6.22l2.38 0.1 0.07 -1.26c-0.93,-0.38 -1.27,-0.33 -2.35,-0.17l-0.1 1.33zm67.76 0.87c0.52,-0.24 0.81,0.71 0.79,-0.96 -0.03,-1.68 -0.2,-0.68 -0.79,-0.95 -0.52,0.24 -0.8,-0.71 -0.78,0.95 0.02,1.69 0.19,0.69 0.78,0.96zm-6.89 17.98l2.57 0 -0.24 -0.96c-0.1,-0.04 0.06,-0.13 -0.69,-0.24 -0.1,-0.01 -0.41,-0.03 -0.51,-0.02 -0.88,0.05 -0.84,0.27 -1.01,0.3l-0.12 0.92zm-63.89 -2.81c1.4,0.42 1.98,0.04 1.41,-1.41 -0.95,-0.25 -0.47,-0.31 -1.48,0.06l0.07 1.35zm120.41 -1.01c1.74,0.44 1.13,-0.68 1.19,-1.21 -2.09,-0.77 -1.78,0.36 -1.9,0.71 0.45,0.39 -0.07,0.3 0.71,0.5zm-114.48 -2.41c0.26,0.99 1.87,0.68 1.6,-0.46 -0.25,-1.07 -1.95,-0.84 -1.6,0.46zm33.42 -8.39c-0.04,-1.35 0.09,-0.04 -0.45,-0.68 -0.67,0.14 -1.11,-0.14 -0.95,0.93 0.16,1.11 0.09,0.51 0.95,0.69 0.5,-0.6 0.51,0.81 0.45,-0.94zm36.64 7.75c1.31,0.33 1.59,-0.05 1.31,-1.36l-1.34 0.04 0.03 1.32zm-33.74 4.95c0.17,-0.45 0.3,-0.45 0,-1.2 -0.49,-0.16 -0.55,-0.22 -1.17,0.03 -0.03,0.07 -0.08,0.15 -0.09,0.21l0.01 1.03c0.61,0.14 0.27,0.09 0.8,0.08l0.45 -0.15zm61.84 -12.01c-0.33,-0.35 -0.34,-0.18 -0.94,0.03 -0.42,0.95 -0.39,1.15 1.19,1.19 -0.02,-0.65 0.16,-0.77 -0.25,-1.22zm38.65 13.93l1.64 0c-0.11,-1.43 -1.38,-2.05 -1.64,0zm-49.55 -9c0.23,-0.24 0.43,-1.55 -1.07,-1.07 -0.23,0.5 -0.21,0.62 0.03,1.19 0.22,0.06 0.78,0.17 1.04,-0.12zm56.77 -1.02c-0.32,1.76 1.53,1.82 1.28,-0.09l-1.28 0.09zm-42.69 6.43c-0.02,-0.6 -0.68,-0.6 -1.3,-0.47l0.08 1.21 1.15 -0.05c0.12,-0.58 0.08,-0.21 0.07,-0.69zm-68.03 -1.35c0.28,-1.7 -1.36,-1.78 -1.14,0.03l1.14 -0.03zm57.01 -0.03c0.21,-1.75 -1.43,-1.68 -1.13,0.09l1.13 -0.09zm-65.12 -16.98l1.14 0.05c0.24,-1.77 -1.37,-1.77 -1.14,-0.05zm-24.12 21.95l1.44 0c-0.16,-0.98 0.13,-0.59 -0.72,-0.96 -0.83,0.37 -0.58,-0.02 -0.72,0.96zm156.07 -6.39l0 0.64c-1.02,0.14 -0.74,-0.4 -1.14,0.66 -0.11,0.29 -0.06,1.13 -0.06,1.46l1.2 0.03 0 -1.2c0.33,0 0.91,0.04 1.21,0.01l0.94 -0.25c0.03,-0.07 0.07,-0.15 0.09,-0.22l0.15 -1.73c-0.24,-1.61 -1.05,-1.14 -1.17,-1.02l-0.45 0.55c-0.2,0.42 0.15,0.96 -0.77,1.07zm20.61 6.39l1.68 0 -0.25 -1.2c-0.63,-0.18 -1.37,-0.57 -1.43,1.2zm14.86 -0.87c0.44,0.07 0.25,-0.01 0.65,-0.14 0.17,-1.91 -1.74,-1.46 -1.21,-0.12 0.22,0.15 0.12,0.19 0.56,0.26zm-33.43 -2.12c0.22,-0.23 0.46,-1.58 -1.08,-1.08l0.03 1.17 1.05 -0.09zm-50.35 90.13c-0.07,-0.04 -0.16,-0.19 -0.19,-0.13 -0.04,0.06 -1.62,-1.04 -2.22,-1.08 -1.56,2.61 2.01,3.56 2.14,1.13l1.75 0.18c0.43,-1.01 0.32,-0.63 0.32,-1.91 0,-1.48 -0.05,-1.78 -1.49,-1.67 -0.48,0.92 -0.35,2.22 -0.31,3.48zm-130.53 -28.41c-0.37,0.9 -0.24,0.87 -0.24,2.39 0.56,0 1.14,0.02 1.7,0.02l1.42 -0.18c0.61,-0.15 0.55,-1.46 0.23,-2.23 -0.96,-0.36 -2.16,-0.36 -3.11,0zm171.69 28.24c1.27,0.42 2.19,0.21 3.33,-0.27 0.6,-0.25 0.29,-0.07 0.7,-0.41 -1.54,-1.93 -0.86,-1.53 -2.87,-1.7 -1.18,2.17 -1.05,0.47 -1.16,2.38zm-40.97 47.83c-0.96,2.11 0.28,2.9 2.3,2.06 0.71,-2.96 -1.29,-2.63 -2.3,-2.06zm48.12 -110.35l0 -1.92 -2.91 0.25c-0.31,1.06 -0.31,1.33 -0.01,2.38 1.36,-0.01 0.76,-0.11 1.48,-0.85l1.44 0.14zm-52.74 112.66c1.69,-0.16 1.2,-0.48 0.97,-1.81 -0.12,-0.72 0.03,-0.81 0,-1.33 -0.13,-2.02 0.29,-0.71 -0.73,-1.18 -0.8,0.37 -0.66,-0.35 -0.62,1.92 0.01,0.5 -0.12,0.93 -0.1,1.21 0.11,2.17 -0.15,0.43 0.48,1.19zm41.98 -125.08c0.12,-1.18 0.5,-2.23 -0.75,-2.39 -1.49,-0.2 -1.87,0.01 -1.75,1.39 0.27,0.2 0.46,0.24 0.67,0.43 0.29,0.26 0.66,1.29 1.83,0.57zm-151.15 122.99l2.1 0.06c0.41,-1.18 0.34,-1.58 -0.2,-2.39l-1.7 -0.02c-0.43,0.71 -0.51,1.44 -0.2,2.35zm129.71 26.68c-0.15,1.26 -0.17,1.05 0.7,1.68 2.35,1.72 2.26,-1.4 1.51,-1.85 -0.73,-0.45 -1.63,-0.01 -2.21,0.17zm-127.53 -125.56c-0.05,0.11 -0.51,-0.32 -0.05,0.63 0,0 0.62,0.59 0.65,0.62 -0.69,1.32 -0.73,-0.07 -0.74,1.44 0.76,0.49 1.19,0.43 2.1,0.22 0.35,-1.41 0.21,-1.56 -0.55,-2.29l-0.47 -0.52c-0.35,-0.29 0.12,-0.17 -0.42,-0.25 -1.07,-0.17 -0.08,-0.09 -0.52,0.15zm-23.85 80.54l-3.43 0c-0.14,1.7 0.15,1.52 1.69,1.55 1.45,0.03 2.09,0.15 1.74,-1.55zm89.36 -91.68l2.16 1.03c0.58,0 0.76,-0.06 1.09,-0.24 -0.04,-0.8 -0.1,-0.42 -0.52,-0.99 -1.36,-1.89 -2.84,-1.72 -2.73,0.2zm-7.76 44.11c1.28,0.1 0.95,-0.07 1.61,-0.71 0.81,-0.79 0.84,-0.02 0.64,-1.54 -2.14,-0.85 -3.05,0.14 -2.25,2.25zm-13.18 15.87c2.22,1.04 3.26,-0.01 2.12,-2.14 -0.89,0.15 -0.82,0.24 -1.43,0.64 -0.95,0.62 -0.75,0.11 -0.69,1.5zm97.82 46.37c-0.53,0.58 -1.01,0.7 -0.56,1.59 1.25,0.06 0.48,0.08 1.05,-0.45 0.53,-0.48 0.61,-0.39 1.1,-0.76 0.14,-1.58 0.42,-2.26 -1.29,-2.05l-0.3 1.67zm-42.64 33.6c2.05,0.15 0.23,-0.36 2.24,-1l0.03 -1.24c-2.29,-0.52 -3.08,0.13 -2.27,2.24zm-121.9 -31.11c-0.31,0.61 -0.47,1.44 0.03,1.99 0.4,0.42 -0.24,0.26 0.81,0.33 0.05,0 0.44,-0.03 0.51,-0.05 1.26,-0.21 0.78,-1.02 0.75,-1.09 -0.06,-0.17 -0.77,-1.22 -1.22,-1.34 -1.18,-0.31 -0.68,0.06 -0.88,0.16zm81.83 -12.07c0,1.37 -0.04,0.88 1.02,1.16l0.27 -1.64c0.75,-0.05 0.6,-0.01 1.1,-0.48l-0.01 -1.08 -1.09 -0.23c-0.43,0.43 -1.29,1.63 -1.29,2.27zm68.88 -11.51c0.24,0.53 -0.25,0.75 1.68,0.75 1.9,0 1.44,-0.24 1.68,-0.75 -0.25,-0.47 0.22,-0.75 -1.68,-0.75 -1.21,0 -1.5,-0.22 -1.68,0.75zm-111.94 30.89l2.14 -0.17c0.08,-0.26 0.5,-0.51 0,-1.94 -0.07,-0.02 -0.19,-0.12 -0.23,-0.04l-0.41 0.03c-1.78,0.48 -1.51,0.8 -1.5,2.12zm16.04 -42.2c0,0.9 0.43,1.46 1.29,1.73 0.86,0.27 -0.94,0.12 0.63,0.02 0.79,-0.05 1.28,-3.25 -1.92,-1.75zm24.7 -51.77c0.4,-0.3 0.9,-0.36 0.72,-1.65 -0.12,-0.84 -0.21,-0.87 -0.92,-0.92 -0.41,-0.04 -0.79,0.03 -1.2,0.07 0.02,0.87 0.02,1.49 1.17,2.38 0.06,0.04 0.15,0.08 0.23,0.12zm59.4 -6.71c0.47,-1.84 0.02,-2.14 -2.07,-1.6 -0.42,1.91 0.56,2.1 2.07,1.6zm17.27 -16.71c-1.02,-0.27 -1.27,-0.36 -2.3,-0.01 0,0.01 -0.49,-0.19 -0.23,0.96 0.15,0.69 0.25,0.48 0.6,0.62 0.64,0.25 1.32,-0.01 1.72,-0.16l0.21 -1.41zm-76.19 63.32l1.13 0.13c0.38,-1.15 0.36,-1.43 0.05,-2.56l-1.38 -0.01c-0.27,1.02 -0.46,1.51 0.2,2.44zm29.85 -14.32c0.65,0.23 2.41,1.13 2.35,-0.36 -0.02,-0.64 -0.9,-1.44 -2.33,-1.33l-0.02 1.69zm-93.92 0.4l1.3 0.03c0.38,-1.7 0.52,-2.76 -1.3,-2.53 -0.4,1.07 -0.4,1.43 0,2.5zm-11.06 -55.18l-0.15 1.19c1.05,0.31 1.35,0.39 2.36,-0.01 1.01,-1.64 -1.02,-2.02 -2.21,-1.18zm122.12 143.82c0.13,0.03 -0.33,0.89 1.29,-0.38 0,0 0.87,-0.46 1.04,-0.58l-0.15 -1.13c-0.18,-0.01 -0.28,-0.16 -0.32,-0.09 -0.16,0.26 -0.15,-0.93 -1.39,0.54 -1.23,1.47 -0.47,1.63 -0.47,1.64zm39.79 -110.55c1.37,-0.06 1.44,0.32 1.44,-1.63 0,-1.35 0.05,-0.22 -0.24,-0.96l-1.2 0c-0.34,0.94 -0.35,1.61 0,2.59zm-48.18 18.5l0.01 0.96c0,0 0.02,1.26 2.55,0.19 -0.24,-2.35 -2.48,-1.2 -2.56,-1.15zm-132.33 65.37l0.95 0.04c0.36,-1.05 0.35,-1.58 0,-2.6l-1.19 0c-0.16,0.42 -0.26,0.4 -0.28,1.18 0,0.08 0.06,0.66 0.09,0.74 0.18,0.52 0.15,0.31 0.43,0.64zm99.51 -85.25c0.24,0.14 0.47,0.33 0.93,0.41 1.08,0.21 1.43,-0.18 1.44,-0.18 0.03,-0.09 0.09,-0.29 0.1,-0.26 0,0.04 0.74,-1.27 -1.05,-1.3 -1.18,-0.03 -1.42,0.34 -1.42,1.33zm10.16 47.31l0.03 1.66c1.22,0.11 0.21,0.08 1.33,-0.52l0.95 -0.43c0.05,-2.04 -1.42,-1.39 -2.31,-0.71zm77.79 74.7c1.5,0.57 2.64,0.58 2.32,-1.41 -1.27,-0.45 -2.54,-0.19 -2.32,1.41zm-98.83 -87.7l1.29 0.01 -0.13 -2.28 -1.91 -0.06c-0.1,0.78 0.07,0.68 0.29,1.17 0.2,0.47 0.3,0.88 0.46,1.16zm17.81 60.6l0 1.2c0.97,0.35 1.56,0.36 2.56,-0.03 0.03,-0.51 0.07,-0.34 -0.01,-0.69 -0.01,-0.07 -0.04,-0.2 -0.06,-0.26 -0.01,-0.06 -0.07,-0.14 -0.1,-0.22 -0.07,-0.03 -0.17,-0.16 -0.22,-0.09l-0.99 -0.18c-0.55,0.02 -0.88,0.07 -1.18,0.27zm60.01 -57.7c1.33,0.3 1.07,0.51 2.37,0.23l0.08 -1.57 -2.37 -0.09 -0.08 1.43zm-60.68 9.06c0.43,-0.92 0.44,-1.42 -0.01,-2.43l-1.07 -0.07c-0.61,1.29 -0.87,2.68 1.08,2.5zm-3.65 -86.31c-1.71,-0.65 -2.09,-0.21 -2.58,0.48 0,0 -0.15,1.37 1.85,0.92 0.71,-0.17 0.25,-0.08 0.71,-0.44l0.02 -0.96zm-30.51 48.99l-1.7 0.04c-0.18,1.15 0.89,2.18 1.12,2.25 1.43,0.42 0.86,-1.59 0.58,-2.29zm8.33 -20.8l0.02 -1.2c-3.61,-1.17 -3.15,2.65 -0.02,1.2zm67.73 67.69c-0.03,0.07 -0.1,0.08 -0.11,0.22l-0.13 0.98c0.35,0.12 0.52,0.3 1.19,0.28 2.03,-0.08 0.66,-0.07 1.21,-0.52 -0.09,-1.39 0.33,-0.85 -0.67,-1.19 -0.66,-0.22 -1.49,0.23 -1.49,0.23zm-138.03 7c-0.34,1.84 1.04,1.8 2.36,1.19l0.04 -1.05c-0.62,-0.28 -1.72,-0.48 -2.4,-0.14zm160.17 -55.59l0.08 -1.36c-3.32,-0.89 -3.49,2.21 -0.08,1.36zm-35.05 -13c0.29,-0.81 0.31,-1.59 -0.06,-2.36 -1.04,-0.13 -1.37,0 -1.4,1.16 -0.04,1.2 0.34,1.34 1.46,1.2zm-112.95 -6.02c2.13,0.38 1.27,-2.1 0.86,-2.32 -1.24,-0.67 -1.56,1.29 -0.86,2.32zm90.8 90.86c-0.01,0.23 -0.52,1.3 1.25,1.22 0.21,0 0.33,-0.04 0.51,-0.08 0.09,-0.02 0.16,-0.07 0.23,-0.09 0.07,-0.02 0.15,-0.06 0.23,-0.09 0.24,-0.65 0.19,-0.66 0,-1.2 -1.08,-0.43 -1.47,-0.32 -2.22,0.24zm10.93 -84.07l-0.05 1.1c0.35,0.12 0.6,0.28 1.16,0.28 0.17,0 0.34,-0.01 0.49,-0.04 0.93,-0.2 0.36,-0.15 0.63,-0.31l0.2 -0.97c-0.68,-0.33 -1.74,-0.52 -2.43,-0.06zm-23.63 -37.91c-1.54,-0.59 -1.81,-0.32 -2.46,0.21l0.04 0.83c0.43,0.19 0.85,0.42 1.55,0.29 0.98,-0.17 0.76,-0.39 0.87,-1.33zm53.81 97.08c0.26,-0.64 0.54,-2.29 -0.52,-2.33 -1.02,-0.03 0.66,-0.05 -0.61,0.04 -0.47,1.43 -0.66,2.47 1.13,2.29zm-66.69 -88.38c-0.64,-0.1 -1.11,0.15 -1.47,0.33 0.04,0.82 -0.19,1.03 0.69,1.23 0.64,0.15 1.31,-0.11 1.68,-0.25 -0.1,-0.88 0.19,-1.14 -0.9,-1.31zm-8.38 87.36c0.95,-0.06 1.02,0.27 1.35,-0.66 0.2,-0.56 -0.1,-1.31 -0.21,-1.65 -0.83,0.07 -1.04,-0.09 -1.3,0.62 -0.22,0.59 0.05,1.31 0.16,1.69zm47.68 1.13c0.2,-0.22 0.51,0.09 0.55,-1.11 0.05,-1.89 -0.21,-0.92 -0.78,-1.19 -0.58,0.27 -0.87,-0.69 -0.77,1.22 0.06,1.23 0.83,1.03 1,1.08zm-102.73 34.7c-0.18,1.77 1.5,1.35 2.35,0.96 0.01,-2.26 -2.31,-0.98 -2.35,-0.96zm126.84 -86.8l1.36 0.06 0.08 -2.33 -1.38 -0.04 -0.06 2.31zm-125.75 61.31c0.34,0.65 -0.28,0.79 1.18,0.78 1.38,-0.01 0.9,-0.26 1.22,-0.78 -0.41,-0.69 0.41,-0.72 -1.44,-0.72 -0.8,0 -0.84,0.05 -0.96,0.72zm64.73 -46.02c0.41,0.89 -0.78,0.61 0.94,0.79 1.79,0.18 1.04,-0.41 1.21,-0.79 -0.4,-0.87 0.78,-0.64 -0.95,-0.79 -1,-0.09 -1.08,0.1 -1.2,0.79zm-16.73 22.48c1.45,0.25 0.52,0.11 1.49,-0.56 0.89,-0.62 0.96,-0.01 0.59,-1.51 -1.46,-0.18 -0.68,-0.14 -1.53,0.83 -0.03,0.03 -0.09,0.08 -0.12,0.11 -0.64,0.71 -0.48,0.21 -0.43,1.13zm-27.86 44.15c0.86,-2.53 -0.29,-2.05 -0.48,-2.15 -0.33,0.15 -1.01,-0.53 -0.8,1.21 0.17,1.5 0.05,0.78 1.28,0.94zm123.65 -2.1c0.36,0.21 0.64,0.24 1.27,0.2l0.11 -2.06c-1.51,-1.02 -1.55,0.17 -1.38,1.86zm-59.14 -86.11l0.04 1.38c0.4,0.02 1.48,0.18 1.85,-0.18l0.19 -0.48c0.12,-0.86 -0.03,0.74 0.05,-0.71 -0.67,-0.18 -1.55,-0.37 -2.13,-0.01zm-3.81 86.77c0.16,0.13 0.02,0.93 2.35,0.27 0.04,-1.9 -1.83,-1.2 -1.89,-1.17 -0.68,0.34 -0.37,0.11 -0.46,0.9zm33.51 -97.32l0.72 0c0.33,-0.89 0.36,-0.9 -0.02,-1.86 -0.35,-0.14 0.59,-0.51 -0.74,-0.19 -0.31,0.08 -0.51,0.26 -0.61,0.56 -0.48,1.38 0.65,1.49 0.65,1.49zm-6.51 63.78l2.26 0.1 0.06 -1.38 -2.3 0.02 -0.02 1.26zm31.2 -77.92c0.95,-0.12 1.45,0.25 1.29,-1.22 -0.17,-1.53 -0.03,-0.78 -1.29,-0.93 -0.35,0.94 -0.35,1.21 0,2.15zm-49.99 105.86c1.67,0.63 1.3,-0.88 1,-1.99 -0.13,0.01 -1.62,-0.48 -1.31,1.34 0.17,0.97 0.14,0.38 0.31,0.65zm34.41 -4.23c0.52,-0.23 0.8,0.71 0.78,-0.95 -0.02,-1.69 -0.19,-0.69 -0.78,-0.96 -0.52,0.24 -0.81,-0.71 -0.78,0.96 0.02,1.68 0.19,0.68 0.78,0.95zm-4.45 -39.06c-0.26,-1.14 -0.22,-0.28 -0.83,-0.96 -0.75,-0.82 0.2,-0.84 -1.05,-0.81 -0.35,1.96 0.21,2.84 1.88,1.77zm13.92 26.02c-0.04,-0.73 -0.27,-0.63 -0.67,-1.02 -0.65,-0.65 -0.16,-0.76 -1.24,-0.67 -0.19,1.79 0.22,2.61 1.91,1.69zm-128.38 4.9c0.61,-0.32 0.78,0.24 0.78,-0.95 0,-1.7 -0.17,-0.69 -0.78,-0.97 -0.52,0.24 -0.81,-0.71 -0.78,0.96 0.04,1.65 0.28,0.71 0.78,0.96zm153.19 53.93c-0.34,0.93 -0.33,0.46 0.01,1.44 0.8,0.35 0.73,0.24 1.45,0.05l0.07 -1.54c-1,-0.22 -0.78,-0.25 -1.53,0.05zm-27.97 -41.71l0.07 1.05c1.19,0.26 1.57,-0.31 1.27,-1.51 -0.27,-1.11 -1.45,-0.82 -1.34,0.46zm-31.65 -67.77c-1.12,1.13 1.31,1.38 1.84,0.86 0.94,-0.93 -1.08,-1.62 -1.84,-0.86zm62.05 34.97c0.11,-1.11 0.09,-1.75 -0.75,-2.1 -0.84,0.7 -1.47,2.62 0.75,2.1zm-55.27 10.88c-0.12,0.76 -0.02,3.05 1.02,2.01 0.36,-0.36 0.87,-2.37 -1.02,-2.01zm-133.19 6.09l1.68 0.23 0 -1.42c-0.79,-0.29 -1.59,-0.57 -1.81,0.45 -0.25,1.16 0.09,0.58 0.13,0.74zm169.06 -55.12c0,0.56 0.09,0.8 0.24,1.13l0.87 0.05c0.43,-0.96 0.35,-1.36 -0.07,-2.24 -0.76,0.01 -1.04,0.21 -1.04,1.06zm-92.8 57.67c-0.12,0.38 -0.37,-0.4 -0.24,0.8 0.15,1.4 0.08,0.44 0.45,0.89l0.72 0.04c0.21,-0.25 0.48,0.22 0.48,-0.91 0,-1.48 0.05,-0.12 -0.26,-0.72l-1.15 -0.1zm8 -52.78c-0.23,0.39 -0.24,-0.58 -0.27,0.64 -0.03,0.85 0.11,0.58 0.16,0.7 0.45,0.18 -0.66,0.31 0.71,0.19 0.97,-0.1 0.46,-0.13 0.69,-0.25 0.4,-1.23 -0.05,-1.74 -1.29,-1.28zm41.85 102.98c0,1.05 0.22,1.31 1.28,1.06 0.15,-1.55 0.36,-2.05 -1.03,-2 -0.14,0.31 -0.25,0.44 -0.25,0.94zm50.33 -82.46l0 -1.65c-0.94,0 -1.44,-0.41 -1.61,0.7 -0.16,1.06 0.64,0.92 1.61,0.95zm-114.29 36.52l-0.17 1.21 1.79 0.18c-0.05,-0.89 0.13,-1.68 -0.92,-1.67 -1.25,0.01 -0.38,0.11 -0.7,0.28zm45.03 -53.05c-0.03,0.08 -0.64,-0.08 0.03,1.4 1.21,0.42 1.77,-0.05 1.25,-1.26 -0.37,-0.24 0.55,-0.21 -0.6,-0.28 -1.15,-0.06 -0.4,0.05 -0.68,0.14zm-66.79 86.15c0.32,-1.48 0.45,-1.97 -0.91,-2.09 -0.4,0.96 -0.68,2.31 0.91,2.09zm81.86 -87.87l-0.03 0.8c0.87,0.39 1.35,0.41 2.17,-0.05l0 -0.7c-0.79,-0.41 -1.81,-0.37 -2.14,-0.05zm-34.03 29.75c-0.28,0.72 -0.18,0.74 0,1.2 0.17,0.07 -0.17,0.65 1.44,0 0.29,-0.76 0.18,-0.68 -0.03,-1.19 -0.15,-0.06 0.38,-0.23 -0.69,-0.19 -0.92,0.04 -0.54,0.12 -0.72,0.18zm107.95 26.34l1.09 0.12c0.15,-0.41 0.37,0.45 0.26,-0.79 -0.14,-1.43 -0.08,-0.43 -0.46,-0.9 -0.63,0.01 -0.73,-0.24 -1.08,0.4 -0.2,0.37 -0.09,0.1 -0.09,0.47 -0.01,1.34 0.05,0.27 0.28,0.7zm-126.15 -112.87l1.65 0.08 0.01 -1.52 -1.68 0 0.02 1.44zm56.18 28.67l2.19 0.11 0 -1.08c-1.33,-0.27 -2.32,-0.47 -2.19,0.97zm36.93 68.06c0.27,0.15 -0.48,0.28 0.61,0.24 0.55,-0.02 1.12,-0.13 0.83,-1.09 -0.13,-0.42 -0.28,-0.59 -0.83,-0.58 -1.08,0.01 -0.89,0.82 -0.61,1.43zm-99.67 -47.9c0.1,-0.22 0.31,0.44 0.2,-0.64 -0.21,-1.94 -2.76,-0.12 -1.3,0.75 0.66,0.39 0.82,0.01 1.1,-0.11zm7.74 39.62c-0.19,0.5 -0.27,-0.69 -0.19,0.72 0.05,0.83 0.15,0.58 0.21,0.72l1.28 0.14 0.09 -1.65c-1.14,-0.17 -0.4,-0.25 -1.39,0.07zm-58.97 18.21c0.54,-0.8 0.39,-1.42 0,-2.12 -0.76,0.06 -0.95,0.09 -1.01,0.93 -0.08,1.09 0.11,1.18 1.01,1.19zm-1.14 -37.91c0.04,0.02 -0.06,0.6 1.38,0.04 0.03,-0.08 0.09,-0.27 0.09,-0.23 0,0.03 0.07,-0.18 0.07,-0.24 -0.04,-0.74 -0.11,-0.57 -0.16,-0.72 -0.55,-0.2 -1.38,-0.61 -1.56,0.44 -0.23,1.26 0.05,0.4 0.18,0.71zm8.03 16.74l-0.07 1.36 1.6 0.08 0.09 -1.43c-0.53,-0.14 -1.17,-0.3 -1.62,-0.01zm79.89 -91.72l-2.14 0 0.31 1.29c1.44,0.15 1.67,0.12 1.83,-1.29zm-82.71 1.68c-0.12,0.34 -0.41,0.27 0,1.43 0.08,0.03 0.19,0.01 0.24,0.09 0.14,0.22 0.9,-0.07 0.96,-0.09 0,0 0.52,0.02 0,-1.43 -0.59,-0.15 -0.15,-0.44 -1.2,0zm26.89 26.17c-0.38,0.94 -0.25,0.23 -0.11,1.27l1.57 0.06c0.19,-1.35 0.04,-2 -1.46,-1.33zm-6.93 95.89c-0.1,0.22 -0.33,-0.44 -0.19,0.65 0.21,1.68 2.4,0.55 1.44,-0.57 -0.32,-0.2 0.51,-0.26 -0.6,-0.26 -1.32,-0.01 -0.13,-0.05 -0.65,0.18zm136.11 -12.28c0.39,0.32 -0.67,0.57 0.96,0.52 1.82,-0.06 0.33,0 0.95,-0.52 -0.24,-0.52 0.71,-0.8 -0.95,-0.78 -1.74,0.02 -0.63,0.33 -0.96,0.78zm6.98 -7.19c0.53,0.93 2.29,1.61 2.03,-0.41 -0.91,-0.41 -1.45,-0.24 -2.03,0.41zm-154.18 -71.95l1.43 -0.22c0.52,-1.59 0.04,-1.39 -1.43,-1.42l0 1.64zm92.28 -12.68c-0.19,-0.95 0.07,-0.35 -0.7,-0.7 -0.29,0.13 -1.06,-0.56 -0.76,0.98 0.25,1.27 0.09,0.55 1.24,0.69 0.12,-0.31 0.33,-0.41 0.22,-0.97zm-38.24 95.31c0.26,0.14 -0.47,0.3 0.62,0.23 0.91,-0.05 0.41,-0.11 0.63,-0.22 0.91,-2.02 -2.16,-2.01 -1.25,-0.01zm54.93 44.84c-0.48,1.12 0.05,1.64 1.18,1.18 0.2,-0.33 0.27,0.52 0.27,-0.62 -0.01,-0.53 0.06,-0.96 -0.85,-0.83 -1.01,0.13 -0.26,0.05 -0.6,0.27zm-63.9 -49.18c-0.39,0.87 -0.32,0.53 -0.09,1.43 0.94,0.31 0.45,0.31 1.39,0l0.05 -1.37 -1.35 -0.06zm114.96 39.07c-0.23,0.37 -0.27,-0.56 -0.27,0.62 -0.01,1.4 -0.07,0.07 0.19,0.67 2.08,0.83 1.99,-2.03 0.08,-1.29zm-100.97 -123.64c0.17,0.08 -0.4,0.34 0.66,0.23 0.67,-0.07 0.33,0.03 0.58,-0.24 0.7,-0.78 -0.44,-1.88 -1.2,-1.19 -0.6,0.54 -0.19,0.85 -0.04,1.2zm-49.95 1.77l-0.17 0.46c-0.07,0.48 -0.07,0.42 -0.07,0.97l1.68 0 -0.24 -1.43c-0.69,-0.27 -0.72,-0.18 -1.2,0zm-4.94 -4.12c-0.21,0.51 -0.28,-0.48 -0.25,0.77 0.02,0.97 0.11,0.46 0.2,0.67 0.99,0.37 0.18,0.31 1.16,0.04 0.2,-0.51 0.31,0.7 0.19,-0.72 -0.11,-1.34 0.03,-0.15 -0.24,-0.71l-1.06 -0.05zm117.92 41.92c-0.32,0.71 -0.28,-0.67 -0.26,0.79 0.02,1.14 0.07,0.4 0.2,0.71 0.99,0.31 0.19,0.31 1.16,-0.01 0.14,-0.33 0.33,0.55 0.2,-0.69 -0.12,-1.09 -0.07,-0.32 -0.26,-0.66l-1.04 -0.14zm32.77 -0.89c0.55,0.73 -0.08,0.58 1.26,0.48 0.73,-1.36 0.32,-1.65 -1.19,-1.57l-0.07 1.09zm-77.8 11.13c-1.09,2.3 2.45,1.35 1.21,0 -0.17,-0.19 0.25,-0.21 -0.57,-0.23 -1.15,-0.04 -0.35,0.08 -0.64,0.23zm-88.61 19.26l-0.05 -1.45 -1.25 -0.09c-0.61,1.47 -0.13,1.78 1.3,1.54zm59.74 -55.8c0.34,-0.94 0.34,-0.74 0,-1.68 -1.23,0.18 -1.01,-0.56 -1.25,0.71 -0.21,1.15 0.51,0.85 1.25,0.97zm56.97 -9.94c0.03,-0.07 0.07,-0.15 0.09,-0.2 0.24,-0.94 0.46,-1.86 -1.19,-1.36 -0.64,1.25 -0.07,1.39 1.1,1.56zm5.62 111.57c0.95,0.34 0.74,0.33 1.65,0 -0.19,-1.65 0.51,-1.19 -1.64,-1.19l-0.01 1.19zm-117.62 -25.99c1.61,0.78 1.54,-0.78 1.16,-1.17 -0.31,-0.32 -0.82,-0.35 -1.16,-0.04 -0.19,0.18 -0.2,-0.21 -0.23,0.58 -0.05,1.13 0.08,0.36 0.23,0.63zm115.74 -32.97l-0.06 1.19 1.2 -0.03c0.46,-0.64 0.27,0.58 0.37,-0.69 0.07,-1.07 -0.53,-1.21 -1.51,-0.47zm27.14 -29.14c-0.14,0.25 -0.32,-0.46 -0.23,0.61 0.17,1.86 2.57,0.21 1.27,-0.7 -0.96,-0.25 -0.23,-0.26 -1.04,0.09zm2.27 -32.22c0.14,-0.53 -0.11,-0.66 -0.22,-0.96l-0.72 0c-0.27,0.31 -0.65,-0.61 -0.49,0.98 0.11,1.23 -0.09,0.32 0.73,0.69 0.79,-0.37 0.46,0.2 0.7,-0.71zm20.44 100.34l1.45 0.22c0.46,-1.41 0.11,-1.9 -1.26,-1.5l-0.19 1.28zm-161.86 -72.54c0.23,0.48 -0.22,1.03 0.97,0.76 1.32,-0.29 0.51,0.19 0.7,-1.24 -1.57,-0.59 -1.18,-0.17 -1.67,0.48zm138.93 80.6c2.27,0.6 2.26,-1.92 0.05,-1.33l-0.05 1.33zm4.29 -69.27c-0.27,0.46 -0.3,-0.63 -0.27,0.66 0.02,1.23 0.02,0.27 0.21,0.69 0.01,0 1.24,0.57 1.27,-0.49 0.01,-0.31 0.32,-0.01 -0.07,-0.67 -0.38,-0.63 -0.83,-0.27 -1.14,-0.19zm-131.23 76.4c0.2,0.99 -0.51,0.78 0.7,0.96 1.17,0.18 0.81,-0.21 0.96,-0.96 -0.43,-0.36 0.15,-0.44 -0.7,-0.47 -1.82,-0.05 -0.35,-0.04 -0.96,0.47zm-4.66 -28.4c-0.21,0.33 -0.29,-0.51 -0.28,0.61 0.03,1.33 1.22,0.76 1.31,0.7 0.64,-1.12 0.09,-1.76 -1.03,-1.31zm39.68 -18.7c1.03,0.3 0.54,0.33 1.49,-0.02l0.01 -1.26 -1.36 -0.15 -0.14 1.43zm-41.98 29.12c0.38,-0.46 0.26,0.1 0.44,-0.7 0.06,-0.28 0.02,-0.63 0.02,-0.91 -0.82,0.03 -1.2,-0.34 -1.4,0.65 -0.25,1.28 0.11,0.81 0.94,0.96zm9.23 -71.31c-0.13,0.25 -0.31,-0.45 -0.22,0.6 0.09,1.03 0.03,0.23 0.25,0.58 1.87,0.89 1.88,-2.1 -0.03,-1.18zm0.77 5.2l1.55 0.09 0.02 -1.36 -1.54 -0.07 -0.03 1.34zm10.2 -6.22c-0.03,0.07 -0.09,0.08 -0.1,0.2 -0.01,0.13 -0.07,0.16 -0.07,0.22 -0.05,0.55 -0.07,0.16 0.02,0.83 2.13,0.64 1.88,-1.6 0.59,-1.41l-0.44 0.16zm23.99 89.9c-0.13,0.26 -0.36,0.78 -0.1,1.13 1.18,0.74 1.85,-0.05 1.2,-1.2 -1.01,-0.28 -0.22,-0.3 -1.1,0.07zm63.93 14.07c-0.28,0.72 -0.18,0.74 0,1.2 0.72,0.28 0.55,0.24 1.2,0l0.17 -0.46c0.07,-0.51 0.05,-0.41 0.05,-0.98l-1.42 0.24zm17.5 -149.81l-1.89 0 0.3 1.28 1.25 0.06 0.34 -1.34zm-52.3 95.1l0.15 -1.41 -1.37 -0.06c-0.39,1.32 -0.08,1.7 1.22,1.47zm-77.83 43.63c-1.08,-0.23 -2.18,0.32 -1.38,1.14 0.83,0.86 1.52,0.1 1.38,-1.14zm66.46 -62.98c-0.02,0.63 -0.1,0.31 0.01,0.67 0.38,1.39 1.96,1.01 1.4,-0.73l-1.41 0.06zm37.3 -57.77c0.05,-0.16 0.12,0.02 0.16,-0.72l-0.16 -0.48c-0.48,-0.18 -0.51,-0.27 -1.2,0 -0.32,0.99 -0.24,0.26 -0.09,1.31 0.59,0.09 0.3,0.08 0.83,0.05l0.46 -0.16zm28.81 14.76l-0.15 1.36c1.35,0.38 1.8,-0.02 1.39,-1.33l-1.24 -0.03zm9.01 -19.52c1.37,0.17 1.6,-0.27 1.2,-1.5l-1.37 0.14 0.17 1.36zm-149.77 13.63l-0.21 1.39c0.11,0 0.51,0.04 0.66,0.01 0.09,-0.01 0.19,-0.02 0.28,-0.04l0.46 -0.17c0.31,-0.99 0.3,-0.19 -0.01,-1.17 -0.67,-0.28 -0.71,-0.19 -1.18,-0.02zm28.94 13.13c-0.79,0.84 0.42,1.67 1.07,1.05 0.73,-0.69 -0.21,-1.98 -1.07,-1.05zm112.9 59.91c-0.84,0.87 0.42,1.7 1.08,1.06 0.69,-0.67 -0.23,-1.94 -1.08,-1.06zm-117.87 -53.75c1.2,0.13 1.38,-0.17 1.23,-1.35l-1.31 -0.08c-0.26,0.55 -0.25,0.87 0.08,1.43zm82.89 -12.15c-0.77,0.83 0.43,1.66 1.07,1.05 0.74,-0.7 -0.2,-2 -1.07,-1.05zm70.81 76.8c-0.45,1.24 0.01,1.46 1.19,1.26 0.02,-0.55 0.23,-0.12 0.14,-1.45l-1.33 0.19zm-114.87 27.04c-0.23,0.62 -0.19,0.68 0,1.2 0.08,0.02 0.17,0 0.22,0.08 0.06,0.09 0.17,0.06 0.24,0.06 0.58,0.03 0.22,0.04 0.87,-0.05 0.03,-0.24 0.08,-0.38 0.06,-0.58 -0.08,-0.59 -0.12,-0.54 -0.19,-0.71 -0.08,-0.03 -0.19,-0.18 -0.24,-0.1l-0.96 0.1zm20.13 -95.89c-0.88,0.85 0.37,1.76 1.06,1.06 0.66,-0.67 -0.21,-1.89 -1.06,-1.06zm-39.11 -9.78l1.29 0.04c0.45,-2.15 -1.74,-2.15 -1.29,-0.04zm129.96 94.88c1.81,0.24 1.58,-1.03 0.9,-1.38 -1.21,-0.62 -1.11,0.84 -0.9,1.38zm-90.89 8.83c-0.8,0.85 0.42,1.67 1.07,1.05 0.72,-0.68 -0.2,-1.97 -1.07,-1.05zm11 -131.87c-0.81,0.84 0.41,1.7 1.07,1.06 0.7,-0.68 -0.22,-1.94 -1.07,-1.06zm48.01 67.89c-0.95,0.88 0.36,1.78 1.05,1.06 0.6,-0.63 -0.21,-1.85 -1.05,-1.06zm-41.96 -6c-0.94,0.88 0.36,1.8 1.05,1.06 0.61,-0.64 -0.21,-1.84 -1.05,-1.06zm70.7 92.07l-0.05 0.72c0.36,0.25 -0.3,0.22 0.61,0.34 1.34,0.16 0.14,0.05 0.66,-0.11 0.09,-0.13 0.62,-0.44 0.11,-1.05 -0.59,-0.71 -0.93,-0.23 -1.33,0.1zm3.16 -86.05l-0.13 1.3c1.06,0.14 0.34,0.24 1.31,-0.11 0.27,-0.7 0.2,-0.66 0.02,-1.19 -0.08,-0.03 -0.19,-0.18 -0.24,-0.1 -0.05,0.08 -0.18,-0.06 -0.24,-0.06 -0.74,0.04 -0.57,0.1 -0.72,0.16zm-107.88 77.9l-0.2 1.36 1.18 -0.07c0.07,-0.01 0.14,-0.06 0.22,-0.09l0.16 -1.4 -1.36 0.2zm14.86 -52.97c-0.26,0.69 -0.18,0.72 0,1.2l0.48 0.15c0.73,-0.03 0.57,-0.1 0.72,-0.15 0.03,-0.08 0.1,-0.28 0.1,-0.24 0,0 0.2,-0.14 -0.1,-0.96 -0.69,-0.27 -0.72,-0.18 -1.2,0zm-46.98 55.85c-0.25,0.68 -0.18,0.72 0,1.2 0.08,0.03 0.18,0.01 0.24,0.1 0.14,0.24 0.89,-0.08 0.95,-0.1 0.04,-0.08 0.1,-0.28 0.1,-0.24 0,0 0.21,-0.14 -0.1,-0.96 -0.61,-0.23 -0.68,-0.18 -1.19,0zm118.92 -140.66c-0.49,1.48 0.96,1.53 1.33,0.81 0.36,-0.68 -0.26,-1.56 -1.33,-0.81zm-55.87 28.96l1.32 0.14c0.04,-0.32 0.08,-0.36 0.05,-0.61l-0.09 -0.51c-0.02,-0.06 -0.07,-0.14 -0.09,-0.22 -0.99,-0.34 -0.25,-0.23 -1.29,-0.07l0.1 1.27zm-58.11 59.02c1.27,0.32 1.66,-0.08 1.36,-1.31l-1.31 -0.02 -0.05 1.33zm77.05 8.81c-0.2,0.66 -0.37,1.15 0.43,1.33 1.1,0.25 0.67,-0.1 0.75,-0.13l0.16 -0.48c-0.03,-0.71 -0.09,-0.56 -0.15,-0.72 -0.08,-0.03 -0.19,-0.18 -0.24,-0.09l-0.95 0.09zm-37.81 25.23c0.42,-1.16 0.2,-1.66 -1.3,-1.29 -0.09,1.19 0.09,1.4 1.3,1.29zm-5.99 17.97c0.42,-1.15 0.2,-1.65 -1.3,-1.28 -0.1,1.19 0.09,1.4 1.3,1.28zm-20.2 -37.21l-0.03 1.17 1.26 0.14c0.52,-1.52 -0.56,-1.93 -1.23,-1.31zm-14.93 -87.67c1.02,0.14 2.02,-0.33 1.19,-1.2 -0.68,-0.73 -1.49,-0.12 -1.19,1.2zm126.76 72.88l1.38 0.08c0.24,-1.31 -0.1,-1.59 -1.32,-1.39l-0.06 1.31zm16.36 -60.98l0.08 -1.15c-1.1,-0.31 -0.37,-0.33 -1.4,0.02 -0.2,1.25 0.09,1.48 1.32,1.13zm-118.26 -21.94l1.4 0.08c0.21,-1.31 -0.11,-1.57 -1.32,-1.4l-0.08 1.32zm101.05 135.59l-0.15 0.48c0.03,0.69 0.09,0.54 0.15,0.72 0.72,0.28 0.55,0.24 1.2,0 0.34,-0.99 -0.01,-1.13 -0.03,-1.18l-0.93 -0.1c-0.07,0.01 -0.16,0.06 -0.24,0.08zm17.02 -19.9c-0.28,0.72 -0.18,0.74 0,1.2l0.48 0.16c0.67,-0.03 0.57,-0.1 0.72,-0.16l0.12 -1.33 -1.32 0.13zm-146.88 2.95l-0.18 0.44c-0.01,0.62 0.05,0.51 0.11,0.69 0.72,0.28 0.55,0.24 1.2,0l0.15 -0.48c-0.05,-0.7 -0.11,-0.56 -0.18,-0.72 -1,-0.29 -0.21,-0.3 -1.1,0.07zm-30.12 -88.7c1.94,0.47 2.22,-1.55 0.05,-1.29l-0.05 1.29zm96.02 87.72c-0.03,0.07 -0.1,0.09 -0.1,0.22l0.05 0.93c0.72,0.28 0.56,0.24 1.2,0 0.29,-0.74 0.2,-0.67 0,-1.2 -0.71,-0.23 -0.73,-0.12 -1.15,0.05zm49.83 18.13c1.39,0.44 1.54,-0.2 1.38,-1.13 -1.03,-0.3 -0.3,-0.32 -1.33,0.02l-0.05 1.11zm-140.82 -1.85c2.19,0.23 1.9,-1.75 0.02,-1.3l-0.02 1.3zm173.81 8.78c1.18,0.52 1.58,0.11 1.33,-1.18l-1.28 -0.03 -0.05 1.21zm-36.7 -47.05c-0.18,0.29 -0.35,-0.48 -0.26,0.61 0.1,1.2 -0.07,0.08 0.27,0.6l1 0.11c0.38,-1.3 0.1,-1.71 -1.01,-1.32zm-160.02 4.94l-0.16 0.47c0.02,0.69 0.08,0.54 0.14,0.71l1.39 0.2 -0.19 -1.4 -1.18 0.02zm154.9 4.37l1.19 -0.01c0.24,-1.23 -0.08,-1.58 -1.3,-1.32l0.11 1.33zm42.83 -103.18c-0.14,1.18 0.09,1.4 1.33,1.27l-0.03 -1.37 -1.3 0.1zm-130.76 105.85c-0.29,1.25 0.43,1.82 1.12,1.12 0.7,-0.73 -0.01,-1.33 -1.12,-1.12zm-23.88 -119.89c-1.65,-0.23 -1.49,0.96 -0.83,1.29 1.15,0.59 1.04,-0.81 0.83,-1.29zm35.97 -0.82c-0.8,0.82 0.4,1.59 1,1 0.63,-0.62 -0.17,-1.84 -1,-1zm70.03 7.47c-0.51,-1.08 0.62,-0.53 -1.19,-0.72 -0.45,0.79 -0.22,0.75 0,1.43 1.71,-0.21 0.71,0.39 1.19,-0.71zm3.86 69.5c1.22,0.38 1.47,-0.21 1.08,-1.31l-1.18 0.01 0.1 1.3zm4.91 -68.93c1.18,0.27 1.8,-0.41 1.11,-1.1 -0.69,-0.7 -1.37,-0.08 -1.11,1.1zm-44.73 77.78c-0.18,0.15 -0.62,0.24 -0.23,0.93 0.25,0.42 0.69,0.51 1.07,0.16 0.69,-0.64 -0.09,-1.74 -0.84,-1.09zm-7.15 49.12c1.68,0.25 1.49,-0.97 0.83,-1.3 -1.09,-0.55 -1.02,0.83 -0.83,1.3zm-0.04 -66.83c1.8,-0.2 0.69,0.34 1.2,-0.72 -0.49,-1.12 0.54,-0.51 -1.2,-0.72 -0.31,0.94 -0.34,0.47 0,1.44zm65.03 -12.16c-0.78,0.8 0.35,1.58 0.98,0.97 0.64,-0.63 -0.17,-1.82 -0.98,-0.97zm-137.86 17.96c-0.8,0.81 0.36,1.6 0.98,0.98 0.62,-0.62 -0.16,-1.79 -0.98,-0.98zm24.89 -58.78c1.81,-0.18 0.68,0.36 1.19,-0.71 -0.49,-1.09 0.47,-0.5 -1.19,-0.72 -0.31,0.94 -0.34,0.47 0,1.43zm-8.15 -11.26l0 1.2 1.19 0c0.35,-0.97 0,-1.19 0,-1.2 -0.5,-0.15 -0.76,-0.25 -1.19,0zm52.26 82.94c-0.27,0.89 -0.13,0.83 0,1.19l1.2 0 -0.01 -1.19c-0.97,-0.35 -1.19,0 -1.19,0zm82.73 -29.93c-0.07,0.23 -0.37,-0.44 -0.09,0.66 0.23,0.91 -0.22,-0.07 0.3,0.5l0.88 0.04c0.03,-0.18 0.1,-0.36 0.11,-0.33 0,0.01 0.21,-0.1 -0.03,-0.9 -0.62,-0.22 -0.68,-0.16 -1.17,0.03zm-72.8 86.82c-0.35,0.63 -0.26,0.66 -0.1,1.11l1.24 0.06 0.08 -1.12c-0.89,-0.34 -0.41,-0.33 -1.22,-0.05zm1.81 -34.97l-0.72 -0.03c-0.05,0.12 -0.51,-0.05 -0.28,0.87 0.08,0.32 0.2,0.44 0.55,0.49 0.33,0.05 0.54,-0.04 0.68,-0.3 0.47,-0.83 -0.2,-0.98 -0.23,-1.03zm-61.89 -103.62l1.27 0.01c0.17,-2.06 -1.54,-1.91 -1.27,-0.01zm108.95 130.66c-0.48,1.11 0.16,1.07 0.21,1.17 0.12,0.22 0.81,-0.06 0.87,-0.08 0.26,-0.62 0.2,-0.6 0,-1.11 -0.56,-0.22 -0.6,-0.18 -1.08,0.02zm-132.83 -52.99c-0.45,1 -0.05,1.15 -0.05,1.15 1.68,0.56 1.59,-1.33 0.48,-1.28l-0.43 0.13zm101.94 72.91c-0.34,0.62 -0.26,0.64 -0.1,1.11 0.08,0.03 0.18,0.01 0.23,0.09 0.15,0.25 0.89,-0.09 0.96,-0.12 0.12,-0.46 0.12,-0.8 -0.13,-1.04 -0.81,-0.38 -0.13,-0.34 -0.96,-0.04zm-8 -148.69c0.34,0.36 0.36,0.18 0.94,-0.01 0.14,-0.41 0.95,-1.14 -1.19,-1.2 0.02,0.66 -0.17,0.75 0.25,1.21zm-98.95 59.83c0.88,0.42 0.89,0.07 1.05,-0.01 0.02,-0.06 0.07,-0.22 0.07,-0.19 0,0.03 0.04,-0.15 0.04,-0.2 0,-0.45 0.03,-0.15 -0.08,-0.66 -0.52,-0.09 -0.64,-0.32 -1.05,0.08 -0.77,0.76 -0.03,0.97 -0.03,0.98zm151.91 -49.79c0.15,-0.63 0.1,-0.21 0.08,-0.71l-0.16 -0.4c-0.21,-0.08 0.44,-0.38 -0.64,-0.14 -0.54,0.12 -0.15,-0.25 -0.45,0.34 -0.24,0.46 0.03,0.69 0.15,1.01l1.02 -0.1zm-40.27 28.3c0.49,1.11 -0.54,0.51 1.2,0.72 0.32,-0.98 0.32,-0.46 0,-1.44 -1.21,0.13 -0.63,-0.02 -1.2,0.72zm59.21 -25.41c-0.56,-0.17 0.66,-0.07 -0.73,-0.13 -0.07,0 -0.39,0.1 -0.46,0.13l0 1.2 1.19 0 0.08 -0.95c0,-0.14 -0.05,-0.16 -0.08,-0.25zm-140.89 96.03l1.06 0.05c0.55,-2.01 -1.61,-2.01 -1.06,-0.05zm-42.98 18.03c0.31,-1.03 0.31,-0.34 0,-1.36 -1.71,-0.05 -1.72,1.41 0,1.36zm163.81 -119.95c0.37,-0.53 0.16,0.6 0.28,-0.59 0.14,-1.34 -1.73,-0.8 -1.26,0.7l0.98 -0.11zm-41.97 126.78c-0.02,0.06 -0.07,0.09 -0.07,0.2 0,0.11 -0.05,0.16 -0.05,0.2 0.1,0.85 0.58,0.87 1.2,0.67l0.19 -0.45c0,-0.63 -0.08,-0.55 -0.13,-0.7 -0.69,-0.24 -0.7,-0.13 -1.14,0.08zm-79.54 -144.86l-1.56 0 0.23 1.16c1.19,0.11 1.21,-0.06 1.33,-1.16zm34.65 87.97c0.73,0.28 0.56,0.24 1.2,0l-0.46 -1.34c-0.58,-0.05 -0.23,-0.04 -0.89,0.01l0.15 1.33zm112.92 18.19l0 -1.56c-1.14,0.11 -1.28,0.17 -1.14,1.3l1.14 0.26zm-125.86 17.71l-1.2 -0.05c-0.01,0.66 -0.14,1.29 0.71,1.27 0.83,-0.02 0.76,-0.64 0.49,-1.22zm93.96 18.02c0.17,-0.57 0.77,-1.08 -1.19,-1.19 0.09,2.09 0.76,1.33 1.19,1.19zm-120.93 5.87l-0.12 1.09c0.63,0.24 0.52,0.24 1.2,0 0.02,-0.08 0.07,-0.27 0.07,-0.23 0,0 0.29,-1.44 -1.15,-0.86zm-26.97 -113.72c0.19,0.03 0.28,0.32 1.08,-0.24l0.02 -0.72c-0.8,-0.52 -0.08,-0.36 -1.1,-0.21 -0.4,0.67 -0.41,0.5 0,1.17zm165.89 118.89c-0.22,0.7 -0.36,0.59 0.02,0.93 0.65,0.57 0.88,0.05 0.94,0.03 0.01,-0.03 0.58,-0.4 -0.02,-0.95 -0.67,-0.6 -0.91,-0.02 -0.94,-0.01zm-66.97 -12.07l-0.17 0.36c0,0.79 0.17,0.46 0.3,0.69 0.05,0.09 0.16,0.08 0.22,0.09 0.08,0.01 0.21,0.02 0.29,0.03 0.08,0.01 0.21,-0.01 0.32,-0.01l0.14 -0.62c0.01,-0.65 -0.16,-0.69 -0.54,-0.7 -1.02,-0.02 -0.17,-0.03 -0.56,0.16zm-72.96 0.97c0.07,0.03 0.16,0.01 0.2,0.09 0.04,0.07 0.15,0.05 0.2,0.05 0.49,0.01 0.13,0.05 0.71,-0.08 0.18,-1.19 0,-1.32 -1.17,-1.16l0.06 1.1zm82.95 -79.92l-0.09 1.14 0.97 0.05c0.47,-0.77 0.33,-0.32 0.19,-1.22 -0.16,-0.04 -0.33,-0.1 -0.45,-0.09l-0.62 0.12zm-100.95 20.97c0.07,0.03 0.16,0.01 0.2,0.09 0.05,0.08 0.16,0.06 0.22,0.06 0.51,0 0.09,0.06 0.71,-0.09 0.14,-1.11 -0.07,-1.3 -1.16,-1.16l0.03 1.1zm24 -35.82c0.61,-3.08 -3.09,0.36 0,0zm5.03 6.8l-1.11 -0.04c-0.29,1.8 1.4,1.8 1.11,0.04zm94.89 90.94c-0.02,0.08 -0.08,0.09 -0.08,0.22l0.03 0.96c1.99,0.15 1.35,-1.53 0.05,-1.18zm30.96 26.15l0.1 -1.12 -1.22 -0.05c-0.11,1.09 0.11,1.28 1.12,1.17zm-113.85 -143.01l-1.14 -0.05c-0.23,1.77 1.38,1.77 1.14,0.05zm140.6 121.63l-0.03 2.4c1.65,0.55 0.32,0.04 1.26,1.11l1.24 -0.06c0.09,-0.99 0.25,-3.48 -0.37,-4.11 -0.71,-0.72 -0.32,0.33 -2.1,0.66zm55.74 -69.99c-1.13,0.47 -1.14,1.15 -0.87,2.49 1.9,0.5 1.44,-0.08 1.9,-0.68 0.83,-1.07 1.27,-3.43 -0.16,-4.12 -1.07,0.63 -0.59,0.57 -0.87,2.31zm36.35 -20.85c-0.37,0.9 -0.24,0.87 -0.24,2.39 0.56,0 1.14,0.02 1.7,0.02l1.43 -0.18c0.61,-0.15 0.55,-1.46 0.23,-2.23 -0.96,-0.36 -2.16,-0.36 -3.12,0zm-80.07 120.09c0.76,-0.01 0.75,0.08 1.42,-0.16 0.08,-0.02 0.12,-0.06 0.19,-0.09l0.64 -0.38c0.85,-0.31 1.15,0.03 2.08,-0.31 0.17,-1.28 -0.79,-1.87 -1.66,-2.09 -0.57,-0.13 -0.84,-0.06 -1.42,-0.03 -0.23,0.69 -0.05,1.04 -0.42,1.52 -0.5,0.65 -0.59,-0.27 -0.83,1.54zm-13.03 -99c-0.26,1.6 -0.37,2.5 1.29,2.26 0.6,-1.18 -0.2,-0.5 1.07,-1.06 0.37,-1.59 0.47,-2.57 -1.31,-2.25 -0.5,1.53 0.29,0.39 -1.05,1.05zm147.87 112.98c0.09,1.63 -0.17,0.55 0.64,1.38 0.31,0.32 0.4,0.52 0.69,0.81 0.88,0.1 2.02,0.34 2.13,-0.63 0.1,-0.91 -0.24,-0.66 -0.48,-0.86 -0.72,-0.6 -0.18,0.3 -0.72,-0.96 -0.8,-0.05 -1.77,-0.15 -2.26,0.26zm-87.06 -144.62c0.08,1.32 0.05,0.76 1.02,1.35 1.1,0.67 0.73,0.54 2.19,0.48 -0.04,-1.02 -0.24,-0.92 -0.65,-2.31 -0.27,0 -1.19,-0.05 -1.41,-0.03 -1.63,0.19 -0.69,0.17 -1.15,0.51zm46.11 128.75c1.22,0.16 1.41,0.16 2.32,-0.18 0.17,-1.06 0.34,-1.05 0.03,-2.11 -1.06,-0.31 -1.24,-0.12 -2.3,0.06l-0.05 2.23zm-50.07 -69.06c-0.1,2.39 2.27,1.11 2.32,1.06 0.52,-0.55 0.37,-1.45 0.17,-2.3l-1.24 -0.08c-0.87,1.25 -0.15,0.52 -1.25,1.32zm53.19 27.15l2.1 0.06c0.4,-1.18 0.33,-1.58 -0.21,-2.39l-1.69 -0.02c-0.43,0.71 -0.51,1.44 -0.2,2.35zm23.68 44.87c0.19,0.91 0.14,1.21 1.34,1.22 1.15,0 1.25,-0.29 1.16,-1.32 -1.67,-0.76 -1.3,0.48 -2.6,-1.08 -2.27,-0.02 -2.36,1.18 0.1,1.18zm-93.75 -165.62c1.89,0.19 1,0.31 1.76,-0.69 0.25,-0.34 0.52,-0.46 0.61,-0.91 0.26,-1.3 0.04,-0.26 -0.06,-0.68 -0.91,-0.38 -1.19,-0.28 -2.28,-0.13 -0.23,0.96 -0.31,1.44 -0.03,2.41zm-30.49 148.55c0.53,-0.72 0.17,-1.44 -0.39,-2.28 -1.66,-0.1 -3.19,0.07 -1.51,1.68 0.93,0.89 0.83,1.22 1.9,0.6zm51.5 -94.75l2.39 0.2c-0.02,-1.51 -0.01,-1.13 -0.64,-1.73 -1.11,-1.07 0.71,-0.85 -1.51,-0.83 -0.21,0.27 -0.45,-0.17 -0.53,1.17 -0.03,0.67 0.26,1.13 0.29,1.19zm51.24 -31.93c-0.05,0.11 -0.52,-0.32 -0.05,0.63 0,0 0.61,0.59 0.65,0.62 -0.69,1.32 -0.74,-0.07 -0.74,1.44 0.75,0.49 1.18,0.43 2.09,0.22 0.35,-1.41 0.21,-1.56 -0.55,-2.29l-0.47 -0.52c-0.34,-0.29 0.13,-0.17 -0.42,-0.25 -1.07,-0.17 -0.07,-0.09 -0.51,0.15zm-23.86 80.54l-3.43 0c-0.14,1.7 0.15,1.52 1.7,1.55 1.45,0.03 2.09,0.15 1.73,-1.55zm89.37 -91.68l2.15 1.03c0.58,0 0.76,-0.06 1.1,-0.24 -0.05,-0.8 -0.11,-0.42 -0.52,-0.99 -1.37,-1.89 -2.84,-1.72 -2.73,0.2zm-148.51 43.91c0.04,0.02 0.04,0.83 1.18,-0.19l0.98 -0.64 0.08 -1.33c-2.09,-0.65 -3.33,0.36 -2.24,2.16zm140.74 0.2c1.29,0.1 0.95,-0.07 1.61,-0.71 0.81,-0.79 0.85,-0.02 0.64,-1.54 -2.14,-0.85 -3.04,0.14 -2.25,2.25zm-13.18 15.87c2.22,1.04 3.27,-0.01 2.13,-2.14 -0.89,0.15 -0.82,0.24 -1.44,0.64 -0.94,0.62 -0.74,0.11 -0.69,1.5zm-103.6 36.9c-0.3,0.65 -0.27,0.59 -0.03,0.97 0.15,0.26 0.45,0.32 0.71,0.47 0.03,1.62 -0.23,1.64 1.31,1.73l0.34 -2.07c-0.48,-0.28 -0.63,-0.33 -1.02,-0.71 -0.1,-0.11 -0.18,-0.86 -1.31,-0.39zm-14.34 -17.08c1.41,1.03 0.55,-0.18 1.28,1.24l1.24 0c0.21,-2.31 0.28,-2.74 -2.27,-2.32l-0.25 1.08zm51.22 29.04c-0.31,0.61 -0.47,1.44 0.04,1.99 0.39,0.42 -0.25,0.26 0.81,0.33 0.04,0 0.43,-0.03 0.5,-0.05 1.27,-0.21 0.78,-1.02 0.76,-1.09 -0.06,-0.17 -0.78,-1.22 -1.22,-1.34 -1.19,-0.31 -0.69,0.06 -0.89,0.16zm-90.01 -12.86c0.66,-1.07 0.68,-2.12 0.27,-3.29l-1.19 -0.03c-0.46,1.3 -0.61,3.26 0.92,3.32zm66.09 -107.2c1.14,0.66 1.41,0.21 2.44,-0.41 2.01,-1.21 0.14,-2.59 -1.65,-0.71 -0.75,0.78 -0.75,0.37 -0.79,1.12zm105.76 107.99c0,1.37 -0.05,0.88 1.02,1.16l0.26 -1.64c0.75,-0.05 0.6,-0.01 1.1,-0.48l0 -1.08 -1.09 -0.23c-0.43,0.43 -1.29,1.63 -1.29,2.27zm-118.79 -38.8c-0.03,0.71 -0.18,0.18 0.11,0.77 0.19,0.38 0.96,2 1.89,1.26 0.24,-0.39 0.14,0.47 0.29,-0.64 0.31,-2.3 -2.12,-1.59 -2.29,-1.39zm118.04 101l0.08 -1.08c-0.59,-0.35 -0.05,-0.41 -1.89,-0.3 -0.43,-0.73 -0.15,-0.85 -1.19,-0.86 -0.17,0.86 -0.44,0.36 0.48,1.4 0.76,0.88 0.86,1.14 2.52,0.84zm-158.1 -59.31c-0.02,0.06 -0.62,-0.11 0.01,1.41 0.94,0.37 1.26,0.37 2.13,0.01 0.06,-0.16 0.65,0.18 0,-1.43 -0.91,-0.38 -1.19,-0.36 -2.14,0.01zm42.94 -34.57c1.9,0.78 1.63,-0.74 1.63,-2.36 -1.62,0 -2.53,0.42 -1.63,2.36zm72.85 51.06l2.13 -0.17c0.08,-0.26 0.5,-0.51 0.01,-1.94 -0.08,-0.02 -0.2,-0.12 -0.24,-0.04l-0.41 0.03c-1.78,0.48 -1.51,0.8 -1.49,2.12zm16.03 -42.2c0,0.9 0.43,1.46 1.3,1.73 0.85,0.27 -0.94,0.12 0.62,0.02 0.79,-0.05 1.28,-3.25 -1.92,-1.75zm24.71 -51.77c0.39,-0.3 0.9,-0.36 0.71,-1.65 -0.12,-0.84 -0.2,-0.87 -0.92,-0.92 -0.4,-0.04 -0.79,0.03 -1.19,0.07 0.01,0.87 0.02,1.49 1.17,2.38 0.05,0.04 0.15,0.08 0.23,0.12zm-142.34 48.96c0.48,-0.99 0.46,-1.47 0.04,-2.49l-1.19 -0.06c-0.58,1.37 -0.79,2.69 1.15,2.55zm142.81 -9.06l1.13 0.13c0.38,-1.15 0.36,-1.43 0.05,-2.56l-1.38 -0.01c-0.27,1.02 -0.46,1.51 0.2,2.44zm-64.07 -13.92l1.3 0.03c0.39,-1.7 0.52,-2.76 -1.3,-2.53 -0.4,1.07 -0.4,1.43 0,2.5zm-11.06 -55.18l-0.15 1.19c1.05,0.31 1.35,0.39 2.36,-0.01 1.01,-1.64 -1.01,-2.02 -2.21,-1.18zm-20.49 139.05c0.14,-1.16 0.14,-1.47 -0.21,-2.47 -1.14,-0.11 -1.43,0.06 -1.46,1.24 -0.03,1.36 0.38,1.52 1.67,1.23zm-7.46 -112.93l0 0.72c0.22,0.18 -0.5,0.57 1.2,0.55 1.48,-0.02 0.98,-0.39 1.18,-0.55l0.02 -0.95c-2.55,-0.95 -2.33,0.18 -2.4,0.23zm-65.84 -14.79l1.19 -0.01 0.16 -1.49c0,-1.21 -0.22,-0.82 -0.48,-1.13l-0.91 -0.01c-0.37,0.97 -0.48,1.75 0.04,2.64zm75.19 105.81l0.95 0.04c0.36,-1.05 0.35,-1.58 0.01,-2.6l-1.2 0c-0.16,0.42 -0.26,0.4 -0.27,1.18 0,0.08 0.06,0.66 0.08,0.74 0.18,0.52 0.15,0.31 0.43,0.64zm99.52 -85.25c0.24,0.14 0.46,0.33 0.92,0.41 1.08,0.21 1.43,-0.18 1.44,-0.18 0.04,-0.09 0.09,-0.29 0.1,-0.26 0,0.04 0.75,-1.27 -1.04,-1.3 -1.18,-0.03 -1.43,0.34 -1.42,1.33zm-10.88 34.31l1.29 0.01 -0.14 -2.28 -1.91 -0.06c-0.1,0.78 0.08,0.68 0.29,1.17 0.21,0.47 0.3,0.88 0.47,1.16zm-31.82 108.54c-0.14,-0.04 0.37,-0.45 -0.74,-0.15 -1.08,0.29 -0.42,0 -0.65,0.57 0,0 -0.1,0.78 -0.1,0.8 0.15,1.99 1.83,1.43 1.76,-0.25l-0.27 -0.97zm-79.15 -150.49l1.34 0.02c0.38,-1.27 0.14,-1.26 -0.08,-2.48l-1.24 -0.02c-0.14,1.1 -0.35,1.41 -0.02,2.48zm-11.92 87.45c2.51,1.25 2.3,-0.63 2.21,-1.67 -1.07,-0.55 -0.78,-0.27 -1.38,0.36 -0.71,0.73 -0.75,0.23 -0.83,1.31zm105.86 -70.86l-1.7 0.04c-0.17,1.15 0.89,2.18 1.12,2.25 1.44,0.42 0.86,-1.59 0.58,-2.29zm8.34 -20.8l0.01 -1.2c-3.61,-1.17 -3.14,2.65 -0.01,1.2zm-91.27 -31.77l1.29 0.07c0.37,-1.18 0.4,-1.96 -0.52,-2.56 -1.17,0.3 -1.25,1.16 -0.77,2.49zm53.94 169.7l2.3 0.16c0.69,-2.03 -0.89,-1.81 -2.31,-1.44l0.01 1.28zm-32.98 -63.24c-0.34,1.84 1.05,1.8 2.37,1.19l0.03 -1.05c-0.62,-0.28 -1.72,-0.48 -2.4,-0.14zm-48.13 4.02c0,0.62 0.09,0.9 0.24,1.33l1.21 0.03c0.27,-0.96 0.35,-1.37 -0.02,-2.4l-1.17 -0.06c-0.12,0.35 -0.26,0.62 -0.26,1.1zm60.31 -78.63c2.13,0.38 1.26,-2.1 0.85,-2.32 -1.23,-0.67 -1.56,1.29 -0.85,2.32zm-62.09 7.92c0.22,1.89 -0.26,0.56 0.64,1.35 0.62,0.55 0.48,0.42 1.51,0.57 0,-1.52 0.15,-1.41 -0.35,-1.86 -0.39,-0.36 -1.36,-0.35 -1.8,-0.06zm-33.09 78.86l1.44 0c0,-1.12 0.08,-1.29 -0.24,-2.15l-1.44 0c0.01,1.12 -0.08,1.29 0.24,2.15zm26.13 -25.16c-0.41,0.99 -0.33,1.58 0.05,2.38l1.3 -0.45c0.06,-0.29 0.12,-0.42 0.12,-0.74 0.01,-0.72 -0.2,-1.02 -0.27,-1.19l-1.2 0zm-11.98 79.58c0.03,0.05 -0.24,1.46 2.39,0.47 -0.19,-1.48 0.64,-0.99 -0.92,-1.27 -1.32,-0.23 -1.47,0.8 -1.47,0.8zm-23.86 -32.27l0.95 0.01c0.76,-1.75 0.4,-2.33 -0.98,-2.39 -0.42,0.99 -0.44,1.42 0.03,2.38zm73.77 -79c1.02,0.3 1.22,0.39 2.11,0.04 0.03,-0.08 0.09,-0.27 0.1,-0.23 0,0 0.2,-0.15 -0.1,-0.96 -2.58,-1.07 -2.1,1 -2.11,1.15zm-31.93 -39.99c0.16,-0.42 0.26,-0.4 0.27,-1.18 0.01,-0.95 -0.27,-1.09 -0.51,-1.4 -0.72,0.23 -0.88,0.21 -0.99,1.11 -0.2,1.74 0.26,1.32 1.23,1.47zm128.27 -12.36c-0.64,-0.1 -1.12,0.15 -1.48,0.33 0.05,0.82 -0.19,1.03 0.69,1.23 0.64,0.15 1.31,-0.11 1.68,-0.25 -0.1,-0.88 0.2,-1.14 -0.89,-1.31zm-8.39 87.36c0.95,-0.06 1.02,0.27 1.35,-0.66 0.2,-0.56 -0.1,-1.31 -0.2,-1.65 -0.84,0.07 -1.04,-0.09 -1.31,0.62 -0.21,0.59 0.05,1.31 0.16,1.69zm-96 -11.12c0.07,1.94 1.39,1.33 2.47,0.84l-0.11 -0.85c-0.6,-0.27 -1.78,-0.5 -2.36,0.01zm-67.75 25.29l2.15 -0.18c-0.14,-1.79 -0.33,-1.49 -2.15,-1.49l0 1.67zm83.64 -89.4l0.16 1.26 1.17 0.08c0.41,-1.26 0.66,-2.47 -1.09,-2.31 -0.1,0.25 -0.31,0.57 -0.24,0.97zm-16.91 -20.8c0.08,1 -0.03,1.27 1.11,1.27 1.14,-0.01 1.23,-0.06 1.25,-1.09 -0.7,-0.59 -1.67,-0.71 -2.36,-0.18zm41.98 131.86c-0.18,1.77 1.5,1.35 2.34,0.96 0.01,-2.26 -2.31,-0.98 -2.34,-0.96zm-31.77 -93.06c-2.1,-0.26 -1.28,2.06 -0.84,2.29 1.37,0.71 1.15,-1.58 0.84,-2.29zm-13.18 94.14c0.21,-0.38 0.43,-0.67 0.29,-1.38 -0.1,-0.45 -0.11,-0.33 -0.29,-0.61l-1.67 -0.16c0.11,1.23 0.49,2.04 1.67,2.15zm46.03 -26.57c0.34,0.65 -0.28,0.79 1.19,0.78 1.38,-0.01 0.9,-0.26 1.21,-0.78 -0.41,-0.69 0.42,-0.72 -1.44,-0.72 -0.79,0 -0.83,0.05 -0.96,0.72zm64.73 -46.02c0.41,0.89 -0.78,0.61 0.94,0.79 1.79,0.18 1.04,-0.41 1.22,-0.79 -0.4,-0.87 0.77,-0.64 -0.96,-0.79 -0.99,-0.09 -1.07,0.1 -1.2,0.79zm-16.72 22.48c1.45,0.25 0.51,0.11 1.48,-0.56 0.89,-0.62 0.96,-0.01 0.59,-1.51 -1.45,-0.18 -0.68,-0.14 -1.53,0.83 -0.03,0.03 -0.08,0.08 -0.12,0.11 -0.64,0.71 -0.48,0.21 -0.42,1.13zm-27.87 44.15c0.86,-2.53 -0.28,-2.05 -0.48,-2.15 -0.33,0.15 -1,-0.53 -0.8,1.21 0.17,1.5 0.06,0.78 1.28,0.94zm-112.43 -44.1c0.24,-0.12 1.47,0.5 0.48,-2.16l-0.96 0c-0.98,2.61 0.24,2.05 0.48,2.16zm59.45 -2.88l0.96 0c0.35,-0.94 0.35,-1.45 0,-2.39l-0.96 0c-0.35,0.94 -0.35,1.45 0,2.39zm117.49 -41.23l0.05 1.38c0.39,0.02 1.47,0.18 1.84,-0.18l0.2 -0.48c0.11,-0.86 -0.03,0.74 0.04,-0.71 -0.66,-0.18 -1.54,-0.37 -2.13,-0.01zm-119.72 26.15c0.87,0.35 1.47,0.33 2.31,0.06l0.06 -1.13 -2.22 -0.17 -0.15 1.24zm-24.85 6.95c-0.46,1.21 -0.2,1.65 0.47,2.15 1.18,-0.41 1.33,-2.09 0.26,-2.3 -1.23,-0.25 -0.48,0.07 -0.73,0.15zm-4.27 30.18c0.06,1.64 0.9,1.34 2.1,0.96l-0.24 -1.2c0,0 -0.21,-0.35 -0.95,-0.25 -1.69,0.22 -0.21,-0.09 -0.91,0.49zm61.22 46.62c0.65,0.36 1.12,0.54 2.17,0.28 0.57,-2.16 -1.67,-1.3 -1.72,-1.26 -0.53,0.34 -0.34,0.27 -0.45,0.98zm-82.84 -18.8l-0.04 0.94c0.86,0.33 1.36,0.4 2.19,0.03 0.17,-2.15 -2.12,-1 -2.15,-0.97zm90.37 -22.3c0.6,-0.32 0.77,0.24 0.77,-0.95 0,-1.7 -0.17,-0.69 -0.77,-0.97 -0.53,0.24 -0.81,-0.71 -0.78,0.96 0.03,1.65 0.27,0.71 0.78,0.96zm-103.56 -92.77c-0.01,0.01 -0.5,-0.09 0.01,1.4 1.49,0.4 1.85,-0.09 1.42,-1.4 -0.49,-0.19 0.69,-0.26 -0.72,-0.19 -1.01,0.04 -0.48,0.1 -0.71,0.19zm42.29 132.92c0.09,-1.4 -0.85,-1.19 -2.14,-0.96 -0.3,1.74 1.06,1.41 2.14,0.96zm1.1 -58.85c0.12,1 -0.44,1.28 0.95,1.29 1.42,0.01 0.84,-0.27 0.96,-1.29 -0.63,-0.24 -1.25,-0.45 -1.91,0zm27.33 15.09l1.67 0.23 0 -1.42c-0.79,-0.29 -1.59,-0.57 -1.81,0.45 -0.25,1.16 0.09,0.58 0.14,0.74zm67.23 50.69c-0.18,0.32 -0.23,-0.52 -0.25,0.63 -0.01,1.2 0.04,0.33 0.17,0.67 0.04,0.02 -0.09,0.62 1.38,0 0.06,-0.16 0.29,0.4 0.16,-0.67 -0.14,-1.16 -0.84,-0.91 -1.46,-0.63zm9.03 -48.14c-0.13,0.38 -0.37,-0.4 -0.25,0.8 0.15,1.4 0.09,0.44 0.46,0.89l0.72 0.04c0.2,-0.25 0.48,0.22 0.48,-0.91 0,-1.48 0.04,-0.12 -0.26,-0.72l-1.15 -0.1zm8 -52.78c-0.24,0.39 -0.24,-0.58 -0.28,0.64 -0.03,0.85 0.12,0.58 0.16,0.7 0.45,0.18 -0.66,0.31 0.71,0.19 0.98,-0.1 0.46,-0.13 0.7,-0.25 0.39,-1.23 -0.05,-1.74 -1.29,-1.28zm-96.89 88.05c0.71,0.34 1.32,0.31 2.04,0.03l0.06 -0.93c-0.34,-0.13 -0.48,-0.23 -0.98,-0.23 -0.99,0.01 -1.22,0.15 -1.12,1.13zm-3.14 27.87c0,1.12 0.08,1.21 1.13,1.18 0.36,-0.8 0.67,-2.18 -0.89,-2.08 -0.15,0.3 -0.24,0.41 -0.24,0.9zm-0.05 -113.82l-0.12 1.16c1.25,0.66 2.08,0.27 1.55,-1.2 -0.16,-0.06 0.15,-0.67 -1.43,0.04zm13.07 -21.94c-0.51,1.21 0.04,1.68 1.26,1.25 0.04,-0.1 0.64,0.15 0.03,-1.39 -0.02,-0.01 -0.08,-0.65 -1.29,0.14zm64.9 76.88l-0.18 1.21 1.79 0.18c-0.04,-0.89 0.13,-1.68 -0.92,-1.67 -1.24,0.01 -0.37,0.11 -0.69,0.28zm45.03 -53.05c-0.04,0.08 -0.65,-0.08 0.02,1.4 1.22,0.42 1.78,-0.05 1.26,-1.26 -0.38,-0.24 0.54,-0.21 -0.61,-0.28 -1.15,-0.06 -0.4,0.05 -0.67,0.14zm-66.8 86.15c0.33,-1.48 0.45,-1.97 -0.91,-2.09 -0.4,0.96 -0.67,2.31 0.91,2.09zm-76.1 -57.88l0.46 0.18c0.49,0.07 0.42,0.05 0.97,0.06l0 -1.67 -1.2 0.02c-1.04,1.41 -0.27,1.34 -0.23,1.41zm123.94 -0.24c-0.28,0.72 -0.18,0.74 0,1.2 0.16,0.07 -0.18,0.65 1.43,0 0.29,-0.76 0.18,-0.68 -0.02,-1.19 -0.16,-0.06 0.37,-0.23 -0.7,-0.19 -0.92,0.04 -0.54,0.12 -0.71,0.18zm-24.77 -37.7c0.1,-0.22 0.32,0.44 0.2,-0.64 -0.21,-1.94 -2.75,-0.12 -1.29,0.75 0.66,0.39 0.82,0.01 1.09,-0.11zm7.75 39.62c-0.2,0.5 -0.28,-0.69 -0.2,0.72 0.05,0.83 0.16,0.58 0.21,0.72l1.28 0.14 0.09 -1.65c-1.14,-0.17 -0.4,-0.25 -1.38,0.07zm-58.98 18.21c0.55,-0.8 0.39,-1.42 0,-2.12 -0.75,0.06 -0.95,0.09 -1.01,0.93 -0.08,1.09 0.12,1.18 1.01,1.19zm-1.14 -37.91c0.04,0.02 -0.06,0.6 1.38,0.04 0.03,-0.08 0.1,-0.27 0.1,-0.23 0,0.03 0.06,-0.18 0.06,-0.24 -0.04,-0.74 -0.1,-0.57 -0.16,-0.72 -0.55,-0.2 -1.37,-0.61 -1.56,0.44 -0.23,1.26 0.05,0.4 0.18,0.71zm8.04 16.74l-0.07 1.36 1.6 0.08 0.08 -1.43c-0.52,-0.14 -1.16,-0.3 -1.61,-0.01zm-92.81 42.35c1.34,0.29 1.7,-0.03 1.38,-1.39 -1.35,-0.51 -1.85,0.04 -1.38,1.39zm79.97 22.88l0.42 0.17c0.57,0.04 0.18,0.04 0.84,-0.03l0.2 -1.52c-0.81,-0.11 -1.63,-0.35 -1.68,0.68 -0.06,1.16 0.13,0.5 0.22,0.7zm-73.96 -47.83c1.47,0.26 1.71,-0.27 1.3,-1.5 -1.38,-0.28 -1.8,0.1 -1.3,1.5zm110.86 -81.27c-0.37,0.94 -0.25,0.23 -0.1,1.27l1.57 0.06c0.18,-1.35 0.03,-2 -1.47,-1.33zm-96.88 99.91c-0.04,0.08 -0.1,0.1 -0.1,0.24l0.1 0.96c0.56,0.22 -0.74,0.3 0.71,0.2 1.29,-0.08 0.24,-0.01 0.72,-0.22l0.1 -1.16c-0.29,-0.11 0.04,-0.66 -1.53,-0.02zm-15.88 27.57c-0.51,-0.66 -2.15,-1.32 -2.15,0 -0.01,1.33 1.61,0.69 2.15,0zm62.75 -30.27c1.1,0.3 0.38,0.36 1.44,-0.03 0.26,-0.93 0.3,-0.47 -0.05,-1.41l-1.33 -0.04 -0.06 1.48zm43.08 -1.32c-0.1,0.22 -0.32,-0.44 -0.19,0.65 0.21,1.68 2.4,0.55 1.45,-0.57 -0.32,-0.2 0.51,-0.26 -0.61,-0.26 -1.32,-0.01 -0.12,-0.05 -0.65,0.18zm-11.08 -91.42l1.43 -0.22c0.51,-1.59 0.04,-1.39 -1.43,-1.42l0 1.64zm-53.8 21.51c-0.16,0.27 -0.26,-0.47 -0.24,0.59 0.03,1.49 1.24,0.79 1.43,0.59 0.54,-1.17 -0.04,-1.74 -1.19,-1.18zm107.83 61.12c0.26,0.14 -0.46,0.3 0.63,0.23 0.91,-0.05 0.41,-0.11 0.62,-0.22 0.91,-2.02 -2.15,-2.01 -1.25,-0.01zm-76.81 -33.69c0.35,-0.94 0.35,-0.74 0,-1.68 -1.17,0.14 -1.01,-0.6 -1.26,0.7 -0.24,1.28 0.43,0.88 1.26,0.98zm2.22 -41.15l0.04 -1.34 -1.39 -0.08c-0.6,1.33 0.1,2.02 1.35,1.42zm-21.16 53.13c0.35,-0.94 0.35,-0.73 0,-1.67 -1.22,0.14 -1.01,-0.62 -1.26,0.7 -0.23,1.26 0.44,0.87 1.26,0.97zm12.83 60.54c-0.51,1.14 0.04,1.69 1.18,1.18 0.18,-0.29 0.27,0.48 0.26,-0.6 -0.01,-0.68 -0.05,-0.93 -0.83,-0.84 -0.98,0.11 -0.32,0.08 -0.61,0.26zm65.93 35.96c-0.5,1.14 0.04,1.68 1.18,1.18 0.19,-0.3 0.28,0.51 0.26,-0.61 -0.01,-0.66 -0.05,-0.92 -0.83,-0.83 -1,0.12 -0.29,0.07 -0.61,0.26zm14.74 -4.93c0.94,0.34 0.73,0.34 1.68,0 -0.14,-1.18 0.59,-1.02 -0.71,-1.26 -1.26,-0.24 -0.85,0.45 -0.97,1.26zm-6.71 -74.2c-0.39,0.87 -0.32,0.53 -0.1,1.43 0.94,0.31 0.45,0.31 1.39,0l0.06 -1.37 -1.35 -0.06zm13.98 -84.57c0.17,0.08 -0.4,0.34 0.66,0.23 0.67,-0.07 0.34,0.03 0.58,-0.24 0.71,-0.78 -0.43,-1.88 -1.19,-1.19 -0.61,0.54 -0.2,0.85 -0.05,1.2zm-49.94 1.77l-0.18 0.46c-0.07,0.48 -0.06,0.42 -0.06,0.97l1.67 0 -0.24 -1.43c-0.68,-0.27 -0.71,-0.18 -1.19,0zm-4.95 -4.12c-0.21,0.51 -0.28,-0.48 -0.25,0.77 0.03,0.97 0.11,0.46 0.21,0.67 0.98,0.37 0.17,0.31 1.15,0.04 0.2,-0.51 0.32,0.7 0.2,-0.72 -0.12,-1.34 0.02,-0.15 -0.25,-0.71l-1.06 -0.05zm-103.76 76.14c-0.15,-0.08 0.37,-0.33 -0.64,-0.24 -0.66,0.06 -0.32,-0.05 -0.58,0.22 -0.72,0.79 0.43,1.92 1.2,1.2 0.58,-0.55 0.16,-0.87 0.02,-1.18zm6.81 11.38c-0.61,0.02 -0.83,-0.08 -1.07,0.6 -0.18,0.5 -0.1,0.99 0.26,1.2 1.4,0.84 1.03,-1.31 0.81,-1.8zm169.84 -35.36c-1.09,2.3 2.46,1.35 1.22,0 -0.17,-0.19 0.25,-0.21 -0.58,-0.23 -1.14,-0.04 -0.35,0.08 -0.64,0.23zm-76.93 104.99c0.25,0.15 -0.45,0.3 0.6,0.23 1.88,-0.13 0.14,-2.68 -0.71,-1.23 -0.39,0.66 0.04,0.86 0.11,1zm-11.68 -85.73l-0.05 -1.45 -1.24 -0.09c-0.62,1.47 -0.14,1.78 1.29,1.54zm59.74 -55.8c0.35,-0.94 0.35,-0.74 0,-1.68 -1.23,0.18 -1.01,-0.56 -1.24,0.71 -0.22,1.15 0.5,0.85 1.24,0.97zm-106.93 55.37c-1.73,-0.34 -1.56,1.08 -0.9,1.44 0.83,0.46 1.73,-0.31 0.9,-1.44zm51.9 20.27c1.61,0.78 1.54,-0.78 1.17,-1.17 -0.32,-0.32 -0.82,-0.35 -1.17,-0.04 -0.18,0.18 -0.2,-0.21 -0.23,0.58 -0.04,1.13 0.09,0.36 0.23,0.63zm-46.85 7.27c0.35,-0.92 0.33,-0.73 0,-1.65 -1.21,0.15 -1.02,-0.6 -1.25,0.7 -0.2,1.13 0.53,0.84 1.25,0.95zm50.58 -73.8c0.23,0.48 -0.22,1.03 0.98,0.76 1.32,-0.29 0.51,0.19 0.7,-1.24 -1.58,-0.59 -1.18,-0.17 -1.68,0.48zm11.99 87.73c0.21,0.99 -0.51,0.78 0.71,0.96 1.17,0.18 0.8,-0.21 0.95,-0.96 -0.42,-0.36 0.16,-0.44 -0.7,-0.47 -1.82,-0.05 -0.34,-0.04 -0.96,0.47zm-90.62 -46.5c-0.08,0.23 -0.31,-0.48 -0.17,0.7 0.17,1.31 1.49,0.95 1.51,0.01 0.02,-1.1 -0.86,-0.87 -0.86,-0.87l-0.48 0.16zm24.93 69.03c0,0.01 -0.85,0.03 0.24,1.4l0.72 0.01c1.02,-1.38 0.26,-1.34 0.24,-1.41 -0.08,-0.03 -0.19,-0.17 -0.24,-0.09 -0.05,0.08 -0.18,-0.06 -0.24,-0.06 -0.63,0.03 -0.56,0.1 -0.72,0.15zm-23.97 -18.7c0.58,0.22 0.5,0.25 1.19,0 0.07,-0.17 0.43,0.4 0.17,-0.7 -0.15,-0.58 -0.12,-0.33 -0.4,-0.68l-0.72 -0.03c-1.06,1.4 -0.29,1.31 -0.24,1.41zm-6.23 14.87l0 0.95c0.94,0.35 0.73,0.35 1.67,0l0 -0.95c-0.63,-0.24 -0.98,-0.45 -1.67,0zm91.24 -47.1c-0.22,0.33 -0.3,-0.51 -0.28,0.61 0.02,1.33 1.22,0.76 1.3,0.7 0.64,-1.12 0.09,-1.76 -1.02,-1.31zm39.68 -18.7c1.03,0.3 0.54,0.33 1.48,-0.02l0.02 -1.26 -1.36 -0.15 -0.14 1.43zm-41.99 29.12c0.38,-0.46 0.26,0.1 0.44,-0.7 0.07,-0.28 0.03,-0.63 0.02,-0.91 -0.82,0.03 -1.2,-0.34 -1.39,0.65 -0.25,1.28 0.11,0.81 0.93,0.96zm9.24 -71.31c-0.14,0.25 -0.31,-0.45 -0.22,0.6 0.09,1.03 0.02,0.23 0.24,0.58 1.87,0.89 1.89,-2.1 -0.02,-1.18zm-34.04 -14.66l1.3 -0.02 0.12 -1.31c-1.36,-0.48 -1.87,0.03 -1.42,1.33zm-51.81 -8.11c0.17,-0.28 0.31,0.47 0.26,-0.6 -0.05,-1.02 -0.06,-0.31 -0.23,-0.62 -1.89,-0.84 -1.89,2.01 -0.03,1.22zm86.61 27.97l1.55 0.09 0.02 -1.36 -1.53 -0.07 -0.04 1.34zm-92.9 65.65l0.03 1.33c0.22,0.02 0.47,0.07 0.64,0.04 0.56,-0.08 0.54,-0.12 0.72,-0.19l0.14 -0.47c-0.06,-0.62 -0.11,-0.49 -0.19,-0.68 -0.6,-0.22 -0.58,-0.44 -1.34,-0.03zm103.11 -71.87c-0.04,0.07 -0.1,0.08 -0.11,0.2 0,0.13 -0.07,0.16 -0.07,0.22 -0.05,0.55 -0.06,0.16 0.02,0.83 2.13,0.64 1.88,-1.6 0.59,-1.41l-0.43 0.16zm23.98 89.9c-0.13,0.26 -0.35,0.78 -0.1,1.13 1.18,0.74 1.85,-0.05 1.2,-1.2 -1,-0.28 -0.21,-0.3 -1.1,0.07zm-110.11 -72.7c0.14,0.93 -0.13,1.23 0.94,1.17 0.08,0 0.57,-0.23 0.62,-0.29 0.16,-0.18 0.1,-0.15 0.17,-0.39l-0.05 -0.49c-0.25,-0.1 0.35,-0.21 -0.73,-0.21 -0.53,0 -0.66,0.01 -0.95,0.21zm39.08 -23.97l1.43 0 0 -1.42 -1.43 -0.02 0 1.44zm-66.89 47.7c-0.28,0.72 -0.18,0.74 0,1.2 0.72,0.28 0.55,0.24 1.2,0 0.03,-0.07 0.08,-0.25 0.09,-0.22l0.07 -1.13c-1.3,-0.13 -1.34,0.15 -1.36,0.15zm111.96 80.06c-0.04,0.08 -0.09,0.09 -0.1,0.22 -0.01,0.14 -0.06,0.16 -0.07,0.24 -0.04,0.51 -0.05,0.28 0.02,0.84l1.34 -0.1 0.24 -1.44 -0.97 0.07c-0.09,0.02 -0.17,0.06 -0.25,0.08 -0.06,0.01 -0.14,0.06 -0.21,0.09zm55.09 -71.73l0.15 -1.41 -1.37 -0.06c-0.39,1.32 -0.08,1.7 1.22,1.47zm-142.09 68.65c-0.35,0.98 -0.32,0.18 -0.01,1.13l0.44 0.17c0.63,0.02 0.11,0.06 0.74,-0.09 0.45,-0.77 0.33,-0.27 0.18,-1.21 -0.45,-0.2 -0.79,-0.32 -1.35,0zm-14.1 -40.7l1.43 0.06 0.07 -1.41 -1.42 -0.09 -0.08 1.44zm-18.77 20.77l-0.2 1.36 1.4 -0.16c0.03,-0.08 0.08,-0.25 0.09,-0.22l0.11 -1.22c-0.09,0 -0.52,-0.01 -0.66,0.02l-0.74 0.22zm97.13 -5.09c-1.08,-0.23 -2.17,0.32 -1.37,1.14 0.83,0.86 1.51,0.1 1.37,-1.14zm-76.27 24.04c-0.26,0.91 -0.31,0.38 0.05,1.33l1.25 -0.02c0.04,-0.3 0.1,-0.39 0.07,-0.61 -0.07,-0.6 -0.11,-0.54 -0.18,-0.71 -0.66,-0.26 -0.7,-0.18 -1.19,0.01zm142.74 -87.02c-0.02,0.63 -0.1,0.31 0,0.67 0.39,1.39 1.96,1.01 1.4,-0.73l-1.4 0.06zm-120.75 20.13c-0.06,0.23 -0.32,0.27 0.11,1.17 0.88,0.29 0.24,0.25 1.15,-0.02l0.1 -1.3c-1.07,-0.23 -0.56,-0.35 -1.36,0.15zm46.09 -69.03l-0.21 1.39c0.12,0 0.52,0.04 0.66,0.01 0.09,-0.01 0.19,-0.02 0.29,-0.04l0.46 -0.17c0.31,-0.99 0.3,-0.19 -0.02,-1.17 -0.67,-0.28 -0.7,-0.19 -1.18,-0.02zm-46.99 56.08l1.35 0.18c0.02,-0.27 0.06,-0.42 0.03,-0.64l-0.18 -0.73 -1.34 -0.11c-0.14,1.23 0.1,1.2 0.14,1.3zm-26.92 -71.98c-0.9,0.87 0.38,1.79 1.07,1.08 0.63,-0.65 -0.22,-1.88 -1.07,-1.08zm102.85 29.03c-0.78,0.84 0.43,1.67 1.08,1.05 0.73,-0.69 -0.21,-1.98 -1.08,-1.05zm-113.81 21.86c-1.1,-0.46 -1.81,0.45 -1.14,1.15 0.47,0.5 1.86,0.26 1.14,-1.15zm108.84 -15.7c1.2,0.13 1.38,-0.17 1.23,-1.35l-1.3 -0.08c-0.27,0.55 -0.26,0.87 0.07,1.43zm-90.92 41.77c-0.81,0.85 0.42,1.7 1.07,1.06 0.7,-0.68 -0.21,-1.96 -1.07,-1.06zm-26.74 42.06l0.03 -1.29 -1.34 -0.06c-0.37,1.35 0.03,1.68 1.31,1.35zm56.72 29.86c-0.83,0.85 0.4,1.7 1.06,1.06 0.7,-0.68 -0.2,-1.95 -1.06,-1.06zm99.78 -22c-0.24,0.62 -0.2,0.68 0,1.2 0.07,0.02 0.17,0 0.22,0.08 0.05,0.09 0.16,0.06 0.23,0.06 0.59,0.03 0.22,0.04 0.87,-0.05 0.03,-0.24 0.09,-0.38 0.06,-0.58 -0.07,-0.59 -0.12,-0.54 -0.19,-0.71 -0.07,-0.03 -0.18,-0.18 -0.23,-0.1l-0.96 0.1zm20.13 -95.89c-0.88,0.85 0.37,1.76 1.05,1.06 0.66,-0.67 -0.2,-1.89 -1.05,-1.06zm-39.12 -9.78l1.3 0.04c0.44,-2.15 -1.74,-2.15 -1.3,-0.04zm-92.72 -25.21c-0.96,0.88 0.34,1.81 1.04,1.06 0.62,-0.65 -0.22,-1.81 -1.04,-1.06zm131.8 128.92c-0.8,0.85 0.42,1.67 1.07,1.05 0.71,-0.68 -0.2,-1.97 -1.07,-1.05zm-161.78 7.93c-0.94,0.88 0.35,1.8 1.05,1.07 0.62,-0.65 -0.22,-1.84 -1.05,-1.07zm178.83 -77.91c-0.95,0.88 0.35,1.8 1.04,1.06 0.61,-0.64 -0.2,-1.84 -1.04,-1.06zm-136.88 -11.98c-0.91,0.87 0.36,1.78 1.05,1.07 0.63,-0.66 -0.21,-1.86 -1.05,-1.07zm-40.98 -11.96c-0.86,0.86 0.38,1.73 1.05,1.06 0.68,-0.68 -0.2,-1.9 -1.05,-1.06zm-3.19 52.88c-0.11,1.24 0.18,1.71 1.27,1.09 0.55,-1.31 -0.57,-1.63 -1.27,-1.09zm47.01 69.81c-0.7,3.59 3.67,-0.45 0,0zm100.02 -14.83l-0.21 1.36 1.18 -0.07c0.07,-0.01 0.15,-0.06 0.22,-0.09l0.17 -1.4 -1.36 0.2zm14.86 -52.97c-0.27,0.69 -0.19,0.72 0,1.2l0.48 0.15c0.73,-0.03 0.56,-0.1 0.71,-0.15 0.04,-0.08 0.1,-0.28 0.1,-0.24 0,0 0.21,-0.14 -0.1,-0.96 -0.68,-0.27 -0.71,-0.18 -1.19,0zm-46.99 55.85c-0.25,0.68 -0.17,0.72 0,1.2 0.08,0.03 0.19,0.01 0.24,0.1 0.15,0.24 0.9,-0.08 0.96,-0.1 0.03,-0.08 0.1,-0.28 0.1,-0.24 0,0 0.2,-0.14 -0.1,-0.96 -0.62,-0.23 -0.68,-0.18 -1.2,0zm63.05 -111.7l1.33 0.14c0.03,-0.32 0.08,-0.36 0.04,-0.61l-0.09 -0.51c-0.02,-0.06 -0.06,-0.14 -0.09,-0.22 -0.98,-0.34 -0.25,-0.23 -1.28,-0.07l0.09 1.27zm-58.1 59.02c1.26,0.32 1.66,-0.08 1.35,-1.31l-1.3 -0.02 -0.05 1.33zm39.24 34.04c0.42,-1.16 0.2,-1.66 -1.31,-1.29 -0.09,1.19 0.09,1.4 1.31,1.29zm-6 17.97c0.42,-1.15 0.2,-1.65 -1.3,-1.28 -0.09,1.19 0.09,1.4 1.3,1.28zm-53.05 33.99c0.86,-0.06 1.4,0.27 1.39,-0.72 0,-0.98 -0.56,-0.67 -1.39,-0.72l0 1.44zm32.85 -71.2l-0.02 1.17 1.26 0.14c0.52,-1.52 -0.56,-1.93 -1.24,-1.31zm-14.93 -87.67c1.02,0.14 2.02,-0.33 1.2,-1.2 -0.69,-0.73 -1.49,-0.12 -1.2,1.2zm-107.99 69.8l1.39 0.22c0.18,-1.34 0.02,-1.62 -1.25,-1.55l-0.14 1.33zm132.85 -79.84l1.4 0.08c0.21,-1.31 -0.11,-1.57 -1.31,-1.4l-0.09 1.32zm-153.77 123.61c-0.23,0.62 -0.19,0.68 -0.01,1.19 0.72,0.28 0.55,0.24 1.2,0l0.16 -0.48c-0.04,-0.74 -0.1,-0.56 -0.16,-0.72 -0.08,-0.02 -0.19,-0.17 -0.24,-0.09l-0.95 0.1zm124.97 -4.97l-0.19 0.44c-0.01,0.62 0.05,0.51 0.11,0.69 0.72,0.28 0.55,0.24 1.2,0l0.15 -0.48c-0.04,-0.7 -0.11,-0.56 -0.17,-0.72 -1.01,-0.29 -0.21,-0.3 -1.1,0.07zm-30.13 -88.7c1.95,0.47 2.22,-1.55 0.06,-1.29l-0.06 1.29zm-91.79 128.95l1.29 0.01 0.04 -1.31c-1.24,-0.26 -1.62,0.07 -1.33,1.3zm80.85 -139.07l0 1.19c0.68,0.25 0.54,0.24 1.19,0 0.29,-0.73 0.2,-0.67 0,-1.19l-0.47 -0.17c-0.74,0.04 -0.57,0.11 -0.72,0.17zm-56.95 -26.79l1.37 0.03 0.02 -1.32 -1.32 -0.06 -0.07 1.35zm-22.98 57.98l1.33 0.03 0.06 -1.33 -1.36 -0.06 -0.03 1.36zm95.91 82.93c2.19,0.23 1.9,-1.75 0.01,-1.3l-0.01 1.3zm-56.85 -5.16c-0.32,0.75 -0.29,1.14 0.58,1.16 0.5,0.01 0.2,0.01 0.67,-0.14l0.05 -1.12c-0.5,-0.14 -0.55,-0.36 -1.3,0.1zm8.88 -39.88l1.35 0.06 0.03 -1.35 -1.32 -0.04 -0.06 1.33zm83.05 84.8c-0.03,0.08 -0.1,0.11 -0.1,0.24l0.1 0.72c0,0 0.56,1.02 1.44,-0.48 -0.33,-0.54 0.11,-0.38 -0.5,-0.59 -1.09,-0.39 -0.94,0.11 -0.94,0.11zm-57.99 -73.09l-0.17 0.47c0.02,0.69 0.08,0.54 0.15,0.71l1.39 0.2 -0.2 -1.4 -1.17 0.02zm-74.82 46.01c-0.5,0.81 -0.3,1.34 0.48,1.3 1.44,-0.07 0.84,-1.65 -0.48,-1.3zm57.88 -61.96c-0.34,1.33 0.47,1.8 1.12,1.11 0.72,-0.77 -0.09,-1.29 -1.12,-1.11zm-11.13 21.69c0,0 -0.33,1 1.01,0.39 1.25,-0.56 -0.23,0.9 0.31,-0.33 0.43,-1 -0.12,-0.78 -0.13,-0.78 0,0 0.06,-0.54 -0.72,-0.1 -0.72,0.39 -0.21,-0.25 -0.47,0.82zm-29.91 18.41c0.49,0.21 1.89,0.33 1.3,-0.83 -0.33,-0.66 -1.52,-0.81 -1.3,0.83zm124.94 -17.11c-0.29,1.25 0.44,1.82 1.12,1.12 0.71,-0.73 0,-1.33 -1.12,-1.12zm-140.82 -87.83l-0.09 1.26 0.81 0.03c0.06,-0.01 0.16,-0.05 0.21,-0.07 0.5,-0.12 0.38,-0.97 0.33,-1.31l-1.26 0.09zm3.13 94.92c-0.93,0.84 0.32,1.69 0.97,0.99 0.54,-0.58 -0.18,-1.7 -0.97,-0.99zm128.91 28.01c0.24,-1.67 -0.96,-1.49 -1.29,-0.83 -0.57,1.12 0.82,1.02 1.29,0.83zm-74.01 1c-0.84,0.82 0.36,1.61 0.98,0.99 0.6,-0.61 -0.17,-1.79 -0.98,-0.99zm5.98 -119.86c-0.81,0.82 0.37,1.6 0.99,0.99 0.61,-0.61 -0.16,-1.82 -0.99,-0.99zm-40.98 41.97c-0.77,0.8 0.38,1.58 0.99,0.98 0.65,-0.63 -0.17,-1.83 -0.99,-0.98zm12.98 83.93c-0.73,0.78 0.37,1.55 0.98,0.96 0.67,-0.64 -0.15,-1.86 -0.98,-0.96zm143.82 -27.91c1.68,0.25 1.49,-0.97 0.83,-1.3 -1.08,-0.55 -1.02,0.83 -0.83,1.3zm-0.03 -66.83c1.79,-0.2 0.68,0.34 1.19,-0.72 -0.49,-1.12 0.54,-0.51 -1.19,-0.72 -0.31,0.94 -0.34,0.47 0,1.44zm-72.83 5.8c-0.81,0.81 0.36,1.6 0.98,0.98 0.62,-0.62 -0.17,-1.79 -0.98,-0.98zm24.88 -58.78c1.81,-0.18 0.68,0.36 1.2,-0.71 -0.49,-1.09 0.47,-0.5 -1.2,-0.72 -0.31,0.94 -0.34,0.47 0,1.43zm44.11 71.68c-0.27,0.89 -0.13,0.83 0,1.19l1.2 0 0 -1.19c-0.97,-0.35 -1.19,0 -1.2,0zm-18.24 78.16l1.25 0.02c0.31,-1.93 -1.44,-2.1 -1.25,-0.02zm-64.82 -3.04c1.28,0.18 1.47,-0.29 1.07,-1.28 -1.19,-0.15 -1.41,0.1 -1.07,1.28zm-92.12 -27.04c1.26,0.4 1.62,-0.11 1.37,-1.08l-1.27 -0.11 -0.1 1.19zm161.07 30.81c-0.03,0.07 -0.09,0.09 -0.09,0.22 -0.01,0.38 -0.21,0.16 0.09,0.92l0.44 0.13c0.69,-0.07 1.04,-0.47 0.72,-1.06 -0.57,-0.57 0.52,-0.2 -0.49,-0.32 -1.38,-0.16 -0.1,-0.08 -0.67,0.11zm-95.74 -111.78l0.03 -1.08c-2.12,-0.5 -1.81,1.81 -0.03,1.08zm35.83 28.86c-0.45,1 -0.05,1.15 -0.05,1.15 1.67,0.56 1.58,-1.33 0.47,-1.28l-0.42 0.13zm-70.9 84.91c-0.32,0.56 -0.27,0.6 -0.12,1.09l0.48 0.16c0.71,-0.05 0.56,-0.11 0.72,-0.17 0.02,-0.08 0.07,-0.26 0.07,-0.23 -0.01,0.03 0.11,-0.55 -0.2,-0.83 -0.81,-0.37 -0.14,-0.33 -0.95,-0.02zm65.89 -100.86c0.87,0.42 0.88,0.07 1.04,-0.01 0.02,-0.06 0.07,-0.22 0.07,-0.19 0,0.03 0.05,-0.15 0.05,-0.2 -0.01,-0.45 0.03,-0.15 -0.09,-0.66 -0.51,-0.09 -0.64,-0.32 -1.04,0.08 -0.77,0.76 -0.04,0.97 -0.03,0.98zm-42.03 -34.91c-0.03,0.08 -0.1,0.11 -0.1,0.25 0.02,0.39 -0.37,0.25 0.09,0.68 0.46,0.43 0.53,0.23 1.2,0.26 -0.06,-2.14 -0.79,-1.33 -1.19,-1.19zm76.98 127.78c-0.03,0.08 -0.09,0.1 -0.09,0.23 -0.01,0.32 -0.22,0.15 0.08,0.92 1.67,0.58 1.77,-1.73 0.01,-1.15zm-111.88 -126.72l0.13 -1.06c-0.07,-0.03 -0.16,-0.16 -0.21,-0.09l-1.07 -0.01c-0.13,1.26 -0.01,1.67 1.15,1.16zm106.89 82.98l1.05 0.05c0.56,-2.01 -1.61,-2.01 -1.05,-0.05zm-42.99 18.03c0.32,-1.03 0.32,-0.34 0,-1.36 -1.71,-0.05 -1.71,1.41 0,1.36zm76.96 -50.06c0.72,0.28 0.55,0.24 1.2,0l-0.47 -1.34c-0.58,-0.05 -0.23,-0.04 -0.88,0.01l0.15 1.33zm-12.95 35.9l-1.19 -0.05c-0.02,0.66 -0.14,1.29 0.71,1.27 0.83,-0.02 0.75,-0.64 0.48,-1.22zm-26.97 23.89l-0.12 1.09c0.64,0.24 0.52,0.24 1.2,0 0.02,-0.08 0.08,-0.27 0.07,-0.23 0,0 0.3,-1.44 -1.15,-0.86zm-26.97 -113.72c0.2,0.03 0.28,0.32 1.09,-0.24l0.02 -0.72c-0.81,-0.52 -0.08,-0.36 -1.11,-0.21 -0.4,0.67 -0.41,0.5 0,1.17zm25.96 107.79c0.07,0.03 0.16,0.01 0.2,0.09 0.04,0.07 0.16,0.05 0.21,0.05 0.49,0.01 0.12,0.05 0.7,-0.08 0.18,-1.19 0,-1.32 -1.17,-1.16l0.06 1.1zm-18 -58.95c0.07,0.03 0.16,0.01 0.21,0.09 0.04,0.08 0.15,0.06 0.21,0.06 0.51,0 0.1,0.06 0.72,-0.09 0.13,-1.11 -0.08,-1.3 -1.16,-1.16l0.02 1.1zm24.01 -35.82c0.6,-3.08 -3.09,0.36 0,0zm-80.01 109.8c3.09,0.54 -0.45,-3.1 0,0zm-23.86 -129.77l-0.09 -1.13c-0.07,-0.03 -0.16,-0.15 -0.2,-0.08l-0.88 0.04c-0.21,1.2 0,1.3 1.17,1.17zm-3.06 -4.16l1.12 0.09 0.01 -1.15 -1.17 -0.07 -0.04 0.94c0.01,0.05 0.05,0.13 0.08,0.19zm3.11 79.98l0.03 -1.1c-1.83,-0.28 -1.77,1.45 -0.03,1.1zm108.85 -49.05l-1.11 -0.04c-0.29,1.8 1.39,1.8 1.11,0.04zm-99.93 -49.9l-1.15 -0.02c-0.18,1.79 1.41,1.71 1.15,0.02zm111.93 23.98l-1.14 -0.05c-0.24,1.77 1.38,1.77 1.14,0.05z"/>
   <path class="fil1" d="M97.87 40.36l2.91 3.8 -0.66 4.99 -12.72 0.05 0.44 -3.36 -6.6 -1.72 -2.86 21.77 6.82 0.02 0.44 -3.34 12.28 3.29 -0.66 5.04 -3.79 2.87 -25.05 -3.3 -2.87 -3.74 3.52 -26.74 3.75 -2.93 25.05 3.3zm114.2 43.07l-0.77 5.85 -15.47 -2.04 2.2 -16.7 -8.85 15.83 -12.56 -1.66 3.64 -27.61 -2.89 -0.38 0.76 -5.8 15.45 2.04 -2.19 16.7 8.84 -15.83 12.56 1.65 -3.63 27.56 2.91 0.39zm57.37 7.55l-0.77 5.85 -15.07 -1.98 -3.01 -15.73 -1.64 -0.21 -1.98 15.06 -12.56 -1.65 1.99 -15.06 -1.64 -0.22 -7.01 14.4 -14.2 -1.86 8.64 -14.2 -2.9 -13.14 -2.55 -0.34 0.76 -5.8 12.96 1.71 1.82 12.09 5 0.66 1.53 -11.65 12.56 1.65 -1.53 11.65 4.99 0.66 4.89 -11.21 12.49 1.65 -9.05 17.47 2.87 9.75 3.41 0.45zm39.03 5.14l-0.77 5.85 -15.04 -1.98 -3.05 -15.67 -1.69 -0.23 -1.98 15.01 -12.5 -1.64 3.63 -27.56 -2.95 -0.39 0.77 -5.85 15.45 2.03 -1.54 11.71 5.05 0.66 4.84 -11.27 12.57 1.66 -9.13 17.48 2.9 9.73 3.44 0.46zm39.42 5.18l-0.77 5.86 -15.48 -2.04 2.2 -16.7 -8.85 15.82 -12.56 -1.65 3.64 -27.61 -2.89 -0.38 0.76 -5.8 15.45 2.03 -2.19 16.71 8.84 -15.83 12.56 1.65 -3.63 27.56 2.92 0.38zm-211.54 -55.88l-1.15 8.75 -5.87 -0.77 0.35 -2.6 -3.32 -0.73 -2.86 21.7 2.92 0.38 -0.77 5.86 -18.38 -2.43 0.77 -5.85 2.96 0.39 2.86 -21.69 -3.39 -0.16 -0.34 2.6 -5.87 -0.77 1.15 -8.75 30.94 4.07zm37.75 8.39l-2.36 17.95 -3.75 2.92 -15.9 -2.09 -0.39 2.95 2.97 0.39 -0.76 5.79 -15.48 -2.03 3.63 -27.56 -2.94 -0.39 0.77 -5.85 31.35 4.13 2.86 3.79zm-12.94 1.69l-6.6 -1.72 -1.7 12.96 6.81 0.08 1.49 -11.32zm-49.88 58.01l-0.77 5.86 -15.48 -2.04 3.53 -26.77 -6.6 -1.72 -3.64 27.61 -12.5 -1.65 3.64 -27.62 -2.95 -0.38 0.77 -5.8 34.65 4.56 -3.63 27.56 2.98 0.39zm39.59 -19.4l-3.52 26.74 -3.79 2.87 -25.05 -3.3 -2.87 -3.74 3.52 -26.74 3.75 -2.93 25.05 3.3 2.91 3.8zm-12.94 1.69l-6.6 -1.72 -2.86 21.75 6.82 0.02 2.64 -20.05zm67.68 14.8l-2.82 2.17 2.16 2.85 -1.65 12.54 -3.75 2.93 -28.4 -3.74 3.63 -27.56 -2.95 -0.39 0.77 -5.85 31.35 4.13 2.87 3.79 -1.21 9.13zm-13.16 3.38l-6.82 -0.05 -1.21 9.21 6.82 0.02 1.21 -9.18zm1.43 -10.88l-6.6 -1.65 -0.77 5.85 6.7 0.88 0.67 -5.08zm47.64 -0.48l2.91 3.81 -0.65 4.99 -12.73 0.05 0.44 -3.37 -6.59 -1.71 -2.87 21.76 6.82 0.02 0.44 -3.33 12.29 3.28 -0.67 5.05 -3.79 2.86 -25.05 -3.29 -2.87 -3.74 3.52 -26.75 3.75 -2.93 25.05 3.3zm36.94 4.86l-1.27 9.61 -5.85 -0.77 0.37 -2.83 -7.37 -1.96 -0.78 5.91 7.92 1.04 -2.44 5.64 -6.36 0.01 -1.21 9.2 7.63 0.02 0.37 -2.83 5.85 0.77 -1.26 9.61 -25.92 -3.42 3.63 -27.55 -2.88 -0.38 0.77 -5.86 28.8 3.79zm48.07 34.43l-0.76 5.79 -15.45 -2.03 1.65 -12.52 -6.64 11.86 -12.57 -1.65 -3.21 -12.51 -1.56 11.88 -6.93 -0.91 3.62 -27.56 -2.88 -0.38 0.77 -5.85 15.45 2.03 5.44 26.21 12.06 -23.91 11.7 1.54 -3.63 27.62 2.94 0.39zm-247.25 10.75l-0.77 5.85 -15.48 -2.04 3.53 -26.77 -6.6 -1.72 -3.63 27.61 -12.51 -1.65 3.64 -27.61 -2.95 -0.39 0.77 -5.8 34.65 4.57 -3.63 27.55 2.98 0.4zm40.21 -19.33l-2.36 17.95 -3.75 2.93 -15.9 -2.1 -0.39 2.95 2.98 0.39 -0.77 5.8 -15.47 -2.04 3.63 -27.56 -2.95 -0.39 0.77 -5.85 31.35 4.13 2.86 3.79zm-12.94 1.69l-6.59 -1.71 -1.71 12.95 6.81 0.08 1.49 -11.32zm159.37 42.2l-0.77 5.86 -15.46 -2.04 -1.96 -23.66 -8.05 22.34 -7.55 -0.99 10.57 -26.7 -1.47 -0.2 0.76 -5.79 17.96 2.36 3.25 28.47 2.72 0.35zm35.96 4.74l-0.77 5.85 -15.46 -2.03 -0.49 -7.63 -7.32 -0.35 -2.26 6.65 -7.49 -0.99 10.51 -26.65 -1.42 -0.18 0.77 -5.86 17.96 2.37 3.25 28.46 2.72 0.36zm-17.14 -9.83l-0.84 -12.08 -3.87 11.4 4.71 0.68zm66.55 16.39l-0.77 5.8 -15.44 -2.04 1.65 -12.52 -6.64 11.87 -12.57 -1.66 -3.21 -12.5 -1.57 11.87 -6.93 -0.91 3.63 -27.56 -2.89 -0.38 0.77 -5.85 15.46 2.03 5.43 26.21 12.06 -23.9 11.71 1.54 -3.64 27.61 2.95 0.39zm-200.09 -26.4l-0.77 5.86 -15.46 -2.04 -0.49 -7.63 -7.31 -0.34 -2.27 6.65 -7.49 -0.99 10.51 -26.65 -1.42 -0.19 0.77 -5.85 17.96 2.36 3.25 28.47 2.72 0.35zm-17.14 -9.83l-0.84 -12.07 -3.87 11.4 4.71 0.67zm55.59 -0.43l-2.82 2.16 2.16 2.86 -1.65 12.53 -3.75 2.93 -28.4 -3.74 3.63 -27.56 -2.95 -0.38 0.77 -5.86 31.35 4.13 2.87 3.8 -1.21 9.13zm-13.16 3.37l-6.82 -0.05 -1.21 9.22 6.82 0.02 1.21 -9.19zm1.43 -10.87l-6.6 -1.66 -0.77 5.85 6.7 0.88 0.67 -5.07zm52.05 28.13l-0.78 5.85 -15.47 -2.03 2.2 -16.71 -8.85 15.83 -12.56 -1.65 3.64 -27.62 -2.89 -0.38 0.76 -5.79 15.45 2.03 -2.19 16.71 8.84 -15.83 12.56 1.65 -3.63 27.56 2.92 0.38z"/>
  </g>
 </g>
</svg>
