<?xml version="1.0" encoding="UTF-8"?>
<!DOCTYPE svg PUBLIC "-//W3C//DTD SVG 1.1//EN" "http://www.w3.org/Graphics/SVG/1.1/DTD/svg11.dtd">
<!-- Creator: CorelDRAW -->
<svg xmlns="http://www.w3.org/2000/svg" xml:space="preserve" width="22px" height="22px" version="1.1" style="shape-rendering:geometricPrecision; text-rendering:geometricPrecision; image-rendering:optimizeQuality; fill-rule:evenodd; clip-rule:evenodd"
viewBox="0 0 22 22"
 xmlns:xlink="http://www.w3.org/1999/xlink"
 xmlns:xodm="http://www.corel.com/coreldraw/odm/2003">
 <defs>
  <style type="text/css">
   <![CDATA[
    .fil0 {fill:#D94220}
    .fil1 {fill:white;fill-rule:nonzero}
   ]]>
  </style>
 </defs>
 <g id="Слой_x0020_1">
  <metadata id="CorelCorpID_0Corel-Layer"/>
  <g id="_1604869071840">
   <circle class="fil0" cx="11" cy="11" r="11"/>
   <path class="fil1" d="M14.385 7.418l0 2.254c0,0.392 -0.097,0.793 -0.283,1.208 -0.189,0.415 -0.425,0.754 -0.71,1.02l-1.013 0.876c-0.156,0.11 -0.249,0.286 -0.282,0.525l-0.056 0.554c-0.027,0.292 -0.186,0.438 -0.478,0.438l-1.119 0c-0.286,0 -0.445,-0.146 -0.475,-0.438l-0.04 -0.495c-0.04,-0.883 0.266,-1.63 0.913,-2.237l1.033 -0.916c0.162,-0.123 0.242,-0.292 0.242,-0.515l0 -2.39c0,-0.203 -0.06,-0.362 -0.179,-0.478 -0.12,-0.117 -0.282,-0.176 -0.482,-0.176l-0.913 0c-0.202,0 -0.365,0.059 -0.488,0.176 -0.123,0.116 -0.185,0.275 -0.185,0.478l0 1.291c0,0.306 -0.153,0.458 -0.465,0.458l-1.352 0c-0.292,0 -0.438,-0.152 -0.438,-0.458l0 -1.175c0,-0.903 0.279,-1.634 0.837,-2.191 0.557,-0.555 1.291,-0.834 2.208,-0.834l0.68 0c0.913,0 1.65,0.279 2.208,0.834 0.558,0.557 0.837,1.288 0.837,2.191zm-4.642 10.338l0 -1.315c0,-0.199 0.06,-0.358 0.183,-0.475 0.12,-0.116 0.279,-0.175 0.481,-0.175l1.195 0c0.213,0 0.379,0.059 0.495,0.175 0.116,0.117 0.176,0.276 0.176,0.475l0 1.315c0,0.455 -0.222,0.681 -0.671,0.681l-1.195 0c-0.202,0 -0.361,-0.06 -0.481,-0.18 -0.123,-0.119 -0.183,-0.288 -0.183,-0.501z"/>
  </g>
 </g>
</svg>
