<?xml version="1.0" encoding="UTF-8"?>
<!DOCTYPE svg PUBLIC "-//W3C//DTD SVG 1.1//EN" "http://www.w3.org/Graphics/SVG/1.1/DTD/svg11.dtd">
<!-- Creator: CorelDRAW -->
<svg xmlns="http://www.w3.org/2000/svg" xml:space="preserve" width="860px" height="480px" version="1.1" style="shape-rendering:geometricPrecision; text-rendering:geometricPrecision; image-rendering:optimizeQuality; fill-rule:evenodd; clip-rule:evenodd"
viewBox="0 0 860 480"
 xmlns:xlink="http://www.w3.org/1999/xlink"
 xmlns:xodm="http://www.corel.com/coreldraw/odm/2003">
 <defs>
  <style type="text/css">
   <![CDATA[
    .fil0 {fill:#37787D}
   ]]>
  </style>
 </defs>
 <g id="Слой_x0020_1">
  <metadata id="CorelCorpID_0Corel-Layer"/>
  <path class="fil0" d="M22.26 398.93l0 -21.49 -22.26 0 0 -22.25 22.26 22.25 14.86 -14.84 24.58 0 15.2 -15.19 0 -7.92 -23.26 -23.24 0 -33.36 16.7 -16.69 0 -36.88 31.11 -31.1 46.41 0 0 -13.21 36.65 -36.62 0 -13.17 12.6 0 21.2 21.19 0 31.84 -18.28 0 -11.03 -11.02 -11.03 11.02 0 20.14 33.09 0 13.48 -13.46 14.03 0 0 13.02 30.29 0 0 14.53 33.28 0 10.37 -10.36 15.24 15.23 0 -22.58 18.91 -18.9 0 61.11 -20.29 20.29 20.08 0 13.14 -13.14 0 -40.23 24.22 0 0 -17.48 22.25 0 60.38 -60.34 18.13 0 20.02 20 -14.73 14.73 80.2 0 59.17 -59.14 33.74 0 31.83 -31.81 0 -19.3 60.59 -60.56 18.21 18.18 0 9.4 -20.24 20.22 22.34 0 13.35 13.34 -13.35 13.34 22.94 22.91 0 29.77 -13.83 0 0 35.35 21.09 0 20.03 20.01 0 21.63 19.57 19.56 0 21.64 -29.81 0 -33.83 -33.8 0 -21.03 -10.21 -10.21 0 -20.18 -21.28 -21.26 0 74.89 -43.72 43.69 0 61.52 38 0 43.11 43.09 0 70.45 -19.16 19.15 0 14.37 -11.27 0 0 -12.48 -13.37 0 0 -18.73 11.65 -11.63 0 -35.07 -13.37 0 -16.21 16.19 -29.73 0 -22.3 -22.27 -50.33 0 0 18.25 11.31 0 0 43.19 -27.64 0 -20.23 20.23 -54.92 0 -17.04 -17.04 -27.64 0 0 29.68 -30.55 0 0 -13.27 -20.62 0 -16.92 16.92 -35.86 0 0 -13.84 -27.23 0 -17.08 -17.07 0 -37.36 -31.31 0 -26.3 -26.29 -44.62 0 0 33.9 -25.6 0 -19.48 -19.49 -27.48 0 0 -20.5 -50.64 0 0 44.21 -19.14 0 -20.29 20.27 0 19.96 -20.36 0 0 -33.12 -31.77 -31.74 0 0zm6.76 -197l12.4 0 0 20.7 -25.02 0 0 -8.09 12.62 -12.61 0 0zm653.79 -185.77l12.33 0 0 18.74 -12.33 0 0 -18.74zm-100.45 109.3l14.18 0 0 12.36 -14.18 0 0 -12.36zm0 -31.05l19.42 0 0 11.64 -19.42 0 0 -11.64zm-11.75 8.39l5.5 5.49 0 10.48 -9.48 9.47 -10.74 -10.73 14.72 -14.71 0 0zm-116.21 14.71l13.59 0 0 11 -13.59 0 0 -11zm-22.95 -3.74l16.16 0 0 15.44 -8.62 0 -7.54 -7.54 0 -7.9zm-4.21 -18.03l9.99 0 7.1 7.09 0 5.78 -17.09 0 0 -12.87 0 0zm-65.1 -9.12l9.13 0 0 9.12 -9.13 0 0 -9.12zm-14.99 -2.58l9.36 0 -9.36 8.66 0 -8.66zm-22.95 -10.53l13.35 0 0 9.59 -13.35 0 0 -9.59zm-5.14 71.12l-33.39 33.37 0 21.63 13.23 0 0 -17.83 21.43 -21.42 24.85 0 11.86 -11.85 0 -10.71 -10.4 0 -6.82 6.81 -20.76 0 0 0zm-62.43 43.05l9.95 0 0 11.52 -9.95 0 0 -11.52zm583.78 155.13l11.47 0 0 14.32 -11.47 0 0 -14.32zm8.36 -25.08l11 0 0 13.62 -11 0 0 -13.62zm-0.48 -26.26l11.71 0 0 11.7 -11.71 0 0 -11.7zm-7.64 -38.2l8.12 0 0 19.34 -8.12 0 0 -19.34zm-29.98 112.87l-63.98 -63.93 5.77 -5.76 12.94 12.93 7.98 0 35.33 35.31 0 7.97 7.72 7.72 -5.76 5.76 0 0z"/>
 </g>
</svg>
