<?xml version="1.0" encoding="UTF-8"?>
<!DOCTYPE svg PUBLIC "-//W3C//DTD SVG 1.1//EN" "http://www.w3.org/Graphics/SVG/1.1/DTD/svg11.dtd">
<!-- Creator: CorelDRAW -->
<svg xmlns="http://www.w3.org/2000/svg" xml:space="preserve" viewBox="0 0 78 100"  style="shape-rendering:geometricPrecision; text-rendering:geometricPrecision; image-rendering:optimizeQuality; fill-rule:evenodd; clip-rule:evenodd"

 xmlns:xlink="http://www.w3.org/1999/xlink"
 xmlns:xodm="http://www.corel.com/coreldraw/odm/2003">
 <defs>
  <style type="text/css">
   <![CDATA[
    .fil0 {fill:#D94220;fill-rule:nonzero}
    .fil1 {fill:white;fill-rule:nonzero}
   ]]>
  </style>
 </defs>
 <g id="Слой_x0020_1">
  <metadata id="CorelCorpID_0Corel-Layer"/>
  <g id="_1604243747600">
   <path class="fil0" d="M78 85.196l-14.901 14.804 -48.198 0 -14.901 -14.804 0 -25.899 18.34 -4.732 2.62 -9.038 -20.96 5.565 0 -51.092 63.099 0 14.901 14.804c0,23.786 0,46.492 0,70.392z"/>
   <polygon class="fil1" points="65.543,40.623 59.873,46.256 65.543,51.931 65.543,80.071 57.941,87.624 20.059,87.624 12.457,80.071 12.457,68.828 26.76,65.137 26.76,78.258 51.37,76.38 51.37,51.931 31.463,53.808 35.285,40.623 51.37,40.623 51.37,21.806 26.76,24.366 26.76,31.193 12.457,34.991 12.457,12.376 57.941,12.376 65.543,19.928 "/>
  </g>
 </g>
</svg>
