<?xml version="1.0" encoding="UTF-8"?>
<!DOCTYPE svg PUBLIC "-//W3C//DTD SVG 1.1//EN" "http://www.w3.org/Graphics/SVG/1.1/DTD/svg11.dtd">
<!-- Creator: CorelDRAW -->
<svg xmlns="http://www.w3.org/2000/svg" xml:space="preserve" viewBox="0 0 91 100" version="1.1" style="shape-rendering:geometricPrecision; text-rendering:geometricPrecision; image-rendering:optimizeQuality; fill-rule:evenodd; clip-rule:evenodd"

 xmlns:xlink="http://www.w3.org/1999/xlink"
 xmlns:xodm="http://www.corel.com/coreldraw/odm/2003">
 <defs>
  <style type="text/css">
   <![CDATA[
    .fil0 {fill:#D94220;fill-rule:nonzero}
    .fil1 {fill:white;fill-rule:nonzero}
   ]]>
  </style>
 </defs>
 <g id="Слой_x0020_1">
  <metadata id="CorelCorpID_0Corel-Layer"/>
  <g id="_1604869056480">
   <path class="fil0" d="M91 78.241l0 21.759 -45.588 0 0 -27.429 -23.674 1.47 -3.943 -3.923c-0.394,-0.392 -1.528,-1.584 -3.391,-3.561l-0.005 0.005 -1.823 -1.706 -0.145 -0.145c-0.76,-0.735 -1.478,-1.448 -2.129,-2.095l-0.048 0 -3.693 -3.674 0 -24.767 -6.561 0 0 -34.175 45.588 0 0 13.182 38.851 0 0 52.686 6.561 0 0 12.373z"/>
   <path class="fil1" d="M78.562 78.241l0 9.386 -20.712 0 0 -28.199 -31.261 1.941c-1.201,-1.194 -2.444,-2.474 -3.688,-3.797l-1.822 -1.706c-0.772,-0.747 -1.458,-1.429 -2.08,-2.048l0 -32.017 -6.561 0 0 -9.428 20.712 0 0 33.873 24.7 0 0 -20.691 14.152 0 0 52.686 6.56 0z"/>
  </g>
 </g>
</svg>
