<?xml version="1.0" encoding="UTF-8"?>
<!DOCTYPE svg PUBLIC "-//W3C//DTD SVG 1.1//EN" "http://www.w3.org/Graphics/SVG/1.1/DTD/svg11.dtd">
<!-- Creator: CorelDRAW -->
<svg xmlns="http://www.w3.org/2000/svg" xml:space="preserve" viewBox="0 0 78 100" version="1.1" style="shape-rendering:geometricPrecision; text-rendering:geometricPrecision; image-rendering:optimizeQuality; fill-rule:evenodd; clip-rule:evenodd"

 xmlns:xlink="http://www.w3.org/1999/xlink"
 xmlns:xodm="http://www.corel.com/coreldraw/odm/2003">
 <defs>
  <style type="text/css">
   <![CDATA[
    .fil0 {fill:#D94220;fill-rule:nonzero}
    .fil1 {fill:white;fill-rule:nonzero}
   ]]>
  </style>
 </defs>
 <g id="Слой_x0020_1">
  <metadata id="CorelCorpID_0Corel-Layer"/>
  <g id="_1603818676288">
   <path class="fil0" d="M78 85.202l-14.901 14.798 -48.198 0 -14.901 -14.798 0 -25.865 6.876 -1.79 -6.876 -6.498 0 -36.172 14.939 -14.877 63.061 0c0,28.87 0,56.152 0,85.202z"/>
   <polygon class="fil1" points="65.543,48.219 65.543,80.08 57.941,87.629 20.059,87.629 12.457,80.08 12.457,68.841 26.631,65.152 26.631,78.267 51.37,76.39 51.37,51.972 20.446,53.337 12.457,45.788 12.457,19.941 20.059,12.371 65.543,12.371 65.543,30.284 51.37,30.284 51.37,24.398 26.631,21.839 26.631,40.649 57.919,40.649 "/>
  </g>
 </g>
</svg>
