<?xml version="1.0" encoding="UTF-8"?>
<!DOCTYPE svg PUBLIC "-//W3C//DTD SVG 1.1//EN" "http://www.w3.org/Graphics/SVG/1.1/DTD/svg11.dtd">
<!-- Creator: CorelDRAW -->
<svg xmlns="http://www.w3.org/2000/svg" xml:space="preserve"  version="1.1" style="shape-rendering:geometricPrecision; text-rendering:geometricPrecision; image-rendering:optimizeQuality; fill-rule:evenodd; clip-rule:evenodd"
viewBox="0 0 242 312.28"
 xmlns:xlink="http://www.w3.org/1999/xlink"
 xmlns:xodm="http://www.corel.com/coreldraw/odm/2003">
 <defs>
  <style type="text/css">
   <![CDATA[
    .fil0 {fill:#D94220;fill-rule:nonzero}
    .fil1 {fill:white;fill-rule:nonzero}
   ]]>
  </style>
 </defs>
 <g id="Слой_x0020_1">
  <metadata id="CorelCorpID_0Corel-Layer"/>
  <g id="_1987443632752">
   <path class="fil0" d="M241.16 266.11l-46.24 46.23 -149.53 0 -46.23 -46.23 0 -219.81 46.23 -46.24 149.53 0 46.24 46.24c0,75.93 0,139.57 0,219.81z"/>
   <path class="fil1" d="M158.53 109.34l0 -35.51 -76.34 -5.66 0 58.75 96.66 0 23.65 23.59 0 99.59 -23.58 23.59 -117.52 0 -23.58 -23.59 0 -187.8 23.58 -23.58 117.52 0 23.58 23.58 0 35.11 -43.97 11.93zm-76.34 58.75l0 76.28 76.34 -5.79 0 -76.35 -76.34 5.86z"/>
  </g>
 </g>
</svg>
