<?xml version="1.0" encoding="UTF-8"?>
<!DOCTYPE svg PUBLIC "-//W3C//DTD SVG 1.1//EN" "http://www.w3.org/Graphics/SVG/1.1/DTD/svg11.dtd">
<!-- Creator: CorelDRAW -->
<svg xmlns="http://www.w3.org/2000/svg" xml:space="preserve" width="242px" height="312px" version="1.1" style="shape-rendering:geometricPrecision; text-rendering:geometricPrecision; image-rendering:optimizeQuality; fill-rule:evenodd; clip-rule:evenodd"
viewBox="0 0 242 312.28"
 xmlns:xlink="http://www.w3.org/1999/xlink"
 xmlns:xodm="http://www.corel.com/coreldraw/odm/2003">
 <defs>
  <style type="text/css">
   <![CDATA[
    .fil0 {fill:#D94220;fill-rule:nonzero}
    .fil1 {fill:white;fill-rule:nonzero}
   ]]>
  </style>
 </defs>
 <g id="Слой_x0020_1">
  <metadata id="CorelCorpID_0Corel-Layer"/>
  <g id="_1987444540176">
   <path class="fil0" d="M241.72 46.98c0,74.32 0,145.14 0,219.82l-46.23 46.23 -149.53 0 -46.24 -46.23c0,-74.61 0,-145.56 0,-219.82l46.24 -46.23 149.53 0 46.23 46.23z"/>
   <path class="fil1" d="M179.48 39.41l23.59 23.58 0 64.62 -17.59 18.12 17.59 17.19 0 87.87 -23.59 23.58 -117.51 0 -23.59 -23.58 0 -87.87 17.79 -17.19 -17.79 -18.12 0 -64.62 23.59 -23.58 117.51 0zm-20.38 35.1l-76.75 -5.66 0 58.76 76.75 0 0 -53.1zm0 88.41l-76.75 5.86 0 76.28 76.75 -5.79 0 -76.35z"/>
  </g>
 </g>
</svg>
