<?xml version="1.0" standalone="no"?>
<!DOCTYPE svg PUBLIC "-//W3C//DTD SVG 20010904//EN"
 "http://www.w3.org/TR/2001/REC-SVG-20010904/DTD/svg10.dtd">
<svg version="1.0" xmlns="http://www.w3.org/2000/svg"
 width="700.000000pt" height="700.000000pt" viewBox="0 0 700.000000 700.000000"
 preserveAspectRatio="xMidYMid meet">
<metadata>
Created by potrace 1.14, written by Peter Selinger 2001-2017
</metadata>
<g transform="translate(0.000000,700.000000) scale(0.100000,-0.100000)"
fill="#000000" stroke="none">
<path d="M2474 6017 l-421 -100 -42 -84 -41 -83 0 -1825 0 -1825 45 -90 c25
-49 45 -95 45 -101 0 -7 -20 -47 -45 -90 l-45 -78 0 -262 0 -262 77 -147 77
-147 390 -92 c215 -51 398 -94 407 -97 11 -3 36 26 82 93 l67 98 0 1723 c0
947 -3 1722 -6 1722 -4 0 -38 -11 -77 -25 -38 -14 -71 -24 -73 -23 -1 2 33 62
77 133 l78 130 -2 705 -2 704 -78 63 c-44 35 -82 63 -85 62 -4 -1 -197 -46
-428 -102z m136 -636 c107 -86 121 -303 28 -442 -70 -104 -179 -133 -261 -69
-42 33 -79 121 -85 201 -17 239 174 426 318 310z m-25 -1673 c79 -53 120 -156
113 -283 -8 -147 -82 -253 -186 -263 -209 -20 -304 355 -133 522 21 20 51 41
67 46 40 13 103 3 139 -22z m-37 -1667 c89 -46 144 -148 150 -281 6 -126 -30
-211 -109 -259 -100 -61 -231 21 -279 175 -72 234 70 451 238 365z"/>
<path d="M3211 6073 l-41 -48 0 -717 0 -718 98 -1 c53 -1 128 -4 166 -8 l69
-6 -167 -79 -166 -79 0 -501 0 -501 45 -124 45 -125 -45 -142 -45 -142 0 -999
0 -999 68 -67 c37 -37 74 -67 82 -67 8 0 197 53 420 118 l405 117 15 70 c12
50 20 69 31 67 8 -2 42 -21 77 -43 l63 -40 198 57 198 57 152 204 151 204 0
862 0 862 -220 220 c-121 121 -220 224 -220 230 0 6 99 109 220 230 l220 220
0 665 -1 665 -80 74 -80 74 -427 123 -427 123 -70 -18 -70 -18 -65 57 -65 57
-232 66 c-128 37 -239 67 -247 67 -8 0 -33 -21 -55 -47z"/>
</g>
</svg>
