<?xml version="1.0" standalone="no"?>
<!DOCTYPE svg PUBLIC "-//W3C//DTD SVG 20010904//EN"
 "http://www.w3.org/TR/2001/REC-SVG-20010904/DTD/svg10.dtd">
<svg version="1.0" xmlns="http://www.w3.org/2000/svg"
 width="65px" height="65px" viewBox="0 0 96.000000 96.000000"
 preserveAspectRatio="xMidYMid meet">

<g transform="translate(0.000000,96.000000) scale(0.100000,-0.100000)"
fill="#2e5d66" stroke="none">
<path d="M368 950 c-71 -21 -100 -63 -110 -159 -4 -42 -10 -92 -14 -113 -5
-29 -2 -40 15 -57 12 -12 31 -21 44 -21 29 0 57 -54 57 -110 0 -31 -4 -40 -22
-46 -13 -3 -74 -29 -135 -57 -138 -61 -153 -79 -153 -186 0 -54 4 -73 15 -77
11 -5 15 -21 15 -60 0 -30 5 -54 10 -54 6 0 10 25 10 55 l0 55 50 0 50 0 0
-55 c0 -30 5 -55 10 -55 6 0 10 67 10 180 l0 181 33 14 32 13 3 -66 c5 -102 5
-102 192 -102 187 0 187 0 192 102 l3 66 33 -13 32 -14 0 -181 c0 -113 4 -180
10 -180 6 0 10 25 10 55 l0 55 50 0 50 0 0 -55 c0 -30 5 -55 10 -55 6 0 10 24
10 54 0 39 4 55 15 60 23 8 21 138 -2 179 -17 29 -103 76 -245 133 -45 18 -48
21 -48 56 0 54 28 108 57 108 13 0 32 9 44 21 17 17 20 28 14 57 -4 21 -9 69
-12 109 -4 60 -9 76 -30 97 -14 14 -29 26 -34 26 -4 0 -19 11 -33 25 -23 23
-32 25 -118 24 -51 0 -105 -4 -120 -9z m232 -40 c6 -11 16 -20 22 -20 7 0 22
-10 35 -22 19 -18 23 -32 23 -80 0 -51 -2 -58 -20 -58 -15 0 -20 7 -20 28 -1
23 -9 31 -51 50 l-49 24 -44 -22 c-25 -11 -73 -24 -108 -28 -55 -6 -63 -10
-66 -29 -2 -15 -10 -23 -24 -23 -19 0 -20 5 -16 66 4 62 7 69 41 100 l37 34
115 0 c104 0 115 -2 125 -20z m-17 -125 l37 -19 0 -74 c0 -119 -49 -182 -140
-182 -89 0 -140 64 -140 174 0 60 2 66 23 70 106 20 137 29 153 41 11 8 21 13
24 12 3 -1 22 -11 43 -22z m-263 -115 c0 -36 -2 -40 -25 -40 -22 0 -25 4 -25
40 0 36 3 40 25 40 23 0 25 -4 25 -40z m370 0 c0 -36 -2 -40 -25 -40 -22 0
-25 4 -25 40 0 36 3 40 25 40 23 0 25 -4 25 -40z m-165 -178 l45 15 0 -28 c0
-20 -11 -37 -42 -63 -23 -20 -44 -36 -48 -36 -4 0 -25 16 -48 36 -31 26 -42
43 -42 63 l0 28 45 -15 c40 -13 50 -13 90 0z m-102 -96 l37 -33 -26 -18 c-26
-17 -26 -17 -70 26 -38 37 -42 45 -27 51 32 12 47 8 86 -26z m204 26 c9 -6 0
-21 -31 -51 -44 -43 -44 -43 -70 -26 l-26 18 37 33 c38 33 66 41 90 26z m-189
-101 l32 21 0 -31 c0 -17 5 -31 10 -31 6 0 10 14 10 31 l0 31 33 -21 32 -20
48 47 47 46 0 -60 c0 -33 -5 -65 -12 -72 -17 -17 -299 -17 -316 0 -7 7 -12 39
-12 72 l0 60 48 -46 47 -47 33 20z m-238 -66 l0 -105 -66 0 -66 0 4 64 c3 46
10 71 23 86 19 21 81 59 98 60 4 0 7 -47 7 -105z m608 86 c61 -31 76 -54 80
-127 l4 -64 -66 0 -66 0 0 105 c0 58 2 105 5 105 3 0 22 -9 43 -19z"/>
<path d="M410 192 c0 -5 11 -19 25 -32 19 -18 22 -26 14 -37 -6 -7 -15 -10
-20 -7 -17 10 -49 -17 -49 -41 0 -55 76 -52 82 2 4 37 32 37 36 0 6 -54 82
-57 82 -2 0 24 -32 51 -49 41 -5 -3 -14 0 -20 7 -8 11 -5 19 14 37 14 13 25
27 25 32 0 15 -23 8 -47 -14 l-23 -21 -23 21 c-24 22 -47 29 -47 14z m30 -117
c0 -8 -9 -15 -20 -15 -11 0 -20 7 -20 15 0 8 9 15 20 15 11 0 20 -7 20 -15z
m120 0 c0 -8 -9 -15 -20 -15 -11 0 -20 7 -20 15 0 8 9 15 20 15 11 0 20 -7 20
-15z"/>
</g>
</svg>
