<svg width="30" height="30" viewBox="0 0 30 30" fill="none" xmlns="http://www.w3.org/2000/svg">
<path fill-rule="evenodd" clip-rule="evenodd" d="M11.8359 10.7812C11.8359 10.5898 12.2127 10.3135 12.3667 10.2573C12.8647 10.0754 15.6456 10.0534 16.2151 10.3279C16.5517 10.4901 16.6384 10.8889 16.643 11.3648C16.6527 12.3564 16.582 13.1675 16.582 14.1797C16.582 14.9853 16.8449 15.8285 17.6029 14.849C17.9353 14.4194 18.124 14.2609 18.4816 13.7355C19.1382 12.7711 19.3781 12.0736 19.8229 11.0924C19.9339 10.8475 20.0602 10.6054 20.3906 10.6054H23.7305C25.2154 10.6054 23.5308 12.8445 23.1784 13.3346C22.7951 13.8677 21.3281 15.5709 21.3281 16.2305C21.3281 16.4807 21.4554 16.5621 21.6297 16.7492C21.6379 16.758 21.6491 16.7713 21.6574 16.7801L23.052 18.1979C23.325 18.5513 23.9134 19.064 24.2564 19.7478C24.5782 20.389 24.1701 20.8593 23.4375 20.8593H20.9179C19.1656 20.8593 18.0968 18.0771 17.2169 18.383C17.0476 18.4419 16.9616 18.5449 16.8991 18.7155C16.5182 19.7558 16.8863 20.8007 15.8203 20.8007C13.8993 20.8007 12.8921 20.7449 11.226 19.5942C9.70556 18.5441 8.03035 16.0365 7.12799 14.2587C6.9221 13.853 5.62495 11.2811 5.62495 11.0156C5.62495 10.8754 5.7057 10.6985 5.82703 10.6317C6.13641 10.4615 7.8153 10.5846 8.03037 10.6024C9.26362 10.7044 9.31626 10.2297 9.969 11.8278C10.2336 12.4757 10.6898 13.2849 11.0857 13.8751C11.5824 14.6155 12.5497 16.2293 12.8659 14.6237C12.995 13.9681 13.0286 11.9382 12.7574 11.4417C12.4191 10.8223 11.8359 11.1236 11.8359 10.7812L11.8359 10.7812ZM14.3527 0H15.7089C16.7118 0.0452293 17.7189 0.191254 18.7157 0.444423C19.5484 0.655927 20.6516 1.03475 21.3869 1.40603L23.156 2.39089C23.9561 2.89125 24.9736 3.73338 25.6201 4.37988C26.8864 5.64613 27.8298 7.01826 28.614 8.65159C29.6807 10.8732 30 12.8219 30 15.5274C30 17.3558 29.3891 19.7747 28.5946 21.3876C26.9531 24.7201 24.6045 27.0507 21.3484 28.614C19.1382 29.6753 17.1648 30 14.4727 30C10.8368 30 6.95787 28.1981 4.37988 25.6201C3.1153 24.3555 2.16925 22.9798 1.38596 21.3484C0.325962 19.1407 0 17.162 0 14.4727C0 11.7371 1.17948 8.44066 2.74477 6.31898C3.25673 5.62507 3.77368 4.98593 4.37988 4.37988C7.03326 1.72718 10.616 0.169247 14.3527 0V0Z" fill="white"/>
</svg>
